<svg id="Capa_1" enable-background="new 0 0 512 512" height="512" viewBox="0 0 512 512" width="512" xmlns="http://www.w3.org/2000/svg"><g id="XMLID_1671_"><g id="XMLID_1681_"><g id="XMLID_1714_" fill="#6d92ac"><path id="XMLID_2434_" d="m143.153 250.049-68.727 18.415c-16.272 4.36-32.997-5.296-37.357-21.568s5.296-32.997 21.568-37.357l170.792-45.764z"/><path id="XMLID_2433_" d="m165.934 363.037-98.7 98.7c-9.373 9.373-24.569 9.373-33.941 0-9.373-9.373-9.373-24.569 0-33.941l98.7-98.7 17.678-17.678-98.7 98.7c-9.373 9.373-24.569 9.373-33.941 0-9.373-9.373-9.373-24.569 0-33.941l295.393-295.394c9.861-9.861 25.848-9.861 35.709 0l100.056 100.056c9.861 9.861 9.861 25.848 0 35.709l-260.982 260.981c-9.373 9.373-24.569 9.373-33.941 0-9.373-9.373-9.373-24.569 0-33.941l64.287-64.287-98.7 98.7c-9.373 9.373-24.569 9.373-33.941 0-9.373-9.373-9.373-24.569 0-33.941l98.7-98.7z"/></g><g fill="#8aa8bd"><path id="XMLID_1713_" d="m310 359.379-88.409-153.128c-8.423-14.589-3.424-33.243 11.164-41.666 14.589-8.423 33.243-3.424 41.666 11.164l35.576 61.619z"/><path id="XMLID_1712_" d="m406 173.583v-139.583c0-13.255-10.745-24-24-24s-24 10.745-24 24v139.583 25-139.583c0-13.255-10.745-24-24-24s-24 10.745-24 24v417.75c0 13.945 11.305 25.25 25.25 25.25h141.5c13.945 0 25.25-11.305 25.25-25.25v-369.083c0-13.255-10.745-24-24-24s-24 10.745-24 24v90.916-139.583c0-13.255-10.745-24-24-24s-24 10.745-24 24v139.583z"/></g></g><g id="XMLID_437_"><path id="XMLID_440_" d="m478 73.667c-4.99 0-9.727 1.089-14 3.029v-17.696c0-18.748-15.252-34-34-34-5.183 0-10.096 1.17-14.496 3.253-2.74-16.019-16.715-28.253-33.504-28.253s-30.764 12.234-33.504 28.253c-4.4-2.083-9.313-3.253-14.496-3.253-18.748 0-34 15.252-34 34v20.064l-75.747 75.747-168.204 45.07c-21.571 5.781-34.418 28.033-28.639 49.604 4.843 18.075 21.25 30.023 39.131 30.023 3.459 0 6.976-.448 10.473-1.385l32.683-8.757-99.739 99.739c-6.421 6.422-9.958 14.96-9.958 24.042s3.537 17.62 9.958 24.042c3.663 3.663 7.963 6.309 12.545 7.948-4.049 5.701-6.24 12.495-6.24 19.629 0 9.082 3.537 17.62 9.958 24.042 6.422 6.421 14.96 9.958 24.042 9.958 7.126 0 13.912-2.186 19.609-6.226 1.671 4.658 4.365 8.928 7.969 12.531 6.422 6.421 14.96 9.958 24.042 9.958s17.62-3.537 24.042-9.958l12.512-12.512c1.65 4.393 4.23 8.512 7.758 12.041 6.422 6.421 14.96 9.958 24.042 9.958s17.62-3.537 24.042-9.958l105.721-105.724v97.874c0 19.437 15.813 35.25 35.25 35.25h141.5c19.437 0 35.25-15.813 35.25-35.25v-107.542c0-5.523-4.478-10-10-10s-10 4.477-10 10v107.542c0 8.409-6.841 15.25-15.25 15.25h-141.5c-8.409 0-15.25-6.841-15.25-15.25v-417.75c0-7.72 6.28-14 14-14s14 6.28 14 14v139.583c0 5.523 4.478 10 10 10s10-4.477 10-10v-164.583c0-7.72 6.28-14 14-14s14 6.28 14 14v164.583c0 5.523 4.478 10 10 10s10-4.477 10-10v-139.583c0-7.72 6.28-14 14-14s14 6.28 14 14v139.583c0 5.523 4.478 10 10 10s10-4.477 10-10v-90.916c0-7.72 6.28-14 14-14s14 6.28 14 14v171.542c0 5.523 4.478 10 10 10s10-4.477 10-10v-171.542c0-18.748-15.252-34-34-34zm-240.244 99.578c4.743-2.737 10.268-3.465 15.557-2.048 5.29 1.417 9.71 4.81 12.449 9.552l34.238 59.304v82.006l-69.749-120.808c-5.651-9.79-2.285-22.354 7.505-28.006zm45.326-2.495c-5.409-9.369-14.143-16.071-24.593-18.871-.814-.218-1.632-.401-2.451-.568l43.962-43.962v92.704zm-211.244 88.056c-10.921 2.926-22.184-3.578-25.11-14.497s3.578-22.183 14.497-25.109l134.743-36.104-57.987 57.987zm108.297 211.652c-5.458 5.459-14.341 5.458-19.799 0-2.645-2.644-4.101-6.16-4.101-9.899 0-3.737 1.455-7.251 4.096-9.894l64.292-64.292c3.905-3.905 3.905-10.237 0-14.143s-10.237-3.905-14.143 0l-98.7 98.7c-5.458 5.459-14.341 5.459-19.799 0-5.459-5.458-5.459-14.34 0-19.798l98.7-98.701c3.905-3.905 3.905-10.237 0-14.142s-10.237-3.905-14.143 0l-116.375 116.376c-5.458 5.459-14.341 5.458-19.798 0-5.459-5.458-5.459-14.34 0-19.798l116.377-116.378c3.905-3.905 3.905-10.237 0-14.142s-10.237-3.905-14.143 0l-98.704 98.705c-2.644 2.641-6.157 4.096-9.895 4.096-3.74 0-7.255-1.456-9.899-4.101-2.645-2.644-4.101-6.16-4.101-9.899s1.456-7.255 4.101-9.899l184.217-184.219c.844 4.191 2.36 8.318 4.613 12.221l82.872 143.538z"/><path id="XMLID_949_" d="m502 314.21c-2.63 0-5.21 1.07-7.07 2.93s-2.93 4.44-2.93 7.07 1.069 5.21 2.93 7.07 4.44 2.93 7.07 2.93 5.21-1.07 7.069-2.93c1.86-1.86 2.931-4.44 2.931-7.07s-1.07-5.21-2.931-7.07c-1.859-1.86-4.439-2.93-7.069-2.93z"/></g></g></svg>