<svg id="Capa_1" enable-background="new 0 0 512 512" height="512" viewBox="0 0 512 512" width="512" xmlns="http://www.w3.org/2000/svg"><g id="XMLID_1028_"><path id="XMLID_76_" d="m442.271 194.305h-372.542c-26.101 0-45.51 24.14-39.904 49.632l49.692 225.98c4.12 18.736 20.72 32.083 39.904 32.083h273.158c19.184 0 35.784-13.347 39.904-32.083l49.692-225.98c5.605-25.492-13.803-49.632-39.904-49.632z" fill="#ff7d97"/><g id="XMLID_1179_"><path id="XMLID_59_" d="m370.986 258.42c-12.15 0-22-9.85-22-22v-89.434c0-51.273-41.714-92.986-92.986-92.986s-92.986 41.713-92.986 92.986v89.434c0 12.15-9.85 22-22 22s-22-9.85-22-22v-89.434c0-75.535 61.452-136.986 136.986-136.986s136.986 61.452 136.986 136.986v89.434c0 12.151-9.849 22-22 22z" fill="#8aa8bd"/></g><path id="XMLID_1189_" d="m216.702 257.372 39.425 26.284-39.425 26.284c-5.375 3.583-12.575-.27-12.575-6.73v-39.108c0-6.46 7.2-10.313 12.575-6.73z" fill="#fff"/><path id="XMLID_1188_" d="m295.552 257.372-39.425 26.284 39.425 26.284c5.375 3.583 12.575-.27 12.575-6.73v-39.108c0-6.46-7.2-10.313-12.575-6.73z" fill="#fff"/><g id="XMLID_191_"><path id="XMLID_293_" d="m481.906 203.296c-9.703-12.069-24.15-18.991-39.636-18.991h-39.284v-37.319c0-81.048-65.937-146.986-146.986-146.986s-146.986 65.938-146.986 146.986v37.319h-39.285c-15.485 0-29.933 6.922-39.636 18.991-9.703 12.068-13.361 27.665-10.035 42.789l49.692 225.979c5.088 23.141 25.978 39.936 49.671 39.936h273.158c23.693 0 44.583-16.795 49.67-39.935l49.692-225.98c3.327-15.125-.332-30.721-10.035-42.789zm-352.892-56.31c0-70.02 56.965-126.986 126.986-126.986s126.986 56.966 126.986 126.986v89.434c0 6.617-5.383 12-12 12s-12-5.383-12-12v-89.434c0-56.786-46.199-102.986-102.986-102.986s-102.986 46.2-102.986 102.986v89.434c0 6.617-5.383 12-12 12s-12-5.383-12-12zm343.394 94.804-49.692 225.98c-3.087 14.04-15.761 24.23-30.137 24.23h-273.158c-14.376 0-27.05-10.19-30.137-24.23l-49.692-225.98c-2.018-9.177.201-18.64 6.089-25.962s14.653-11.522 24.049-11.522h39.284v32.115c0 17.645 14.355 32 32 32s32-14.355 32-32v-32.115h36.756c5.522 0 10-4.477 10-10s-4.478-10-10-10h-36.756v-37.319c0-45.759 37.227-82.987 82.986-82.987s82.986 37.228 82.986 82.986v37.319h-39.216c-5.522 0-10 4.477-10 10s4.478 10 10 10h39.217v32.115c0 17.645 14.355 32 32 32s32-14.355 32-32v-32.115h39.284c9.396 0 18.161 4.2 24.049 11.522s8.106 16.786 6.088 25.963z"/><path id="XMLID_1224_" d="m308.574 248.154c-5.894-3.155-13.008-2.81-18.568.897l-33.879 22.586-33.879-22.586c-5.561-3.706-12.675-4.05-18.568-.897-5.893 3.154-9.553 9.265-9.553 15.948v39.107c0 6.684 3.66 12.794 9.554 15.948 2.68 1.435 5.612 2.145 8.536 2.145 3.506 0 7-1.022 10.031-3.043l33.879-22.586 33.879 22.586c3.031 2.021 6.525 3.043 10.031 3.043 2.924 0 5.856-.711 8.536-2.145 5.894-3.154 9.554-9.265 9.554-15.948v-39.107c0-6.683-3.66-12.794-9.553-15.948zm-94.447 51.483v-31.963l23.973 15.981zm84 0-23.973-15.981 23.973-15.981z"/><path id="XMLID_1226_" d="m254.77 204.31c2.63 0 5.21-1.07 7.07-2.93 1.86-1.87 2.93-4.44 2.93-7.08 0-2.63-1.069-5.2-2.93-7.06-1.86-1.87-4.44-2.94-7.07-2.94s-5.21 1.07-7.069 2.94c-1.86 1.86-2.931 4.43-2.931 7.06 0 2.64 1.07 5.21 2.931 7.08 1.859 1.86 4.439 2.93 7.069 2.93z"/></g></g></svg>