<svg id="Capa_1" enable-background="new 0 0 512.001 512.001" height="512" viewBox="0 0 512.001 512.001" width="512" xmlns="http://www.w3.org/2000/svg"><g id="XMLID_673_"><g id="XMLID_1614_"><path id="XMLID_5_" d="m502.001 249.213c-27.201 37.571-78.383 47.47-117.399 23.956 25.494-14.863 48.38-35.15 66.798-60.59l7.934 36.631z" fill="#fff"/></g><g id="XMLID_674_"><path id="XMLID_1164_" d="m256.001 98.785c-70.14 0-127 56.86-127 127v50.048h254v-50.048c0-70.14-56.86-127-127-127z" fill="#ff5d7d"/></g><g id="XMLID_2275_"><path id="XMLID_1163_" d="m10.001 340.072c34.463 62.355 109.873 89.415 176.118 63.197l18.901-7.48c16.056-6.354 34.561-12.68 51.108-17.968l-35.451-12.421c-54.255-21.072-114.118-30.458-173.98-27.278z" fill="#ff5d7d"/></g><g id="XMLID_2274_"><path id="XMLID_296_" d="m383.001 275.843 119 64.229c-34.463 62.355-109.873 89.415-176.118 63.197l-45.974-18.195c-75.114-29.728-155.169-44.996-235.952-45l-33.955-.002 119-64.229z" fill="#ff9eb1"/></g><g id="XMLID_2115_"><path d="m129.001 228.756h254v47.14h-254z" fill="#fff"/></g><g id="XMLID_303_"><path id="XMLID_1165_" d="m511.596 337.256c-.752-2.561-2.497-4.716-4.846-5.983l-66.577-35.934c3.182-.324 6.362-.8 9.528-1.436 24.366-4.894 45.816-18.682 60.4-38.825 2.203-3.043 2.515-7.065.806-10.412-1.708-3.346-5.148-5.453-8.906-5.453l-34.601-.002-6.226-28.749c-.835-3.856-3.86-6.861-7.721-7.67-3.863-.81-7.838.727-10.152 3.923-14.024 19.371-30.901 35.893-50.3 49.278v-30.207c0-75.542-61.458-137-137-137s-137 61.458-137 137v44.092l-113.75 61.394c-4.03 2.175-6.067 6.809-4.946 11.249.215.849.535 1.649.944 2.388 17.844 32.286 46.793 56.929 81.515 69.388 16.581 5.95 33.906 8.917 51.226 8.917 18.949 0 37.889-3.556 55.809-10.648l18.901-7.48c17.12-6.775 36.287-13.195 49.642-17.474 5.985 2.164 11.949 4.411 17.886 6.76l45.975 18.195c17.923 7.093 36.858 10.648 55.809 10.648 17.317 0 34.646-2.969 51.226-8.917 34.722-12.459 63.671-37.102 81.515-69.389 1.291-2.336 1.595-5.092.843-7.653zm-65.51-101.975 3.475 16.046c.997 4.6 5.066 7.883 9.773 7.883l19.196.001c-20.614 15.937-48.311 20.797-73.181 12.563 15.018-10.477 28.638-22.68 40.737-36.493zm-190.085-126.496c62.154 0 113.135 48.717 116.783 109.971h-233.566c3.648-61.253 54.629-109.971 116.783-109.971zm-54.661 277.705-18.901 7.48c-55.84 22.099-119.114 3.194-154.126-43.898l15.643.001c62.31.004 123.575 9.078 182.765 27.025-8.351 2.919-17.085 6.11-25.381 9.392zm128.222 7.481-45.974-18.195c-74.883-29.636-153.599-44.995-234.054-45.678l82.01-44.264h79.457c5.523 0 10-4.477 10-10s-4.477-10-10-10h-72v-27.078h234v27.078h-72c-5.523 0-10 4.477-10 10s4.477 10 10 10h79.457l107.564 58.058c-33.923 51.586-100.235 73.122-158.46 50.079z"/><path id="XMLID_1259_" d="m256.001 265.839c-2.63 0-5.21 1.06-7.07 2.92-1.86 1.87-2.93 4.44-2.93 7.08 0 2.63 1.07 5.2 2.93 7.07 1.86 1.86 4.44 2.93 7.07 2.93s5.21-1.07 7.07-2.93c1.86-1.87 2.93-4.44 2.93-7.07 0-2.64-1.07-5.21-2.93-7.08-1.86-1.861-4.44-2.92-7.07-2.92z"/></g></g></svg>