<svg id="Capa_1" enable-background="new 0 0 512 512" height="512" viewBox="0 0 512 512" width="512" xmlns="http://www.w3.org/2000/svg"><g id="XMLID_988_"><path id="XMLID_86_" d="m393.951 79.75c20.92 10.861 34.049 32.47 34.049 56.041v248.209h-57v-200z" fill="#ddb9a3"/><path id="XMLID_89_" d="m118.049 79.75c-20.92 10.861-34.049 32.47-34.049 56.041v248.209h57v-200z" fill="#ddb9a3"/><path id="XMLID_82_" d="m161.621 57.129-43.572 22.621 22.951 100.25v322h97.5 132.5v-322l22.951-100.25-43.572-22.621z" fill="#c68a65"/><path id="XMLID_83_" d="m303.92 10 49.747 42-45.311 70.69 17.334 17.333-83.357 78.977z" fill="#ddb9a3"/><path id="XMLID_85_" d="m208.08 10-49.747 42 45.31 70.69-17.333 17.333 57.577 54.552c7.09 6.718 18.502-.271 15.742-9.64z" fill="#ddb9a3"/><g fill="#c68a65"><path id="XMLID_81_" d="m303.92 10-47.92 139.5-47.92-139.5z"/><path id="XMLID_322_" d="m371.968 304h56.032v40h-56.032z"/><path id="XMLID_84_" d="m84 304h56.032v40h-56.032z" transform="matrix(-1 0 0 -1 224.032 648)"/></g><g id="XMLID_412_"><path id="XMLID_671_" d="m279 255.5c-2.63 0-5.21 1.07-7.07 2.93s-2.93 4.44-2.93 7.07 1.07 5.21 2.93 7.07 4.44 2.93 7.07 2.93 5.21-1.07 7.07-2.93 2.93-4.44 2.93-7.07-1.07-5.21-2.93-7.07-4.44-2.93-7.07-2.93z"/><path id="XMLID_672_" d="m279 311c-2.63 0-5.21 1.07-7.07 2.93s-2.93 4.44-2.93 7.07 1.07 5.21 2.93 7.07 4.44 2.93 7.07 2.93 5.21-1.07 7.07-2.93 2.93-4.44 2.93-7.07-1.07-5.21-2.93-7.07-4.44-2.93-7.07-2.93z"/><path id="XMLID_1374_" d="m305.12 492c-2.63 0-5.21 1.07-7.07 2.93s-2.93 4.44-2.93 7.07 1.07 5.21 2.93 7.07 4.44 2.93 7.07 2.93 5.21-1.07 7.07-2.93 2.93-4.44 2.93-7.07-1.07-5.21-2.93-7.07-4.44-2.93-7.07-2.93z"/></g><path id="XMLID_377_" d="m398.559 70.875c-.001-.001-.003-.001-.004-.002l-34.925-18.131c.229-3.106-.988-6.251-3.512-8.383l-49.747-42c-1.805-1.523-4.09-2.359-6.451-2.359h-95.84c-2.361 0-4.646.836-6.451 2.359l-49.747 42c-2.524 2.131-3.741 5.277-3.512 8.383l-34.925 18.132c-.001.001-.003.001-.004.002-24.328 12.629-39.441 37.503-39.441 64.915v248.209c0 5.523 4.477 10 10 10h47v108c0 5.523 4.477 10 10 10h119.12c5.523 0 10-4.477 10-10s-4.477-10-10-10h-11.62v-265.129c.244-.192 84.067-79.588 84.067-79.588 1.959-1.856 3.085-4.426 3.121-7.125.037-2.699-1.02-5.297-2.928-7.206l-11.642-11.642 32.754-51.1 28.604 14.85-21.224 92.708c-.168.732-.252 1.481-.252 2.232v174h-34c-5.523 0-10 4.477-10 10s4.477 10 10 10h34v118h-10.88c-5.523 0-10 4.477-10 10s4.477 10 10 10h20.88c5.523 0 10-4.477 10-10v-108h47c5.523 0 10-4.477 10-10v-248.209c0-27.412-15.113-52.286-39.441-64.916zm-108.648-50.875-9.618 28h-48.586l-9.618-28zm-195.911 294h36.032v20h-36.032zm37 60h-37v-20h37zm0-80h-37v-158.209c0-15.334 6.514-29.57 17.577-39.5l19.423 84.839zm20 198v-118h34c5.523 0 10-4.477 10-10s-4.477-10-10-10h-34v-174c0-.751-.084-1.5-.252-2.231l-21.225-92.708 28.604-14.85 32.754 51.1-11.642 11.642c-3.867 3.868-3.91 10.125-.096 14.044l49.357 50.732v294.271zm77.503-294.269.002.002s-.001.944-.002-.002zm7.544-20.926-35.691-36.685 10.359-10.358c3.323-3.323 3.884-8.511 1.348-12.468l-40.579-63.309 31.885-26.92 42.057 122.435zm2.53-108.805h34.845l-17.422 50.719zm61.361 49.293c-2.536 3.957-1.975 9.145 1.348 12.468l10.069 10.068-61.463 58.234 58.74-170.998 31.885 26.92zm118.062 256.707h-37v-20h37zm0-40h-36.032v-20h36.032zm0-40h-37v-112.87l19.423-84.84c11.063 9.93 17.577 24.167 17.577 39.5z"/></g></svg>