<svg id="Capa_1" enable-background="new 0 0 513.462 513.462" height="512" viewBox="0 0 513.462 513.462" width="512" xmlns="http://www.w3.org/2000/svg"><g><g><g><path d="m485.592 33.745c60.025 61.587-25.126 178.841-150.087 303.163s-242.413 208.632-302.437 147.046c-33.756-34.634-31.88-97.454-1.549-167.916 4.374-10.162 19.452-16.169 24.989-26.587s1.531-25.246 8.186-35.797c14.597-23.141 31.834-46.453 51.483-69.287 10.776-12.523 28.67-9.224 40.861-21.352 5.749-5.72 5.16-26.963 11.004-32.368 21.735-20.102 44.047-38.001 66.36-53.501 12.335-8.569 28.182-4.231 40.421-11.3 8.826-5.098 14.091-21.972 22.78-26.261 78.974-38.983 150.771-44.027 187.989-5.84z" fill="#d1a08f"/><path d="m485.592 33.745c-10.132-10.396-22.834-17.575-37.538-21.75 2.643 2.083 5.168 4.319 7.538 6.75 60.025 61.586-25.126 178.841-150.087 303.163-104.28 103.746-203.321 179.606-268.133 166.092 61.215 53.559 176.087-29.67 298.134-151.092 124.96-124.322 210.111-241.576 150.086-303.163z" fill="#c68d7a"/><path d="m326.686 70.443c-12.533-9.146-21.958-19.924-29.078-30.848-20.739 10.237-41.971 22.806-63.204 37.555 23.772 31.437 56.234 48.451 86.368 45.369 20.394-2.086 36.517-13.039 47.463-23.175 3.487-3.229 2.146-9.113-2.421-10.33-11.3-3.013-25.27-8.458-39.128-18.571z" fill="#fddeb0"/><path d="m365.814 89.014c-5.071-1.352-10.682-3.2-16.577-5.733-8.226 4.587-17.749 8.142-28.465 9.238-23.462 2.4-48.333-7.386-69.417-26.672-5.645 3.616-11.298 7.376-16.951 11.304 23.772 31.437 56.234 48.451 86.368 45.369 20.394-2.086 36.517-13.039 47.463-23.175 3.487-3.23 2.147-9.114-2.421-10.331z" fill="#fdd79b"/><path d="m241.156 194.368c3.487-3.229 2.146-9.113-2.421-10.33-11.3-3.013-25.27-8.458-39.129-18.571-14.051-10.253-24.2-22.556-31.563-34.818-5.845 5.405-11.648 10.967-17.398 16.688-11.926 11.865-23.188 23.971-33.761 36.217 22.51 24.087 50.543 36.675 76.809 33.989 20.394-2.086 36.517-13.039 47.463-23.175z" fill="#fddeb0"/><path d="m238.735 184.038c-5.071-1.352-10.682-3.2-16.576-5.733-8.226 4.587-17.75 8.142-28.465 9.238-20.79 2.126-42.685-5.324-62.073-20.465-5.048 5.458-9.966 10.952-14.735 16.476 22.51 24.087 50.543 36.675 76.809 33.989 20.394-2.086 36.517-13.039 47.463-23.175 3.485-3.228 2.144-9.112-2.423-10.33z" fill="#fdd79b"/><path d="m129.746 305.514c3.487-3.229 2.146-9.113-2.421-10.33-11.3-3.013-25.27-8.458-39.129-18.571-9.495-6.929-17.21-14.797-23.492-22.953-13.309 21.099-24.436 42.056-33.184 62.378 16.369 9.824 33.931 14.373 50.763 12.651 20.394-2.086 36.517-13.039 47.463-23.175z" fill="#fddeb0"/><path d="m127.325 295.183c-5.071-1.352-10.682-3.199-16.577-5.733-8.226 4.587-17.749 8.142-28.465 9.238-12.993 1.329-26.419-1.093-39.397-6.778-4.141 8.119-7.942 16.173-11.366 24.127 16.369 9.824 33.931 14.373 50.763 12.651 20.394-2.085 36.517-13.039 47.463-23.175 3.487-3.228 2.146-9.112-2.421-10.33z" fill="#fdd79b"/></g></g><path d="m490.964 28.511c-49.14-50.417-140.028-25.286-205.31 8.727-50.681 26.406-98.93 63.626-140.298 104.782-61.224 60.912-107.375 130.049-129.949 194.677-23.195 66.405-18.83 120.562 12.29 152.491 46.862 48.081 111.597 16.961 173.554-26.092 40.278-27.988 85.924-67.526 139.544-120.871 45.445-45.212 80.731-84.518 107.874-120.161 2.51-3.296 1.872-8.001-1.423-10.511-3.296-2.512-8.002-1.872-10.511 1.423-26.723 35.093-61.565 73.892-106.521 118.615-52.99 52.719-97.975 91.705-137.523 119.187-53.892 37.448-116.337 66.843-154.252 27.941-26.941-27.643-30.092-76.323-8.871-137.075 1.74-4.982 3.643-9.997 5.672-15.032 15.655 7.77 31.596 11.194 47.806 9.537 18.392-1.881 35.818-10.337 51.795-25.132 3.65-3.38 5.173-8.483 3.973-13.321-1.182-4.764-4.844-8.503-9.557-9.76-13.404-3.574-25.732-9.422-36.64-17.382-6.871-5.014-13.143-10.883-18.72-17.469 12.729-19.718 27.276-39.326 43.397-58.47 14.236 13.535 30.309 23.031 46.889 27.639 3.888 1.081 8.114-1.186 9.234-5.219 1.108-3.99-1.228-8.125-5.219-9.234-14.412-4.004-28.504-12.454-41.089-24.562 9.167-10.375 18.782-20.593 28.827-30.586 3.536-3.518 7.106-6.982 10.702-10.399 7.985 11.429 17.556 21.252 28.547 29.272 11.698 8.536 24.809 14.932 39.003 19.032-10.962 9.681-22.606 15.894-34.646 18.478-4.05.869-6.628 4.857-5.759 8.907.874 4.074 4.939 6.611 8.907 5.759 15.396-3.305 30.053-11.322 43.561-23.831 3.649-3.38 5.171-8.484 3.971-13.321-1.182-4.763-4.843-8.502-9.556-9.759-13.402-3.573-25.729-9.421-36.64-17.382-10.189-7.436-19.001-16.665-26.272-27.476 17.897-16.228 36.404-31.168 55.183-44.569 22.833 27.421 52.162 43.014 80.733 43.014 22.074 0 41.443-8.66 59.66-25.532 3.649-3.38 5.171-8.483 3.971-13.32-1.182-4.764-4.844-8.503-9.556-9.76-13.404-3.573-25.731-9.422-36.641-17.382-8.37-6.108-15.817-13.459-22.249-21.888 57.37-25.147 129.73-46.236 171.364-3.518 15.184 15.579 20.439 35.325 16.068 60.366-4.164 23.854-17.345 52.518-39.177 85.191-2.301 3.444-1.374 8.102 2.069 10.403s8.102 1.375 10.403-2.069c22.999-34.422 36.955-65.021 41.48-90.946 5.191-29.705-1.573-54.406-20.098-73.412zm-407.189 254.161c11.696 8.535 24.807 14.932 39.003 19.032-12.999 11.486-26.869 18.052-41.258 19.523-13.095 1.337-26.942-1.569-40.391-8.431 6.927-15.377 15.131-30.911 24.484-46.429 5.531 6.047 11.603 11.518 18.162 16.305zm238.489-206.17c11.698 8.536 24.808 14.932 39.004 19.032-13.001 11.486-26.871 18.052-41.26 19.523-25.623 2.621-53.099-10.85-74.686-36.283 16.549-11.181 33.014-20.923 49.832-29.555 7.695 10.581 16.784 19.747 27.11 27.283z"/></g></svg>