<svg id="Capa_1" enable-background="new 0 0 512.002 512.002" height="512" viewBox="0 0 512.002 512.002" width="512" xmlns="http://www.w3.org/2000/svg"><g><g><g><circle cx="256.001" cy="59.951" fill="#f58a97" r="32.201"/><path d="m256.001 27.75c-5.418 0-10.52 1.344-15 3.708 10.227 5.395 17.201 16.127 17.201 28.493s-6.974 23.098-17.201 28.493c4.48 2.364 9.582 3.708 15 3.708 17.784 0 32.201-14.417 32.201-32.201s-14.417-32.201-32.201-32.201z" fill="#f07281"/></g><path d="m165.839 93.436 180.698-1.284c16.569 0 30 13.431 30 30l3.714 25.911v117.439c0 16.569-13.431 30-30 30h-188.5c-16.569 0-30-13.431-30-30v-109.763l4.088-32.304c0-16.568 13.431-29.999 30-29.999z" fill="#e5c7be"/><path d="m348.975 89.919h-30c16.569 0 31.276 10.015 31.276 26.583v149c0 16.569-13.431 30-30 30h30c16.569 0 30-13.431 30-30v-117.439l-1.276-28.144c0-16.569-13.432-30-30-30z" fill="#d9b3a6"/><g><path d="m303.295 303.056 168.49.474c16.569 0 32.716 5.403 32.716 21.972v149c0 16.569-13.431 30-30 30h-173.5c-16.569 0-30-13.431-30-30v-119.769l2.294-21.677c0-16.568 13.432-30 30-30z" fill="#e5c7be"/><path d="m471.384 303.056h-30c16.569 0 33.117 5.877 33.117 22.446v149c0 16.569-13.431 30-30 30h30c16.569 0 30-13.431 30-30v-149c0-16.568-16.548-22.446-33.117-22.446z" fill="#d9b3a6"/><path d="m301.001 295.502h143.5l27.221 2.449c16.569 0 30 13.431 30 30l2.779 26.782c0 8.709-7.06 15.769-15.769 15.769-15.623 0-28.287 12.665-28.287 28.287v30c0 11.198-9.078 20.276-20.276 20.276-11.198 0-20.276-9.078-20.276-20.276v-36.259c0-12.166-9.862-22.028-22.028-22.028-12.166 0-22.028 9.862-22.028 22.028v6.259c0 11.198-9.078 20.276-20.276 20.276-11.198 0-20.276-9.078-20.276-20.276 0-15.623-12.665-28.287-28.287-28.287h-20.228c-8.709 0-15.769-7.06-15.769-15.769v-29.231c0-16.568 13.431-30 30-30z" fill="#d1a08f"/><g fill="#c68d7a"><path d="m367.863 370.502c-12.166 0-22.028 9.862-22.028 22.028v6.259c0 5.245-2.009 10.009-5.276 13.609 3.709 4.086 9.046 6.668 15 6.668 11.198 0 20.276-9.078 20.276-20.276v-6.259c0-6.369 2.707-12.104 7.028-16.126-3.933-3.661-9.203-5.903-15-5.903z"/><path d="m474.501 295.502h-30c16.569 0 30 13.431 30 30v29.231c0 8.709-7.06 15.769-15.769 15.769-15.623 0-28.287 12.665-28.287 28.287v30c0 5.245-2.009 10.009-5.276 13.609 3.709 4.086 9.046 6.668 15 6.668 11.198 0 20.276-9.078 20.276-20.276v-30c0-15.623 12.665-28.287 28.287-28.287 8.709 0 15.769-7.06 15.769-15.769v-29.231c0-16.569-13.431-30.001-30-30.001z"/></g></g><g><path d="m43.229 305.559 164.352 3.173c16.569 0 33.42.202 33.42 16.77v149c0 16.569-13.431 30-30 30h-173.5c-16.569 0-30-13.431-30-30v-119.769l5.728-19.174c0-16.569 13.432-30 30-30z" fill="#e5c7be"/><path d="m211.001 300.307h-30c16.569 0 30 8.627 30 25.195v149c0 16.569-13.431 30-30 30h30c16.569 0 30-13.431 30-30v-119.769-24.426c0-16.569-13.431-30-30-30z" fill="#d9b3a6"/><path d="m37.501 295.502h143.5l30 2.601c16.569 0 30 13.431 30 30v26.63c0 8.709-7.06 15.769-15.769 15.769-15.623 0-28.287 12.665-28.287 28.287v30c0 11.198-9.078 20.276-20.276 20.276-11.198 0-20.276-9.078-20.276-20.276v-36.259c0-12.166-9.862-22.028-22.028-22.028-12.166 0-22.028 9.862-22.028 22.028v6.259c0 11.198-9.078 20.276-20.276 20.276-11.198 0-20.276-9.078-20.276-20.276 0-15.623-12.665-28.287-28.287-28.287h-20.228c-8.709 0-15.769-7.06-15.769-15.769v-29.231c0-16.568 13.431-30 30-30z" fill="#d1a08f"/><g fill="#c68d7a"><path d="m104.363 370.502c-12.166 0-22.028 9.862-22.028 22.028v6.259c0 5.245-2.009 10.009-5.276 13.609 3.709 4.086 9.046 6.668 15 6.668 11.198 0 20.276-9.078 20.276-20.276v-6.259c0-6.369 2.707-12.104 7.028-16.126-3.933-3.661-9.203-5.903-15-5.903z"/><path d="m211.001 295.502h-30c16.569 0 30 13.431 30 30v29.231c0 8.709-7.06 15.769-15.769 15.769-15.623 0-28.287 12.665-28.287 28.287v30c0 5.245-2.009 10.009-5.276 13.609 3.709 4.086 9.046 6.668 15 6.668 11.198 0 20.276-9.078 20.276-20.276v-30c0-15.623 12.665-28.287 28.287-28.287 8.709 0 15.769-7.06 15.769-15.769v-29.231c0-16.569-13.431-30.001-30-30.001z"/></g></g><path d="m348.128 87.745-1.9-1.243h-184.477c-16.569 0-30 13.431-30 30v39.237c0 3.183 2.58 5.763 5.763 5.763h13.884c14.002 0 25.353 11.351 25.353 25.353v30c0 12.819 10.392 23.211 23.211 23.211 12.819 0 23.211-10.392 23.211-23.211v-32.853c0-12.426 10.074-22.5 22.5-22.5 12.426 0 22.5 10.074 22.5 22.5v2.853c0 12.819 10.392 23.211 23.211 23.211 12.819 0 23.211-10.392 23.211-23.211 0-14.002 11.351-25.353 25.353-25.353h26.865c7.422 0 13.439-6.017 13.439-13.439l-2.123-30.318c-.001-16.569-13.433-30-30.001-30z" fill="#d1a08f"/><g fill="#c68d7a"><path d="m350.251 86.502h-4.023c2.554 4.414 4.023 9.534 4.023 15v31.561c0 7.422-6.017 13.439-13.439 13.439h-26.865c-14.002 0-25.353 11.351-25.353 25.353 0 10.074-6.42 18.647-15.391 21.857 2.925 9.472 11.748 16.354 22.18 16.354 12.819 0 23.211-10.392 23.211-23.211 0-14.002 11.351-25.353 25.353-25.353h26.865c7.422 0 13.439-6.017 13.439-13.439v-31.561c0-16.569-13.431-30-30-30z"/><path d="m215.672 146.502c-12.426 0-22.5 10.074-22.5 22.5v32.853c0 10.074-6.42 18.647-15.391 21.857 2.925 9.472 11.748 16.354 22.18 16.354 12.819 0 23.211-10.392 23.211-23.211v-32.853c0-9.497 5.887-17.614 14.208-20.916-2.597-9.555-11.329-16.584-21.708-16.584z"/></g></g><path d="m474.501 288.002h-94.271c4.719-6.272 7.521-14.064 7.521-22.5v-149c0-20.678-16.822-37.5-37.5-37.5h-59.441c3.156-5.763 4.891-12.291 4.891-19.05 0-17.687-11.628-32.703-27.639-37.821 2.513-3.307 5.78-5.964 9.717-7.895 3.72-1.823 5.257-6.316 3.434-10.036-1.823-3.719-6.316-5.257-10.035-3.433-6.117 2.998-11.224 7.184-15.179 12.441-1.794 2.385-3.218 4.835-4.352 7.287-19.849 2.176-35.346 19.038-35.346 39.456 0 6.758 1.735 13.287 4.891 19.05h-59.441c-20.678 0-37.5 16.822-37.5 37.5v149c0 8.436 2.801 16.228 7.521 22.5h-36.192c-4.143 0-7.5 3.358-7.5 7.5s3.357 7.5 7.5 7.5h115.421c12.406 0 22.5 10.093 22.5 22.5v29.23c0 4.56-3.71 8.27-8.27 8.27-19.733 0-35.787 16.054-35.787 35.787v30c0 7.045-5.731 12.777-12.776 12.777s-12.776-5.731-12.776-12.777v-36.258c0-16.282-13.246-29.528-29.528-29.528s-29.528 13.247-29.528 29.528v6.259c0 7.045-5.731 12.776-12.776 12.776s-12.776-5.731-12.776-12.776c0-19.733-16.055-35.787-35.788-35.787h-20.225c-4.56 0-8.27-3.709-8.27-8.27v-29.23c0-12.407 10.094-22.5 22.5-22.5h23.079c4.143 0 7.5-3.358 7.5-7.5s-3.357-7.5-7.5-7.5h-23.079c-20.678 0-37.5 16.822-37.5 37.5v149c0 20.678 16.822 37.5 37.5 37.5h173.5c20.678 0 37.5-16.822 37.5-37.5v-149c0-8.436-2.801-16.228-7.521-22.5h30.041c-4.719 6.272-7.521 14.064-7.521 22.5v78.198c0 4.142 3.357 7.5 7.5 7.5s7.5-3.358 7.5-7.5v-27.221c2.571.981 5.358 1.524 8.27 1.524h20.224c11.463 0 20.788 9.325 20.788 20.787 0 15.316 12.461 27.776 27.776 27.776 15.316 0 27.776-12.46 27.776-27.776v-6.259c0-8.011 6.518-14.528 14.528-14.528s14.528 6.518 14.528 14.528v36.259c0 15.316 12.46 27.777 27.776 27.777s27.776-12.46 27.776-27.777v-30c0-11.462 9.325-20.787 20.787-20.787 2.912 0 5.698-.542 8.27-1.524v98.024c0 12.407-10.094 22.5-22.5 22.5h-173.5c-12.406 0-22.5-10.093-22.5-22.5v-35.803c0-4.142-3.357-7.5-7.5-7.5s-7.5 3.358-7.5 7.5v35.802c0 20.678 16.822 37.5 37.5 37.5h173.5c20.678 0 37.5-16.822 37.5-37.5v-149c.002-20.678-16.82-37.5-37.498-37.5zm-241 186.5c0 12.407-10.094 22.5-22.5 22.5h-173.5c-12.406 0-22.5-10.093-22.5-22.5v-98.024c2.571.981 5.358 1.524 8.27 1.524h20.224c11.463 0 20.788 9.325 20.788 20.787 0 15.316 12.461 27.776 27.776 27.776 15.316 0 27.776-12.46 27.776-27.776v-6.259c0-8.011 6.518-14.528 14.528-14.528s14.528 6.518 14.528 14.528v36.259c0 15.316 12.46 27.777 27.776 27.777s27.776-12.46 27.776-27.777v-30c0-11.462 9.325-20.787 20.787-20.787 2.912 0 5.698-.542 8.27-1.524v98.024zm14.219-437.818c-.323 5.794.43 10.465.89 12.654.858 4.082 4.909 6.632 8.881 5.798 4.054-.851 6.65-4.828 5.799-8.881-.351-1.672-.957-5.479-.521-10.053 10.339 2.951 17.933 12.477 17.933 23.75 0 7.401-3.333 14.368-9 19.05h-31.399c-5.667-4.682-9-11.649-9-19.05-.002-10.716 6.859-19.856 16.417-23.268zm-108.469 79.818c0-12.407 10.094-22.5 22.5-22.5h188.5c12.406 0 22.5 10.093 22.5 22.5v31.561c0 3.275-2.664 5.939-5.939 5.939h-26.865c-18.115 0-32.853 14.738-32.853 32.853 0 4.197-1.634 8.142-4.602 11.109s-6.913 4.601-11.109 4.601c-8.663 0-15.711-7.048-15.711-15.71v-2.853c0-16.542-13.458-30-30-30-16.541 0-29.999 13.458-29.999 30v32.853c0 8.663-7.048 15.71-15.711 15.71s-15.711-7.048-15.711-15.71v-30c0-18.115-14.737-32.853-32.853-32.853h-12.147zm22.5 171.5c-12.406 0-22.5-10.093-22.5-22.5v-96.5h12.147c9.844 0 17.853 8.009 17.853 17.853v30c0 16.934 13.776 30.71 30.711 30.71 16.934 0 30.711-13.777 30.711-30.71v-32.853c0-8.271 6.729-15 15-15s14.999 6.729 14.999 15v2.853c0 16.934 13.776 30.71 30.711 30.71h.001c8.203 0 15.915-3.194 21.715-8.995 5.801-5.8 8.995-13.513 8.995-21.716 0-9.844 8.009-17.853 17.853-17.853h26.865c2.064 0 4.054-.312 5.939-.871v97.371c0 12.407-10.094 22.5-22.5 22.5h-188.5zm335.25 66.731c0 4.56-3.71 8.27-8.27 8.27-19.733 0-35.787 16.054-35.787 35.787v30c0 7.045-5.731 12.777-12.776 12.777s-12.776-5.731-12.776-12.777v-36.26c0-16.282-13.246-29.528-29.528-29.528s-29.528 13.247-29.528 29.528v6.259c0 7.045-5.731 12.776-12.776 12.776s-12.776-5.731-12.776-12.776c0-19.733-16.055-35.787-35.788-35.787h-20.224c-4.56 0-8.27-3.709-8.27-8.27v-29.23c0-12.407 10.094-22.5 22.5-22.5h173.5c12.406 0 22.5 10.093 22.5 22.5v29.231z"/></g></svg>