<svg id="Capa_1" enable-background="new 0 0 512 512" height="512" viewBox="0 0 512 512" width="512" xmlns="http://www.w3.org/2000/svg"><g><g><path d="m292.671 37.5c-5.207 0-10.259.608-15.09 1.742-2.943.691-5.964-.58-7.576-3.137-10.79-17.118-30.704-28.605-53.492-28.605-23.615 0-44.143 12.336-54.63 30.491-1.641 2.84-5.101 4.128-8.203 3.061-6.678-2.297-13.894-3.552-21.425-3.552-34.274 0-62.058 25.98-62.058 58.028s27.784 58.028 62.058 58.028c25.828 0 47.964-14.757 57.308-35.743 8.151 3.68 17.292 5.743 26.949 5.743 7.036 0 13.791-1.111 20.096-3.128 9.967 19.587 31.321 33.128 56.063 33.128 34.274 0 62.058-25.98 62.058-58.028s-27.784-58.028-62.058-58.028z" fill="#d1a08f"/><g><path d="m292.671 37.5c-5.207 0-10.259.608-15.09 1.742-2.943.691-5.964-.58-7.576-3.137-10.79-17.118-30.704-28.605-53.492-28.605-16.751 0-31.944 6.212-43.107 16.3 4.225-.85 8.609-1.3 13.107-1.3 22.788 0 42.702 11.487 53.492 28.605 1.612 2.557 4.633 3.828 7.576 3.137 4.83-1.134 9.883-1.742 15.09-1.742 34.274 0 62.058 25.98 62.058 58.028 0 16.382-7.271 31.167-18.947 41.719 27.975-5.628 48.947-28.879 48.947-56.719 0-32.048-27.784-58.028-62.058-58.028z" fill="#c68d7a"/></g><path d="m348.481 251.4h67.269c2.209 0 4 1.791 4 4v137.2c0 2.209-1.791 4-4 4h-67.269v45h86.269c16.569 0 30-13.431 30-30v-175.2c0-16.569-13.431-30-30-30h-86.269z" fill="#e5c7be"/><path d="m332.75 504.5h-233c-16.569 0-30-13.431-30-30v-331h293v331c0 16.569-13.431 30-30 30z" fill="#e5c7be"/><path d="m332.75 143.5v331c0 16.569-13.431 30-30 30h30c16.569 0 30-13.431 30-30v-331z" fill="#d9b3a6"/><path d="m47.25 121c0 12.426 10.074 22.5 22.5 22.5h38.478c5.523 0 10 4.477 10 10v61.709c0 11.264 9.132 20.396 20.396 20.396 11.264 0 20.396-9.132 20.396-20.396v-61.709c0-5.523 4.477-10 10-10h74.208c5.523 0 10 4.477 10 10v31.709c0 11.264 9.131 20.396 20.396 20.396 11.264 0 20.396-9.131 20.396-20.396v-31.709c0-5.523 4.477-10 10-10h58.73c12.426 0 22.5-10.074 22.5-22.5 0-12.426-10.074-22.5-22.5-22.5h-293c-12.426 0-22.5 10.074-22.5 22.5z" fill="#c68d7a"/><g fill="#bc7c63"><path d="m129.02 153.5v61.709c0 5.323-2.056 10.154-5.396 13.786 3.728 4.054 9.059 6.61 15 6.61 11.264 0 20.396-9.132 20.396-20.396v-61.709c0-5.523 4.477-10 10-10h-30c-5.523 0-10 4.477-10 10z"/><path d="m362.75 98.5h-39.422c12.426 0 22.5 10.073 22.5 22.5 0 12.426-10.074 22.5-22.5 22.5h39.422c12.426 0 22.5-10.074 22.5-22.5 0-12.427-10.074-22.5-22.5-22.5z"/><path d="m264.02 153.5v31.709c0 5.323-2.056 10.154-5.396 13.786 3.728 4.054 9.059 6.61 15 6.61 11.264 0 20.396-9.131 20.396-20.396v-31.709c0-5.523 4.477-10 10-10h-30c-5.523 0-10 4.477-10 10z"/></g><path d="m166.929 49.528h-32c-9.113 0-16.5-7.387-16.5-16.5 0-9.113 7.387-16.5 16.5-16.5h32c9.113 0 16.5 7.387 16.5 16.5 0 9.113-7.387 16.5-16.5 16.5z" fill="#fddeb0"/><path d="m166.929 16.528h-30c9.113 0 16.5 7.387 16.5 16.5s-7.387 16.5-16.5 16.5h30c9.113 0 16.5-7.387 16.5-16.5s-7.387-16.5-16.5-16.5z" fill="#fdd79b"/><path d="m299.804 42.52-22.627 22.627c-6.444 6.444-16.891 6.444-23.335 0-6.444-6.444-6.444-16.891 0-23.334l22.627-22.627c6.444-6.444 16.891-6.444 23.335 0 6.444 6.443 6.444 16.891 0 23.334z" fill="#fddeb0"/><path d="m299.804 19.186c-6.444-6.444-16.891-6.444-23.334 0l-3.822 3.822c3.384 6.253 2.441 14.228-2.843 19.512l-18.805 18.805c.742 1.371 1.685 2.663 2.844 3.822 6.444 6.444 16.891 6.444 23.334 0l22.627-22.627c6.443-6.443 6.443-16.891-.001-23.334z" fill="#fdd79b"/></g><path d="m434.75 198.9h-64.5v-48.85c12.925-3.339 22.5-15.098 22.5-29.051 0-16.542-13.458-30-30-30h-.699c-1.985-27.654-21.997-50.844-49.983-58.405.504-6.982-2.007-13.76-6.96-18.713-9.357-9.357-24.584-9.357-33.941 0l-5.394 5.394c-12.999-12.33-30.533-19.275-49.263-19.275-13.977 0-27.693 4.024-39.18 11.401-3.148-1.52-6.677-2.373-10.401-2.373h-32c-13.234 0-24 10.767-24 24 0 .044.003.087.003.131-27.099 8.232-46.467 31.647-48.106 58.656-13.213 3.135-23.076 15.026-23.076 29.185 0 13.953 9.575 25.712 22.5 29.051v324.449c0 20.678 16.822 37.5 37.5 37.5h233c20.678 0 37.5-16.822 37.5-37.5v-25.4h64.5c20.678 0 37.5-16.822 37.5-37.5v-175.2c0-20.677-16.822-37.5-37.5-37.5zm-175.604-151.783 22.628-22.628c3.508-3.51 9.219-3.508 12.728 0 3.452 3.452 3.479 9.285-.001 12.728l-22.627 22.628c-3.445 3.48-9.276 3.449-12.728-.001-3.51-3.509-3.51-9.218 0-12.727zm-124.217-23.089h32c4.962 0 9 4.037 9 9s-4.038 9-9 9h-32c-4.962 0-9-4.037-9-9s4.038-9 9-9zm-65.179 111.972c-8.271 0-15-6.729-15-15s6.729-15 15-15h76.179c4.142 0 7.5-3.357 7.5-7.5s-3.358-7.5-7.5-7.5h-68.005c1.978-20.16 17.013-37.487 37.78-43.619 4.381 5.853 11.368 9.648 19.224 9.648h32c13.234 0 24-10.767 24-24 0-3.869-.926-7.524-2.559-10.764 8.447-4.714 18.199-7.265 28.141-7.265 14.714 0 28.45 5.365 38.647 14.891l-6.619 6.619c-9.357 9.357-9.357 24.584 0 33.941 9.192 9.192 24.76 9.288 33.942 0 1.142-1.155 22.794-22.715 23.772-23.864 22.434 5.272 38.729 23.038 40.762 44.413h-166.085c-4.142 0-7.5 3.357-7.5 7.5s3.358 7.5 7.5 7.5h181.821c8.271 0 15 6.729 15 15s-6.729 15-15 15h-58.73c-9.649 0-17.5 7.851-17.5 17.5v31.709c0 7.11-5.785 12.896-12.896 12.896s-12.896-5.785-12.896-12.896v-31.709c0-9.649-7.851-17.5-17.5-17.5h-74.208c-9.649 0-17.5 7.851-17.5 17.5v61.709c0 7.11-5.785 12.896-12.896 12.896s-12.896-5.785-12.896-12.896v-61.709c0-9.649-7.851-17.5-17.5-17.5zm293 182.136c-4.143 0-7.5 3.357-7.5 7.5v148.864c0 12.406-10.094 22.5-22.5 22.5h-233c-12.407 0-22.5-10.094-22.5-22.5v-323.5h30.979c1.378 0 2.5 1.121 2.5 2.5v61.709c0 15.382 12.514 27.896 27.896 27.896s27.896-12.514 27.896-27.896v-61.709c0-1.379 1.122-2.5 2.5-2.5h74.208c1.379 0 2.5 1.121 2.5 2.5v31.709c0 15.382 12.514 27.896 27.896 27.896s27.896-12.514 27.896-27.896v-31.709c0-1.379 1.121-2.5 2.5-2.5h51.23v139.636c0 4.143 3.357 7.5 7.5 7.5s7.5-3.357 7.5-7.5v-31.736h42v130.2h-42v-63.464c-.001-4.143-3.358-7.5-7.501-7.5zm94.5 93.464c0 12.406-10.094 22.5-22.5 22.5h-64.5v-30h45.5c6.341 0 11.5-5.159 11.5-11.5v-137.2c0-6.341-5.159-11.5-11.5-11.5h-45.5v-30h64.5c12.406 0 22.5 10.094 22.5 22.5z"/></g></svg>