<svg id="Capa_1" enable-background="new 0 0 512 512" height="512" viewBox="0 0 512 512" width="512" xmlns="http://www.w3.org/2000/svg"><g><g><path d="m400 504.5h-288c-16.569 0-30-13.431-30-30v-318h348v318c0 16.569-13.431 30-30 30z" fill="#fff5c6"/><path d="m400 156.5v318c0 16.569-13.431 30-30 30h30c16.569 0 30-13.431 30-30v-318z" fill="#fceba4"/><path d="m385 66.5h-258l-45 90h348z" fill="#aee69c"/><path d="m385 66.5h-30l45 90h30z" fill="#89daa4"/><path d="m147 7.5h218c11.046 0 20 8.954 20 20v39h-258v-39c0-11.046 8.954-20 20-20z" fill="#fff5c6"/><path d="m365 7.5h-30c11.046 0 20 8.954 20 20v39h30v-39c0-11.046-8.954-20-20-20z" fill="#fceba4"/><g><circle cx="256" cy="360.25" fill="#feca9c" r="82.361"/><path d="m256 277.889c-5.125 0-10.134.492-15 1.388 38.321 7.055 67.361 40.612 67.361 80.974s-29.04 73.918-67.361 80.973c4.866.896 9.875 1.388 15 1.388 45.487 0 82.361-36.874 82.361-82.361s-36.874-82.362-82.361-82.362z" fill="#fdb97e"/><g><path d="m276.36 237.293c-15.264 15.264-21.283 36.269-18.064 56.063 19.795 3.219 40.8-2.8 56.063-18.064 14.222-14.222 20.418-33.428 18.594-51.995-.238-2.428-2.171-4.36-4.599-4.598-18.566-1.824-37.772 4.372-51.994 18.594z" fill="#aee69c"/><path d="m332.953 223.298c-.238-2.427-2.171-4.36-4.598-4.598-7.226-.71-14.546-.188-21.634 1.532.789.811 1.316 1.877 1.433 3.067 1.824 18.567-4.372 37.773-18.594 51.995-8.948 8.948-19.874 14.693-31.367 17.289.039.258.061.518.103.775 19.795 3.219 40.8-2.8 56.063-18.064 14.222-14.223 20.418-33.429 18.594-51.996z" fill="#89daa4"/></g></g></g><path d="m186.247 404.705c3.68-1.903 5.119-6.429 3.217-10.107-5.523-10.679-8.324-22.235-8.324-34.348 0-38.899 29.825-70.951 67.807-74.518 3.059 9.981 3.09 24.025 1.514 31.901-7.314-.727-13.12-3.237-16.974-5.462-3.587-2.074-8.175-.842-10.244 2.746-2.071 3.587-.842 8.174 2.746 10.244 6.655 3.84 17.559 7.653 30.332 7.653.009 0 .018.002.027.002 12.863 0 23.177-5.209 29.091-8.985 3.491-2.229 4.515-6.866 2.285-10.357-2.229-3.493-6.869-4.513-10.357-2.285-2.776 1.773-6.663 3.785-11.506 5.128.585-4.243.942-9.206.748-14.667 9.839.281 19.654-1.488 28.729-5.094 21.996 13.603 35.524 37.687 35.524 63.694 0 41.278-33.582 74.86-74.86 74.86-17.077 0-33.156-5.597-46.499-16.187-3.245-2.574-7.963-2.033-10.537 1.213-2.574 3.244-2.032 7.962 1.213 10.537 16.019 12.717 35.323 19.437 55.821 19.437 49.549 0 89.86-40.312 89.86-89.86 0-28.383-13.42-54.858-35.697-71.703 3.363-2.361 6.552-5.003 9.5-7.951 15.309-15.31 22.873-36.461 20.754-58.03-.587-5.979-5.352-10.743-11.329-11.33-21.571-2.117-42.723 5.445-58.031 20.754-8.081 8.081-14.005 17.888-17.484 28.499-12.876-19.62-31.117-28.346-38.879-31.331-3.87-1.489-8.206.442-9.692 4.308-1.487 3.866.441 8.205 4.308 9.692 6.676 2.568 22.851 10.343 33.371 28.221-43.255 6.455-76.541 43.848-76.541 88.872 0 14.329 3.458 28.589 10 41.238 1.925 3.721 6.49 5.087 10.107 3.216zm95.417-162.108c11.655-11.656 27.591-17.64 43.985-16.593 1.048 16.396-4.938 32.33-16.594 43.984-8.975 8.976-20.636 14.576-32.981 16.197l24.588-24.588c2.929-2.93 2.929-7.678 0-10.607-2.93-2.928-7.678-2.928-10.607 0l-24.59 24.59c1.621-12.343 7.224-24.009 16.199-32.983zm155.815-86.515c-.046-.628-.112-1.532-.771-2.937l-44.208-88.416v-37.229c0-15.163-12.337-27.5-27.5-27.5h-218c-15.163 0-27.5 12.337-27.5 27.5v37.229l-44.208 88.416c-.313.736-.766 1.659-.792 3.354v318c0 20.678 16.822 37.5 37.5 37.5h288c20.678 0 37.5-16.822 37.5-37.5v-318c0-.14-.013-.278-.021-.417zm-305.844-82.082h175.566c4.143 0 7.5-3.357 7.5-7.5s-3.357-7.5-7.5-7.5h-172.701v-31.5c0-6.893 5.607-12.5 12.5-12.5h218c6.893 0 12.5 5.607 12.5 12.5v31.5h-35.299c-4.143 0-7.5 3.357-7.5 7.5s3.357 7.5 7.5 7.5h38.164l37.5 75h-323.73zm290.865 400.5c0 12.406-10.094 22.5-22.5 22.5h-288c-12.406 0-22.5-10.094-22.5-22.5v-310.5h333z"/></g></svg>