<svg fill="#d6d6d6" viewBox="0 0 478 478" xml:space="preserve" xmlns="http://www.w3.org/2000/svg">
	<path d="m119.5 187.75h-102.4c-9.4 0-17 7.6-17.1 17.1v256c0 9.5 7.7 17.1 17.1 17.1h102.4c9.5 0 17.1-7.7 17.1-17.1v-256c0-9.5-7.7-17.1-17.1-17.1z" />
	<path d="m290.2 0.05h-102.4c-9.4 0-17.1 7.6-17.1 17v443.8c0 9.5 7.7 17.1 17.1 17.1h102.4c9.5 0 17.1-7.7 17.1-17.1v-443.7c0-9.5-7.7-17.1-17.1-17.1z" />
	<path d="m460.9 136.55h-102.4c-9.5 0-17.1 7.6-17.1 17.1v307.2c0 9.5 7.7 17.1 17.1 17.1h102.4c9.5 0 17.1-7.7 17.1-17.1v-307.2c0-9.5-7.7-17.1-17.1-17.1z" />
</svg>
