<svg id="Capa_1" enable-background="new 0 0 512 512" height="512" viewBox="0 0 512 512" width="512" xmlns="http://www.w3.org/2000/svg"><g><g><g><path d="m371.86 264.42-94.89-178.946c-25.762 40.972-122.262 156.632-122.262 156.632s-121.398 10.747-128.985 84.091c-7.587 73.345 60.114 103.694 60.406 112.546.207 6.25-4.146 36.458-6.722 53.675-.952 6.364 3.979 12.082 10.414 12.082h71.662c4.153 0 7.52-3.367 7.52-7.52v-1.716c0-6.035-3.382-11.561-8.755-14.307l-14.475-7.398s41.097-19.293 37.361-57.878c170.928-28.678 174.125-106.13 188.726-151.261z" fill="#8c818f"/><path d="m371.86 264.42c-14.595 45.123-17.796 122.581-188.727 151.261-.684-7.068-2.868-14.787-7.107-23.162 131.977-23.164 167.591-96.741 183.657-151.056z" fill="#766d78"/><path d="m160.247 480.956-14.475-7.398s100.1-46.986-26.333-140.957c-1.337-.994-2.947-1.567-4.61-1.656-8.063-.43-12.119 9.563-6.05 14.889 95.13 83.476 10.162 127.725 10.162 127.725l14.475 7.398c5.374 2.747 8.755 8.273 8.755 14.308v1.716c0 4.153-3.367 7.52-7.52 7.52h26.831c4.153 0 7.52-3.367 7.52-7.52v-1.716c0-6.036-3.381-11.562-8.755-14.309z" fill="#766d78"/><path d="m347.427 422.75-86.773-148.41h-50.73c-9.733 92.543 18.844 118.71 81.268 173.168-13.069-.705-12.551-.735-14.166-.735-15.821 0-28.832 12.849-28.832 28.863 0 15.943 12.92 28.863 28.863 28.863h9.335c12.011 0 23.532-4.749 32.05-13.206l23.011-22.858c12.173-12.083 14.635-30.875 5.974-45.685z" fill="#8c818f"/><path d="m347.427 422.75-83.688-143.134c-1.911-3.268-5.412-5.277-9.197-5.277-8.227 0-13.35 8.929-9.197 16.032l77.399 132.379c8.661 14.809 6.2 33.602-5.975 45.684l-23.011 22.858c-6.471 6.424-14.676 10.702-23.512 12.391 2.184.528 4.463.815 6.81.815h9.335c12.011 0 23.532-4.749 32.05-13.206l23.011-22.858c12.174-12.082 14.636-30.874 5.975-45.684z" fill="#766d78"/><path d="m475.589 83.779c-4.798-10.967-20.886-23.306-38.022-28.104-15.242-26.582-37.711-48.175-70.036-48.175s-54.794 21.593-70.035 48.175c-17.136 4.798-33.224 17.137-38.022 28.104s-14.395 74.03-10.282 100.077 30.086 82.941 92.5 90.481h51.678c62.414-7.54 88.387-64.433 92.5-90.481 4.113-26.047-5.483-89.11-10.281-100.077z" fill="#766d78"/><path d="m438.49 93.711c-14.555-7.464-50.532 24.745-70.959 24.745s-56.404-32.209-70.959-24.745c-16.084 8.248-22.27 62.687-18.559 71.76 3.712 9.073 17.321 22.683 44.465 31.343h90.105c27.144-8.661 40.753-22.27 44.465-31.343s-2.474-63.512-18.558-71.76z" fill="#c5bec6"/><path d="m323.458 179.647c-16.008 15.109-39.871 68.149-25.533 85.468 27.07 32.699 112.144 32.699 139.215 0 14.338-17.319-9.525-70.359-25.533-85.468-24.612-23.227-63.539-23.227-88.149 0z" fill="#d4cfd5"/></g></g><g><path d="m346.356 406.022c-2.09-3.576-6.684-4.778-10.26-2.689-3.576 2.091-4.78 6.685-2.689 10.26l7.567 12.942c6.935 11.857 4.967 26.897-4.786 36.578l-23.009 22.856c-7.163 7.111-16.669 11.028-26.766 11.028h-9.335c-11.779 0-21.363-9.583-21.363-21.363s9.569-21.363 21.332-21.363c4.952 0 29.202 2.077 29.311 2.077 3.843 0 7.116-2.938 7.462-6.839.366-4.126-2.683-7.767-6.809-8.132l-12.705-1.125c-59.585-51.991-86.221-76.513-76.901-165.127.433-4.12-2.555-7.81-6.674-8.244-4.119-.427-7.81 2.555-8.244 6.674-4.892 46.511-.566 77.994 14.465 105.271 3.661 6.644 7.917 12.935 12.7 19.052-12.458 3.439-25.942 6.491-40.316 9.103-5.891-25.878-28.476-53.343-67.5-81.95-3.341-2.449-8.034-1.727-10.483 1.615-2.449 3.34-1.726 8.034 1.615 10.483 27.471 20.138 66.664 54.656 62.617 88.424-3.222 26.744-31.658 40.589-32.981 41.218-2.591 1.216-4.263 3.801-4.311 6.663s1.538 5.501 4.086 6.804l14.484 7.402c5.621 2.868 4.555 8.986 4.639 9.359h-71.66c-1.823 0-3.272-1.614-2.992-3.473 7.058-47.293 6.862-53.123 6.798-55.032-.182-5.547-4.777-9.385-13.12-16.352-18.39-15.357-52.621-43.944-47.326-95.169 1.319-12.729 6.695-24.297 15.979-34.384 2.805-3.048 2.608-7.792-.439-10.598-3.048-2.805-7.793-2.608-10.598.439-11.52 12.518-18.203 26.983-19.862 42.999-6.115 59.166 33.563 92.302 52.631 108.227 2.826 2.36 6.238 5.209 7.71 6.78-.196 3.759-1.311 15.379-6.607 50.865-.783 5.188.732 10.446 4.157 14.427 3.43 3.986 8.412 6.272 13.669 6.272h71.66c8.282 0 15.02-6.738 15.02-15.02-.065-.247 1.294-15.488-12.837-22.698l-2.621-1.34c3.157-2.298 6.639-5.133 10.07-8.508 11.924-11.729 19.303-26.091 19.739-42.483 17.861-3.208 34.451-7.08 49.497-11.53 8.951 9.683 19.229 19.219 30.652 29.352-17.175 2.882-30.305 17.867-30.305 35.863 0 20.05 16.313 36.363 36.363 36.363h9.335c14.083 0 27.342-5.463 37.335-15.385l23.008-22.855c14.608-14.498 17.555-37.03 7.166-54.793z"/><path d="m482.483 80.773c-5.565-12.719-22.048-25.59-39.903-31.417-19.326-32.305-45.218-49.356-75.028-49.356-29.804 0-55.691 17.05-75.018 49.356-17.86 5.825-34.347 18.697-39.916 31.422-2.37 5.427-5.388 19.939-7.787 36.924-33.634 44.483-83.517 104.749-93.919 117.27-11.29 1.323-50.162 6.974-83.035 24.924-3.636 1.985-4.974 6.542-2.988 10.177 1.362 2.495 3.934 3.907 6.589 3.907 1.214 0 2.446-.296 3.587-.919 35.288-19.268 79.884-23.442 80.327-23.482 1.986-.176 3.82-1.135 5.098-2.666.513-.615 44.829-53.773 81.19-100.486-1.147 14.987-1.362 29.186.124 38.603 2.703 17.093 15.331 51.657 45.522 74.989.963 3.75 2.539 7.094 4.843 9.877 14.267 17.232 40.089 24.723 62.395 26.66-6.673 19.917-16.75 40.287-37.854 58.76l-49.559-84.763c-2.09-3.575-6.684-4.779-10.26-2.689-3.576 2.091-4.78 6.685-2.689 10.26l61.541 105.255c2.095 3.582 6.691 4.776 10.26 2.689 3.576-2.091 4.78-6.685 2.689-10.26l-4.284-7.327c26.771-22.508 38.207-47.391 45.756-71.393 25.49-.437 56.577-7.629 72.774-27.193 2.304-2.783 3.88-6.126 4.842-9.875 30.212-23.355 42.828-57.912 45.52-74.994 4.2-26.616-5.157-91.317-10.817-104.253zm-114.929 201.366c-28.236 0-52.695-8.356-63.83-21.807-1.197-1.446-6.695-9.991 2.674-36.261 6.349-17.802 15.988-33.079 22.23-38.97 10.914-10.3 24.92-15.451 38.926-15.451s28.012 5.15 38.926 15.451c6.241 5.89 15.881 21.167 22.23 38.97 9.369 26.27 3.871 34.814 2.674 36.261-11.136 13.451-35.595 21.807-63.83 21.807zm49.221-107.947c-27.601-26.049-70.843-26.05-98.444 0-2.515 2.374-5.286 5.71-8.113 9.73-15.034-7.218-22.975-15.752-25.22-21.226-.908-2.705-.894-16.274 2.371-32.571 3.587-17.904 8.936-27.839 12.642-29.741 4.384-2.248 20.2 6.231 29.65 11.296 13.096 7.02 26.638 14.279 37.89 14.279 11.253 0 24.798-7.26 37.896-14.28 9.45-5.064 25.263-13.538 29.64-11.297 3.71 1.903 9.059 11.838 12.646 29.743 3.265 16.296 3.279 29.866 2.395 32.508-2.26 5.533-10.198 14.07-25.239 21.291-2.827-4.021-5.598-7.357-8.114-9.732zm61.708 8.5c-1.9 12.056-10.583 37.153-30.309 57.004-2.146-14.247-8.356-30.021-15.387-42.94 15.559-7.764 26.988-18.073 31.226-28.447 3.017-7.375 1.368-26.149-1.441-40.47-3.005-15.326-9.025-34.845-20.639-40.803-11.378-5.834-27.016 2.549-43.571 11.423-10.933 5.859-23.325 12.501-30.811 12.501-7.485 0-19.874-6.641-30.804-12.499-16.557-8.875-32.195-17.258-43.58-11.424-11.611 5.958-17.631 25.477-20.637 40.802-2.809 14.322-4.458 33.095-1.439 40.476 4.252 10.374 15.681 20.679 31.229 28.439-7.032 12.919-13.242 28.694-15.388 42.942-19.713-19.839-28.405-44.942-30.313-57.005-2.177-13.799-.229-39.03 2.668-60.337.101-.442.164-.889.184-1.337 2.256-16.24 5.033-29.974 6.891-34.23 3.503-8.006 17.184-19.413 33.177-23.883 1.897-.53 3.509-1.785 4.488-3.494 16.891-29.469 38.263-44.41 63.525-44.41 25.269 0 46.644 14.941 63.533 44.41.979 1.708 2.591 2.963 4.487 3.494 15.989 4.471 29.666 15.878 33.168 23.883 4.333 9.9 13.644 71.183 9.743 95.905z"/><path d="m342.253 209.042c.233.127.554.466.705.729-.465 3.9 2.178 7.54 6.094 8.259 4.084.75 7.985-1.958 8.731-6.023 1.561-8.504-5.401-16.353-12.67-17.689-4.073-.745-7.984 1.947-8.732 6.021-.74 4.024 1.881 7.889 5.872 8.703z"/><path d="m384.692 218.155c4.533 0 7.985-3.96 7.457-8.383.15-.264.472-.602.705-.729 3.991-.815 6.612-4.679 5.873-8.704-.749-4.075-4.664-6.766-8.732-6.021-7.269 1.336-14.231 9.185-12.67 17.689.663 3.617 3.817 6.148 7.367 6.148z"/><path d="m416.199 241.433c-32.279-17.045-65.014-17.045-97.292 0-3.663 1.935-5.064 6.472-3.13 10.134 1.935 3.663 6.472 5.063 10.134 3.13 28.02-14.796 55.263-14.797 83.284 0 1.117.589 2.314.869 3.496.869 2.692 0 5.294-1.454 6.639-4 1.934-3.662.532-8.199-3.131-10.133z"/><path d="m315.682 130.753c-4.142 0-7.5 3.358-7.5 7.5v6.521c0 4.142 3.358 7.5 7.5 7.5s7.5-3.358 7.5-7.5v-6.521c0-4.142-3.358-7.5-7.5-7.5z"/><path d="m419.425 130.753c-4.142 0-7.5 3.358-7.5 7.5v6.521c0 4.142 3.358 7.5 7.5 7.5s7.5-3.358 7.5-7.5v-6.521c0-4.142-3.358-7.5-7.5-7.5z"/></g></g></svg>