<svg id="Capa_1" enable-background="new 0 0 512 512" height="512" viewBox="0 0 512 512" width="512" xmlns="http://www.w3.org/2000/svg"><g><g><g><path d="m330.994 504.5h-98.02c-10.074 0-18.241-8.167-18.241-18.241v-33.11h58.335l62.736 30.391c3.806 1.843 6.223 5.7 6.223 9.929-.001 6.092-4.94 11.031-11.033 11.031z" fill="#e69642"/><path d="m316.987 172.43-107.277-46.875c-90.566 22.598-63.481 163.394-63.481 241.054 0 33.397-24.527 50.457-40.294 57.973-7.963 3.796-12.972 11.903-12.972 20.724v1.579c0 10.675 7.334 19.925 17.714 22.416 50.036 12.009 182.722 27.509 236.41-53.475 62.98-95-30.1-209.458-30.1-243.396z" fill="#766d78"/><path d="m350.858 258.127c11.251 40.56 13.487 85.719-13.997 127.176-53.688 80.984-186.374 65.484-236.41 53.475-2.05-.492-3.975-1.256-5.754-2.235-1.119 2.737-1.733 5.704-1.733 8.762v1.579c0 10.675 7.334 19.925 17.714 22.416 50.036 12.009 182.722 27.509 236.41-53.475 34.621-52.223 22.082-110.322 3.77-157.698z" fill="#655e67"/><path d="m174.345 478.392c59.454 3.461 135.305-6.093 172.743-62.566 41.108-62.008 15.729-132.3-6.857-183.085-102.099 18.088 44.93 197.74-165.886 245.651z" fill="#f7f3f1"/><path d="m365.076 305.205c-3.272-16.09-8.366-31.943-14.219-47.078 11.249 40.558 13.486 85.721-13.997 127.176-18.451 27.832-46.233 44.268-76.784 53.367-18.383 16.669-45.549 30.588-85.72 39.719 26.238 1.526 53.678.419 79.382-5.01 22.689-4.786 44.728-13.107 63.317-26.502 27.723-19.968 44.65-49.713 49.973-81.46 3.355-20.034 2.082-40.307-1.952-60.212z" fill="#ebe1dc"/><path d="m419.037 136.861c0-64.735-56.075-129.361-125.243-129.361s-125.238 64.626-125.238 129.361 56.072 83.054 125.24 83.054 125.241-18.319 125.241-83.054z" fill="#f7f3f1"/><path d="m384.873 50.682c11.88 19.855 18.747 42.479 18.747 65.12 0 64.735-56.072 83.054-125.241 83.054-42.702 0-80.405-6.989-103.012-27.564 16.931 37.088 63.555 48.623 118.429 48.623 69.168 0 125.24-18.319 125.24-83.054.001-31.149-12.986-62.269-34.163-86.179z" fill="#ebe1dc"/><path d="m293.796 115.367c-12.808 0-23.19 4.31-23.19 18.368 0 12.387 18.006 23.493 22.286 25.958.563.324 1.247.324 1.809 0 4.28-2.465 22.286-13.571 22.286-25.958 0-14.058-10.383-18.368-23.191-18.368z" fill="#ecb880"/><path d="m372.861 38.678c-2.399-.324-4.849-.486-7.329-.486-28.735 0-52.358 13.854-55.105 40.897-.308 3.036-2.807 5.374-5.858 5.374h-21.544c-3.051 0-5.55-2.339-5.858-5.374-2.747-27.044-26.37-40.897-55.105-40.897-2.48 0-4.93.162-7.329.486 21.561-19.031 49.077-31.178 79.061-31.178s57.506 12.147 79.067 31.178z" fill="#766d78"/><path d="m271.657 275.198c.64 64.783-35.606 131.961-67.3 127.518-29.355-4.116-13.397-109.331-2.098-130.952 20.393-39.023 68.973-39.626 69.398 3.434z" fill="#655e67"/></g></g><g><path d="m293.796 107.867c-19.504 0-30.689 9.428-30.689 25.868 0 15.756 18.212 27.947 26.04 32.457 2.865 1.651 6.429 1.655 9.298.001 7.83-4.51 26.042-16.701 26.042-32.458-.001-16.44-11.187-25.868-30.691-25.868zm0 43.596c-8.189-5.272-15.689-12.554-15.689-17.729 0-3.798 0-10.868 15.689-10.868 15.69 0 15.69 7.07 15.69 10.868 0 5.175-7.499 12.455-15.69 17.729z"/><path d="m361.91 90.149c-4.143 0-7.5 3.358-7.5 7.5v6.264c0 4.142 3.357 7.5 7.5 7.5s7.5-3.358 7.5-7.5v-6.264c0-4.142-3.357-7.5-7.5-7.5z"/><path d="m225.683 90.149c-4.143 0-7.5 3.358-7.5 7.5v6.264c0 4.142 3.357 7.5 7.5 7.5s7.5-3.358 7.5-7.5v-6.264c0-4.142-3.358-7.5-7.5-7.5z"/><path d="m293.794 0c-34.854 0-68.25 15.194-94.036 42.784-24.596 26.315-38.702 60.605-38.702 94.077 0 3.929.2 7.731.586 11.413-13.735 18.001-21.977 43.178-25.139 76.855-.388 4.124 2.642 7.781 6.766 8.168.238.022.476.033.71.033 3.826 0 7.094-2.914 7.458-6.799 2.25-23.963 7.138-42.995 14.836-57.661 6.231 17.169 18.027 30.679 35.306 40.34 21.91 12.25 52.075 18.205 92.219 18.205 12.642 0 24.292-.592 35.008-1.784.296.649.594 1.303.893 1.961-16.572 5.136-27.479 15.545-33.164 31.656-5.646 15.997-5.615 35.971-5.583 57.118.091 59.738.182 127.422-117.331 154.491-29.488-1.815-52.596-6.785-61.193-8.848-7.045-1.691-11.965-7.91-11.965-15.123v-1.579c0-5.958 3.415-11.435 8.7-13.955 16.644-7.935 44.566-26.896 44.566-64.743 0-13.835-.841-29.537-1.731-46.16-1.042-19.443-2.119-39.547-2.061-59.629.012-4.142-3.336-7.51-7.479-7.522h-.021c-4.132 0-7.488 3.344-7.5 7.478-.06 20.506 1.028 40.825 2.082 60.476.879 16.417 1.71 31.924 1.71 45.357 0 15.525-6.249 37.01-36.021 51.203-10.476 4.994-17.245 15.786-17.245 27.495v1.579c0 14.176 9.649 26.393 23.465 29.709 28.17 6.761 64.436 10.885 98.304 9.712.025 14.172 11.561 25.693 25.738 25.693h98.021c10.223 0 18.54-8.313 18.54-18.53 0-7.064-4.109-13.613-10.46-16.68l-31.185-15.111c16.818-9.458 30.747-21.575 41.679-36.327 2.467-3.328 1.768-8.025-1.56-10.491-3.329-2.468-8.026-1.768-10.491 1.561-26.056 35.162-69.376 49.718-113.463 53.816 30.964-13.73 52.612-32.773 65.636-57.573 16.362-31.155 16.31-65.776 16.264-96.322-.064-42.005 1.375-67.101 29.906-74.941 18.048 41.507 36.582 95.816 17.521 145.953-1.472 3.872.474 8.204 4.346 9.675 3.859 1.467 8.199-.461 9.676-4.345 23.083-60.719-2.781-124.372-23.142-169.308 16.376-3.009 30.213-7.713 41.756-14.167 26.889-15.034 40.522-39.375 40.522-72.349.001-68.65-59.145-136.861-132.742-136.861zm-3.109 470.013 41.854 20.281c1.21.584 1.991 1.831 1.991 3.176 0 1.946-1.588 3.53-3.54 3.53h-98.02c-5.922 0-10.739-4.818-10.739-10.74v-.827c1.006-.083 2.005-.147 3.015-.24 24.689-2.279 46.531-7.357 65.439-15.18zm60.551-438.197c-26.812 4.337-45.065 21.061-48.115 45.148h-18.648c-3.05-24.087-21.304-40.812-48.119-45.148 17.619-10.974 37.281-16.816 57.44-16.816 20.16 0 39.822 5.842 57.442 16.816zm27.459 164.301c-19.343 10.814-47.906 16.298-84.898 16.298s-65.557-5.483-84.898-16.298c-22.1-12.356-32.843-31.739-32.843-59.256 0-29.71 12.633-60.267 34.66-83.835 2.332-2.495 4.735-4.869 7.198-7.133 1.37-.119 2.752-.201 4.148-.201 21.355 0 45.086 8.973 47.644 34.155.702 6.907 6.429 12.116 13.32 12.116h21.544c6.894 0 12.619-5.21 13.319-12.117 2.558-25.182 26.288-34.155 47.644-34.155 1.395 0 2.776.082 4.144.2 2.463 2.264 4.867 4.639 7.199 7.134 22.028 23.567 34.662 54.124 34.662 83.834-.001 27.519-10.744 46.902-32.843 59.258z"/><path d="m205.732 265.117c-3.669-1.917-8.202-.498-10.121 3.173-10.296 19.702-23.642 99.892-8.678 128.991 4.4 8.558 10.971 13.145 20.403 13.141 8.801 0 17.92-3.953 26.608-11.584 26.243-23.049 45.681-76.234 45.212-123.714-.041-4.142-3.434-7.486-7.574-7.425-4.142.041-7.466 3.432-7.426 7.574.371 37.557-14.53 89.829-40.11 112.295-4.629 4.066-11.619 8.707-18.648 7.721-.699-.098-2.827-.396-5.125-4.867-12.279-23.877.07-98.8 8.633-115.184 1.918-3.671.497-8.202-3.174-10.121z"/></g></g></svg>