<svg id="Capa_1" enable-background="new 0 0 512 512" height="512" viewBox="0 0 512 512" width="512" xmlns="http://www.w3.org/2000/svg"><g><g><g><path d="m135.562 60.835c.534-1.024.534-2.242 0-3.265-5.987-11.467-17.982-19.298-31.814-19.298s-25.827 7.831-31.814 19.298c-.534 1.024-.534 2.242 0 3.265 5.987 11.467 17.982 19.298 31.814 19.298s25.827-7.831 31.814-19.298z" fill="#664646"/><g><path d="m363.215 437.66 13.575 32.887c2.168 5.251-1.693 11.02-7.373 11.02h-26.117c-5.401 0-10.564-2.226-14.271-6.154l-18.254-19.342c-2.697-2.857-4.199-6.637-4.199-10.566v-49.369c-71.491 2.324-115.611-23.682-159.227-31.737-9.082 38.05-31.795 48.69-31.795 48.69l8.268 35.164 16.943 21.494c3.776 4.793.358 11.822-5.741 11.822h-37.03c-6.918 0-13.021-4.529-15.025-11.151l-55.636-183.823c-2.924-9.653-3.999-19.78-3.176-29.83 1.258-15.326 6.845-29.636 15.694-41.487 8.859-11.851 20.98-21.261 35.329-26.79 14.339-5.519 31.379-12.557 50.249-21.261 75.374-34.767 157.795-136.794 232.945-136.794 39.415 0 69.351 48.332 87.456 102.027l-82.615 166.983z" fill="#b79090"/><g fill="#aa7f7f"><path d="m363.215 437.66v-138.218l82.615-166.982c-18.105-53.695-48.041-102.027-87.456-102.027-4.287 0-8.599.347-12.931.98 34.688 7.082 61.243 51.806 77.846 101.047l-82.615 166.983v138.217l13.575 32.887c2.168 5.251-1.692 11.02-7.373 11.02h22.542c5.681 0 9.541-5.769 7.373-11.02z"/><path d="m306.577 367.138v28.997c-71.491 2.324-115.611-23.682-159.227-31.737 1.888-7.92 3.185-17.021 3.563-27.467 42.831 9.11 87.552 30.565 155.664 30.207z"/><path d="m123.826 448.255-8.274-35.165s50.534-23.676 30.99-126.692c-.945-4.981-5.494-8.459-10.549-8.074-5.868.447-10.083 5.864-9.052 11.658 15.016 84.432-18.262 109.346-28.665 114.948-1.754.945-2.675 2.924-2.289 4.878l7.585 38.447 16.938 21.489c3.775 4.789.363 11.822-5.735 11.822h20.254c6.098 0 9.51-7.033 5.735-11.822z"/></g><g><g><g><path d="m301.488 126.13c-18.394 0-35.716-16.658-39.802-39.591-.549-3.083-4.757-3.596-6.032-.735-28.778 64.56 23.432 77.978 45.835 77.978 10.397 0 18.826-8.429 18.826-18.826-.001-10.397-8.43-18.826-18.827-18.826z" fill="#ffeee8"/></g><g><path d="m450.222 126.13c18.394 0 35.716-16.658 39.802-39.591.549-3.083 4.757-3.596 6.032-.735 28.778 64.56-23.432 77.978-45.835 77.978-10.397 0-18.826-8.429-18.826-18.826.001-10.397 8.43-18.826 18.827-18.826z" fill="#ffeee8"/></g></g><path d="m412.513 99.33h-73.316c-23.304 0-65.655 49.935-65.655 120.081 0 45.497 59.985 68.932 90.991 107.468 5.793 7.199 16.851 7.199 22.643 0 31.006-38.536 90.991-61.972 90.991-107.468.001-70.146-42.351-120.081-65.654-120.081z" fill="#9d6c6c"/><path d="m286.55 116.011v12.847c0 5.6 4.119 10.337 9.663 11.132 19.137 2.744 60.028 11.111 60.028 32.508v83.725h39.229s0-59.534 0-83.725c0-21.396 40.891-29.763 60.028-32.507 5.543-.795 9.663-5.532 9.663-11.132v-12.847c0-6.748-4.219-12.767-10.549-15.103-52.504-19.381-105.008-19.381-157.512 0-6.331 2.336-10.55 8.355-10.55 15.102z" fill="#664646"/><path d="m410.184 299.836h-68.658c-10.337 0-18.717-8.38-18.717-18.717v-17.95c0-21.461 17.398-38.858 38.858-38.858h28.376c21.461 0 38.858 17.398 38.858 38.858v17.95c0 10.337-8.38 18.717-18.717 18.717z" fill="#cdb1b1"/></g></g></g></g><g><path d="m370.712 436.172v-22.391c0-4.142-3.357-7.5-7.5-7.5s-7.5 3.358-7.5 7.5v23.879c0 .982.192 1.954.567 2.862l13.575 32.886c.034.083.097.235-.045.447s-.308.212-.396.212h-26.116c-3.322 0-6.536-1.386-8.816-3.802l-18.254-19.342c-1.389-1.471-2.153-3.396-2.153-5.419v-49.369l-.001-.019v-55.941c0-4.142-3.357-7.5-7.5-7.5s-7.5 3.358-7.5 7.5v48.594c-43.366.23-76.507-10.261-105.899-19.582-12.708-4.03-24.833-7.857-36.927-10.593 4.141-23.27 2.76-50.891-4.167-82.538-.885-4.045-4.874-6.61-8.93-5.723-4.046.886-6.608 4.884-5.723 8.93 7.379 33.716 10.136 71.509-4.127 102.624-8.457 18.451-20.359 24.128-20.929 24.41-3.213 1.505-4.932 5.055-4.119 8.508l8.268 35.164c.251 1.067.732 2.066 1.411 2.927l16.688 21.172h-36.626c-3.639 0-6.792-2.34-7.846-5.823l-55.636-183.824c-2.66-8.784-3.629-17.882-2.879-27.041 1.121-13.642 6.041-26.648 14.226-37.61 8.205-10.976 19.276-19.372 32.016-24.28 16.795-6.464 33.851-13.681 50.695-21.45 12.373-5.707 25.798-13.562 41.042-24.013 3.416-2.342 4.287-7.011 1.944-10.427-2.341-3.415-7.007-4.288-10.427-1.945-14.539 9.968-27.245 17.414-38.843 22.764-16.551 7.634-33.305 14.724-49.802 21.073-15.381 5.926-28.742 16.057-38.642 29.3-1.01 1.353-1.968 2.737-2.895 4.14-9.843-6.564-15.946-17.668-15.946-29.8 0-8.775 3.201-17.223 9.016-23.787 5.813-6.566 13.805-10.759 22.502-11.806 22.7-2.737 55.266-8.019 81.505-17.64 32.412-11.884 48.845-28.025 48.845-47.976 0-16.234-12.815-27.399-35.366-31.068-7.7-13.646-22.024-22.08-37.756-22.08-16.211 0-30.948 8.938-38.463 23.328-1.667 3.195-1.667 7.009.001 10.206 7.513 14.389 22.251 23.327 38.462 23.327 14.839 0 28.424-7.503 36.382-19.804 9.747 1.715 21.74 5.898 21.74 16.091 0 16.191-21.213 27.368-39.009 33.893-24.887 9.124-56.227 14.189-78.136 16.83-12.346 1.486-23.687 7.436-31.937 16.754-8.245 9.31-12.786 21.289-12.786 33.732 0 17.671 9.113 33.83 23.75 43.032-3.862 8.832-6.27 18.274-7.068 27.99-.905 11.047.263 22.02 3.472 32.615l55.635 183.82c2.983 9.856 11.905 16.478 22.203 16.478h37.03c5.722 0 10.827-3.197 13.324-8.344 2.495-5.143 1.847-11.128-1.693-15.621l-15.913-20.187-6.662-28.336c11.374-8.217 22.297-22.608 28.674-43.414 11.565 2.607 23.437 6.372 35.887 10.319 30.123 9.552 64.006 20.298 108.909 20.298.506 0 1.016-.001 1.524-.004v7.092l.001.019v34.614c0 5.866 2.217 11.447 6.244 15.714l18.254 19.342c5.103 5.406 12.292 8.507 19.725 8.507h26.116c5.176 0 9.984-2.568 12.863-6.87 2.878-4.302 3.418-9.727 1.443-14.512zm-266.965-363.536c-9.897 0-18.956-5.096-24.118-13.431 5.163-8.335 14.222-13.431 24.118-13.431s18.954 5.094 24.118 13.431c-5.163 8.336-14.221 13.431-24.118 13.431z"/><path d="m502.901 82.739c-1.928-4.306-6.375-6.811-11.053-6.237-4.684.575-8.388 4.081-9.217 8.727-1.6 8.984-5.666 17.141-11.269 23.164-2.271-6.589-7.399-12.026-14.159-14.515-7.424-2.74-14.862-5.09-22.31-7.076-21.507-41.794-47.92-63.867-76.526-63.867-48.372 0-98.44 39.116-146.86 76.943-7.37 5.758-14.991 11.712-22.437 17.392-3.293 2.512-3.927 7.218-1.414 10.512 2.515 3.298 7.222 3.923 10.512 1.414 7.515-5.732 38.51-29.943 46.514-36.027-6.511 18.822-6.634 34.952-.291 48.034 3.991 8.232 12.337 18.784 29.704 25.145-4.656 14.732-8.056 32.515-8.056 53.064 0 32.877 27.219 54.924 53.657 76.209 2.922 4.384 7.129 7.838 12.078 9.828 7.854 6.523 16.551 14.141 23.944 22.607v50.725c0 4.142 3.357 7.5 7.5 7.5s7.5-3.358 7.5-7.5v-39.601c1.662.394 3.382.602 5.135.602 6.714 0 12.971-2.987 17.17-8.2 7.942-9.875 17.977-18.711 26.91-26.132 4.949-1.991 9.156-5.445 12.078-9.829 26.437-21.285 53.657-43.331 53.657-76.208 0-20.552-3.401-38.334-8.059-53.064 17.367-6.36 25.714-16.913 29.705-25.145 7.483-15.44 6-35.106-4.413-58.465zm-45.246 33.274v12.85c0 1.851-1.383 3.443-3.222 3.706-10.53 1.507-25.834 4.419-38.946 9.731-18.262 7.397-27.521 17.559-27.521 30.203v44.31h-24.229v-44.31c0-12.644-9.26-22.806-27.521-30.203-13.111-5.311-28.415-8.224-38.949-9.731-1.835-.262-3.219-1.854-3.219-3.705v-12.85c0-3.58 2.267-6.82 5.647-8.064 50.534-18.656 101.78-18.654 152.319.002 3.374 1.241 5.641 4.481 5.641 8.061zm-36.258 165.107c0 6.185-5.032 11.217-11.218 11.217h-68.657c-6.185 0-11.218-5.032-11.218-11.217v-17.95c0-17.291 14.067-31.358 31.358-31.358h28.376c17.291 0 31.358 14.067 31.358 31.358v17.95zm-63.031-243.186c24.284 0 43.544 21.839 57.004 44.523-40.294-7.174-80.789-3.375-120.864 11.418-6.766 2.491-11.894 7.928-14.166 14.517-5.603-6.023-9.67-14.181-11.27-23.167-.508-2.85-2.104-5.268-4.341-6.846 32.095-22.793 63.994-40.445 93.637-40.445zm-100.479 96.725c-4.292-8.852-4.256-20.258.083-34.002 4.446 11.012 11.81 20.202 21.077 26.121.156.925-1.095 8.248 5.1 14.868-1.639 3.236-3.289 6.772-4.891 10.601-8.131-2.999-16.855-8.278-21.369-17.588zm23.151 84.753c0-25.24 5.654-49.858 16.796-71.593 31.019 4.809 50.903 14.4 50.903 24.683v46.157c-19.289 5.611-33.431 23.435-33.431 44.511v9.47c-18.974-16.053-34.268-32.393-34.268-53.228zm100.297 102.764c-1.333 1.655-3.332 2.605-5.484 2.605-2.151 0-4.15-.95-5.479-2.601-4.002-4.979-9.312-10.551-13.807-14.844h38.574c-4.823 4.606-9.55 9.55-13.804 14.84zm55.062-49.535v-9.471c0-21.076-14.142-38.899-33.431-44.511v-46.157c0-10.283 19.883-19.874 50.896-24.682 10.536 20.536 16.803 44.972 16.803 71.592 0 20.835-15.295 37.175-34.268 53.229zm57.418-137.982c-4.515 9.311-13.24 14.591-21.373 17.589-1.603-3.828-3.252-7.362-4.892-10.597 6.213-6.634 4.946-13.931 5.105-14.873 9.267-5.918 16.632-15.109 21.077-26.12 4.339 13.747 4.374 25.15.083 34.001z"/><path d="m322.805 196.959c4.143 0 7.5-3.358 7.5-7.5v-7.011c0-4.142-3.357-7.5-7.5-7.5s-7.5 3.358-7.5 7.5v7.011c0 4.142 3.357 7.5 7.5 7.5z"/><path d="m428.897 174.948c-4.143 0-7.5 3.358-7.5 7.5v7.011c0 4.142 3.357 7.5 7.5 7.5s7.5-3.358 7.5-7.5v-7.011c0-4.142-3.357-7.5-7.5-7.5z"/><path d="m362.3 256.821c-2.199-3.511-6.827-4.573-10.337-2.376-3.511 2.199-4.574 6.827-2.376 10.337 1.231 1.967 2.058 4.683 2.455 8.074.448 3.817 3.688 6.626 7.439 6.626.292 0 .587-.017.884-.052 4.113-.482 7.058-4.208 6.575-8.323-.668-5.694-2.186-10.367-4.64-14.286z"/><path d="m399.725 254.436c-3.516-2.19-8.141-1.116-10.332 2.4-2.417 3.881-3.976 8.683-4.632 14.272-.482 4.114 2.462 7.84 6.575 8.323.297.035.592.052.884.052 3.751 0 6.991-2.81 7.439-6.626.396-3.377 1.226-6.098 2.466-8.088 2.19-3.518 1.116-8.144-2.4-10.333z"/></g></g></svg>