<svg id="Capa_1" enable-background="new 0 0 512 512" height="512" viewBox="0 0 512 512" width="512" xmlns="http://www.w3.org/2000/svg"><g><g><g><path d="m304.229 282.96v166.762l9.981 16.816c3.05 5.13-.648 11.623-6.618 11.623h-34.003c-4.96 0-8.97-4.01-8.97-8.97v-105.521c0-11.4-9.369-33.33-17.409-53.8-29.76 10.17-59.35 13.7-98.6 4.06-14.47 47.49-54.73 71.062-54.73 71.062l7.269 58.52 10.08 23.969c2.13 5.07-1.587 10.679-7.097 10.679h-31.364c-4.47 0-8.249-3.281-8.879-7.691l-13.76-95.699s37.762-34.34-13.998-101.45c-36.53-47.36-8.561-158.291 48.819-158.291 21.81 0 42.24 20.69 60.35 20.57 28.41-.17 51.02-20.62 63.84-20.62 24 0 56.97 55.62 85.29 77.6 37.62-29 58.72-59.31 74.96-112.96l33.42 73.64c-19.36 63.961-45.651 94.762-98.581 129.701z" fill="#d09180"/><path d="m402.81 153.26c-19.36 63.96-45.651 94.76-98.581 129.7v-23.76c48.18-32.55 73.461-62.42 92.071-120.29z" fill="#c77e67"/><path d="m239.93 290.041c2 6.13 4.56 12.89 7.28 19.83-29.76 10.17-59.35 13.7-98.6 4.06 1.79-5.9 3.2-12.18 4.07-18.82 33.89 6.91 60.62 3.66 87.25-5.07z" fill="#c77e67"/><g fill="#d09180"><path d="m315.239 37.199c-.714 5.825-.922 29.232 38.659 42.426l15.496-10.661c-.624-20.628-13.538-41.366-52.684-33.369-.784.16-1.374.81-1.471 1.604z"/><path d="m504.333 37.199c.714 5.825.922 29.232-38.659 42.426l-15.496-10.661c.624-20.628 13.538-41.366 52.684-33.369.784.16 1.373.81 1.471 1.604z"/></g><path d="m471.569 72.695c-11.804-22.788-29.107-40.836-59.71-28.37-1.326.54-2.82.54-4.146 0-30.603-12.466-47.906 5.582-59.71 28.37-16.581 7.294-26.887 18.571-26.887 34.246 0 30.773 39.699 58.85 88.67 58.85s88.67-28.077 88.67-58.85c0-15.675-10.306-26.952-26.887-34.246z" fill="#d9a797"/><path d="m409.786 129.407c-25.437 0-46.058 20.621-46.058 46.058v27.925c0 6.382 5.174 11.556 11.556 11.556h69.003c6.382 0 11.556-5.174 11.556-11.556v-27.925c0-25.437-20.62-46.058-46.057-46.058z" fill="#eacfca"/><g><path d="m422.901 247.926h-26.231c-7.311 0-13.238-5.927-13.238-13.238v-19.741h52.708v19.741c0 7.311-5.927 13.238-13.239 13.238z" fill="#e4c2bb"/></g><g fill="#c77e67"><path d="m314.21 466.539-9.981-16.816v-189.493c0-5.889-5.955-9.913-11.42-7.717-3.151 1.266-5.216 4.321-5.216 7.717v189.495l9.984 16.811c3.047 5.13-.65 11.625-6.617 11.625h16.631c5.968 0 9.666-6.493 6.619-11.622z"/><path d="m139.739 255.236-.455.079c-5.839 1.019-9.845 6.366-9.314 12.27 5.842 64.955-39.888 98.836-55.202 108.28-2.965 1.828-4.582 5.215-4.152 8.672l7.325 58.978 10.079 23.968c2.133 5.072-1.592 10.678-7.094 10.678h23.206c5.502 0 9.23-5.607 7.097-10.679l-10.08-23.969-7.269-58.52s67.78-39.674 59.062-119.815c-.707-6.504-6.759-11.067-13.203-9.942z"/></g></g></g><g><path d="m311.738 447.629v-44.015c0-4.142-3.358-7.5-7.5-7.5s-7.5 3.358-7.5 7.5v46.073c0 1.347.363 2.669 1.051 3.828l10.023 16.904c.002.02-.02.102-.078.166-.029.032-.037.041-.132.041h-34.004c-.824 0-1.47-.646-1.47-1.47v-105.524c0-20.285-25.684-68.796-28.498-89.426-.56-4.105-4.342-6.978-8.444-6.418-4.105.56-6.978 4.34-6.418 8.444 1.072 7.862 4.418 17.884 8.59 28.882-26.901 8.062-51.427 9.044-79.488 3.185 4.229-17.995 4.455-36.944.618-56.533-.796-4.065-4.74-6.713-8.802-5.919-4.065.796-6.714 4.737-5.919 8.802 4.062 20.735 3.25 41.674-3.911 61.821-14.537 40.818-49.408 61.803-49.761 62.012-2.586 1.514-4.022 4.423-3.653 7.397l7.27 58.521c.085.682.263 1.35.529 1.983l10.079 23.967c.027.064.042.099-.018.188-.058.087-.093.087-.165.087h-31.365c-.728 0-1.353-.538-1.456-1.258l-13.26-92.218c3.595-4.389 9.54-13.341 11.875-26.681 4.32-24.687-5.053-52.198-27.859-81.767-9.82-12.733-15.096-31.858-14.854-53.854.232-21.099 5.614-42.997 14.767-60.079 1.956-3.651.583-8.196-3.069-10.153-3.649-1.955-8.196-.583-10.153 3.069-10.256 19.142-16.287 43.562-16.544 66.999-.053 4.846.141 9.583.566 14.187l-12.618 59.094c-.865 4.051 1.718 8.036 5.769 8.9 4.033.862 8.032-1.701 8.9-5.769l6.178-28.933c2.546 5.792 5.61 11.07 9.18 15.699 46.511 60.303 16.157 90.128 14.891 91.323-1.841 1.674-2.732 4.153-2.378 6.616l13.76 95.694c1.151 8.056 8.16 14.13 16.304 14.13h31.365c5.103 0 9.835-2.536 12.658-6.785 2.824-4.25 3.33-9.595 1.353-14.302l-9.679-23.015-6.563-52.836c10.576-7.281 38.024-28.972 51.587-65.785.004-.011.011-.021.015-.032.009-.024.016-.048.025-.071.009-.025.019-.048.028-.073 31.579 6.799 58.989 5.699 89.274-3.59.167.421.334.842.502 1.263 6.465 16.268 13.792 34.707 13.792 43.232v105.524c0 9.082 7.388 16.47 16.47 16.47h34.004c5.537 0 10.477-2.872 13.213-7.683 2.735-4.808 2.679-10.517-.146-15.268z"/><path d="m361.192 99.799h-6.381c-4.142 0-7.5 3.358-7.5 7.5s3.358 7.5 7.5 7.5h6.381c4.142 0 7.5-3.358 7.5-7.5s-3.358-7.5-7.5-7.5z"/><path d="m464.784 99.799h-6.381c-4.142 0-7.5 3.358-7.5 7.5s3.358 7.5 7.5 7.5h6.381c4.142 0 7.5-3.358 7.5-7.5s-3.358-7.5-7.5-7.5z"/><path d="m490.945 75.698c21.701-14.919 21.551-33.491 20.848-39.432-.479-4.017-3.461-7.256-7.422-8.062-13.56-2.761-36.772-4.47-50.875 11.156-.283-.179-.564-.366-.849-.538-12.452-7.505-26.867-8.105-42.849-1.788-15.986-6.316-30.399-5.716-42.849 1.788-.284.171-.563.356-.844.534-14.108-15.661-37.326-13.93-50.887-11.151-3.937.806-6.915 4.03-7.41 8.026-.734 5.936-.969 24.514 20.84 39.471-12.031 10.148-15.017 21.978-15.017 31.193 0 13.452 6.454 26.643 17.69 37.679-9.699 13.695-21.566 26.069-36.753 38.313-9.091-8.053-18.886-19.412-28.405-30.449-19.957-23.143-38.807-45.003-57.016-45.003-6.915 0-14.525 3.743-23.337 8.077-11.28 5.548-25.318 12.453-40.555 12.544-.036 0-.071 0-.108 0-6.81 0-15.116-4.251-23.907-8.749-10.829-5.541-23.102-11.822-36.286-11.822-11.359 0-22.102 3.668-31.927 10.9-3.335 2.456-4.049 7.15-1.594 10.486 2.456 3.336 7.15 4.049 10.486 1.594 7.193-5.295 14.943-7.981 23.035-7.981 9.569 0 19.677 5.173 29.453 10.175 10.054 5.145 20.458 10.444 30.943 10.395 18.673-.112 34.424-7.858 47.08-14.083 6.534-3.214 13.291-6.537 16.716-6.537 11.337 0 29.57 21.144 45.656 39.799 11.581 13.43 23.556 27.317 35.037 36.228 2.698 2.094 6.471 2.101 9.177.015 18.375-14.163 32.507-28.422 43.956-44.404 4.53 3.08 9.509 5.872 14.877 8.315-1.048 4.175-1.612 8.539-1.612 13.034v27.926c0 6.404 3.185 12.068 8.044 15.525-12.684 17.797-28.826 33.119-52.545 49.858v-20.846c0-4.142-3.358-7.5-7.5-7.5s-7.5 3.358-7.5 7.5v120.729c0 4.142 3.358 7.5 7.5 7.5s7.5-3.358 7.5-7.5c0-7.148.001-73.265.001-81.677 29.632-19.89 49.088-37.567 64.204-58.569v6.278c0 11.436 9.303 20.739 20.739 20.739h26.232c11.435 0 20.738-9.303 20.738-20.739v-12.242h.648c10.508 0 19.056-8.548 19.056-19.056v-27.926c0-4.493-.563-8.856-1.61-13.029 27.086-12.326 44.228-33.566 44.228-55.497.003-9.215-2.986-21.047-15.027-31.197zm5.96-33.595c-.611 6.013-4.242 16.11-19.994 24.599-3.791-6.957-7.783-12.77-12.031-17.522 6.505-6.953 17.228-9.34 32.025-7.077zm-142.189 7.075c-4.248 4.752-8.24 10.564-12.031 17.522-15.831-8.515-19.434-18.6-20.019-24.591 11.271-1.705 24.213-1.212 32.05 7.069zm73.936 185.468c0 3.165-2.574 5.739-5.738 5.739h-26.232c-3.165 0-5.739-2.574-5.739-5.739v-12.242h37.709zm19.705-31.298c0 2.237-1.82 4.056-4.056 4.056h-69.005c-2.237 0-4.056-1.819-4.056-4.056v-27.926c0-21.261 17.297-38.559 38.558-38.559s38.559 17.298 38.559 38.559zm7.714-54.844c-9.295-15.916-26.55-26.641-46.273-26.641-19.721 0-36.975 10.722-46.27 26.636-17.27-7.956-34.897-22.925-34.897-41.603 0-11.63 7.536-20.84 22.399-27.375 1.568-.689 2.853-1.895 3.641-3.415 4.654-8.981 9.395-15.848 14.669-20.437.07-.061.14-.121.208-.183 9.932-8.822 21.235-10.006 35.354-4.252 3.159 1.282 6.636 1.282 9.802-.004 14.112-5.752 25.415-4.567 35.348 4.259.066.06.133.118.2.176 5.276 4.589 10.019 11.457 14.674 20.441.788 1.521 2.073 2.726 3.641 3.415 14.87 6.538 22.409 15.748 22.409 27.375-.001 15.882-13.499 31.747-34.905 41.608z"/><path d="m398.587 164.004c-1.997-3.63-6.559-4.954-10.186-2.958-3.629 1.996-4.954 6.557-2.958 10.186 1.145 2.082 1.912 4.952 2.281 8.531.397 3.859 3.654 6.732 7.451 6.732.257 0 .517-.013.777-.04 4.12-.424 7.117-4.108 6.692-8.229-.582-5.665-1.909-10.317-4.057-14.222z"/><path d="m431.177 161.037c-3.636-1.987-8.192-.651-10.178 2.984-2.145 3.923-3.469 8.571-4.048 14.208-.424 4.12 2.573 7.804 6.693 8.228.261.027.52.04.776.04 3.797 0 7.055-2.874 7.451-6.733.367-3.563 1.137-6.439 2.29-8.547 1.987-3.636.651-8.193-2.984-10.18z"/></g></g></svg>