<svg id="Capa_1" enable-background="new 0 0 512 512" height="512" viewBox="0 0 512 512" width="512" xmlns="http://www.w3.org/2000/svg"><g><g><g><path d="m154.97 103.624c-.436-.774-1.202-1.323-2.076-1.487-13.274-2.488-27.399 2.662-35.782 14.364-8.383 11.703-8.715 26.734-2.089 38.501.436.774 1.202 1.323 2.076 1.487 13.274 2.488 27.399-2.662 35.782-14.364 8.383-11.703 8.715-26.733 2.089-38.501z" fill="#be694e"/><path d="m351.305 443.853 18.821 26.125c3.7 5.135.03 12.301-6.299 12.301h-51.656c-6.947 0-12.823-5.137-13.751-12.022l-11.237-83.345c-39.034-.712-87.261-18.886-127.311-28.696-6.429 41.495-53.501 51.261-53.501 51.261v34.374l13.694 27.17c2.603 5.163-1.15 11.258-6.933 11.258h-41.517c-5.698 0-10.817-3.484-12.908-8.785l-25.245-64.016s30.762-33.024 2.052-73.817c-28.71-40.792-14.563-115.374 60.385-121.771 74.948-6.387 127.793-39.84 148.409-53.766l162.366 131.446c-16.407 32.815-55.369 80.475-55.369 80.475z" fill="#ecb880"/><g fill="#e69642"><path d="m406.674 291.57-16.327-13.218c-23.919 44.999-60.743 93.694-60.743 93.694v71.807l18.822 26.125c3.7 5.135.03 12.301-6.299 12.301h21.701c6.329 0 9.999-7.166 6.299-12.301l-18.821-26.125v-71.807c-.001 0 38.961-47.661 55.368-80.476z"/><path d="m283.42 358.97 3.763 27.943c-39.03-.71-87.261-18.886-127.311-28.696 1.02-6.52 1.028-13.817-.312-21.977 40.4 8.58 84.63 19.49 123.86 22.73z"/><path d="m141.029 307.144c-5.503 1.487-8.669 7.295-6.868 12.704 21.636 64.986-49.126 75.63-49.126 75.63v48.374l13.692 27.17c2.602 5.164-1.151 11.258-6.933 11.258h21.339c5.782 0 9.535-6.094 6.933-11.258l-13.694-27.17v-34.374s78.685-16.33 46.501-96.44c-1.88-4.679-6.976-7.21-11.844-5.894z"/></g><g><path d="m438.387 46.287c-41.842-22.089-113.912-22.089-155.754 0-26.073 13.764-66.113 77.481-66.113 107.106 0 83.272 116.402 176.742 143.99 176.742 27.589 0 143.99-93.47 143.99-176.742 0-29.625-40.04-93.342-66.113-107.106z" fill="#be694e"/><g fill="#ecb880"><path d="m483.731 123.896c-1.564 1.72-4.372 1.268-5.333-.85-4.678-10.307-11.544-22.865-21.488-38.342-1.821-2.836-3.878-5.465-6.138-7.865-1.735-1.842-.87-4.882 1.603-5.417 16.724-3.615 38.089-3.828 46.69 10.392 7.658 12.662-4.57 30.241-15.334 42.082z"/><path d="m268.644 71.421c2.472.535 3.336 3.575 1.602 5.416-2.261 2.401-4.319 5.03-6.14 7.867-9.944 15.477-16.81 28.033-21.488 38.34-.961 2.118-3.77 2.57-5.334.849-10.755-11.841-22.982-29.419-15.333-42.079 8.602-14.22 29.969-14.014 46.693-10.393z"/></g><path d="m411.632 89.294h-102.245c-8.34 0-16.105 4.236-20.612 11.253-10.414 16.213-27.791 45.694-26.005 59.348 3.518 26.889 70.151 82.737 70.151 82.737h55.177s66.633-55.848 70.151-82.737c1.786-13.654-15.591-43.134-26.005-59.348-4.507-7.018-12.271-11.253-20.612-11.253z" fill="#ffe3cc"/><path d="m428.984 210.144c-1.389-15.024-31.802-33.905-45.963-39.115-10.564-3.886-34.46-3.886-45.023 0-14.16 5.21-44.574 24.091-45.963 39.115-1.582 17.103 25.427 51.089 41.204 57.879 14.448 6.218 40.093 6.218 54.541 0 15.777-6.79 42.786-40.777 41.204-57.879z" fill="#f0c99d"/><path d="m360.51 199.285c-10.58 0-31.468-20.438-26.961-30.011 5.742-12.196 48.18-12.196 53.922 0 4.507 9.573-16.381 30.011-26.961 30.011z" fill="#ac583e"/></g></g></g><g><path d="m358.802 441.453v-11.894c0-4.142-3.358-7.5-7.5-7.5s-7.5 3.358-7.5 7.5v14.315c0 1.574.495 3.107 1.415 4.384l18.823 26.126c.066.092.094.13.021.274-.074.144-.121.144-.235.144h-51.657c-3.177 0-5.894-2.375-6.318-5.524-.065-.48-16.717-124.02-18.888-140.126-.553-4.105-4.324-6.983-8.435-6.431-4.105.553-6.984 4.33-6.431 8.435l6.445 47.817c-24.79-1.997-52.961-10.101-80.311-17.984-10.491-3.024-20.5-5.904-30.217-8.425.822-15.205-3.146-32.203-11.914-50.836-1.764-3.749-6.234-5.358-9.98-3.593-3.748 1.764-5.357 6.232-3.593 9.98 9.681 20.571 15.654 44.681 4.655 64.568-8.599 15.599-27.777 26.389-42.342 29.472-3.481.722-5.977 3.789-5.977 7.344v34.375c0 1.172.275 2.329.803 3.376l13.694 27.17c.039.077.066.132-.011.257s-.139.125-.224.125h-41.518c-2.636 0-4.964-1.584-5.931-4.036l-23.654-59.98c2.997-4.092 7.501-11.279 10.393-20.695 4.234-13.788 5.802-35.168-10.777-58.725-14.084-20.015-16.446-48.694-5.878-71.366 10.466-22.453 32.048-36.169 60.768-38.621 3.206-.273 6.456-.603 9.662-.98 4.114-.484 7.056-4.211 6.572-8.325s-4.208-7.06-8.325-6.572c-3.046.358-6.136.672-9.183.932-34.3 2.928-60.257 19.701-73.089 47.229-.048.102-.09.207-.137.309-6.399-12.24-8.433-22.325-6.036-30.08 4.699-15.203 26.6-23.723 49.785-32.742 18.691-7.271 37.956-14.782 51.804-26.967 2.022.288 4.047.431 6.061.431 13.826 0 27.121-6.645 35.331-18.105 9.775-13.645 10.766-31.917 2.527-46.549-1.53-2.717-4.166-4.605-7.229-5.179-16.507-3.092-33.487 3.724-43.262 17.368-8.778 12.253-10.448 28.23-4.735 41.96-11.864 9.791-29.147 16.53-45.934 23.061-26.66 10.37-51.84 20.165-58.68 42.29-4.513 14.602.155 32.151 14.262 53.575-4.494 23.079.215 48.155 13.45 66.961 24.727 35.134-.348 63.233-1.406 64.389-1.97 2.115-2.55 5.175-1.489 7.864l25.246 64.018c3.242 8.221 11.048 13.533 19.885 13.533h41.518c5.339 0 10.197-2.714 12.997-7.26s3.036-10.106.633-14.874l-12.891-25.578v-26.863c24.029-7.532 44.603-23.638 51.664-47.815 9.138 2.396 18.627 5.13 28.548 7.99 29.226 8.423 59.372 17.113 86.511 18.771l10.397 77.109c1.423 10.558 10.53 18.52 21.184 18.52h51.657c5.757 0 10.963-3.183 13.587-8.307s2.163-11.208-1.202-15.879zm-235.6-320.569c5.98-8.346 16.087-12.788 26.199-11.673 4.31 9.22 3.355 20.215-2.624 28.561s-16.088 12.787-26.199 11.673c-4.31-9.22-3.355-20.215 2.624-28.561z"/><path d="m500.78 114.121c7.426-11.719 11.544-24.864 4.702-36.175-6.776-11.202-20.317-16.744-38.223-16.025-6.841-7.972-16.126-17.368-25.362-22.248-3.964-2.097-8.279-4.051-12.826-5.807-3.864-1.492-8.207.43-9.699 4.295-1.492 3.864.431 8.206 4.294 9.699 11.484 4.435 16.916 7.803 25.659 16.68-3.071 1.144-5.489 3.654-6.477 6.835-1.154 3.713-.21 7.783 2.462 10.62 7.325 7.776 21.011 32.605 26.258 44.165 1.5 3.304 4.533 5.612 8.115 6.175 3.558.561 7.155-.693 9.597-3.38.368-.405.737-.817 1.106-1.232 4.258 10.355 6.613 19.393 6.613 25.681 0 45.765-37.31 91.319-59.551 114.399-14.888 15.451-31.587 29.744-47.022 40.246-15.847 10.782-26.021 14.608-29.919 14.608s-14.072-3.826-29.919-14.608c-15.435-10.502-32.135-24.795-47.023-40.246-18.756-19.464-48.228-54.911-57.003-92.99-.13-1.1-2.547-9.775-2.547-21.41 0-6.289 2.356-15.326 6.613-25.681 2.335 2.633 4.694 4.741 9.024 4.741 4.196 0 8.029-2.423 9.792-6.306 4.873-10.738 11.928-23.316 20.97-37.389 1.554-2.42 3.333-4.7 5.289-6.776 2.672-2.837 3.616-6.906 2.463-10.619-.987-3.181-3.406-5.692-6.478-6.837 5.312-5.394 10.266-9.396 14.44-11.602 26.079-13.763 67.071-19.071 104.43-13.525 4.093.611 7.912-2.22 8.52-6.317s-2.22-7.912-6.317-8.52c-40.931-6.078-84.474-.293-113.637 15.097-9.258 4.891-18.534 14.28-25.362 22.243-17.907-.723-31.452 4.822-38.234 16.035-6.83 11.305-2.712 24.449 4.71 36.167-5.495 11.709-11.223 26.882-11.223 39.288 0 6.161.587 12.293 1.653 18.357-23.07 12.344-47.303 21.631-72.115 27.624-4.026.973-6.502 5.025-5.529 9.052.83 3.435 3.9 5.741 7.284 5.741 3.055 0 37.696-8.506 73.986-27.377 11.637 38.187 39.939 72.18 58.471 91.412 32.656 33.89 70.378 59.446 87.744 59.446 2.567 0 5.588-.572 8.963-1.633-12.699 17.472-23.811 31.102-23.97 31.297-1.095 1.339-1.693 3.017-1.693 4.747v22.491c0 4.142 3.358 7.5 7.5 7.5s7.5-3.358 7.5-7.5v-19.837c5.62-6.991 23.921-30.13 39.287-53.712 15.822-10.649 33.636-25.654 50.157-42.799 23.806-24.707 63.747-73.776 63.747-124.806 0-12.404-5.726-27.575-11.22-39.284zm-39.703-36.578c10.102-1.314 25.704-1.528 31.569 8.167 4.732 7.822-4.388 21.092-10.252 28.276-6.789-13.755-17.64-31.422-21.317-36.443zm-232.713 8.167c5.705-9.432 20.669-9.592 31.572-8.172-3.593 4.906-14.366 22.36-21.318 36.443-5.808-7.12-14.989-20.434-10.254-28.271z"/><path d="m438.553 96.517c-5.905-9.213-15.97-14.713-26.924-14.713h-102.242c-10.947 0-21.014 5.498-26.931 14.708-19.599 30.518-28.726 52.175-27.126 64.366 1.474 11.278 11.163 26.488 29.575 46.417-4.3 21.119 27.294 59.855 45.368 67.631 8.195 3.528 19.214 5.292 30.236 5.292 11.019 0 22.041-1.764 30.235-5.291 18.06-7.771 49.689-46.473 45.367-67.63 18.412-19.93 28.102-35.14 29.576-46.416 1.6-12.21-7.531-33.868-27.134-64.364zm-53.74 164.631c-12.493 5.378-36.117 5.378-48.611 0-13.503-5.81-40.597-40.223-36.231-52.234.214-.398.394-.81.531-1.234 3.536-7.145 15.813-16.981 28.354-23.991.308.544.641 1.099.999 1.664 5.063 7.98 14.338 16.446 23.153 19.872v15.55c-7.085-.411-14.16-1.401-21.199-2.978-4.04-.906-8.052 1.637-8.958 5.679s1.637 8.053 5.679 8.958c20.601 4.616 42.195 4.876 63.957 0 4.042-.905 6.585-4.916 5.679-8.958-.905-4.043-4.916-6.585-8.958-5.679-7.039 1.577-14.114 2.567-21.199 2.978v-15.55c8.815-3.425 18.089-11.891 23.153-19.872.359-.565.691-1.12.999-1.664 8.435 4.715 28.521 18.178 29.352 27.161 1.207 13.016-23.348 44.552-36.7 50.298zm-4.657-89.222c.113.115.231.224.35.331.029.033.071.07.095.102-.002 1.132-1.25 4.586-5.394 9.269-5.994 6.773-12.655 10.172-14.7 10.172s-8.706-3.399-14.7-10.172c-3.879-4.383-5.22-7.689-5.378-9.023l-.001-.012c-.01-.084-.015-.162-.015-.23.031-.041.082-.087.122-.13.104-.094.207-.188.305-.288 6.826-5.685 32.378-5.734 39.316-.019zm70.657-12.994c-.564 4.315-4.321 14.271-22.196 34.305-2.686-3.196-6.041-6.451-10.078-9.757-6.786-5.557-15.329-11.081-23.493-15.246-.222-.786-.492-1.504-.791-2.139-.479-1.018-1.072-1.952-1.741-2.823l-5.615-31.002c-.738-4.076-4.639-6.785-8.716-6.044-4.076.738-6.782 4.641-6.044 8.716l3.492 19.277c-6.226-1.375-12.212-1.578-15.123-1.578s-8.899.203-15.125 1.579l3.487-19.28c.737-4.076-1.97-7.978-6.046-8.715-4.074-.736-7.978 1.969-8.715 6.046l-5.606 30.999c-.67.871-1.262 1.805-1.742 2.824-.299.636-.57 1.353-.791 2.14-8.166 4.166-16.71 9.689-23.496 15.245-4.036 3.305-7.391 6.559-10.076 9.754-17.874-20.032-21.629-29.987-22.194-34.304-.82-6.255 5.283-23.807 24.874-54.312 3.144-4.893 8.493-7.814 14.31-7.814h102.242c5.817 0 11.162 2.919 14.301 7.816 19.598 30.491 25.703 48.047 24.882 54.313z"/><path d="m305.546 122.826c-4.142 0-7.5 3.358-7.5 7.5v4.711c0 4.142 3.358 7.5 7.5 7.5s7.5-3.358 7.5-7.5v-4.711c0-4.142-3.358-7.5-7.5-7.5z"/><path d="m415.468 122.826c-4.142 0-7.5 3.358-7.5 7.5v4.711c0 4.142 3.358 7.5 7.5 7.5s7.5-3.358 7.5-7.5v-4.711c0-4.142-3.358-7.5-7.5-7.5z"/></g></g></svg>