<svg id="Capa_1" enable-background="new 0 0 511.977 511.977" height="512" viewBox="0 0 511.977 511.977" width="512" xmlns="http://www.w3.org/2000/svg"><g><g><path d="m503.257 133.1-124.378-124.378c-1.645-1.645-4.313-1.645-5.958 0l-10.799 10.799c-35.991 35.991-35.991 94.345 0 130.336 35.991 35.991 94.345 35.991 130.336 0l10.799-10.799c1.646-1.645 1.646-4.313 0-5.958z" fill="#ffe179"/><path d="m503.257 133.1-19.521-19.521-6.278 6.278c-35.991 35.991-94.345 35.991-130.336 0-3.068-3.068-5.854-6.31-8.399-9.675 4.167 14.526 11.956 28.233 23.399 39.675 35.991 35.991 94.345 35.991 130.336 0l10.799-10.799c1.646-1.645 1.646-4.313 0-5.958z" fill="#fbd268"/><path d="m133.103 503.254-124.378-124.378c-1.645-1.645-1.645-4.313 0-5.958l10.799-10.799c35.991-35.991 94.345-35.991 130.336 0 35.991 35.991 35.991 94.345 0 130.336l-10.799 10.799c-1.645 1.645-4.312 1.645-5.958 0z" fill="#ffe179"/><path d="m149.861 362.118c-11.443-11.443-25.149-19.232-39.676-23.399 3.366 2.545 6.607 5.331 9.675 8.399 35.991 35.991 35.991 94.345 0 130.336l-6.278 6.278 19.521 19.521c1.645 1.645 4.313 1.645 5.958 0l10.799-10.799c35.992-35.991 35.992-94.344.001-130.336z" fill="#fbd268"/><path d="m272.749 373.29 53.141-53.141 35.95-47.942c2.833-2.833 16.902-5.262 19.302-8.344 28.955-37.189 26.339-90.991-7.848-125.178-37.02-37.02-97.04-37.02-134.06 0l-62.922 62.922-23.826 41.686c-10.226 10.226-31.424 18.143-36 30.909-11.992 33.45-4.591 72.294 22.203 99.088 37.02 37.02 97.04 37.02 134.06 0z" fill="#feaee1"/><path d="m373.294 138.686c-11.648-11.648-25.574-19.624-40.343-23.942 3.604 2.696 7.067 5.666 10.343 8.942 37.02 37.02 37.02 97.04 0 134.06l-100.545 100.544c-25.372 25.372-61.546 33.348-93.717 23.942 37.126 27.773 89.973 24.802 123.717-8.942l53.141-53.141 35.95-47.942c2.833-2.833 16.902-5.262 19.302-8.344 28.955-37.188 26.339-90.991-7.848-125.177z" fill="#fe93d3"/><path d="m325.89 320.149 47.404-47.404c2.833-2.833 5.446-5.802 7.846-8.883-.685-.166-1.373-.334-2.088-.525-29.168-7.816-25.351-22.059-54.519-29.874-29.164-7.814-32.98 6.429-62.144-1.385-29.165-7.815-25.348-22.058-54.513-29.873-14.872-3.985-23.153-2.234-31.564-.597l-37.623 37.623c-10.226 10.226-17.621 22.208-22.197 34.974 2.572 1.043 5.46 2.025 8.796 2.919 29.163 7.814 32.98-6.429 62.143 1.385 29.165 7.815 25.348 22.058 54.513 29.873 29.164 7.814 32.98-6.429 62.144 1.385 10.538 2.823 16.764 6.487 21.802 10.382z" fill="#ffe179"/><path d="m381.111 263.855c-.676-.164-1.354-.329-2.059-.518-14.735-3.948-21.052-9.537-27.456-15.108-2.529 3.304-5.279 6.494-8.302 9.517l-49.943 49.943c3.19.354 6.716 1.001 10.737 2.078 10.538 2.824 16.764 6.488 21.802 10.383l47.404-47.404c2.798-2.807 5.402-5.763 7.817-8.891z" fill="#fbd268"/></g><path d="m508.565 127.796-124.397-124.397c-4.558-4.531-11.975-4.53-16.55.017l-10.8 10.8c-24.242 24.242-34.087 59.083-26.854 91.956-7.676-1.812-15.615-2.751-23.7-2.751-27.324 0-53.012 10.641-72.333 29.961l-4.746 4.746c-2.929 2.929-2.929 7.678 0 10.606 2.929 2.929 7.678 2.929 10.606 0l4.746-4.746c34.036-34.036 89.417-34.036 123.453 0 30.226 30.227 33.585 77.274 10.126 111.269-10.847-3.348-15.778-7.624-21.401-12.516-6.554-5.703-13.983-12.167-30.241-16.523-16.255-4.356-25.921-2.472-34.448-.81-7.935 1.547-14.789 2.884-27.696-.576-12.908-3.458-18.175-8.042-24.274-13.35-6.554-5.703-13.982-12.167-30.239-16.523-5.213-1.397-9.741-2.146-13.778-2.473l18.984-18.984c2.929-2.929 2.929-7.678 0-10.606-2.929-2.929-7.678-2.929-10.606 0l-71.031 71.031c-25.276 25.102-35.016 62.28-27.143 96.046-32.895-7.258-67.766 2.585-92.025 26.843l-10.8 10.8c-4.554 4.554-4.561 11.979 0 16.566l124.396 124.396c4.566 4.539 11.984 4.525 16.551-.016l10.802-10.801c5.795-5.798 10.855-12.274 15.038-19.247 2.131-3.552.979-8.159-2.574-10.29s-8.158-.978-10.29 2.574c-3.553 5.922-7.854 11.426-12.782 16.357l-8.477 8.477-119.734-119.733 8.477-8.477c22.821-22.821 56.696-30.626 87.107-20.313 2.31 5.321 5.093 10.484 8.349 15.424l-34.239 9.488c-3.992 1.106-6.331 5.239-5.225 9.23 1.117 4.031 5.328 6.315 9.23 5.225l34.375-9.526-19.338 19.338c-2.929 2.929-2.929 7.678 0 10.606 2.929 2.929 7.678 2.929 10.606 0l19.339-19.338-9.526 34.375c-1.106 3.992 1.233 8.125 5.225 9.23 3.888 1.077 8.121-1.188 9.23-5.225l9.488-34.239c4.935 3.252 10.092 6.033 15.406 8.341 2.978 8.759 4.498 17.908 4.498 27.249 0 4.377-.341 8.787-1.015 13.104-.638 4.093 2.163 7.928 6.255 8.566 4.003.624 7.923-2.131 8.566-6.255.792-5.08 1.193-10.266 1.193-15.415 0-7.306-.802-14.512-2.359-21.555 7.792 1.845 15.759 2.773 23.726 2.773 26.195 0 52.391-9.971 72.333-29.914 25.292-25.292 75.265-75.265 100.545-100.545 26.008-26.008 35.051-62.649 27.141-96.058 7.046 1.556 14.252 2.358 21.554 2.358 26.634 0 51.663-10.366 70.474-29.187l10.816-10.816c4.533-4.557 4.533-11.974-.014-16.547zm-241.119 240.191c-34.036 34.036-89.417 34.036-123.453 0-22.767-22.767-30.281-55.079-22.59-84.17.641.187 1.282.373 1.944.55 16.257 4.356 25.921 2.472 34.448.81 7.935-1.547 14.788-2.883 27.695.576 12.908 3.458 18.175 8.042 24.274 13.35 6.554 5.703 13.982 12.167 30.239 16.523 16.256 4.355 25.921 2.472 34.447.809 7.935-1.547 14.789-2.883 27.696.576 4.993 1.338 8.811 2.856 11.863 4.412zm57.569-57.569c-4.452-2.745-10.441-5.606-18.986-7.896-16.257-4.356-25.922-2.472-34.448-.81-7.936 1.546-14.791 2.882-27.695-.576-12.908-3.458-18.176-8.042-24.275-13.35-6.554-5.703-13.982-12.167-30.239-16.523-16.254-4.355-25.92-2.472-34.447-.809-7.936 1.547-14.79 2.883-27.695-.576-.26-.07-.507-.144-.763-.216 4.194-9.107 10.033-17.636 17.526-25.129l35.999-35.999c7.234-1.379 13.995-2.288 25.945.914 12.908 3.458 18.175 8.042 24.274 13.35 6.554 5.703 13.982 12.167 30.238 16.523 16.257 4.356 25.921 2.472 34.448.81 7.936-1.546 14.79-2.883 27.696.576 12.91 3.459 18.178 8.042 24.277 13.35 5.162 4.492 10.887 9.451 21.02 13.486zm162.142-165.861c-15.979 15.987-37.24 24.792-59.866 24.792-9.333 0-18.48-1.52-27.246-4.495-2.308-5.314-5.088-10.471-8.34-15.407l34.239-9.491c3.992-1.106 6.331-5.239 5.224-9.231s-5.24-6.328-9.231-5.224l-34.385 9.531 19.346-19.345c2.929-2.929 2.929-7.678 0-10.606-2.929-2.929-7.678-2.929-10.606 0l-19.338 19.338 9.526-34.375c1.106-3.992-1.233-8.125-5.225-9.23-3.99-1.107-8.124 1.232-9.23 5.225l-9.483 34.222c-4.915-3.251-10.08-6.054-15.445-8.39-10.285-30.393-2.478-64.242 20.328-87.048l8.477-8.477 119.733 119.734z"/></g></svg>