<svg id="Capa_1" enable-background="new 0 0 512.002 512.002" height="512" viewBox="0 0 512.002 512.002" width="512" xmlns="http://www.w3.org/2000/svg"><g><g><path d="m331.094 504.502h-150.186c-29.145 0-54.074-20.944-59.101-49.652l-36.306-207.348h341l-36.306 207.348c-5.027 28.708-29.957 49.652-59.101 49.652z" fill="#aee69c"/><path d="m396.501 247.502-36.306 207.348c-5.027 28.708-29.956 49.651-59.101 49.651h30c29.145 0 54.074-20.944 59.101-49.651l36.306-207.349h-30z" fill="#89daa4"/><path d="m406.05 184.889c-4.095-.959-6.953-4.575-6.946-8.78 0-.027 0-.053 0-.08 0-31.633-25.644-57.276-57.276-57.276-7.204 0-14.094 1.333-20.443 3.762-4.658 1.783-9.797-.721-11.484-5.415-7.941-22.096-29.07-37.9-53.9-37.9s-45.959 15.804-53.9 37.9c-1.687 4.694-6.825 7.198-11.484 5.415-6.349-2.429-13.24-3.762-20.443-3.762-31.633 0-57.276 25.644-57.276 57.276v.08c.006 4.206-2.852 7.821-6.946 8.78-17.727 4.153-30.929 20.058-30.929 39.052 0 22.156 17.961 40.116 40.116 40.116h281.724c22.156 0 40.116-17.961 40.116-40.116 0-18.993-13.201-34.899-30.929-39.052z" fill="#feaee1"/><g><path d="m406.05 184.889c-4.095-.959-6.953-4.575-6.947-8.78 0-.027 0-.053 0-.08 0-31.633-25.644-57.276-57.276-57.276-5.192 0-10.217.702-14.999 1.999 24.354 6.594 42.275 28.838 42.275 55.278v.08c-.006 4.206 2.852 7.821 6.947 8.78 17.727 4.153 30.929 20.058 30.929 39.052 0 22.156-17.96 40.116-40.116 40.116h30c22.156 0 40.116-17.96 40.116-40.116 0-18.995-13.201-34.899-30.929-39.053z" fill="#fe93d3"/></g><g><circle cx="256.001" cy="72.598" fill="#f58a97" r="39.966"/><path d="m256.001 32.632c-5.307 0-10.367 1.043-15 2.921 14.637 5.933 24.966 20.278 24.966 37.044s-10.328 31.111-24.966 37.044c4.633 1.878 9.693 2.921 15 2.921 22.072 0 39.966-17.893 39.966-39.965-.001-22.072-17.894-39.965-39.966-39.965z" fill="#f07281"/></g><circle cx="256.001" cy="383.831" fill="#f9f7f8" r="82.531"/><path d="m256.001 301.3c-5.125 0-10.133.491-15 1.385 38.415 7.057 67.531 40.69 67.531 81.146s-29.116 74.088-67.531 81.146c4.867.894 9.875 1.385 15 1.385 45.581 0 82.531-36.951 82.531-82.531 0-45.581-36.951-82.531-82.531-82.531z" fill="#efedef"/></g><path d="m434.012 194.159c-6.646-8.285-15.971-14.171-26.251-16.57-.694-.162-1.16-.756-1.16-1.557 0-35.72-29.056-64.78-64.77-64.78-7.969 0-15.751 1.432-23.145 4.261-.536.205-1.413-.072-1.727-.946-3.455-9.623-9.132-18.239-16.553-25.221 1.972-5.212 3.06-10.854 3.06-16.748 0-22.011-15.062-40.566-35.42-45.912.432-.671.887-1.337 1.383-1.996 3.304-4.392 7.612-7.908 12.805-10.454 3.72-1.823 5.257-6.316 3.434-10.035-1.823-3.72-6.316-5.257-10.035-3.434-7.333 3.595-13.453 8.609-18.189 14.905-2.375 3.156-4.212 6.409-5.632 9.655-24.217 2.129-43.276 22.51-43.276 47.27 0 5.894 1.088 11.536 3.06 16.748-7.421 6.982-13.098 15.597-16.552 25.214-.334.93-1.198 1.156-1.743.947-7.379-2.823-15.161-4.255-23.13-4.255-35.714 0-64.77 29.061-64.77 64.86 0 .721-.466 1.314-1.159 1.477-21.621 5.062-36.722 24.122-36.722 46.354 0 11.622 4.146 22.6 11.719 31.27l35.184 200.931c5.66 32.366 33.622 55.858 66.488 55.858h150.18c32.866 0 60.828-23.492 66.488-55.856l10.146-57.942c.714-4.08-2.014-7.967-6.094-8.682-4.086-.706-7.967 2.015-8.682 6.094l-10.146 57.944c-4.402 25.172-26.15 43.442-51.713 43.442h-150.18c-25.562 0-47.311-18.271-51.713-43.444l-32.515-185.695c5.767 2.423 12.014 3.7 18.458 3.7h48.999c4.143 0 7.5-3.357 7.5-7.5s-3.357-7.5-7.5-7.5h-48.999c-8.714 0-16.906-3.393-23.066-9.554-6.161-6.16-9.554-14.352-9.554-23.065 0-15.228 10.338-28.283 25.141-31.748 7.501-1.757 12.74-8.37 12.74-16.162 0-27.449 22.326-49.78 49.77-49.78 6.13 0 12.108 1.099 17.756 3.259 4.086 1.574 8.537 1.434 12.534-.393 4.02-1.838 7.188-5.291 8.698-9.481 2.253-6.275 5.74-11.993 10.231-16.861 8.713 10.552 21.89 17.288 36.611 17.288s27.898-6.736 36.611-17.288c4.491 4.869 7.978 10.588 10.233 16.868 1.508 4.184 4.677 7.637 8.696 9.475 3.998 1.826 8.449 1.967 12.52.398 5.662-2.166 11.641-3.265 17.771-3.265 27.443 0 49.77 22.331 49.77 49.86 0 7.712 5.239 14.325 12.745 16.083 7.031 1.641 13.411 5.672 17.969 11.354 4.688 5.836 7.167 12.888 7.167 20.394 0 17.986-14.634 32.619-32.62 32.619h-197.723c-4.143 0-7.5 3.357-7.5 7.5s3.357 7.5 7.5 7.5h197.722c6.543 0 12.782-1.328 18.462-3.726l-16.184 92.424c-.714 4.08 2.014 7.967 6.094 8.682.438.076.873.113 1.303.113 3.574 0 6.741-2.565 7.379-6.207l18.856-107.684c7.284-8.366 11.71-19.284 11.71-31.222-.001-10.804-3.72-21.383-10.47-29.784zm-178.011-89.096c-17.901 0-32.466-14.564-32.466-32.466 0-15.042 10.286-27.725 24.192-31.393-.823 8.172.25 14.895.872 17.852.743 3.533 3.859 5.958 7.331 5.958 4.672 0 8.316-4.437 7.347-9.046-.508-2.415-1.435-8.255-.43-15.103 14.624 3.152 25.619 16.179 25.619 31.732.001 17.902-14.564 32.466-32.465 32.466zm0 368.798c49.643 0 90.03-40.388 90.03-90.03 0-49.644-40.388-90.031-90.03-90.031s-90.03 40.388-90.03 90.031c0 49.642 40.387 90.03 90.03 90.03zm0-165.061c41.372 0 75.03 33.659 75.03 75.031s-33.658 75.03-75.03 75.03-75.03-33.658-75.03-75.03 33.658-75.031 75.03-75.031zm-55.177-75.455 18.961-18.962c2.929-2.929 2.929-7.678-.001-10.606-2.928-2.928-7.677-2.929-10.606.001l-18.961 18.962c-2.929 2.929-2.929 7.678.001 10.606 2.929 2.929 7.677 2.929 10.606-.001zm70.393-18.961 18.961 18.962c2.929 2.929 7.677 2.929 10.606.001 2.93-2.929 2.93-7.678.001-10.606l-18.961-18.962c-2.929-2.929-7.678-2.93-10.606-.001-2.93 2.928-2.93 7.677-.001 10.606zm70.607-11.039 18.961-18.962c2.929-2.929 2.929-7.678-.001-10.606-2.928-2.928-7.677-2.929-10.606.001l-18.961 18.962c-2.929 2.929-2.929 7.678.001 10.606 2.929 2.929 7.677 2.929 10.606-.001zm-81.278-59.568-18.962 18.962c-2.929 2.93-2.929 7.678 0 10.607 2.929 2.93 7.677 2.928 10.607 0l18.962-18.962c2.929-2.93 2.929-7.678 0-10.607-2.929-2.928-7.678-2.928-10.607 0zm-79.761 33.963-18.961-18.962c-2.93-2.93-7.679-2.929-10.606-.001-2.93 2.929-2.93 7.678-.001 10.606l18.961 18.962c2.929 2.929 7.677 2.929 10.606.001 2.93-2.928 2.93-7.677.001-10.606z"/></g></svg>