<svg id="Capa_1" enable-background="new 0 0 512 512" height="512" viewBox="0 0 512 512" width="512" xmlns="http://www.w3.org/2000/svg"><g><g><circle cx="256" cy="256" fill="#bad6e5" r="248.5"/><path d="m256 7.5c-5.038 0-10.036.168-15 .464 130.256 7.757 233.5 115.831 233.5 248.036s-103.244 240.279-233.5 248.036c4.964.296 9.962.464 15 .464 137.243 0 248.5-111.257 248.5-248.5s-111.257-248.5-248.5-248.5z" fill="#a6cee0"/><circle cx="256" cy="256" fill="#eaf6ff" r="188.242"/><g><g><g><path d="m305.326 106.826c-1.656-1.656-1.526-4.358.246-5.889 23.117-19.976 58.088-18.991 80.035 2.956s22.932 56.918 2.956 80.035c-1.531 1.772-4.233 1.902-5.889.246z" fill="#fff5c6"/></g></g><g><g><path d="m129.326 327.826c-1.656-1.656-4.358-1.526-5.889.246-19.976 23.117-18.991 58.088 2.956 80.035s56.918 22.932 80.035 2.956c1.772-1.531 1.902-4.233.246-5.889z" fill="#fff5c6"/></g></g></g><g><g><path d="m327.361 356.816c-19.361-22.637-44.486-41.155-72.073-52.462-25.023-10.256-52.474-14.879-75.455-29.794-24.038-15.601-45.346-37.22-59.131-62.644-22.878-42.193-21.277-83.6-18.791-103.903.392-3.2 2.903-5.711 6.103-6.103 20.303-2.487 61.71-4.087 103.903 18.791 25.424 13.785 47.043 35.093 62.644 59.131 14.914 22.981 19.538 50.432 29.794 75.455 11.307 27.588 29.825 52.712 52.462 72.073-.446 3.046-2.097 11.536-9.268 19.046-7.85 8.221-17.262 9.98-20.188 10.41z" fill="#a79ba7"/><path d="m327.361 356.816c-19.361-22.637-44.486-41.155-72.073-52.462-25.023-10.256-52.474-14.879-75.455-29.794-24.038-15.601-45.346-37.22-59.131-62.644-22.878-42.193-21.277-83.6-18.791-103.903.392-3.2 2.903-5.711 6.103-6.103 20.303-2.487 61.71-4.087 103.903 18.791 25.424 13.785 47.043 35.093 62.644 59.131 14.914 22.981 19.538 50.432 29.794 75.455 11.307 27.588 29.825 52.712 52.462 72.073-.446 3.046-2.097 11.536-9.268 19.046-7.85 8.221-17.262 9.98-20.188 10.41z" fill="#a79ba7"/><path d="m272.907 289.354c-25.023-10.256-52.474-14.879-75.455-29.794-24.038-15.6-45.346-37.22-59.131-62.644-20.222-37.294-21.317-73.964-19.582-95.999-4.019.254-7.621.613-10.726.993-3.2.392-5.711 2.903-6.103 6.103-2.487 20.303-4.087 61.71 18.791 103.903 13.785 25.424 35.093 47.043 59.131 62.644 22.981 14.915 50.432 19.538 75.455 29.794 27.588 11.307 52.712 29.825 72.073 52.462 2.927-.43 12.339-2.189 20.187-10.408-17.637-25.396-46.081-45.349-74.64-57.054z" fill="#918291"/><path d="m346.02 440.751c38.594-23.68 71.052-56.138 94.732-94.731 1.778-2.897.006-6.667-3.359-7.148l-80.577-11.511c-.446 3.046-2.097 11.536-9.268 19.046-7.848 8.219-17.26 9.978-20.187 10.409 3.837 26.859 7.674 53.718 11.511 80.577.481 3.365 4.251 5.136 7.148 3.358z" fill="#7a6d79"/><g><path d="m359.059 426.626c-3.822-26.756-7.645-53.512-11.467-80.268-.015.016-.029.032-.044.049-7.848 8.219-17.26 9.978-20.187 10.408 3.837 26.859 7.674 53.718 11.511 80.577.481 3.365 4.251 5.136 7.148 3.359 5.402-3.315 10.67-6.819 15.824-10.47-1.42-.622-2.538-1.925-2.785-3.655z" fill="#685e68"/></g></g><circle cx="143.266" cy="142.589" fill="#7a6d79" r="15.919"/></g></g><path d="m271.099 215.995c-3.88-1.445-8.2.528-9.646 4.411l-1.197 3.214c-6.547 17.572-20.55 30.92-38.417 36.62-3.946 1.26-6.125 5.479-4.865 9.425 1.274 3.992 5.565 6.098 9.425 4.866 22.283-7.109 39.747-23.757 47.914-45.676l1.197-3.215c1.445-3.881-.53-8.2-4.411-9.645zm138.186-81.707c-2.229-13.131-8.364-25.687-18.375-35.698-13.767-13.767-32.14-20.231-50.546-19.242-26.438-12.656-54.807-19.088-84.364-19.088-39.273 0-77.039 11.555-109.415 33.435-14.882-1.256-28.364-.591-39.485.771-6.626.813-11.821 6.009-12.633 12.636-1.362 11.119-2.027 24.6-.771 39.481-21.881 32.376-33.436 70.143-33.436 109.417 0 44.129 15.07 87.27 42.455 121.712 2.229 13.131 8.365 25.687 18.375 35.698 13.774 13.774 32.103 20.115 50.534 19.237 26.441 12.659 54.815 19.093 84.375 19.093 26.15 0 51.398-5.041 75.205-14.981.355 9.165 10.608 15.372 18.737 10.384 39.41-24.181 73.021-57.792 97.2-97.2 4.914-8.01-1.147-18.707-10.383-18.738 9.94-23.807 14.981-49.056 14.981-75.205.001-44.13-15.068-87.271-42.454-121.712zm-14.562 3.712h-32.616l23.103-23.103c5.129 6.918 8.308 14.884 9.513 23.103zm.022 15c-1.189 8.196-4.353 16.163-9.524 23.115l-23.115-23.115zm-43.245-58.224c8.219 1.206 16.184 4.385 23.102 9.515l-23.102 23.102zm-234.224 279.224h32.618l-23.103 23.103c-5.13-6.918-8.31-14.883-9.515-23.103zm-.022-15c1.189-8.196 4.353-16.164 9.524-23.116l23.116 23.116zm43.246 58.225c-8.22-1.205-16.185-4.385-23.104-9.515l23.104-23.103zm169.587-68.683c-20.024-22.375-44.815-40.005-71.956-51.127-9.123-3.739-18.57-6.756-27.706-9.674-16.712-5.337-32.498-10.377-46.511-19.472-4.011-2.604-7.966-5.399-11.756-8.31-3.286-2.522-7.995-1.905-10.517 1.38-2.523 3.285-1.905 7.994 1.38 10.517 4.103 3.15 8.384 6.177 12.726 8.995 15.701 10.189 33.196 15.776 50.114 21.179 8.855 2.828 18.011 5.752 26.58 9.264 25.665 10.519 49.059 27.376 67.81 48.797l8.756 61.291c-23.013 10.191-47.545 15.358-73.007 15.358-20.706 0-40.778-3.415-59.915-10.158 5.406-2.51 10.547-5.782 15.247-9.844 4.977-4.301 5.311-12.249.646-16.867l-77.348-77.349s-.001-.001-.001-.001c-4.639-4.68-12.571-4.323-16.866.647-7.482 8.658-12.306 18.799-14.547 29.376-18.133-28.721-27.956-62.309-27.956-96.544 0-30.453 7.523-59.921 21.894-86.283 3.194 14.721 8.523 30.223 16.955 45.775 5.993 11.053 13.489 21.684 22.279 31.599 2.747 3.1 7.487 3.384 10.587.637 3.099-2.748 3.384-7.488.636-10.588-8.032-9.06-14.868-18.749-20.316-28.798-17.718-32.676-21.875-66.557-17.986-99.034 31.304-3.906 66.471.33 99.033 17.986 23.065 12.507 44.348 32.615 59.928 56.621 9.094 14.014 14.135 29.799 19.472 46.511 2.917 9.136 5.935 18.582 9.674 27.705 11.123 27.142 28.754 51.935 51.13 71.96-2.575 7.701-8.827 15.731-18.459 18.451zm-154.587 68.704v-32.64l23.115 23.115c-6.951 5.172-14.919 8.336-23.115 9.525zm170.194 14.867-9.947-69.632c11.515-3.888 22.275-13.073 26.732-26.734l69.634 9.947c-22.008 34.66-51.759 64.411-86.419 86.419zm75.688-103.104-61.291-8.756c-21.421-18.75-38.279-42.146-48.797-67.811-3.512-8.568-6.436-17.725-9.264-26.58-5.402-16.918-10.989-34.412-21.179-50.113-17.165-26.448-39.766-47.764-65.36-61.641-15.551-8.432-31.053-13.762-45.774-16.956 26.363-14.369 55.83-21.892 86.283-21.892 20.705 0 40.776 3.414 59.913 10.158-5.405 2.511-10.544 5.783-15.244 9.844-4.974 4.298-5.339 12.219-.648 16.866 0 .001.001.001.001.002l77.351 77.35c4.621 4.666 12.569 4.324 16.865-.647 7.482-8.658 12.307-18.799 14.548-29.376 18.132 28.72 27.955 62.309 27.955 96.544-.001 25.461-5.168 49.993-15.359 73.008zm-84.882-234.255v32.64l-23.115-23.115c6.952-5.172 14.919-8.336 23.115-9.525zm129.212 14.387c-2.379-3.39-7.055-4.211-10.447-1.832-3.391 2.379-4.211 7.057-1.832 10.447 28.502 40.627 43.567 88.431 43.567 138.244 0 64.374-25.068 124.895-70.587 170.413s-106.039 70.587-170.413 70.587-124.894-25.068-170.413-70.587-70.587-106.039-70.587-170.413 25.068-124.894 70.587-170.413 106.039-70.587 170.413-70.587c34.002 0 66.867 6.937 97.685 20.617 29.775 13.218 56.193 32.047 78.521 55.966 2.827 3.027 7.571 3.191 10.601.364 3.027-2.826 3.19-7.572.364-10.601-23.712-25.4-51.771-45.399-83.4-59.439-32.746-14.537-67.659-21.907-103.771-21.907-68.38 0-132.667 26.629-181.02 74.98-48.351 48.352-74.98 112.64-74.98 181.02s26.629 132.668 74.98 181.02c48.353 48.351 112.64 74.98 181.02 74.98s132.668-26.629 181.02-74.98 74.98-112.64 74.98-181.02c0-52.912-16.006-103.695-46.288-146.859zm-225.968 78.562 1.396-3.746c1.446-3.882-.529-8.2-4.41-9.646-3.88-1.444-8.2.528-9.646 4.41l-1.395 3.745c-7.761 20.829-24.356 36.648-45.532 43.403-3.946 1.259-6.125 5.479-4.866 9.425 1.274 3.991 5.565 6.097 9.424 4.866 25.592-8.164 45.649-27.283 55.029-52.457zm-73.059-45.114c0-12.913-10.506-23.419-23.419-23.419s-23.418 10.506-23.418 23.419 10.505 23.419 23.418 23.419 23.419-10.506 23.419-23.419zm-31.837 0c0-4.643 3.776-8.419 8.418-8.419s8.419 3.776 8.419 8.419-3.777 8.419-8.419 8.419-8.418-3.777-8.418-8.419zm65.884 9.218 1.302-3.494c1.446-3.881-.527-8.2-4.409-9.646-3.883-1.448-8.2.526-9.647 4.408l-1.302 3.495c-7.188 19.289-22.556 33.94-42.167 40.195-3.946 1.259-6.125 5.479-4.866 9.425 1.273 3.992 5.565 6.097 9.425 4.866 24.028-7.665 42.858-25.616 51.664-49.249z"/></g></svg>