<svg id="Capa_1" enable-background="new 0 0 512 512" height="512" viewBox="0 0 512 512" width="512" xmlns="http://www.w3.org/2000/svg"><g><g><g><path d="m371.5 190.5c-62.032 0-112.5 50.468-112.5 112.5s50.468 112.5 112.5 112.5 112.5-50.468 112.5-112.5-50.468-112.5-112.5-112.5zm0 195c-45.563 0-82.5-36.937-82.5-82.5s36.937-82.5 82.5-82.5 82.5 36.936 82.5 82.5-36.937 82.5-82.5 82.5z" fill="#feca9c"/><path d="m68 504.5h327c22.091 0 40-17.909 40-40 0-4.585-3.717-8.302-8.302-8.302h-390.396c-4.585 0-8.302 3.717-8.302 8.302 0 22.091 17.909 40 40 40z" fill="#ffe3cb"/><path d="m426.698 456.198h-30c4.585 0 8.302 3.717 8.302 8.302 0 22.091-17.909 40-40 40h30c22.091 0 40-17.909 40-40 0-4.585-3.717-8.302-8.302-8.302z" fill="#fedbbd"/><path d="m310.449 456.198h-157.898c-40.914 0-74.082-33.168-74.082-74.082v-208.591c0-5.523 4.477-10 10-10h286.063c5.523 0 10 4.477 10 10v208.591c-.001 40.914-33.168 74.082-74.083 74.082z" fill="#feca9c"/><path d="m374.531 163.525h-30c5.523 0 10 4.477 10 10v208.591c0 40.914-33.168 74.082-74.082 74.082h30c40.914 0 74.082-33.167 74.082-74.082v-208.591c0-5.523-4.477-10-10-10z" fill="#fdb97e"/></g><g><path d="m254.351 360.627h-45.703c-4.088 0-7.402-3.314-7.402-7.402v-49.356c0-2.357 1.122-4.573 3.022-5.967l23.089-16.948c2.465-1.809 5.819-1.809 8.284 0l23.089 16.948c1.9 1.395 3.022 3.61 3.022 5.967v49.356c.002 4.088-3.312 7.402-7.401 7.402z" fill="#aee69c"/><path d="m258.731 297.901-23.089-16.948c-2.465-1.809-5.819-1.809-8.284 0l-10.858 7.97 12.231 8.978c1.9 1.395 3.022 3.61 3.022 5.967v49.356c0 4.088-3.314 7.402-7.402 7.402h30c4.088 0 7.402-3.314 7.402-7.402v-49.356c.001-2.356-1.122-4.572-3.022-5.967z" fill="#89daa4"/></g></g><path d="m474.312 241.167c-2.141-3.546-6.751-4.685-10.297-2.545-3.546 2.141-4.686 6.75-2.545 10.297 9.833 16.29 15.03 34.991 15.03 54.081 0 27.157-10.375 52.939-29.215 72.596-15.983 16.676-36.615 27.458-59.031 31.055 1.615-5.112 2.74-10.438 3.319-15.926 18.617-4.253 35.536-14.393 48.124-28.997 14.06-16.312 21.803-37.169 21.803-58.728 0-21.55-7.738-42.4-21.789-58.71-12.486-14.495-29.237-24.594-47.68-28.907v-15.354c17.901 3.551 34.511 11.708 48.445 23.875 3.108 2.714 7.848 2.414 10.582-.717 2.725-3.12 2.403-7.857-.717-10.582-16.679-14.565-36.725-24.092-58.311-27.818v-11.263c0-9.649-7.851-17.5-17.5-17.5h-286.061c-9.649 0-17.5 7.851-17.5 17.5v75.055c0 4.143 3.358 7.5 7.5 7.5s7.5-3.357 7.5-7.5v-75.055c0-1.379 1.122-2.5 2.5-2.5h135.531v103.09l-24.169 17.741c-3.81 2.796-6.084 7.287-6.084 12.013v49.356c0 8.217 6.685 14.902 14.902 14.902h45.703c8.217 0 14.902-6.686 14.902-14.902v-49.356c0-4.727-2.275-9.217-6.085-12.013l-24.169-17.74v-103.09h135.531c1.379 0 2.5 1.121 2.5 2.5v208.591c0 36.714-29.868 66.582-66.582 66.582h-157.898c-36.713 0-66.582-29.868-66.582-66.582v-98.536c0-4.143-3.358-7.5-7.5-7.5s-7.5 3.357-7.5 7.5v98.536c0 27.468 13.66 51.791 34.528 66.582h-69.195c-8.713 0-15.802 7.089-15.802 15.803 0 26.191 21.309 47.5 47.5 47.5h327c26.191 0 47.5-21.309 47.5-47.5 0-8.714-7.089-15.803-15.803-15.803h-69.194c9.683-6.863 17.804-15.776 23.735-26.109 29.237-2.352 56.399-15.249 76.875-36.613 21.531-22.463 33.387-51.931 33.387-82.976 0-21.822-5.943-43.203-17.188-61.833zm-82.281-10.299c14.01 3.987 26.681 12.029 36.315 23.212 11.707 13.589 18.154 30.962 18.154 48.92 0 17.966-6.451 35.345-18.165 48.935-9.631 11.175-22.298 19.213-36.304 23.2zm-137.777 73v49.259h-45.508l-.04-49.18 22.609-16.595c.062.001.122.009.184.009.066 0 .129-.008.195-.01zm172.443 159.829c.442 0 .803.36.803.803 0 17.921-14.579 32.5-32.5 32.5h-327c-17.92 0-32.5-14.579-32.5-32.5 0-.442.36-.803.802-.803zm-187.697-358.697v18.5c0 4.143 3.358 7.5 7.5 7.5 4.143 0 7.5-3.357 7.5-7.5v-18.5c0-8.271 6.729-15 15-15 16.542 0 30-13.458 30-30v-22.5c0-4.143-3.357-7.5-7.5-7.5s-7.5 3.357-7.5 7.5v22.5c0 8.271-6.729 15-15 15-16.542 0-30 13.458-30 30zm-37.5-4c4.142 0 7.5-3.357 7.5-7.5v-18.5c0-8.271 6.729-15 15-15 16.542 0 30-13.458 30-30v-22.5c0-4.143-3.357-7.5-7.5-7.5-4.142 0-7.5 3.357-7.5 7.5v22.5c0 8.271-6.729 15-15 15-16.542 0-30 13.458-30 30v18.5c0 4.143 3.358 7.5 7.5 7.5z"/></g></svg>