<svg id="Capa_1" enable-background="new 0 0 512 512" height="512" viewBox="0 0 512 512" width="512" xmlns="http://www.w3.org/2000/svg"><g><path d="m356.592 187.62 18.574-2.699c.555-.081 1.081-.259 1.567-.509v-39.644h-369.233v324.848c0 5.523 4.477 10 10 10h257.812l54.761-94.848h-11.677c-3.852 0-6.26-4.17-4.333-7.506l39.46-68.348h-8.192c-3.852 0-6.26-4.17-4.333-7.506l35.736-61.896v-4.127l-3.947 2.075c-3.671 1.93-7.962-1.187-7.26-5.275l3.173-18.499c.278-1.623-.26-3.28-1.439-4.429l-13.441-13.101c-2.971-2.896-1.332-7.94 2.772-8.536z" fill="#eef5f6"/><g><path d="m59.767 469.615v-323.848h-52.267v323.848c0 5.523 4.477 10 10 10h52.267c-5.523 0-10-4.477-10-10z" fill="#deecf1"/></g><g><path d="m376.733 145.767h-369.233v-66.154c0-11.046 8.954-20 20-20h329.233c11.046 0 20 8.954 20 20z" fill="#fd4755"/></g><g><path d="m58.867 101.325c-5.523 0-10-4.477-10-10v-31.712h-21.367c-11.046 0-20 8.954-20 20v66.154h52.267v-44.442z" fill="#fb2b3a"/></g><g><g><path d="m63.867 101.325h-5c-5.523 0-10-4.477-10-10v-48.94c0-5.523 4.477-10 10-10h5c5.523 0 10 4.477 10 10v48.941c0 5.522-4.477 9.999-10 9.999z" fill="#fed402"/></g><g><path d="m325.366 101.325h-5c-5.523 0-10-4.477-10-10v-48.94c0-5.523 4.477-10 10-10h5c5.523 0 10 4.477 10 10v48.941c0 5.522-4.478 9.999-10 9.999z" fill="#fed402"/></g></g><g><path d="m259.37 422h-134.507c-11.304 0-20.468-9.164-20.468-20.468 0-11.304 9.164-20.468 20.468-20.468h134.507c11.304 0 20.468 9.164 20.468 20.468 0 11.304-9.164 20.468-20.468 20.468z" fill="#46cc8d"/></g><g><path d="m146 401.532c0-11.304 9.164-20.469 20.468-20.469h-41.605c-11.304 0-20.468 9.164-20.468 20.469 0 11.304 9.164 20.468 20.468 20.468h41.605c-11.304 0-20.468-9.164-20.468-20.468z" fill="#00c27a"/></g><g><path d="m503.81 472.109-50.427-87.342h-123.31l-54.761 94.848h224.164c3.852 0 6.26-4.17 4.334-7.506z" fill="#08b865"/><path d="m330.073 384.767-54.761 94.848h41.676l54.76-94.848z" fill="#09a755"/><path d="m469.394 377.261-39.46-68.348h-76.411l-39.46 68.348c-1.926 3.336.482 7.506 4.333 7.506h146.664c3.852 0 6.26-4.17 4.334-7.506z" fill="#00c27a"/><path d="m355.978 377.261 39.46-68.348h-41.916l-39.461 68.348c-1.926 3.336.482 7.506 4.333 7.506h41.916c-3.851 0-6.258-4.17-4.332-7.506z" fill="#08b865"/><path d="m442.458 301.408-39.157-67.822-9.245-4.861c-1.458-.766-3.199-.766-4.657 0l-9.245 4.861-39.157 67.822c-1.926 3.336.481 7.506 4.333 7.506h92.794c3.853 0 6.261-4.17 4.334-7.506z" fill="#46cc8d"/><path d="m407.562 240.965-4.26-7.379-9.245-4.861c-1.458-.766-3.199-.766-4.657 0l-9.245 4.861-39.157 67.822c-1.926 3.336.481 7.506 4.333 7.506h31.669c-3.852 0-6.26-4.17-4.334-7.506z" fill="#00c27a"/><g><path d="m396.215 165.352 8.307 16.831c.729 1.477 2.138 2.501 3.768 2.737l18.574 2.699c4.104.596 5.743 5.64 2.773 8.535l-13.44 13.101c-1.179 1.15-1.718 2.806-1.439 4.429l3.173 18.499c.701 4.088-3.589 7.205-7.26 5.275l-16.613-8.734c-1.458-.766-3.199-.766-4.657 0l-16.613 8.734c-3.671 1.93-7.962-1.187-7.26-5.275l3.173-18.499c.278-1.623-.26-3.28-1.439-4.429l-13.44-13.101c-2.97-2.895-1.331-7.939 2.773-8.535l18.574-2.699c1.63-.237 3.039-1.26 3.768-2.737l8.307-16.831c1.832-3.719 7.135-3.719 8.971 0z" fill="#fed402"/></g><g><g><path d="m386.36 225.139 3.173-18.499c.278-1.623-.26-3.28-1.439-4.429l-13.44-13.101c-1.136-1.107-1.593-2.529-1.5-3.896l-16.561 2.406c-4.104.596-5.743 5.64-2.773 8.535l13.441 13.101c1.179 1.15 1.718 2.806 1.439 4.429l-3.173 18.499c-.701 4.088 3.589 7.205 7.26 5.275l15.014-7.893c-1.112-1.075-1.744-2.659-1.441-4.427z" fill="#fac600"/></g></g></g><g><path d="m264.61 90.842h-144.987c-4.142 0-7.5 3.357-7.5 7.5s3.358 7.5 7.5 7.5h144.987c4.143 0 7.5-3.357 7.5-7.5s-3.357-7.5-7.5-7.5z"/><path d="m259.37 373.563h-134.507c-15.422 0-27.968 12.546-27.968 27.968s12.546 27.969 27.968 27.969h79.137c4.142 0 7.5-3.357 7.5-7.5s-3.358-7.5-7.5-7.5h-79.137c-7.151 0-12.968-5.817-12.968-12.969 0-7.15 5.817-12.968 12.968-12.968h134.507c7.15 0 12.968 5.817 12.968 12.968s-5.817 12.969-12.968 12.969h-20.37c-4.142 0-7.5 3.357-7.5 7.5s3.358 7.5 7.5 7.5h20.37c15.422 0 27.968-12.547 27.968-27.969s-12.546-27.968-27.968-27.968z"/><path d="m510.305 468.359-43.979-76.174c4-.395 7.516-2.626 9.563-6.17 2.26-3.914 2.26-8.589 0-12.504l-33.419-57.884c2.689-.987 4.984-2.868 6.484-5.466 2.26-3.914 2.26-8.589 0-12.504l-30.752-53.263c.743-.343 1.464-.753 2.146-1.249 3.879-2.818 5.784-7.505 4.974-12.229l-2.95-17.206 12.501-12.186c3.434-3.348 4.646-8.26 3.163-12.819s-5.351-7.819-10.094-8.508l-17.275-2.511-7.726-15.654c-2.122-4.3-6.42-6.971-11.215-6.971-2.773 0-5.377.899-7.493 2.485v-77.933c0-15.163-12.337-27.5-27.5-27.5h-13.868v-9.729c0-9.649-7.851-17.5-17.5-17.5h-4.999c-9.649 0-17.5 7.851-17.5 17.5v9.729h-221.499v-9.729c0-9.649-7.851-17.5-17.5-17.5h-5c-9.649 0-17.5 7.851-17.5 17.5v9.729h-13.867c-15.164 0-27.5 12.337-27.5 27.5v390.002c0 9.649 7.851 17.5 17.5 17.5h401.488c4.143 0 7.5-3.357 7.5-7.5s-3.357-7.5-7.5-7.5h-130.686l46.1-79.848h114.65l46.1 79.848h-41.165c-4.143 0-7.5 3.357-7.5 7.5s3.357 7.5 7.5 7.5h45.488c4.521 0 8.568-2.337 10.829-6.252 2.261-3.914 2.261-8.589.001-12.504zm-76.504-166.945h-84.147l35.91-62.199 6.163-3.24 6.163 3.24zm-57.553-109.071c4.07-.593 7.589-3.148 9.412-6.84l6.068-12.296 6.068 12.295c1.82 3.69 5.339 6.248 9.415 6.841l13.569 1.972-9.818 9.569c-2.948 2.873-4.293 7.011-3.597 11.069l2.317 13.515-12.137-6.381c-1.822-.958-3.82-1.437-5.819-1.437-1.998 0-3.997.479-5.818 1.437l-12.136 6.381 2.318-13.515c.695-4.059-.649-8.196-3.597-11.068l-9.819-9.57zm-58.382-149.958c0-1.379 1.121-2.5 2.5-2.5h4.999c1.379 0 2.5 1.121 2.5 2.5v48.94c0 1.379-1.121 2.5-2.5 2.5h-4.999c-1.379 0-2.5-1.121-2.5-2.5zm-261.499 0c0-1.379 1.122-2.5 2.5-2.5h5c1.378 0 2.5 1.121 2.5 2.5v48.94c0 1.379-1.122 2.5-2.5 2.5h-5c-1.378 0-2.5-1.121-2.5-2.5zm214.615 429.73h-253.482c-1.378 0-2.5-1.121-2.5-2.5v-316.347h271c4.143 0 7.5-3.357 7.5-7.5s-3.357-7.5-7.5-7.5h-271v-58.655c0-6.893 5.607-12.5 12.5-12.5h13.867v24.212c0 9.649 7.851 17.5 17.5 17.5h5c9.649 0 17.5-7.851 17.5-17.5v-24.212h221.499v24.212c0 9.649 7.851 17.5 17.5 17.5h4.999c9.649 0 17.5-7.851 17.5-17.5v-24.212h13.868c6.893 0 12.5 5.607 12.5 12.5v58.654h-48.233c-4.143 0-7.5 3.357-7.5 7.5s3.357 7.5 7.5 7.5h48.233v24.937l-13.718 1.994c-4.744.688-8.612 3.948-10.095 8.508s-.271 9.472 3.163 12.82l12.501 12.185-2.95 17.206c-.811 4.726 1.095 9.411 4.974 12.229.681.495 1.4.91 2.143 1.253l-30.749 53.259c-2.26 3.915-2.26 8.59 0 12.504 1.5 2.597 3.795 4.479 6.484 5.466l-33.418 57.883c-2.262 3.914-2.262 8.589-.002 12.504 2.046 3.544 5.563 5.776 9.564 6.171zm51.737-94.847 35.133-60.854h67.751l35.133 60.854z"/><path d="m176.15 338.151c4.142 0 7.5-3.357 7.5-7.5s-3.358-7.5-7.5-7.5h-59.671l52.045-48.238c9.613-8.857 15.126-21.431 15.126-34.496 0-25.86-21.039-46.898-46.898-46.898-25.86 0-46.898 21.038-46.898 46.898 0 4.143 3.358 7.5 7.5 7.5s7.5-3.357 7.5-7.5c0-17.589 14.31-31.898 31.898-31.898s31.898 14.31 31.898 31.898c0 8.887-3.751 17.439-10.307 23.479l-66.087 61.254c-2.263 2.098-3.011 5.367-1.884 8.239s3.897 4.762 6.982 4.762z"/><path d="m244.656 238.066h-29.074v-29.548h53.704c4.143 0 7.5-3.357 7.5-7.5s-3.357-7.5-7.5-7.5h-61.204c-4.142 0-7.5 3.357-7.5 7.5v44.548c0 4.143 3.358 7.5 7.5 7.5h36.574c19.146 0 34.723 15.576 34.723 34.723s-15.576 34.723-34.723 34.723c-12.358 0-23.885-6.654-30.082-17.367-2.074-3.584-6.663-4.81-10.248-2.736s-4.811 6.662-2.737 10.248c8.869 15.331 25.371 24.855 43.066 24.855 27.417 0 49.723-22.306 49.723-49.723s-22.305-49.723-49.722-49.723z"/></g></g></svg>