<svg id="Capa_1" enable-background="new 0 0 512 512" height="512" viewBox="0 0 512 512" width="512" xmlns="http://www.w3.org/2000/svg"><g><g><g><path d="m350.799 116.513c3.706-8.46 5.868-18.578 5.868-29.458 0-29.673-16.036-53.728-35.819-53.728s-35.819 24.055-35.819 53.728c0 10.88 2.163 20.997 5.868 29.458z" fill="#fedf30"/></g><g><g><path d="m299.757 116.513c1.217-13.37-4.885-29.212-17.413-41.74-19.117-19.117-45.954-23.275-59.942-9.287-11.921 11.921-10.654 33.173 1.812 51.027z" fill="#fac600"/></g><g><path d="m417.484 116.513c12.466-17.854 13.734-39.105 1.812-51.027-13.988-13.988-40.825-9.83-59.942 9.287-12.528 12.528-18.63 28.37-17.413 41.74z" fill="#e8b800"/></g></g><path d="m153.769 189.078v18.423c10.652-6.413 22.7-6.65 29.66.309 8.43 8.43 6.304 24.325-4.576 36.161h52.186c2.761 0 5 2.239 5 5v54.529c0 2.761-2.239 5-5 5h-5.411v170.172h252.302c5.523 0 10-4.477 10-10v-279.594z" fill="#08b865"/><g><path d="m153.769 190.078v17.423c10.652-6.413 22.7-6.65 29.66.309 8.429 8.43 6.309 24.325-4.568 36.161h30.139v-53.893z" fill="#09a755"/></g><g><path d="m294.613 189.078h52.472v289.594h-52.472z" fill="#fedf30"/></g><g><path d="m294.613 189.078h20.915v289.594h-20.915z" fill="#fed402"/></g><g><path d="m499.5 190.078h-357.301c-2.761 0-5-2.239-5-5v-64.565c0-2.761 2.239-5 5-5h357.301c2.761 0 5 2.239 5 5v64.565c0 2.762-2.239 5-5 5z" fill="#46cc8d"/></g><g><path d="m179 185.078v-64.565c0-2.761 2.239-5 5-5h-41.801c-2.761 0-5 2.239-5 5v64.565c0 2.761 2.239 5 5 5h41.801c-2.761 0-5-2.238-5-5z" fill="#00c27a"/></g><g><path d="m287.709 115.514h66.28v74.565h-66.28z" fill="#fac600"/></g><g><path d="m287.709 115.514h31.011v74.565h-31.011z" fill="#e8b800"/></g></g><g><g><g><g><path d="m107.713 244.972c3.437-9.151-.128-21.798-9.689-31.358-11.945-11.944-28.713-14.542-37.452-5.802-8.67 8.67-6.178 25.236 5.521 37.161h41.62z" fill="#fb2b3a"/></g><g><path d="m177.907 244.972c11.699-11.925 14.191-28.491 5.521-37.161-8.74-8.74-25.508-6.142-37.452 5.802-9.56 9.561-13.125 22.207-9.689 31.358h41.62z" fill="#e41f2d"/></g><g><path d="m141 244.972v-14.741c0-10.621-8.61-19.231-19.231-19.231-10.621 0-19.231 8.61-19.231 19.231v14.741z" fill="#fd4755"/></g></g></g><g><path d="m16.91 307.5v161.172c0 5.523 4.477 10 10 10h199.718v-171.172z" fill="#fac600"/></g><g><path d="m58.282 468.672v-160.172h-41.372v160.172c0 5.523 4.477 10 10 10h41.372c-5.523 0-10-4.477-10-10z" fill="#e8b800"/></g><g><path d="m96.227 307.5h51.085v171.172h-51.085z" fill="#fd4755"/></g><g><path d="m96.227 307.5h20.773v171.172h-20.773z" fill="#fb2b3a"/></g><g><path d="m231.038 308.5h-218.538c-2.761 0-5-2.239-5-5v-54.529c0-2.761 2.239-5 5-5h218.538c2.761 0 5 2.239 5 5v54.529c0 2.762-2.238 5-5 5z" fill="#fedf30"/></g><g><path d="m49.461 303.5v-54.529c0-2.761 2.239-5 5-5h-41.961c-2.761 0-5 2.239-5 5v54.529c0 2.761 2.239 5 5 5h41.961c-2.761 0-5-2.238-5-5z" fill="#fed402"/></g><g><path d="m89.505 243.972h64.529v64.529h-64.529z" fill="#fb2b3a"/></g><g><path d="m89.505 243.972h20.966v64.529h-20.966z" fill="#e41f2d"/></g></g><path d="m499.5 108.013h-68.815c7.443-17.879 5.459-36.285-6.086-47.83-15.201-15.2-42.351-13.338-63.675 3.229-6.422-22.266-21.746-37.584-40.075-37.584-18.328 0-33.652 15.318-40.075 37.584-21.324-16.567-48.475-18.429-63.675-3.229-11.545 11.545-13.529 29.951-6.086 47.83h-68.815c-6.893 0-12.5 5.607-12.5 12.5v64.565c0 6.893 5.607 12.5 12.5 12.5h4.07v5.917c-1.956 1.442-3.831 3.049-5.596 4.814-.53.53-1.04 1.073-1.539 1.623-4.675-4.005-10.74-6.433-17.364-6.433-6.504 0-12.47 2.337-17.109 6.212-.435-.473-.873-.944-1.332-1.402-6.895-6.895-15.448-11.428-24.083-12.766-9.363-1.452-18.101 1.088-23.976 6.964-8.415 8.415-9.524 21.614-3.997 33.964h-38.772c-6.893 0-12.5 5.607-12.5 12.5v54.529c0 5.824 4.01 10.717 9.41 12.098v153.074c0 9.649 7.851 17.5 17.5 17.5h397.09c4.142 0 7.5-3.358 7.5-7.5s-3.358-7.5-7.5-7.5h-69.415v-185.172c0-4.142-3.358-7.5-7.5-7.5s-7.5 3.358-7.5 7.5v185.172h-37.472v-273.594h37.472v53.422c0 4.142 3.358 7.5 7.5 7.5s7.5-3.358 7.5-7.5v-53.422h125.845v271.094c0 1.378-1.122 2.5-2.5 2.5h-18.93c-4.142 0-7.5 3.358-7.5 7.5s3.358 7.5 7.5 7.5h18.93c9.649 0 17.5-7.851 17.5-17.5v-271.094h4.07c6.893 0 12.5-5.607 12.5-12.5v-64.565c0-6.892-5.607-12.5-12.5-12.5zm-354.801 74.565v-59.565h135.511v59.565zm-34.66 47.653c0-6.468 5.263-11.73 11.731-11.73s11.73 5.262 11.73 11.73v6.241h-23.461zm-95.039 21.241h67.005v49.528h-67.005zm73.727 219.7h-61.817c-1.378 0-2.5-1.122-2.5-2.5v-152.672h64.316v155.172zm6.312-240.941v6.241h-26.378c-6.325-8.346-7.74-18.403-2.786-23.357 3.361-3.362 8.38-3.165 11.073-2.747 5.432.841 11.182 3.958 15.773 8.549 1.244 1.244 2.364 2.564 3.364 3.927-.676 2.348-1.046 4.824-1.046 7.387zm44.773 240.941h-36.085v-155.172h36.085zm6.722-170.172h-49.529v-49.528h49.529zm1.048-77.705c1.079-1.524 2.315-2.997 3.697-4.378 4.592-4.592 10.341-7.708 15.773-8.549 2.69-.417 7.711-.615 11.073 2.747 4.954 4.954 3.539 15.011-2.786 23.357h-26.839v-6.241c0-2.399-.323-4.723-.918-6.936zm80.957 28.177v49.528h-67.005v-49.528zm58.574 219.7h-52.985v-62.172c0-4.142-3.358-7.5-7.5-7.5s-7.5 3.358-7.5 7.5v62.172h-64.316v-155.172h64.316v58c0 4.142 3.358 7.5 7.5 7.5s7.5-3.358 7.5-7.5v-58.402c5.4-1.381 9.411-6.273 9.411-12.098v-54.528c0-6.893-5.607-12.5-12.5-12.5h-38.31c5.527-12.35 4.418-25.549-3.997-33.964-2.07-2.071-4.502-3.717-7.185-4.93h105.567v273.594zm-59.386-363.159c-7.963-13.974-8.159-29.085-.021-37.224 10.855-10.854 33.447-6.602 49.335 9.287 8.182 8.183 13.527 18.348 14.967 27.937zm118.762 74.565h-51.28v-59.565h51.28zm-11.919-74.565h-27.441c-1.145-10.982-5.952-22.227-13.731-32.059 3.137-19.905 14.436-35.127 27.452-35.127s24.315 15.222 27.452 35.127c-7.78 9.832-12.587 21.077-13.732 32.059zm15.121 0c1.44-9.59 6.784-19.754 14.967-27.937 15.889-15.888 38.48-20.14 49.335-9.287 8.138 8.139 7.942 23.25-.021 37.224zm147.309 74.565h-135.511v-59.565h135.511z"/></g></svg>