<svg fill="#888888" viewBox="0 0 512 512" xml:space="preserve" xmlns="http://www.w3.org/2000/svg">
	<path d="m259.99 0.032c-69.867-1.081-135.52 25.515-184.91 74.847-35.186 35.147-58.823 78.572-69.157 125.9-0.119 0.447-0.223 0.898-0.304 1.359-3.971 18.677-5.873 37.953-5.597 57.562 1.97 139.41 116.67 252.3 255.98 252.3 0.46 0 0.924-1e-3 1.385-3e-3 38.533-0.206 75.531-8.794 110.04-25.534h59.642c28.859 0 52.34-23.479 52.34-52.34v-53.188c20.914-37.34 32.162-79.582 32.569-122.46 1.333-140.36-111.71-256.3-252-258.44zm178.44 127.95c12.939 18.372 23.177 38.761 30.138 60.574h-109.98l79.839-60.574zm-110.59-83.121c34.448 11.782 65.115 31.784 89.678 57.628l-89.678 68.04v-125.67zm-229.47 53.331c24.611-24.585 53.869-42.67 85.791-53.486v130.02l-92.747-69.256c2.261-2.466 4.573-4.897 6.956-7.278zm-27.398 33.132 76.645 57.232h-104.35c6.395-20.269 15.701-39.507 27.709-57.232zm3.297 253.63c-13.264-18.601-23.754-39.302-30.844-61.501h105.44l-74.595 61.501zm109.89 82.146c-34.008-11.662-64.399-31.345-88.857-56.786l88.857-73.26v130.05zm242.92-13.578h-63.49c-2.574 0-5.112 0.603-7.412 1.762-9.243 4.656-18.698 8.62-28.337 11.916v-124.06l117.41 97.699c-2.737 7.392-9.839 12.686-18.171 12.686zm21.64-85.263c-1.472 2.52-2.247 5.387-2.247 8.306v22.425l-90.776-75.536h112.89c-4.944 15.576-11.583 30.62-19.863 44.805zm27.616-77.753h-164.97c-9.098 0-16.474 7.376-16.474 16.474v168.7c-12.335 2.17-24.909 3.304-37.677 3.373-0.41 2e-3 -0.799 3e-3 -1.208 3e-3 -13.256 0-26.256-1.174-38.901-3.422v-168.66c0-9.098-7.376-16.474-16.474-16.474h-164.99c-1.6-10.215-2.517-20.651-2.668-31.269-0.18-12.772 0.714-25.379 2.615-37.731h165.05c9.098 0 16.474-7.376 16.474-16.474v-164.67c0-1.372-0.187-2.697-0.502-3.971 12.86-2.273 26.017-3.442 39.362-3.442 1.171 0 2.349 9e-3 3.523 0.026 12.228 0.187 24.213 1.382 35.889 3.476-0.306 1.256-0.487 2.561-0.487 3.911v164.67c0 9.098 7.376 16.474 16.474 16.474h164.99c1.872 11.944 2.807 24.186 2.688 36.656-0.103 10.86-1.033 21.668-2.707 32.343z"/>
</svg>
