<svg enable-background="new 0 0 511.92 511.92" height="512" viewBox="0 0 511.92 511.92" width="512" xmlns="http://www.w3.org/2000/svg"><g id="XMLID_677_"><path id="XMLID_1333_" d="m73.032 134.228c-37.056-12.769-72.448 22.197-60.818 59.626 6.21 19.987 9.488 40.771 9.488 62.106s-3.277 42.119-9.488 62.106c-11.63 37.429 23.762 72.396 60.818 59.626 75.512-26.022 137.714-68.841 177.262-121.732-39.549-52.891-101.75-95.71-177.262-121.732z" fill="#ff9eb1"/><path id="XMLID_1332_" d="m438.888 134.228c37.056-12.769 72.448 22.197 60.818 59.626-6.211 19.987-9.488 40.771-9.488 62.106s3.277 42.119 9.488 62.106c11.63 37.429-23.762 72.396-60.818 59.626-75.512-26.022-137.714-68.841-177.262-121.732 39.549-52.891 101.75-95.71 177.262-121.732z" fill="#ff9eb1"/><path id="XMLID_1176_" d="m280.293 307.96h-48.667c-15.28 0-27.667-12.387-27.667-27.667v-48.667c0-15.28 12.387-27.667 27.667-27.667h48.667c15.28 0 27.667 12.387 27.667 27.667v48.667c0 15.28-12.387 27.667-27.667 27.667z" fill="#fff"/><path id="XMLID_1175_" d="m280.293 307.96h-48.667c-15.28 0-27.667-12.387-27.667-27.667v-48.667c0-15.28 12.387-27.667 27.667-27.667h48.667c15.28 0 27.667 12.387 27.667 27.667v48.667c0 15.28-12.387 27.667-27.667 27.667z" fill="#ff5d7d"/><g id="XMLID_1114_"><path id="XMLID_1344_" d="m500.219 255.96c0-19.942 3.041-39.839 9.038-59.139 6.552-21.087.813-43.701-14.978-59.016-15.599-15.129-38.071-20.123-58.648-13.032-51.436 17.725-97.875 43.666-134.863 75.261-5.899-3.836-12.928-6.075-20.473-6.075h-48.667c-7.545 0-14.574 2.238-20.472 6.074-7.522-6.429-15.458-12.66-23.686-18.578-4.483-3.225-10.732-2.205-13.958 2.279-3.225 4.483-2.205 10.732 2.279 13.957 7.664 5.513 15.056 11.308 22.064 17.281-2.328 4.702-3.697 9.955-3.864 15.507l-62.331-24.811c-5.13-2.042-10.946.462-12.989 5.593-2.042 5.131.461 10.947 5.593 12.989l69.698 27.744v7.93l-69.698 27.744c-5.131 2.042-7.635 7.858-5.593 12.989 1.56 3.918 5.319 6.304 9.294 6.304 1.23 0 2.482-.229 3.695-.711l62.331-24.811c.167 5.552 1.536 10.804 3.863 15.506-35.042 29.858-79.135 54.426-128.079 71.292-13.613 4.691-27.896 1.521-38.208-8.48-10.506-10.189-14.17-24.666-9.802-38.724 6.594-21.223 9.938-43.117 9.938-65.073s-3.344-43.85-9.938-65.073c-4.368-14.058-.704-28.535 9.802-38.724 10.312-10.002 24.597-13.171 38.208-8.48 9.997 3.444 19.911 7.25 29.468 11.312 5.081 2.162 10.954-.208 13.114-5.292 2.161-5.083-.209-10.954-5.292-13.114-9.984-4.244-20.339-8.219-30.775-11.815-20.576-7.091-43.05-2.097-58.648 13.032-15.791 15.315-21.53 37.928-14.978 59.016 5.997 19.3 9.038 39.197 9.038 59.139s-3.041 39.839-9.038 59.139c-6.552 21.087-.813 43.701 14.978 59.016 10.909 10.581 25.179 16.204 39.813 16.204 6.291 0 12.649-1.04 18.836-3.171 51.437-17.725 97.874-43.665 134.864-75.261 5.899 3.836 12.927 6.074 20.473 6.074h48.667c7.546 0 14.575-2.239 20.474-6.075 36.986 31.593 83.431 57.538 134.863 75.261 6.188 2.132 12.544 3.171 18.836 3.171 14.632-.001 28.904-5.624 39.813-16.204 15.791-15.315 21.53-37.928 14.978-59.016-6-19.3-9.04-39.197-9.04-59.139zm-268.592 42c-9.741 0-17.667-7.925-17.667-17.667v-48.667c0-9.741 7.925-17.667 17.667-17.667h48.667c9.741 0 17.667 7.925 17.667 17.667v48.667c0 9.741-7.925 17.667-17.667 17.667zm258.53 23.073c4.368 14.058.704 28.535-9.802 38.724-10.313 10.002-24.597 13.172-38.208 8.48-48.938-16.864-93.04-41.437-128.078-71.293 2.327-4.701 3.696-9.953 3.863-15.505l62.331 24.811c1.213.483 2.464.711 3.695.711 3.975 0 7.734-2.386 9.294-6.304 2.042-5.131-.461-10.947-5.593-12.989l-69.698-27.744v-7.93l69.698-27.744c5.131-2.042 7.635-7.858 5.593-12.989s-7.857-7.636-12.989-5.593l-62.331 24.812c-.167-5.552-1.536-10.805-3.863-15.506 35.041-29.857 79.137-54.427 128.079-71.292 13.613-4.691 27.897-1.521 38.208 8.48 10.506 10.189 14.17 24.666 9.802 38.724-6.594 21.223-9.938 43.117-9.938 65.073s3.343 43.851 9.937 65.074z"/><path id="XMLID_1350_" d="m143.63 175.47c2.63 0 5.21-1.07 7.07-2.93s2.93-4.44 2.93-7.07-1.07-5.21-2.93-7.07-4.44-2.93-7.07-2.93c-2.64 0-5.21 1.07-7.07 2.93-1.87 1.86-2.93 4.44-2.93 7.07s1.06 5.21 2.93 7.07c1.86 1.86 4.43 2.93 7.07 2.93z"/></g></g></svg>