<svg enable-background="new 0 0 512 512" height="512" viewBox="0 0 512 512" width="512" xmlns="http://www.w3.org/2000/svg"><g id="XMLID_1338_"><path id="XMLID_1645_" d="m321 241c22.024 20.854 34.5 49.848 34.5 80.178 0 19.818-2.228 39.574-6.642 58.894l-27.858 121.928h-65-65l-27.858-121.928c-4.414-19.32-6.642-39.076-6.642-58.894 0-30.33 12.476-59.325 34.5-80.178z" fill="#9d9ae8"/><path id="XMLID_1644_" d="m191 201-34-112v-56l54.958-23c4.552 20.13 22.536 35.167 44.042 35.167s39.49-15.037 44.042-35.167l54.958 23v56l-34 112z" fill="#9d9ae8"/><path id="XMLID_1643_" d="m191 201h130v40h-130z" fill="#fff"/><path id="XMLID_1642_" d="m191 201h130v40h-130z" fill="#fff"/><path id="XMLID_1632_" d="m241.858 87.593c-7.811-7.811-7.811-20.474 0-28.284l14.142-14.142 14.142 14.142c7.81 7.81 7.81 20.474 0 28.284-7.81 7.811-20.473 7.811-28.284 0z" fill="#ffcd69"/><g id="XMLID_455_"><path id="XMLID_497_" d="m331 236.822v-34.339l33.568-110.578c.287-.942.432-1.92.432-2.905v-56c0-4.031-2.421-7.668-6.14-9.225l-54.958-23c-2.725-1.141-5.815-1.017-8.443.336-2.626 1.354-4.519 3.8-5.171 6.683-3.586 15.859-18.005 27.37-34.285 27.372-.002 0-.005 0-.007 0-16.28-.002-30.698-11.513-34.285-27.373-.652-2.882-2.545-5.328-5.172-6.682-2.626-1.355-5.717-1.478-8.442-.336l-54.958 23c-3.718 1.557-6.139 5.194-6.139 9.225v56c0 .984.146 1.963.432 2.905l33.568 110.578v34.339c-21.972 22.403-34.5 52.893-34.5 84.356 0 20.535 2.319 41.1 6.894 61.122l27.857 121.928c1.039 4.547 5.084 7.772 9.749 7.772h130c4.665 0 8.71-3.225 9.749-7.772l17.834-78.057c1.229-5.384-2.138-10.746-7.521-11.977-5.388-1.229-10.745 2.138-11.977 7.521l-16.057 70.285h-114.055l-26.081-114.155c-4.241-18.563-6.392-37.628-6.392-56.667 0-26.159 10.384-51.512 28.607-70.178h27.985l-3.653 24.881c-.803 5.464 2.977 10.544 8.441 11.347.492.072.981.107 1.465.107 4.88 0 9.151-3.577 9.881-8.549l4.08-27.786h25.389l4.079 27.786c.729 4.972 5.001 8.549 9.881 8.549.483 0 .973-.035 1.465-.107 5.465-.802 9.244-5.882 8.441-11.347l-3.653-24.881h27.985c18.223 18.666 28.607 44.019 28.607 70.178 0 4.575-.126 9.213-.374 13.786-.299 5.515 3.929 10.228 9.443 10.527.185.01.368.015.551.015 5.274 0 9.688-4.128 9.977-9.458.268-4.932.403-9.935.403-14.87 0-31.462-12.528-61.953-34.5-84.356zm-82.071-170.442 7.071-7.071 7.071 7.071c3.898 3.899 3.898 10.244 0 14.143s-10.244 3.899-14.143 0c-3.898-3.9-3.898-10.244.001-14.143zm-81.929-26.724 38.981-16.314c5.977 12.938 16.655 22.886 29.699 28.002l-.895.895c-11.695 11.697-11.695 30.729 0 42.426 5.849 5.848 13.531 8.772 21.214 8.772s15.365-2.925 21.214-8.773c11.695-11.696 11.696-30.729 0-42.426l-.894-.894c13.045-5.115 23.722-15.063 29.699-28.001l38.982 16.313v47.86l-31.414 103.484h-24.677l3.653-24.881c.803-5.464-2.977-10.544-8.441-11.347-5.462-.804-10.544 2.977-11.346 8.441l-4.08 27.787h-25.389l-4.079-27.786c-.802-5.464-5.884-9.243-11.346-8.441-5.465.802-9.244 5.882-8.441 11.347l3.652 24.88h-24.677l-31.415-103.484zm144 191.344h-110v-20h110z"/><path id="XMLID_866_" d="m348.86 370.07c-2.63 0-5.21 1.07-7.069 2.93-1.87 1.87-2.931 4.44-2.931 7.07s1.061 5.21 2.931 7.07c1.859 1.87 4.439 2.93 7.069 2.93 2.631 0 5.21-1.06 7.07-2.93 1.86-1.86 2.93-4.44 2.93-7.07s-1.069-5.21-2.93-7.07c-1.86-1.86-4.44-2.93-7.07-2.93z"/></g></g></svg>