<svg id="Capa_1" enable-background="new 0 0 512 512" height="512" viewBox="0 0 512 512" width="512" xmlns="http://www.w3.org/2000/svg"><g id="XMLID_1085_"><path id="XMLID_75_" d="m324 50h-136c-79.529 0-144 64.471-144 144v228h80v50c0 16.569 13.431 30 30 30h204c16.569 0 30-13.431 30-30v-50h80v-228c0-79.529-64.471-144-144-144z" fill="#ffcd69"/><path id="XMLID_80_" d="m324 31.953v43.093c0 12.125-9.829 21.954-21.953 21.954h-92.094c-12.124 0-21.953-9.829-21.953-21.953v-43.094z" fill="#fff"/><path id="XMLID_79_" d="m302.047 10h-92.094c-12.124 0-21.953 9.829-21.953 21.953s9.829 21.953 21.953 21.953h92.094c12.124 0 21.953-9.829 21.953-21.953s-9.829-21.953-21.953-21.953z" fill="#ffcd69"/><g fill="#fff"><path id="XMLID_78_" d="m52 422h64v48h-64z"/><path id="XMLID_77_" d="m396 422h64v48h-64z" transform="matrix(-1 0 0 -1 856 892)"/><path id="XMLID_3_" d="m125 360.388 32.75-32.75 32.75 32.75 32.75-32.75 32.75 32.75 32.75-32.75 32.75 32.75 32.75-32.75 32.75 32.75v-71.511l-32.75-32.75-32.75 32.75-32.75-32.75-32.75 32.75-32.75-32.75-32.75 32.75-32.75-32.75-32.75 32.75z"/></g><g id="XMLID_340_"><path id="XMLID_365_" d="m334 40.333v-8.38c0-17.619-14.334-31.953-31.953-31.953h-92.094c-17.619 0-31.953 14.334-31.953 31.953v8.38c-80.272 5.172-144 72.111-144 153.667v228c0 4.838 3.436 8.873 8 9.799v38.201c0 5.523 4.478 10 10 10h62.805c3.717 18.236 19.878 32 39.195 32h57c5.522 0 10-4.477 10-10s-4.478-10-10-10h-57c-11.028 0-20-8.972-20-20v-106.47l23.75-23.75 25.679 25.679c3.906 3.904 10.236 3.904 14.143 0l25.679-25.679 25.679 25.679c3.906 3.904 10.236 3.904 14.143 0l25.679-25.679 25.679 25.679c3.906 3.904 10.236 3.904 14.143 0l25.679-25.679 23.747 23.75v106.47c0 11.028-8.972 20-20 20h-57c-5.522 0-10 4.477-10 10s4.478 10 10 10h57c19.317 0 35.479-13.764 39.195-32h62.805c5.522 0 10-4.477 10-10v-38.201c4.564-.927 8-4.961 8-9.799v-228c0-81.556-63.728-148.495-144-153.667zm-136 21.245c3.695 1.496 7.728 2.328 11.953 2.328h92.094c4.225 0 8.258-.832 11.953-2.328v13.469c0 6.591-5.362 11.953-11.953 11.953h-92.094c-6.591 0-11.953-5.362-11.953-11.953zm11.953-41.578h92.094c6.591 0 11.953 5.362 11.953 11.953s-5.362 11.954-11.953 11.954h-92.094c-6.591 0-11.953-5.362-11.953-11.954 0-6.591 5.362-11.953 11.953-11.953zm-155.953 174c0-70.524 54.765-128.495 124-133.627v14.674c0 17.619 14.334 31.953 31.953 31.953h92.094c17.619 0 31.953-14.334 31.953-31.953v-14.674c69.235 5.132 124 63.103 124 133.627v218h-60v-228c0-5.523-4.478-10-10-10s-10 4.477-10 10v81.734l-16.679-16.679c-3.906-3.904-10.236-3.904-14.143 0l-25.678 25.68-25.679-25.679c-3.906-3.904-10.236-3.904-14.143 0l-25.678 25.679-25.679-25.679c-3.906-3.904-10.236-3.904-14.143 0l-25.678 25.679-25.679-25.679c-3.906-3.904-10.236-3.904-14.143 0l-16.678 16.678v-81.734c0-5.523-4.478-10-10-10s-10 4.477-10 10v228h-60zm52 266h-44v-28h44zm255.321-139.434c-3.906-3.904-10.236-3.904-14.143 0l-25.678 25.68-25.679-25.679c-3.906-3.904-10.236-3.904-14.143 0l-25.678 25.679-25.679-25.679c-3.906-3.904-10.236-3.904-14.143 0l-25.678 25.679-25.679-25.679c-3.906-3.904-10.236-3.904-14.143 0l-16.678 16.678v-43.225l23.75-23.75 25.679 25.679c3.906 3.904 10.236 3.904 14.143 0l25.679-25.679 25.679 25.679c3.906 3.904 10.236 3.904 14.143 0l25.679-25.679 25.679 25.679c3.906 3.904 10.236 3.904 14.143 0l25.679-25.679 23.747 23.75v43.226zm88.679 139.434h-44v-28h44z"/><path id="XMLID_1153_" d="m256 492c-2.63 0-5.21 1.07-7.07 2.93s-2.93 4.44-2.93 7.07 1.069 5.21 2.93 7.07 4.44 2.93 7.07 2.93 5.21-1.07 7.069-2.93c1.86-1.86 2.931-4.44 2.931-7.07s-1.07-5.21-2.931-7.07c-1.859-1.86-4.439-2.93-7.069-2.93z"/></g></g></svg>