<svg id="Capa_1" enable-background="new 0 0 511.991 511.991" height="512" viewBox="0 0 511.991 511.991" width="512" xmlns="http://www.w3.org/2000/svg"><g><g><g><path d="m366.106 78.493c-33.097 33.097-46.149 78.644-39.17 121.566 42.922 6.979 88.469-6.072 121.566-39.17 30.838-30.838 44.274-72.484 40.319-112.744-.517-5.264-4.707-9.454-9.971-9.971-40.261-3.954-81.906 9.481-112.744 40.319z" fill="#aee69c"/><path d="m488.821 48.146c-.517-5.264-4.708-9.454-9.971-9.971-9.626-.946-19.331-.885-28.949.157 4.761.934 8.438 4.906 8.92 9.814 3.955 40.26-9.481 81.906-40.319 112.744-23.517 23.517-53.319 36.902-83.999 40.183 40.649 4.361 82.84-9.025 113.999-40.183 30.838-30.838 44.274-72.484 40.319-112.744z" fill="#89daa4"/></g><g><path d="m145.885 78.493c33.097 33.097 46.149 78.644 39.17 121.566-42.922 6.979-88.469-6.072-121.566-39.17-30.838-30.837-44.274-72.483-40.319-112.743.517-5.264 4.707-9.454 9.971-9.971 40.261-3.955 81.906 9.48 112.744 40.318z" fill="#aee69c"/><path d="m145.885 78.493c-30.838-30.838-72.483-44.273-112.744-40.318-5.264.517-9.454 4.707-9.971 9.971-.147 1.493-.262 2.989-.361 4.486 33.831 1.418 67.245 15.031 93.076 40.862 29.696 29.696 43.242 69.412 40.675 108.264 9.518.399 19.07-.166 28.495-1.698 6.979-42.923-6.072-88.469-39.17-121.567z" fill="#89daa4"/></g><g><path d="m314.259 393.751c0-46.807-22.977-88.242-58.263-113.657-35.286 25.416-58.263 66.851-58.263 113.657 0 43.612 19.947 82.56 51.212 108.232 4.088 3.356 10.014 3.356 14.101 0 31.265-25.672 51.213-64.621 51.213-108.232z" fill="#aee69c"/><path d="m255.996 280.093c-5.291 3.811-10.299 7.989-15 12.484 26.653 25.485 43.263 61.385 43.263 101.173 0 39.789-16.609 75.69-43.263 101.175 2.561 2.449 5.209 4.807 7.949 7.057 4.088 3.356 10.014 3.356 14.101 0 31.265-25.672 51.213-64.62 51.213-108.232 0-46.806-22.978-88.241-58.263-113.657z" fill="#89daa4"/></g><g><g><circle cx="330.996" cy="262.324" fill="#f8a6af" r="98.5"/><path d="m330.996 163.823c-5.1 0-10.109.388-15 1.135 47.281 7.224 83.5 48.065 83.5 97.365s-36.219 90.141-83.5 97.365c4.891.747 9.9 1.135 15 1.135 54.4 0 98.5-44.1 98.5-98.5s-44.1-98.5-98.5-98.5z" fill="#f58a97"/><circle cx="180.996" cy="262.324" fill="#f8a6af" r="98.5"/><path d="m180.996 163.823c-5.1 0-10.109.388-15 1.135 47.281 7.224 83.5 48.065 83.5 97.365s-36.219 90.141-83.5 97.365c4.891.747 9.9 1.135 15 1.135 54.4 0 98.5-44.1 98.5-98.5s-44.1-98.5-98.5-98.5z" fill="#f58a97"/></g><circle cx="255.996" cy="106" fill="#f58a97" r="98.5"/><path d="m255.996 7.5c-5.1 0-10.109.388-15 1.135 47.281 7.224 83.5 48.065 83.5 97.365s-36.219 90.141-83.5 97.365c4.891.747 9.9 1.135 15 1.135 54.4 0 98.5-44.1 98.5-98.5s-44.1-98.5-98.5-98.5z" fill="#f07281"/></g></g><path d="m496.29 47.414c-.87-8.811-7.896-15.838-16.711-16.708-44.145-4.335-87.436 11.152-118.776 42.48-1.03 1.031-2.039 2.083-3.039 3.143-12.865-44.052-53.616-76.329-101.768-76.329-17.852 0-35.505 4.523-51.051 13.082-3.628 1.998-4.951 6.559-2.953 10.188 1.998 3.628 6.559 4.95 10.188 2.953 13.335-7.342 28.486-11.223 43.816-11.223 50.178 0 91 40.822 91 91s-40.822 91-91 91-91-40.822-91-91c0-21.691 7.758-42.699 21.845-59.151 2.694-3.146 2.327-7.881-.819-10.575-3.146-2.695-7.88-2.326-10.575.819-9.846 11.5-17.015 24.917-21.194 39.262-1.008-1.069-2.025-2.13-3.064-3.168-31.339-31.329-74.629-46.816-118.781-42.481-8.811.87-15.837 7.897-16.707 16.712-4.331 44.146 11.153 87.437 42.481 118.775 12.009 12.009 25.706 21.687 40.82 28.875-15.02 18.315-24.007 41.741-24.007 67.252 0 58.448 47.551 106 106 106 3.905 0 7.759-.219 11.555-.632-1.526 8.562-2.315 17.287-2.315 26.062 0 44.318 19.665 85.88 53.95 114.026 6.844 5.619 16.775 5.619 23.619.001 34.287-28.147 53.951-69.709 53.951-114.027 0-8.772-.789-17.497-2.316-26.066 3.816.417 7.672.636 11.556.636 20.508 0 40.41-5.868 57.552-16.971 3.477-2.252 4.47-6.896 2.218-10.372-2.25-3.476-6.896-4.47-10.372-2.218-14.708 9.525-31.79 14.561-49.398 14.561-24.671 0-48.091-9.959-65.17-27.509 13.288-17.709 21.17-39.697 21.17-63.491 0-18.361-4.629-36.036-13.481-51.776 26.455-4.419 49.624-18.665 65.61-38.851 46.988 3.99 82.871 43.15 82.871 90.627 0 19.701-6.19 38.446-17.902 54.21-2.47 3.325-1.777 8.022 1.548 10.493 1.344.998 2.912 1.479 4.467 1.479 2.292 0 4.555-1.046 6.026-3.027 13.647-18.369 20.861-40.208 20.861-63.155 0-25.511-8.987-48.937-24.007-67.252 15.114-7.187 28.811-16.866 40.821-28.875 31.328-31.339 46.812-74.63 42.481-118.779zm-427.5 108.173c-28.143-28.151-42.051-67.043-38.161-106.7.169-1.716 1.538-3.084 3.249-3.253 39.662-3.887 78.554 10.019 106.705 38.16 3.558 3.558 6.905 7.329 10.007 11.222-.379 3.636-.594 7.3-.594 10.984 0 18.783 4.917 36.438 13.523 51.753-2.846.469-5.645 1.066-8.407 1.755l-45.123-45.122c-2.929-2.928-7.678-2.928-10.606 0-2.929 2.93-2.929 7.678 0 10.607l39.854 39.853c-10.819 4.621-20.7 10.964-29.285 18.711-15.361-6.612-29.193-16.001-41.162-27.97zm234.772 209.124c2.118 9.48 3.193 19.227 3.193 29.039 0 39.811-17.666 77.146-48.47 102.435-1.327 1.09-3.252 1.091-4.581-.001-30.803-25.287-48.469-62.623-48.469-102.434 0-9.819 1.075-19.565 3.192-29.037 14.897-3.995 28.511-11.156 40.068-20.724v49.761c0 4.143 3.358 7.5 7.5 7.5s7.5-3.357 7.5-7.5v-49.708c11.748 9.718 25.415 16.748 40.067 20.669zm-122.566-11.391c-50.178 0-91-40.822-91-91 0-47.655 35.705-86.405 82.871-90.627 19.431 24.537 49.471 40.307 83.129 40.307.272 0 .542-.008.813-.01 9.945 14.914 15.187 32.231 15.187 50.331 0 50.177-40.823 90.999-91 90.999zm221.044-169.762c-8.585-7.747-18.466-14.09-29.285-18.711l39.854-39.853c2.929-2.93 2.929-7.678 0-10.607-2.929-2.928-7.678-2.928-10.606 0l-45.123 45.122c-2.762-.689-5.561-1.286-8.407-1.755 8.605-15.316 13.523-32.97 13.523-51.753 0-3.719-.195-7.393-.57-11.014 3.096-3.883 6.434-7.643 9.982-11.192 28.152-28.143 67.045-42.052 106.701-38.16 1.716.169 3.084 1.537 3.253 3.249 3.891 39.661-10.018 78.553-38.159 106.703-11.971 11.969-25.803 21.358-41.163 27.971z"/></g></svg>