<svg id="Capa_1" enable-background="new 0 0 512 512" height="512" viewBox="0 0 512 512" width="512" xmlns="http://www.w3.org/2000/svg"><g><g><path d="m240 67.5 15.442-46.325c2.722-8.166 10.365-13.675 18.973-13.675h61.17c8.609 0 16.251 5.509 18.974 13.675l15.441 46.325z" fill="#77718c"/></g><g><path d="m314.415 7.5h-40c-8.609 0-16.251 5.509-18.974 13.675l-15.441 46.325h40l15.442-46.325c2.722-8.166 10.365-13.675 18.973-13.675z" fill="#5c586f"/></g><g><path d="m136 474.5c0-16.569 13.431-30 30-30h180c16.569 0 30 13.431 30 30 0 16.569-13.431 30-30 30h-180c-16.569 0-30-13.431-30-30z" fill="#ededed"/></g><g><path d="m216 474.5c0-16.569 13.431-30 30-30h-80c-16.569 0-30 13.431-30 30s13.431 30 30 30h80c-16.569 0-30-13.431-30-30z" fill="#dcdcdc"/></g><g><path d="m99.588 187.5 18.238 251.892c.757 10.458 9.463 18.556 19.948 18.556h236.452c10.485 0 19.191-8.098 19.948-18.556l18.238-251.892z" fill="#dcdcdc"/></g><g><path d="m197.826 439.392-18.238-251.892h-80l18.238 251.892c.757 10.458 9.463 18.556 19.948 18.556h80c-10.485-.001-19.191-8.098-19.948-18.556z" fill="#cececc"/></g><g><path d="m76 187.5c0-16.569 13.431-30 30-30h300c16.569 0 30 13.431 30 30 0 16.569-13.431 30-30 30h-300c-16.569 0-30-13.431-30-30z" fill="#ededed"/></g><g><path d="m106 117.5 15.442-46.325c2.722-8.167 10.365-13.675 18.974-13.675h231.17c8.609 0 16.251 5.509 18.974 13.675l15.44 46.325z" fill="#6a647f"/></g><g><path d="m220.415 57.5h-80c-8.609 0-16.251 5.509-18.974 13.675l-15.441 46.325h80l15.442-46.325c2.722-8.166 10.365-13.675 18.973-13.675z" fill="#5c586f"/></g><g><path d="m156 187.5c0-16.569 13.431-30 30-30h-80c-16.569 0-30 13.431-30 30s13.431 30 30 30h80c-16.569 0-30-13.431-30-30z" fill="#dcdcdc"/></g><g><path d="m46 137.5c0-16.569 13.431-30 30-30h360c16.569 0 30 13.431 30 30 0 16.569-13.431 30-30 30h-360c-16.569 0-30-13.431-30-30z" fill="#77718c"/></g><g><path d="m126 137.5c0-16.569 13.431-30 30-30h-80c-16.569 0-30 13.431-30 30s13.431 30 30 30h80c-16.569 0-30-13.431-30-30z" fill="#6a647f"/></g><g><path d="m417.122 399.392 8.721-120.447c.839-11.584-8.333-21.444-19.948-21.444h-299.791c-11.615 0-20.787 9.86-19.948 21.444l8.721 120.447c.757 10.458 9.462 18.556 19.948 18.556h282.349c10.486-.001 19.191-8.098 19.948-18.556z" fill="#e7886e"/></g><g><path d="m174.878 399.392-8.721-120.447c-.839-11.584 8.333-21.444 19.948-21.444h-80c-11.615 0-20.787 9.86-19.948 21.444l8.721 120.447c.757 10.458 9.462 18.556 19.948 18.556h80c-10.486-.001-19.191-8.099-19.948-18.556z" fill="#e27858"/></g><g><g><g><ellipse cx="172.153" cy="346.27" fill="#fff" rx="30.938" ry="24.637"/></g><g><ellipse cx="339.847" cy="346.27" fill="#fff" rx="30.938" ry="24.637"/></g><g><ellipse cx="256" cy="327.34" fill="#5c586f" rx="16.423" ry="18.377"/></g></g><g><path d="m177.325 324.04c-4.142 0-7.5-3.358-7.5-7.5v-12c0-4.142 3.358-7.5 7.5-7.5s7.5 3.358 7.5 7.5v12c0 4.142-3.358 7.5-7.5 7.5z"/></g><g><path d="m256 353.217c-13.191 0-23.922-11.608-23.922-25.877s10.731-25.877 23.922-25.877 23.922 11.608 23.922 25.877-10.731 25.877-23.922 25.877zm0-36.754c-4.92 0-8.922 4.879-8.922 10.877s4.002 10.877 8.922 10.877 8.922-4.879 8.922-10.877-4.002-10.877-8.922-10.877z"/></g><g><path d="m334.675 324.04c-4.142 0-7.5-3.358-7.5-7.5v-12c0-4.142 3.358-7.5 7.5-7.5s7.5 3.358 7.5 7.5v12c0 4.142-3.358 7.5-7.5 7.5z"/></g></g><path d="m473.5 137.5c0-20.678-16.822-37.5-37.5-37.5h-27.927l-10.399-31.196c-3.697-11.09-13.944-18.576-25.595-18.784l-10.405-31.216c-3.749-11.247-14.234-18.804-26.089-18.804h-61.17c-11.855 0-22.34 7.557-26.089 18.804l-10.399 31.196h-97.512c-11.855 0-22.34 7.557-26.089 18.804l-10.399 31.196h-27.927c-20.678 0-37.5 16.822-37.5 37.5 0 18.906 14.067 34.581 32.282 37.129-1.495 4.091-2.282 8.443-2.282 12.871 0 16.725 11.007 30.923 26.156 35.742l2.058 28.425c-4.056 1.476-7.759 3.892-10.745 7.103-5.184 5.573-7.842 13.124-7.292 20.716l8.721 120.447c.899 12.407 10.081 22.478 21.858 24.935l1.091 15.065c.839 11.591 8.907 21.145 19.567 24.356-.932 3.302-1.413 6.736-1.413 10.211 0 20.678 16.822 37.5 37.5 37.5h180c20.678 0 37.5-16.822 37.5-37.5 0-3.477-.484-6.909-1.417-10.21 10.662-3.21 18.732-12.765 19.571-24.357l1.091-15.065c11.777-2.457 20.959-12.528 21.858-24.935l8.721-120.447c.55-7.592-2.108-15.143-7.292-20.716-2.986-3.21-6.689-5.626-10.745-7.103l2.058-28.425c15.149-4.819 26.156-19.017 26.156-35.742 0-4.427-.787-8.78-2.282-12.871 18.214-2.548 32.28-18.223 32.28-37.129zm-344.943-63.953c1.704-5.112 6.47-8.547 11.858-8.547h167.968c4.142 0 7.5-3.358 7.5-7.5s-3.358-7.5-7.5-7.5h-54.644l8.818-26.453c1.704-5.112 6.47-8.547 11.858-8.547h61.17c5.389 0 10.154 3.435 11.858 8.547l8.818 26.453h-17.878c-4.142 0-7.5 3.358-7.5 7.5s3.358 7.5 7.5 7.5h33.202c5.389 0 10.154 3.435 11.858 8.547l8.818 26.453h-272.522zm-16.924 176.453-1.81-25h292.354l-1.81 25zm234.367 247h-180c-12.407 0-22.5-10.093-22.5-22.5 0-3.138.649-6.218 1.895-9.053h221.206c1.246 2.835 1.899 5.912 1.899 9.053 0 12.407-10.093 22.5-22.5 22.5zm72.363-218.597-8.721 120.447c-.471 6.503-5.947 11.597-12.467 11.597h-126.175c-4.142 0-7.5 3.358-7.5 7.5s3.358 7.5 7.5 7.5h116.664l-.971 13.403c-.471 6.503-5.947 11.597-12.467 11.597h-236.452c-6.52 0-11.997-5.094-12.467-11.597l-.97-13.403h116.663c4.142 0 7.5-3.358 7.5-7.5s-3.358-7.5-7.5-7.5h-126.175c-6.52 0-11.997-5.094-12.467-11.597l-8.721-120.447c-.253-3.502.924-6.846 3.315-9.417s5.642-3.986 9.152-3.986h299.791c3.511 0 6.761 1.416 9.152 3.986 2.392 2.571 3.569 5.915 3.316 9.417zm-12.363-68.403h-300c-12.407 0-22.5-10.093-22.5-22.5 0-4.478 1.352-8.818 3.816-12.5h337.369c2.463 3.681 3.815 8.022 3.815 12.5 0 12.407-10.093 22.5-22.5 22.5zm30-50h-360c-12.407 0-22.5-10.093-22.5-22.5s10.093-22.5 22.5-22.5h360c12.407 0 22.5 10.093 22.5 22.5s-10.093 22.5-22.5 22.5z"/></g></svg>