<svg id="Capa_1" enable-background="new 0 0 511.993 511.993" height="512" viewBox="0 0 511.993 511.993" width="512" xmlns="http://www.w3.org/2000/svg"><g><g><path d="m434.1 58.53c-16.004-4.288-32.454 5.209-36.742 21.213l-51.764 193.185 57.956 15.529 51.764-193.185c4.288-16.004-5.21-32.454-21.214-36.742z" fill="#f9d888"/></g><g><path d="m377.799 17.961c-16.317-2.877-31.877 8.018-34.754 24.335l-34.73 196.962 59.088 10.419 34.73-196.962c2.878-16.317-8.017-31.877-24.334-34.754z" fill="#f9ed80"/></g><g><path d="m317.928 37.938c-16.506-1.444-31.057 10.766-32.501 27.271l-17.431 199.239 59.772 5.229 17.431-199.239c1.444-16.505-10.765-31.056-27.271-32.5z" fill="#f9d888"/></g><g><path d="m77.893 58.53c16.004-4.288 32.454 5.209 36.742 21.213l51.764 193.185-57.956 15.529-51.763-193.185c-4.289-16.004 5.209-32.454 21.213-36.742z" fill="#f9d888"/></g><g><path d="m134.194 17.961c16.317-2.877 31.877 8.018 34.754 24.335l34.73 196.962-59.088 10.419-34.73-196.963c-2.877-16.316 8.018-31.876 24.334-34.753z" fill="#f9ed80"/></g><g><path d="m194.065 37.938c16.506-1.444 31.056 10.766 32.501 27.271l17.431 199.239-59.772 5.229-17.431-199.239c-1.444-16.505 10.765-31.056 27.271-32.5z" fill="#f9d888"/></g><g><path d="m255.997 7.5c16.569 0 30 13.431 30 30v255h-60v-255c0-16.569 13.431-30 30-30z" fill="#f9ed80"/></g><g><path d="m338.451 253.046c-15.931 17.365-44.131 40.14-82.455 40.14s-66.523-22.775-82.455-40.14c-11.335-12.355-27.355-19.345-44.122-19.345h-60.755l35.978 245.14c2.707 18.446 21.406 29.981 39.105 24.125l74.556-24.667c24.477-8.098 50.911-8.098 75.387 0l74.556 24.667c17.7 5.856 36.398-5.679 39.105-24.125l35.978-245.14h-60.755c-16.767 0-32.788 6.99-44.123 19.345z" fill="#9ae0eb"/></g><g><path d="m158.647 461.34-33.409-227.638h-56.574l35.978 245.14c2.707 18.446 21.406 29.981 39.105 24.125l49.597-16.41c-16.279 2.795-32.214-8.299-34.697-25.217z" fill="#64d1e1"/></g><g><path d="m255.997 323.186c-48.614 0-83.693-27.113-104.561-49.858-5.612-6.118-13.637-9.626-22.017-9.626h-73.422c-16.568 0-30-13.432-30-30s13.432-30 30-30h73.423c25.144 0 49.283 10.593 66.229 29.063 12.732 13.878 33.538 30.421 60.349 30.421 26.812 0 47.616-16.542 60.348-30.42 16.947-18.472 41.087-29.064 66.229-29.064h73.423c16.568 0 30 13.432 30 30s-13.432 30-30 30h-73.423c-8.379 0-16.404 3.509-22.018 9.626-20.866 22.744-55.945 49.858-104.56 49.858z" fill="#ededed"/></g><g><g><g><ellipse cx="172.431" cy="403.433" fill="#fff" rx="30.834" ry="24.555"/></g><g><ellipse cx="339.562" cy="403.433" fill="#fff" rx="30.834" ry="24.555"/></g></g><g><path d="m190.401 386.994c-4.142 0-7.5-3.358-7.5-7.5v-12c0-4.142 3.358-7.5 7.5-7.5s7.5 3.358 7.5 7.5v12c0 4.142-3.358 7.5-7.5 7.5z"/></g><g><path d="m255.997 394.8c-8.795 0-17.16-3.81-22.948-10.451-2.721-3.123-2.396-7.86.727-10.582 3.123-2.721 7.86-2.396 10.582.727 2.939 3.373 7.181 5.307 11.64 5.307 4.458 0 8.701-1.934 11.64-5.307 2.72-3.123 7.458-3.447 10.582-.727 3.122 2.722 3.448 7.459.727 10.582-5.79 6.641-14.155 10.451-22.95 10.451z"/></g><g><path d="m337.815 386.66c-4.143 0-7.5-3.358-7.5-7.5 0-3.532-2.874-6.406-6.406-6.406s-6.406 2.874-6.406 6.406c0 4.142-3.357 7.5-7.5 7.5s-7.5-3.358-7.5-7.5c0-11.803 9.603-21.406 21.406-21.406s21.406 9.603 21.406 21.406c0 4.142-3.357 7.5-7.5 7.5z"/></g></g><g><path d="m99.419 233.702c0-16.569 13.431-30 30-30h-73.422c-16.568 0-30 13.432-30 30s13.432 30 30 30h73.423c-16.569 0-30.001-13.432-30.001-30z" fill="#dcdcdc"/></g><path d="m455.997 196.202h-19.963l26.524-98.989c2.593-9.675 1.262-19.781-3.746-28.456-5.009-8.675-13.096-14.879-22.771-17.472-9.272-2.485-18.605-1.338-26.503 2.603 1.698-9.822-.511-19.723-6.231-27.892-5.745-8.205-14.342-13.682-24.206-15.421-9.867-1.739-19.816.467-28.021 6.212-7.068 4.949-12.105 12.018-14.479 20.187-5.175-3.584-11.313-5.921-18.021-6.508-9.191-.803-18.013 1.839-25.088 6.906-.068-20.619-16.861-37.372-37.495-37.372-20.654 0-37.46 16.785-37.498 37.43-7.062-5.056-15.862-7.698-25.025-6.909-.021.001-.042.003-.063.005-6.7.586-12.832 2.918-18.003 6.496-2.368-8.19-7.411-15.276-14.494-20.235-8.206-5.745-18.156-7.951-28.021-6.212s-18.461 7.216-24.207 15.421c-5.73 8.185-7.938 18.106-6.223 27.945-7.919-3.961-17.266-5.131-26.51-2.656-9.675 2.593-17.762 8.798-22.771 17.472-5.008 8.675-6.338 18.781-3.746 28.456l26.524 98.989h-19.963c-20.678 0-37.5 16.822-37.5 37.5s16.822 37.5 37.5 37.5h10.591l30.634 208.729c1.613 10.99 7.959 20.638 17.413 26.47 5.996 3.699 12.802 5.592 19.67 5.592 3.96 0 7.941-.63 11.798-1.906l74.556-24.667c22.788-7.54 47.886-7.541 70.676 0l74.556 24.667c10.546 3.489 22.015 2.146 31.468-3.686 9.454-5.832 15.801-15.48 17.415-26.471l30.633-208.729h10.59c20.678 0 37.5-16.822 37.5-37.5s-16.823-37.499-37.5-37.499zm-23.838-130.428c5.806 1.555 10.657 5.278 13.663 10.483 3.005 5.205 3.803 11.268 2.248 17.073l-27.564 102.871h-36.057l20.273-114.974c.016-.051.038-.098.053-.15 3.496-11.759 15.526-18.485 27.384-15.303zm-72.475-36.7c4.923-3.447 10.895-4.77 16.812-3.727 5.919 1.043 11.077 4.329 14.524 9.252s4.771 10.894 3.728 16.812l-25.698 145.744c-9.788 1.376-19.279 4.225-28.143 8.411l11.765-134.476c.612-7-.754-13.724-3.628-19.625l1.388-7.869c1.043-5.917 4.329-11.075 9.252-14.522zm-42.409 16.335c12.358 1.081 21.534 12.016 20.453 24.375l-12.706 145.223c-5.108 3.731-9.875 7.969-14.205 12.688-4.662 5.082-10.486 10.55-17.321 15.295v-180.613c2.646-10.661 12.747-17.937 23.779-16.968zm-61.278-30.409c12.406 0 22.5 10.093 22.5 22.5v213.686c-6.871 2.772-14.397 4.5-22.5 4.5s-15.629-1.728-22.5-4.5v-213.686c0-12.407 10.093-22.5 22.5-22.5zm-135.024 19.6c3.447-4.923 8.605-8.209 14.524-9.252 5.918-1.045 11.889.28 16.812 3.727s8.209 8.605 9.252 14.523l1.395 7.914c-2.877 5.903-4.245 12.631-3.633 19.636l2.428 27.755c.342 3.904 3.616 6.847 7.463 6.847.219 0 .44-.01.663-.029 4.126-.361 7.179-3.999 6.818-8.125l-2.428-27.755c-1.08-12.342 8.069-23.263 20.403-24.367.018-.001.036-.003.055-.004 10.995-.968 21.121 6.303 23.771 16.95v180.57c-6.836-4.745-12.66-10.213-17.322-15.295-4.33-4.719-9.097-8.958-14.206-12.689l-7.647-87.411c-.361-4.127-4.005-7.171-8.125-6.818-4.126.361-7.179 3.999-6.818 8.125l6.707 76.663c-8.863-4.186-18.354-7.034-28.141-8.41l-25.698-145.743c-1.044-5.919.28-11.89 3.727-16.812zm-57.049 58.731c-1.556-5.805-.758-11.868 2.248-17.073 3.005-5.205 7.856-8.928 13.662-10.483 11.716-3.141 23.711 3.466 27.305 15.04.033.107.077.208.115.313l20.291 115.074h-36.057zm392.073 162.871h-73.423c-10.475 0-20.514 4.394-27.544 12.057-10.097 11.005-21.096 20.309-32.692 27.653-3.499 2.216-4.54 6.85-2.323 10.349 2.216 3.499 6.849 4.539 10.349 2.324 12.713-8.051 24.731-18.207 35.72-30.185 4.196-4.574 10.207-7.197 16.491-7.197h47.671l-30.314 206.551c-.968 6.594-4.776 12.383-10.448 15.882s-12.552 4.305-18.881 2.211l-74.557-24.667c-25.826-8.544-54.271-8.544-80.099 0l-74.556 24.667c-6.329 2.094-13.209 1.287-18.881-2.211-5.672-3.5-9.48-9.288-10.448-15.882l-30.314-206.552h47.671c6.284 0 12.294 2.623 16.49 7.196 21.884 23.854 58.748 52.288 110.087 52.288 15.736 0 31.211-2.721 45.995-8.087 3.894-1.413 5.904-5.715 4.491-9.609-1.412-3.893-5.715-5.906-9.608-4.491-13.139 4.769-26.893 7.187-40.878 7.187-45.889 0-79.184-25.792-99.034-47.429-7.029-7.662-17.068-12.056-27.543-12.056h-73.422c-12.407 0-22.5-10.093-22.5-22.5s10.093-22.5 22.5-22.5h73.423c23.048 0 45.173 9.708 60.702 26.634 13.749 14.986 36.339 32.851 65.875 32.851 29.537 0 52.126-17.864 65.874-32.85 15.53-16.927 37.655-26.635 60.703-26.635h73.423c12.406 0 22.5 10.093 22.5 22.5s-10.094 22.501-22.5 22.501z"/></g></svg>