<svg xmlns="http://www.w3.org/2000/svg" width="458.228" height="458.229"><path d="M405.958 81.303a229.925 229.925 0 00-52.6-45.852C316.754 12.259 274.402 0 230.884 0 169.685 0 112.149 23.832 68.875 67.106 25.601 110.38 1.769 167.916 1.769 229.114S25.601 347.85 68.875 391.123c43.274 43.273 100.81 67.105 162.009 67.105 47.021 0 92.212-14.145 130.688-40.906 37.567-26.131 66.195-62.395 82.788-104.87l-52.094-20.351C366.117 359.044 302.768 402.3 230.882 402.3c-95.496 0-173.188-77.691-173.188-173.188S135.387 55.925 230.883 55.925c48.337 0 93.034 19.639 125.137 53.303l-60.872 34.043 79.391 47.296 79.392 47.299 1.263-92.403 1.267-92.403-50.503 28.243z"/></svg>