<svg id="Capa_1" enable-background="new 0 0 512 512" height="512" viewBox="0 0 512 512" width="512" xmlns="http://www.w3.org/2000/svg"><g><g><g><path d="m170.28 120.982c24.222 11.452 42.393 33.001 50.797 58.421 10.678-4.325 22.413-6.739 34.922-6.741 12.509.002 24.244 2.416 34.923 6.741 10.433-31.559 35.919-57.16 69.349-64.869 4.302-55.058-37.198-107.027-95.343-107.034-59.14.007-101.062 53.768-95.084 109.861.126 1.212.276 2.418.436 3.621z" fill="#fac600"/><path d="m170.28 120.982c24.222 11.452 42.393 33.001 50.797 58.421 3.696-1.497 7.517-2.768 11.456-3.785-11.129-16.729-18.732-36.864-20.966-58.257-5.247-49.235 26.412-96.668 74.223-107.537-6.66-1.514-13.631-2.323-20.862-2.324-59.14.007-101.062 53.768-95.084 109.861.126 1.212.276 2.418.436 3.621z" fill="#e8b800"/></g></g><g><path d="m387.858 325.14c-2.138.197-4.288.297-6.447.294-2.158.003-4.305-.106-6.442-.303l-12.423 21.518c-.786 1.362.197 3.065 1.769 3.065h34.191c1.573 0 2.556-1.703 1.769-3.065z" fill="#fd4755"/><path d="m381.412 112.149c-43.674.005-77.952 29.328-90.49 67.254 39.805 16.122 64.875 58.892 60.162 103.12-1.173 11.233-3.826 22.122-7.69 32.354 11.843 6.755 24.764 10.574 38.018 10.556 46.679.062 89.234-47.415 95.084-103.424 5.978-56.091-35.945-109.853-95.084-109.86z" fill="#fd4755"/><g fill="#fb2b3a"><path d="m331.029 210.416c.405-44.29 29.916-84.828 73.003-95.52-7.188-1.784-14.75-2.745-22.62-2.746-43.674.005-77.952 29.328-90.49 67.254 16.117 6.527 29.821 17.417 40.107 31.012z"/><path d="m351.418 278.576c-.088 1.314-.193 2.63-.334 3.948-1.173 11.233-3.826 22.122-7.69 32.354 11.843 6.755 24.764 10.574 38.018 10.556 7.702.01 15.289-1.281 22.62-3.684-20.7-6.784-39.332-22.494-52.614-43.174z"/></g></g><g><path d="m262.446 385.653c-2.138.197-4.288.297-6.447.294-2.157.003-4.305-.108-6.441-.304l-12.424 21.519c-.786 1.362.197 3.065 1.769 3.065h34.191c1.573 0 2.556-1.703 1.769-3.065z" fill="#46cc8d"/><path d="m255.999 172.662c-12.861.002-24.906 2.548-35.823 7.104 4.424 13.428 6.03 27.788 4.501 42.138-2.822 27.012-14.166 52.63-31.942 72.137-7.518 8.249-15.777 14.932-24.472 19.913 15.222 41.249 50.139 72.043 87.736 71.993 46.679.062 89.234-47.415 95.084-103.424 5.979-56.092-35.944-109.854-95.084-109.861z" fill="#46cc8d"/><g fill="#00c27a"><path d="m226.101 206.112c12.908-15.223 30.341-26.508 50.724-31.133-6.649-1.509-13.608-2.316-20.826-2.317-12.509.002-24.244 2.416-34.922 6.741 2.825 8.546 4.549 17.527 5.024 26.709z"/><path d="m202.659 283.279c-9.404 13.278-21.083 24.201-34.054 31.599 15.4 40.785 50.078 71.119 87.394 71.069 7.075.009 14.054-1.08 20.826-3.119-37.706-11.353-68.95-52.348-74.166-99.549z"/></g></g><g><g><path d="m137.034 325.14c-2.138.197-4.288.297-6.447.294-2.159.003-4.309-.097-6.447-.294l-12.418 21.509c-.786 1.362.197 3.065 1.769 3.065h34.191c1.573 0 2.556-1.703 1.769-3.065z" fill="#fd8087"/><g><path d="m130.587 112.149c-59.14.007-101.062 53.768-95.084 109.861 5.851 56.009 48.406 103.485 95.084 103.424 46.679.062 89.234-47.415 95.084-103.424 5.979-56.092-35.944-109.854-95.084-109.861z" fill="#fd8087"/></g><g><path d="m77.263 222.01c-5.247-49.228 26.403-96.656 74.204-107.533-6.666-1.517-13.643-2.328-20.88-2.328-59.14.007-101.062 53.768-95.084 109.861 5.851 56.009 48.406 103.485 95.084 103.424 7.094.009 14.091-1.085 20.88-3.135-37.883-11.436-69.242-52.791-74.204-100.289z" fill="#fe646f"/></g><g><path d="m186.804 220.083-28.731 12.668c-.799.352-1.278 1.182-1.184 2.051l3.394 31.215c.188 1.732-1.771 2.863-3.176 1.834l-25.336-18.547c-.705-.516-1.663-.516-2.368 0l-25.336 18.547c-1.406 1.029-3.365-.102-3.176-1.834l3.394-31.215c.094-.868-.385-1.698-1.184-2.051l-28.731-12.668c-1.594-.703-1.594-2.965 0-3.668l28.731-12.668c.799-.352 1.278-1.182 1.184-2.051l-3.394-31.215c-.188-1.732 1.771-2.863 3.176-1.834l25.336 18.547c.705.516 1.663.516 2.368 0l25.336-18.547c1.406-1.029 3.365.102 3.176 1.834l-3.394 31.215c-.094.868.385 1.698 1.184 2.051l28.731 12.668c1.594.703 1.594 2.965 0 3.668z" fill="#fff"/></g></g></g><g><path d="m298.328 85.748c-2.071-3.588-6.658-4.815-10.245-2.745l-15.655 9.038v-18.076c0-4.143-3.358-7.5-7.5-7.5s-7.5 3.357-7.5 7.5v18.076l-15.655-9.038c-3.588-2.071-8.175-.843-10.245 2.745-2.071 3.587-.842 8.174 2.745 10.245l15.655 9.039-15.655 9.039c-3.587 2.071-4.816 6.658-2.745 10.245 1.389 2.406 3.91 3.751 6.502 3.751 1.272 0 2.562-.324 3.743-1.006l15.655-9.038v18.076c0 4.143 3.358 7.5 7.5 7.5s7.5-3.357 7.5-7.5v-18.076l15.655 9.038c1.181.682 2.471 1.006 3.743 1.006 2.592 0 5.113-1.345 6.502-3.751 2.071-3.587.842-8.174-2.745-10.245l-15.655-9.039 15.655-9.039c3.587-2.071 4.816-6.658 2.745-10.245z"/><path d="m471.976 160.449c-1.926-3.667-6.459-5.08-10.127-3.154-3.667 1.926-5.079 6.46-3.153 10.127 3.819 7.274 6.652 14.92 8.467 22.772l-15.416 14.507-16.114-15.163c-2.888-2.717-7.392-2.717-10.28 0l-16.111 15.162-16.109-15.162c-2.888-2.717-7.393-2.717-10.28 0l-16.11 15.162-16.11-15.162c-2.888-2.717-7.393-2.718-10.281.001l-9.498 8.941c-8.865-9.752-19.179-17.512-30.491-23.082 4.036-9.799 9.731-18.94 16.946-26.966 16.683-18.558 39.448-28.779 64.101-28.782 21.567.003 41.447 7.666 57.489 22.161 3.074 2.777 7.816 2.537 10.593-.536s2.537-7.816-.537-10.593c-18.844-17.027-42.201-26.029-67.546-26.032-4.513 0-8.971.292-13.357.866-.168-16.271-3.98-32.369-11.269-47.174-1.83-3.717-6.326-5.246-10.042-3.416-3.716 1.829-5.245 6.325-3.416 10.041 6.738 13.687 10.039 28.647 9.716 43.7-17.818 5.194-33.927 15.317-46.89 29.736-8.402 9.346-15.019 19.998-19.702 31.412-9.699-3.061-19.926-4.652-30.452-4.653-.001 0-.001 0-.002 0-10.522.001-20.745 1.593-30.439 4.653-4.685-11.416-11.313-22.065-19.716-31.412-8.352-9.29-18.012-16.792-28.591-22.348-2.659-26.315 5.914-52.63 23.573-72.273 16.687-18.557 39.452-28.779 64.105-28.782 22.137.003 43.192 8.466 59.287 23.83 2.996 2.859 7.744 2.751 10.604-.246 2.86-2.996 2.75-7.743-.246-10.604-18.899-18.041-43.632-27.977-69.645-27.98-28.964.003-55.691 11.991-75.256 33.754-18.688 20.788-28.598 48.016-27.85 75.792-9.93-3.224-20.426-4.896-31.235-4.897-28.964.003-55.691 11.991-75.256 33.754-20.613 22.93-30.558 53.693-27.287 84.387 3.011 28.819 15.139 56.17 34.15 77.014 14.628 16.036 31.936 26.663 50.036 30.967l-7.002 12.128c-1.7 2.943-1.7 6.601 0 9.544s4.866 4.771 8.265 4.771h9.596v147.286c0 4.143 3.358 7.5 7.5 7.5s7.5-3.357 7.5-7.5v-147.286h9.596c3.398 0 6.565-1.828 8.265-4.771 1.699-2.943 1.699-6.601 0-9.544l-7.009-12.14c5.386-1.277 10.687-3.104 15.85-5.45 5.756 12.848 13.438 24.725 22.817 35.008 14.627 16.036 31.937 26.663 50.037 30.967l-7.001 12.126c-1.701 2.942-1.702 6.6-.002 9.543 1.699 2.944 4.866 4.773 8.265 4.773h9.596v86.774c0 4.143 3.358 7.5 7.5 7.5s7.5-3.357 7.5-7.5v-86.773h9.596c3.399 0 6.566-1.829 8.265-4.773 1.699-2.943 1.698-6.601-.001-9.541l-7.004-12.131c18.106-4.306 35.413-14.932 50.038-30.965 9.384-10.289 17.083-22.168 22.844-35.02 5.171 2.36 10.458 4.197 15.817 5.472l-7.003 12.13c-1.7 2.943-1.7 6.601 0 9.544s4.866 4.771 8.265 4.771h9.596v147.286c0 4.143 3.358 7.5 7.5 7.5s7.5-3.357 7.5-7.5v-147.286h9.596c3.398 0 6.565-1.828 8.265-4.771 1.699-2.943 1.699-6.601 0-9.544l-7.003-12.13c18.106-4.306 35.413-14.931 50.038-30.965 19.011-20.844 31.139-48.194 34.148-76.998 2.287-21.506-1.855-43.069-11.983-62.357zm-126.483 44.851 16.109 15.162c2.888 2.717 7.393 2.717 10.28 0l16.109-15.162 16.109 15.162c2.888 2.717 7.393 2.717 10.28 0l16.111-15.163 16.113 15.163c1.444 1.358 3.292 2.038 5.14 2.038s3.696-.68 5.14-2.038l12.628-11.883c.121 4.204-.027 8.429-.477 12.653-.13 1.245-.295 2.483-.463 3.721-.246.18-.486.372-.714.586l-16.114 15.163-16.114-15.163c-2.888-2.717-7.392-2.717-10.28 0l-16.108 15.161-16.109-15.162c-2.888-2.717-7.393-2.717-10.28 0l-16.11 15.162-16.11-15.162c-.748-.704-1.606-1.22-2.514-1.559-2.304-4.731-4.948-9.308-7.933-13.684zm-207.262 136.914h-15.288l5.376-9.311c.719.02 1.438.032 2.157.032.066-.001.136-.001.203 0 .724 0 1.446-.026 2.168-.046zm125.412 60.513h-15.287l5.376-9.311c.719.02 1.437.032 2.156.032h.203c.726 0 1.451-.012 2.176-.033zm49.668-52.52c-16.613 18.215-36.93 28.24-57.24 28.24-.026 0-.055 0-.081 0-.027 0-.054 0-.081 0-20.29 0-40.608-10.026-57.221-28.239-8.586-9.413-15.574-20.343-20.733-32.185 16.26-10.712 30.497-26.781 40.779-46.871 1.887-3.688.428-8.206-3.259-10.094-3.687-1.886-8.206-.427-10.093 3.26-16.675 32.581-45.989 53.616-74.726 53.616-.053 0-.108 0-.159 0-20.29 0-40.608-10.026-57.221-28.24-16.868-18.492-27.633-42.807-30.315-68.479-2.822-26.485 5.752-53.014 23.525-72.784 16.683-18.558 39.448-28.779 64.101-28.782 24.654.003 47.419 10.225 64.103 28.782 17.773 19.771 26.348 46.299 23.523 72.8-.415 3.975-1.043 8.003-1.865 11.972-.84 4.056 1.767 8.025 5.823 8.865 4.054.842 8.025-1.767 8.866-5.822.923-4.458 1.628-8.985 2.094-13.44 1.397-13.106.378-26.219-2.842-38.732 8.196-2.567 16.828-3.911 25.711-3.912 24.654.003 47.419 10.225 64.103 28.782 17.773 19.771 26.348 46.299 23.523 72.8-2.682 25.656-13.447 49.971-30.315 68.463zm75.745-7.993h-15.288l5.378-9.316c.718.02 1.436.037 2.154.037.067-.001.135 0 .203 0 .726 0 1.451-.012 2.177-.033zm49.667-52.52c-16.613 18.215-36.93 28.24-57.24 28.24-.053.001-.109.001-.162 0-9.698 0-19.402-2.296-28.706-6.677 2.914-9.034 4.93-18.403 5.926-27.939 1.104-10.354.698-20.714-1.106-30.778l4.167 3.922c2.888 2.717 7.393 2.717 10.28 0l16.109-15.162 16.109 15.162c2.888 2.717 7.393 2.717 10.28 0l16.111-15.163 16.113 15.163c1.444 1.358 3.292 2.038 5.14 2.038s3.696-.68 5.14-2.038l4.856-4.569c-5.294 14.005-13.088 26.916-23.017 37.801z"/><path d="m189.829 209.553-16.545-7.295 11.554-6.671c3.587-2.071 4.816-6.658 2.745-10.245s-6.657-4.815-10.245-2.745l-11.553 6.67 1.954-17.975c.407-3.741-1.436-7.375-4.694-9.258-3.259-1.882-7.328-1.661-10.368.561l-14.59 10.681v-13.34c0-4.143-3.358-7.5-7.5-7.5s-7.5 3.357-7.5 7.5v13.34l-14.592-10.683c-3.04-2.221-7.108-2.439-10.366-.559-3.259 1.883-5.102 5.517-4.694 9.257l1.954 17.976-11.553-6.67c-3.588-2.071-8.175-.843-10.245 2.745-2.071 3.587-.842 8.174 2.745 10.245l11.554 6.671-16.545 7.295c-3.444 1.519-5.669 4.933-5.669 8.696s2.226 7.178 5.67 8.696l16.544 7.295-11.553 6.67c-3.587 2.071-4.816 6.658-2.745 10.245 1.389 2.406 3.91 3.751 6.502 3.751 1.272 0 2.562-.324 3.743-1.006l11.553-6.67-1.954 17.975c-.407 3.743 1.437 7.377 4.697 9.26 1.475.852 3.115 1.272 4.75 1.272 1.979 0 3.952-.617 5.615-1.835l14.59-10.681v13.341c0 4.143 3.358 7.5 7.5 7.5s7.5-3.357 7.5-7.5v-13.341l14.589 10.68c3.037 2.224 7.106 2.443 10.366.563 3.26-1.883 5.104-5.517 4.697-9.259l-1.954-17.976 11.553 6.67c1.181.682 2.471 1.006 3.743 1.006 2.592 0 5.113-1.345 6.502-3.751 2.071-3.587.842-8.174-2.745-10.245l-11.553-6.67 16.544-7.295c3.444-1.519 5.669-4.933 5.669-8.696s-2.225-7.177-5.67-8.695zm-38.349-27.492-1.794 16.501-11.599 6.697v-13.393zm-41.786 0 13.393 9.805v13.393l-11.599-6.697zm-20.893 36.188 15.188-6.697 11.598 6.696-11.599 6.697zm20.893 36.188 1.794-16.501 11.599-6.696v13.394zm41.786 0-13.393-9.804v-13.394l11.599 6.697zm-5.893-36.188 11.598-6.696 15.188 6.697-15.187 6.696zm38.184-5.025.006-.003z"/><path d="m342.757 369.151c-1.172-1.172-3.071-1.172-4.243 0l-6.364 6.364c-1.172 1.172-1.172 3.071 0 4.243l6.364 6.364c1.172 1.172 3.071 1.172 4.243 0l6.364-6.364c1.172-1.172 1.172-3.071 0-4.243z"/><path d="m386.242 90.121c1.172 1.172 3.071 1.172 4.243 0l6.364-6.364c1.172-1.172 1.172-3.071 0-4.243l-6.364-6.364c-1.172-1.172-3.071-1.172-4.243 0l-6.364 6.364c-1.172 1.172-1.172 3.071 0 4.243z"/><path d="m126.514 75.121c1.172 1.172 3.071 1.172 4.243 0l6.364-6.364c1.172-1.172 1.172-3.071 0-4.243l-6.364-6.364c-1.172-1.172-3.071-1.172-4.243 0l-6.364 6.364c-1.172 1.172-1.172 3.071 0 4.243z"/><path d="m82.485 364.151c-1.172-1.172-3.071-1.172-4.243 0l-6.364 6.364c-1.172 1.172-1.172 3.071 0 4.243l6.364 6.364c1.172 1.172 3.071 1.172 4.243 0l6.364-6.364c1.172-1.172 1.172-3.071 0-4.243z"/><path d="m310.485 435.879c-1.172-1.172-3.071-1.172-4.243 0l-6.364 6.364c-1.172 1.172-1.172 3.071 0 4.243l6.364 6.364c1.172 1.172 3.071 1.172 4.243 0l6.364-6.364c1.172-1.172 1.172-3.071 0-4.243z"/><path d="m426.757 472.879c-1.172-1.172-3.071-1.172-4.243 0l-6.364 6.364c-1.172 1.172-1.172 3.071 0 4.243l6.364 6.364c1.172 1.172 3.071 1.172 4.243 0l6.364-6.364c1.172-1.172 1.172-3.071 0-4.243z"/><path d="m178.298 466.746 11.939-12.688c4.52-4.805 4.519-12.33-.002-17.132l-11.937-12.685 11.938-12.683c4.521-4.805 4.52-12.331-.001-17.134l-16.775-17.823c-2.839-3.016-7.585-3.159-10.602-.321-3.017 2.839-3.16 7.586-.321 10.603l15.162 16.109-11.938 12.683c-4.521 4.805-4.52 12.331.001 17.133l11.938 12.685-11.938 12.687c-4.522 4.804-4.522 12.33-.001 17.133l16.775 17.827c1.476 1.568 3.467 2.36 5.463 2.36 1.843 0 3.69-.676 5.138-2.038 3.017-2.839 3.161-7.585.322-10.602z"/><path d="m455.139 331.281c-3.017-2.84-7.763-2.694-10.602.322l-16.774 17.826c-4.522 4.804-4.522 12.33-.001 17.133l11.938 12.688-11.938 12.684c-4.52 4.804-4.52 12.33.001 17.135l11.937 12.681-15.162 16.109c-2.839 3.017-2.695 7.764.321 10.603 1.448 1.362 3.295 2.038 5.139 2.038 1.996 0 3.987-.792 5.463-2.359l16.774-17.823c4.521-4.803 4.522-12.329 0-17.135l-11.937-12.683 11.938-12.684c4.52-4.805 4.52-12.33 0-17.133l-11.938-12.688 15.163-16.113c2.839-3.016 2.695-7.762-.322-10.601z"/></g></g></svg>