<svg id="Capa_1" enable-background="new 0 0 512 512" height="512" viewBox="0 0 512 512" width="512" xmlns="http://www.w3.org/2000/svg"><g><g><path d="m22.911 137v303.835c0 2.761 2.239 5 5 5h361.051v-80.502c.103.006.201.031.306.031-2.909 0-5.268-2.358-5.268-5.268v-26.165c0-2.909 2.358-5.268 5.268-5.268h65.147v-191.663z" fill="#ffe5c2"/><g><path d="m54 440.835v-303.835h-31.089v303.835c0 2.761 2.239 5 5 5h31.089c-2.761 0-5-2.238-5-5z" fill="#fed2a4"/></g><g><path d="m22.911 396v44.835c0 2.761 2.239 5 5 5h58.429v-49.835z" fill="#46cc8d"/></g><g><path d="m54 440.835v-44.835h-31.089v44.835c0 2.761 2.239 5 5 5h31.089c-2.761 0-5-2.238-5-5z" fill="#00c27a"/></g><path d="m389.268 365.364c-2.909 0-5.268-2.358-5.268-5.268v-26.165c0-2.909 2.358-5.268 5.268-5.268h1.719v-59.869c0-22.056-17.944-40-40-40h-224.648c-22.056 0-40 17.944-40 40v177.041h302.622v-80.502c.104.006.202.031.307.031z" fill="#a44f3e"/><g><path d="m360.986 445.835h-244.647v-177.04c0-5.523 4.477-10 10-10h224.647c5.523 0 10 4.477 10 10z" fill="#fe860a"/></g><g><path d="m168 258.795h-41.661c-5.523 0-10 4.477-10 10v177.041h41.661v-177.041c0-5.523 4.477-10 10-10z" fill="#fe7701"/></g><g><path d="m464.826 137h-452.326c-2.761 0-5-2.239-5-5v-60.835c0-2.761 2.239-5 5-5h452.326c2.761 0 5 2.239 5 5v60.835c0 2.761-2.239 5-5 5z" fill="#46cc8d"/></g><g><path d="m49.674 132v-60.835c0-2.761 2.239-5 5-5h-42.174c-2.761 0-5 2.239-5 5v60.835c0 2.761 2.239 5 5 5h42.174c-2.761 0-5-2.239-5-5z" fill="#00c27a"/></g><g><g><path d="m117.332 193.484c-1.163-2.014-1.478-4.407-.876-6.653l11.953-44.609-48.556-13.011-11.733 43.789c-1.204 4.492-.574 9.279 1.752 13.306l21.424 37.107c5.18 8.971 16.651 12.045 25.622 6.865 8.971-5.179 12.045-16.651 6.865-25.622z" fill="#e41f2d"/><path d="m112.012 223.413-21.424-37.107c-2.325-4.028-2.956-8.814-1.752-13.306l10.345-38.609-19.329-5.179-11.732 43.788c-1.204 4.492-.574 9.279 1.752 13.306l21.424 37.107c5.18 8.971 16.651 12.045 25.622 6.865.339-.196.652-.417.974-.63-2.342-1.551-4.38-3.637-5.88-6.235z" fill="#c41926"/><g><path d="m131.232 142.979-54.202-14.524c-1.559-.418-2.484-2.02-2.067-3.579l5.9-22.02c.418-1.559 2.02-2.484 3.579-2.067l54.202 14.523c1.559.418 2.484 2.02 2.067 3.579l-5.9 22.02c-.417 1.56-2.02 2.485-3.579 2.068z" fill="#fff"/></g><g><path d="m103.041 105.773-18.599-4.983c-1.559-.418-3.162.508-3.579 2.067l-5.9 22.02c-.418 1.559.508 3.162 2.067 3.579l18.599 4.983z" fill="#eef5f6"/></g></g><g><path d="m206.996 193.484c-1.163-2.014-1.478-4.407-.876-6.653l11.953-44.609-48.556-13.011-11.733 43.789c-1.204 4.492-.574 9.279 1.752 13.306l21.424 37.107c5.179 8.971 16.651 12.045 25.622 6.865 8.971-5.179 12.045-16.651 6.865-25.622z" fill="#08b865"/><path d="m201.773 223.413-21.424-37.107c-2.325-4.028-2.956-8.814-1.752-13.306l10.339-38.585-19.42-5.203-11.732 43.788c-1.204 4.492-.574 9.279 1.752 13.306l21.424 37.107c5.179 8.971 16.651 12.045 25.622 6.865.356-.206.687-.438 1.024-.662-2.322-1.548-4.343-3.622-5.833-6.203z" fill="#09a755"/><g><path d="m220.896 142.979-54.202-14.523c-1.559-.418-2.484-2.02-2.067-3.579l5.9-22.02c.418-1.559 2.02-2.484 3.579-2.067l54.202 14.523c1.559.418 2.484 2.02 2.067 3.579l-5.9 22.02c-.417 1.559-2.02 2.484-3.579 2.067z" fill="#fff"/></g><g><path d="m192.705 105.773-18.599-4.983c-1.559-.418-3.162.508-3.579 2.067l-5.9 22.02c-.418 1.559.508 3.162 2.067 3.579l18.599 4.983z" fill="#eef5f6"/></g></g><g><path d="m296.66 193.484c-1.163-2.014-1.478-4.407-.876-6.653l11.953-44.609-48.556-13.011-11.734 43.789c-1.204 4.492-.574 9.279 1.752 13.306l21.424 37.107c5.179 8.971 16.651 12.045 25.622 6.865 8.971-5.179 12.045-16.651 6.865-25.622z" fill="#e41f2d"/><path d="m291.012 223.413-21.424-37.107c-2.325-4.028-2.956-8.814-1.752-13.306l10.367-38.691-19.023-5.097-11.733 43.788c-1.204 4.492-.574 9.279 1.752 13.306l21.424 37.107c5.179 8.971 16.651 12.045 25.622 6.865.28-.162.538-.348.806-.521-2.41-1.561-4.505-3.686-6.039-6.344z" fill="#c41926"/><g><path d="m310.56 142.979-54.202-14.523c-1.559-.418-2.484-2.02-2.067-3.579l5.9-22.02c.418-1.559 2.02-2.484 3.579-2.067l54.202 14.523c1.559.418 2.484 2.02 2.067 3.579l-5.9 22.02c-.418 1.559-2.02 2.484-3.579 2.067z" fill="#fff"/></g><g><path d="m282.369 105.773-18.599-4.983c-1.559-.418-3.162.508-3.579 2.067l-5.9 22.02c-.418 1.559.508 3.162 2.067 3.579l18.599 4.983z" fill="#eef5f6"/></g></g><g><path d="m386.323 193.484c-1.163-2.014-1.478-4.407-.876-6.653l11.953-44.609-48.556-13.011-11.733 43.789c-1.204 4.492-.574 9.279 1.752 13.306l21.424 37.107c5.179 8.971 16.651 12.045 25.622 6.865 8.971-5.179 12.045-16.651 6.865-25.622z" fill="#08b865"/><path d="m381.012 223.413-21.424-37.107c-2.325-4.028-2.956-8.814-1.752-13.306l10.345-38.607-19.337-5.181-11.733 43.788c-1.204 4.492-.574 9.279 1.752 13.306l21.424 37.107c5.179 8.971 16.651 12.045 25.622 6.865.34-.197.656-.419.979-.633-2.341-1.551-4.377-3.635-5.876-6.232z" fill="#09a755"/><g><path d="m400.223 142.979-54.202-14.523c-1.559-.418-2.484-2.02-2.067-3.579l5.9-22.02c.418-1.559 2.02-2.484 3.579-2.067l54.202 14.523c1.559.418 2.484 2.02 2.067 3.579l-5.9 22.02c-.417 1.559-2.02 2.484-3.579 2.067z" fill="#fff"/></g><g><path d="m372.033 105.773-18.599-4.983c-1.559-.418-3.162.508-3.579 2.067l-5.9 22.02c-.418 1.559.508 3.162 2.067 3.579l18.599 4.983z" fill="#eef5f6"/></g></g></g><g><path d="m311.645 416.014c4.159-8 4.554-17.984-.598-26.907l-25.105-43.482c-1.112-1.926-3.893-1.926-5.005 0l-9.205 15.944c-1.127 1.952-3.965 1.927-5.031-.06-.139-.259-.283-.518-.432-.775l-25.105-43.482c-1.112-1.926-3.893-1.926-5.005 0l-25.105 43.482c-.149.257-.292.516-.431.775-1.066 1.986-3.904 2.012-5.031.06l-9.205-15.944c-1.112-1.926-3.893-1.926-5.005 0l-25.105 43.482c-5.152 8.923-4.757 18.907-.598 26.907z" fill="#fedf30"/></g><g><g><path d="m186.791 389.107 17.351-30.053-7.754-13.43c-1.112-1.926-3.893-1.926-5.005 0l-25.105 43.482c-5.152 8.923-4.757 18.907-.598 26.907h20.512c-4.158-8-4.553-17.983.599-26.906z" fill="#fed402"/></g></g><g><path d="m296.072 416.014-16.299-28.23c-.427-.74-1.496-.74-1.923 0l-11.756 20.362c-.427.74-1.496.74-1.923 0l-24.546-42.516c-.427-.74-1.496-.74-1.923 0l-24.546 42.516c-.427.74-1.496.74-1.923 0l-11.756-20.362c-.427-.74-1.496-.74-1.923 0l-16.299 28.23z" fill="#fff"/></g><g><path d="m116.339 415.014h244.647v30.822h-244.647z" fill="#f6a96c"/></g><g><path d="m116.339 415.014h41.661v30.822h-41.661z" fill="#ea9b58"/></g></g><g><g><g><path d="m411.052 328.663h21.932c4.944-5.988 3.053-16.516-4.55-24.119-7.945-7.945-19.099-9.673-24.912-3.86s-4.085 16.967 3.86 24.912c1.161 1.163 2.397 2.175 3.67 3.067z" fill="#46cc8d"/><path d="m477.71 328.663c1.273-.892 2.509-1.904 3.671-3.067 7.945-7.945 9.673-19.099 3.86-24.912s-16.967-4.085-24.912 3.86c-7.603 7.603-9.494 18.131-4.55 24.119z" fill="#46cc8d"/><path d="m457.019 328.663v-13.066c0-7.065-5.727-12.792-12.792-12.792-7.065 0-12.792 5.727-12.792 12.792v13.066z" fill="#09a755"/></g></g><path d="m499.232 365.364h-109.964c-.105 0-.203-.025-.306-.031v80.502h105.309c2.909 0 5.268-2.358 5.268-5.268v-75.235c-.104.007-.202.032-.307.032z" fill="#fd4755"/><path d="m389.268 365.364c-.105 0-.203-.025-.306-.031v80.502h23.038v-80.471z" fill="#fb2b3a"/><path d="m429.723 365.364h29.055v80.471h-29.055z" fill="#08b865"/><g><path d="m499.232 365.364h-109.964c-2.909 0-5.268-2.358-5.268-5.268v-26.165c0-2.909 2.358-5.268 5.268-5.268h109.965c2.909 0 5.268 2.358 5.268 5.268v26.165c-.001 2.909-2.359 5.268-5.269 5.268z" fill="#e41f2d"/></g><g><path d="m411 360.096v-26.165c0-2.909 2.358-5.268 5.268-5.268h-27c-2.909 0-5.268 2.358-5.268 5.268v26.165c0 2.909 2.358 5.268 5.268 5.268h27c-2.91 0-5.268-2.359-5.268-5.268z" fill="#c41926"/></g><g><path d="m425.9 328.663h36.701v36.701h-36.701z" fill="#46cc8d"/></g></g><g><path d="m285.858 298.674c-4.142 0-7.5 3.358-7.5 7.5v8.669c0 4.142 3.358 7.5 7.5 7.5s7.5-3.358 7.5-7.5v-8.669c0-4.142-3.358-7.5-7.5-7.5z"/><path d="m320.533 360.87c4.142 0 7.5-3.358 7.5-7.5v-8.668c0-4.142-3.358-7.5-7.5-7.5s-7.5 3.358-7.5 7.5v8.668c0 4.142 3.358 7.5 7.5 7.5z"/><path d="m152.94 337.202c-4.142 0-7.5 3.358-7.5 7.5v8.668c0 4.142 3.358 7.5 7.5 7.5s7.5-3.358 7.5-7.5v-8.668c0-4.142-3.358-7.5-7.5-7.5z"/><path d="m189.541 296.748c-4.142 0-7.5 3.358-7.5 7.5v8.668c0 4.142 3.358 7.5 7.5 7.5s7.5-3.358 7.5-7.5v-8.668c0-4.142-3.358-7.5-7.5-7.5z"/><path d="m499.232 321.163h-5.715c1.154-2.489 1.962-5.073 2.365-7.674 1.089-7.027-.857-13.627-5.338-18.108-7.148-7.148-18.654-7.433-28.63-1.508v-71.873c0-4.142-3.358-7.5-7.5-7.5s-7.5 3.358-7.5 7.5v73.494c-.88-.117-1.775-.188-2.687-.188-4.103 0-7.919 1.233-11.115 3.335-10.888-10.387-25.875-11.933-34.626-3.512v-26.334c0-11.724-4.28-22.46-11.345-30.754.854-.379 1.697-.794 2.518-1.267 6.074-3.506 10.418-9.168 12.233-15.943 1.815-6.774.884-13.85-2.623-19.924l-6.451-11.173c-.169-.293-.214-.635-.126-.962v.001l10.291-38.406c1.113-.219 2.197-.601 3.208-1.185 1.899-1.096 3.363-2.728 4.255-4.682h36.469v42.5c0 4.142 3.358 7.5 7.5 7.5s7.5-3.358 7.5-7.5v-42.5h2.911c6.893 0 12.5-5.607 12.5-12.5v-60.835c0-6.893-5.607-12.5-12.5-12.5h-313.826c-4.142 0-7.5 3.358-7.5 7.5s3.358 7.5 7.5 7.5h21.891v19.535c-1.654.071-3.277.535-4.752 1.386-2.411 1.392-4.136 3.64-4.856 6.328l-5.9 22.019c-.591 2.204-.437 4.486.4 6.566h-12.149l2.322-8.668c.72-2.689.35-5.498-1.042-7.908-1.392-2.411-3.64-4.135-6.329-4.855l-42.359-11.35v-23.053h17.774c4.142 0 7.5-3.358 7.5-7.5s-3.358-7.5-7.5-7.5h-103.5c-6.893 0-12.5 5.607-12.5 12.5v60.835c0 6.893 5.607 12.5 12.5 12.5h2.911v296.335c0 6.893 5.607 12.5 12.5 12.5h466.36c7.04 0 12.768-5.728 12.768-12.768v-70.39c3.012-2.338 4.962-5.982 4.962-10.081v-26.166c-.001-7.039-5.729-12.767-12.769-12.767zm-132.014-247.498h95.108v55.835h-47.7l2.322-8.668c.72-2.689.35-5.498-1.042-7.908-1.392-2.411-3.64-4.135-6.329-4.855l-42.359-11.35zm-13.397 43.365c1.373 1.748 3.501 2.875 5.896 2.875 4.142 0 7.5-3.358 7.5-7.5v-.158l34.056 9.125-3.531 13.177-45.359-12.154zm-76.267-43.365h74.664v19.536c-4.419.198-8.403 3.218-9.608 7.714l-5.899 22.019c-.591 2.204-.437 4.486.4 6.566h-12.149l2.322-8.666c.721-2.689.352-5.499-1.041-7.91-1.392-2.411-3.64-4.136-6.329-4.856l-42.359-11.35v-23.053zm32.051 127.242-6.451-11.173c-.169-.293-.214-.635-.127-.961 0 0 0 0 0-.001l10.293-38.414c3.227-.641 6.055-2.771 7.469-5.858h16.193l-7.116 26.558c-1.731 6.459-.843 13.206 2.5 18.998l18.036 31.238h-38.324c1.906-6.617 1.234-13.967-2.473-20.387zm-45.447-83.877c1.373 1.748 3.501 2.876 5.897 2.876 4.142 0 7.5-3.358 7.5-7.5v-.158l34.056 9.125-3.53 13.177-45.36-12.154zm26.007 80.204 6.451 11.173c1.503 2.604 1.902 5.637 1.124 8.542-.778 2.904-2.641 5.332-5.245 6.835s-5.637 1.903-8.541 1.125-5.332-2.641-6.835-5.245l-21.423-37.106c-1.341-2.322-1.697-5.027-1.003-7.616l9.792-36.543 34.067 9.128-10.011 37.364c-1.126 4.195-.549 8.579 1.624 12.343zm-70.224 3.673-6.451-11.174c-.169-.292-.214-.633-.126-.96 0 0 0 0 0-.001l10.291-38.405c1.113-.219 2.197-.601 3.208-1.185 1.898-1.096 3.362-2.728 4.254-4.682h16.201l-7.116 26.559c-1.73 6.459-.842 13.206 2.501 18.998l18.036 31.238h-38.311c.045-.155.095-.308.136-.464 1.816-6.775.884-13.851-2.623-19.924zm-32.05-127.242h74.664v19.535c-1.653.071-3.276.535-4.751 1.387-2.412 1.392-4.137 3.64-4.857 6.329l-5.9 22.021c-.59 2.204-.436 4.485.401 6.564h-12.149l2.322-8.666c.721-2.689.352-5.499-1.041-7.91-1.392-2.411-3.64-4.136-6.329-4.856l-42.359-11.35v-23.054zm-13.397 43.365c1.373 1.748 3.501 2.876 5.897 2.876 4.142 0 7.5-3.358 7.5-7.5v-.158l34.056 9.125-3.531 13.177-45.359-12.154zm-9.466 57.91 9.792-36.543 34.067 9.128-10.011 37.364c-1.125 4.198-.548 8.583 1.625 12.345l6.45 11.173c1.503 2.604 1.903 5.638 1.125 8.542s-2.641 5.332-5.245 6.835-5.638 1.903-8.542 1.125-5.332-2.641-6.835-5.245l-21.424-37.107c-1.34-2.322-1.696-5.027-1.002-7.617zm-23.565-30.44h16.193l-7.116 26.559c-1.73 6.46-.842 13.207 2.501 18.998l18.036 31.238h-38.324c1.904-6.618 1.233-13.967-2.474-20.388l-6.451-11.173c-.169-.293-.214-.635-.126-.962v.001l10.293-38.415c3.226-.641 6.054-2.771 7.468-5.858zm-56.633-27.47c1.373 1.748 3.501 2.875 5.896 2.875 4.142 0 7.5-3.358 7.5-7.5v-.158l34.056 9.125-3.531 13.177-45.359-12.154zm26.007 80.204 6.451 11.173c3.103 5.375 1.255 12.273-4.12 15.376-5.375 3.104-12.273 1.255-15.377-4.12l-21.423-37.106c-1.341-2.322-1.697-5.027-1.003-7.616l9.792-36.543 34.068 9.128-10.012 37.364v.001c-1.126 4.197-.548 8.58 1.624 12.343zm-95.837-67.734v-55.835h68.227v19.536c-4.419.198-8.403 3.218-9.608 7.714l-5.899 22.019c-.591 2.204-.437 4.486.4 6.566zm63.839 308.835h-48.428v-34.835h48.429v34.835zm0-169.541v119.706h-48.428v-244h37.581l-7.116 26.559c-1.73 6.459-.842 13.206 2.501 18.998l21.423 37.106c1.95 3.377 4.567 6.216 7.669 8.387-8.42 8.573-13.63 20.307-13.63 33.244zm274.647 169.541h-229.647v-15.822h229.647zm-74.674-58.606c-3.067 0-5.924 1.65-7.457 4.305l-6.223 10.778-19.012-32.93c-1.533-2.655-4.389-4.305-7.455-4.306 0 0-.001 0-.002 0-3.065 0-5.922 1.648-7.457 4.305l-19.013 32.931-6.222-10.777c-1.533-2.656-4.39-4.306-7.457-4.306s-5.924 1.65-7.457 4.305l-13.556 23.48h-6.999c-1.124-4.933-.378-10.068 2.272-14.657l21.112-36.567 5.212 9.028c1.884 3.265 5.414 5.274 9.165 5.196 3.758-.059 7.195-2.151 8.969-5.458.103-.192.21-.383.318-.572l21.112-36.567 21.116 36.574c.108.188.213.376.314.564 1.775 3.309 5.213 5.401 8.971 5.459 3.772.045 7.28-1.932 9.164-5.196l5.212-9.028 21.112 36.567c2.65 4.59 3.396 9.724 2.272 14.657h-7l-13.555-23.479c-1.532-2.657-4.39-4.306-7.456-4.306zm3.692 27.785h-7.384l3.692-6.395zm-27.358 0h-32.966l16.483-28.549zm-52.939 0h-7.385l3.693-6.396zm181.279-84.952c-4.14 2.114-6.986 6.411-6.986 11.369v26.166c0 4.099 1.95 7.744 4.962 10.081v68.158h-12.976v-169.542c0-9.649-7.851-17.5-17.5-17.5h-31.986c-4.142 0-7.5 3.358-7.5 7.5s3.358 7.5 7.5 7.5h31.986c1.378 0 2.5 1.122 2.5 2.5v138.719h-31.452c.958-7.558-.544-15.319-4.493-22.157l-25.104-43.483c-1.85-3.204-5.298-5.194-8.998-5.194s-7.147 1.99-8.998 5.195l-5.2 9.007-21.581-37.379c-1.85-3.205-5.297-5.195-8.997-5.196 0 0 0 0-.001 0-3.7 0-7.147 1.991-8.998 5.195l-21.581 37.38-5.2-9.007c-1.85-3.204-5.298-5.194-8.998-5.194s-7.147 1.99-8.998 5.195l-25.104 43.482c-3.948 6.839-5.451 14.599-4.493 22.157h-31.452v-138.72c0-1.378 1.122-2.5 2.5-2.5h157.662c4.142 0 7.5-3.358 7.5-7.5s-3.358-7.5-7.5-7.5h-157.661c-9.649 0-17.5 7.851-17.5 17.5v169.541h-15v-169.541c0-12.463 7.055-23.304 17.378-28.754 3.26-.462 6.434-1.541 9.375-3.226 1.867-.335 3.785-.519 5.747-.519h56.917c2.187 1.367 4.589 2.416 7.151 3.103 2.262.606 4.557.906 6.838.906 4.549 0 9.04-1.193 13.085-3.529.266-.154.525-.317.785-.479h61.804c2.187 1.367 4.589 2.416 7.151 3.103 2.262.606 4.558.906 6.838.906 4.549 0 9.04-1.193 13.085-3.529.267-.154.524-.317.783-.479h50.209c17.92 0 32.5 14.58 32.5 32.5v53.765zm-1.327-98.779c-5.375 3.104-12.273 1.255-15.377-4.12l-21.423-37.106c-1.341-2.322-1.697-5.026-1.002-7.616l9.792-36.543 34.067 9.128-10.012 37.364v.001c-1.124 4.197-.547 8.581 1.625 12.343l6.451 11.173c1.503 2.604 1.902 5.638 1.125 8.542-.78 2.904-2.642 5.331-5.246 6.834zm9.341 112.38h26.899v21.701h-26.899zm30.723 102.172h-25.761v-65.472h25.761zm1.713-122.738v5.566h-10.296c-.321-.282-.644-.558-.956-.87-2.686-2.686-4.501-6.002-4.98-9.1-.205-1.32-.331-3.752 1.121-5.205.828-.828 2.125-1.25 3.682-1.25 3.08 0 7.171 1.657 10.624 5.11.463.463.882.94 1.281 1.423-.305 1.395-.476 2.84-.476 4.326zm15 0c0-2.918 2.374-5.292 5.292-5.292s5.292 2.374 5.292 5.292v5.566h-10.583v-5.566zm12.341 122.738h-14.055v-65.472h14.055zm3.824-80.471h-21.701v-21.701h21.701zm9.013-46.305c.463-.582.963-1.156 1.519-1.712 2.686-2.686 6.002-4.501 9.1-4.98.424-.066.962-.124 1.545-.124 1.235 0 2.674.258 3.66 1.245 1.452 1.453 1.326 3.884 1.121 5.205-.48 3.098-2.295 6.415-4.981 9.1-.302.303-.615.59-.933.87h-10.625v-5.566c0-1.382-.142-2.732-.406-4.038zm27.924 126.776h-25.761v-65.472h25.761zm4.962-80.471h-26.899v-21.701h26.899z"/></g></g></svg>