<svg id="Capa_1" enable-background="new 0 0 512 512" height="512" viewBox="0 0 512 512" width="512" xmlns="http://www.w3.org/2000/svg"><g><g><g><path d="m79.062 326.78c4.859 0 9.551.707 13.993 2v-18.598c0-2.76-2.237-4.997-4.997-4.997h-17.992c-2.76 0-4.997 2.237-4.997 4.997v18.598c4.441-1.293 9.133-2 13.993-2z" fill="#fac600"/><g><circle cx="79.061" cy="376.755" fill="#fd4755" r="49.975"/></g><g><path d="m61 376.755c0-22.018 14.246-40.697 34.018-47.357-5.013-1.688-10.375-2.617-15.957-2.617-27.6 0-49.975 22.374-49.975 49.974s22.374 49.974 49.975 49.974c5.582 0 10.944-.929 15.957-2.617-19.772-6.661-34.018-25.339-34.018-47.357z" fill="#fb2b3a"/></g><g><path d="m364.381 252.324c4.859 0 9.551.707 13.993 2v-18.598c0-2.76-2.238-4.997-4.998-4.997h-17.991c-2.76 0-4.997 2.237-4.997 4.997v18.598c4.443-1.293 9.134-2 13.993-2z" fill="#08b865"/><g><circle cx="364.381" cy="302.299" fill="#fedf30" r="49.975"/></g><g><circle cx="364.381" cy="302.299" fill="#fedf30" r="49.975"/></g><g><path d="m346 302.299c0-22.078 14.323-40.798 34.178-47.411-4.967-1.654-10.274-2.563-15.797-2.563-27.6 0-49.974 22.374-49.974 49.974s22.374 49.975 49.974 49.975c5.523 0 10.83-.909 15.797-2.563-19.855-6.614-34.178-25.335-34.178-47.412z" fill="#fed402"/></g></g><g><path d="m386.302 403.325-19.799 19.799c-1.172 1.172-3.071 1.172-4.243 0l-19.799-19.799c-1.172-1.172-1.172-3.071 0-4.243l19.799-19.799c1.172-1.172 3.071-1.172 4.243 0l19.799 19.799c1.171 1.172 1.171 3.071 0 4.243z" fill="#fac600"/></g><g><path d="m247.701 292.415-29.76 13.122c-.828.365-1.324 1.224-1.226 2.124l3.516 32.334c.195 1.794-1.834 2.966-3.29 1.9l-26.244-19.212c-.73-.535-1.722-.535-2.453 0l-26.244 19.212c-1.456 1.066-3.485-.105-3.29-1.9l3.516-32.334c.098-.9-.398-1.759-1.226-2.124l-29.76-13.122c-1.651-.728-1.651-3.071 0-3.799l29.76-13.122c.828-.365 1.324-1.224 1.226-2.124l-3.516-32.334c-.195-1.794 1.834-2.966 3.29-1.9l26.244 19.212c.73.535 1.722.535 2.453 0l26.244-19.212c1.456-1.066 3.485.105 3.29 1.9l-3.516 32.334c-.098.9.398 1.759 1.226 2.124l29.76 13.122c1.651.727 1.651 3.07 0 3.799z" fill="#fe860a"/></g><g><g><path d="m179.709 327.268 3.516-32.334c.098-.9-.398-1.759-1.226-2.124l-29.76-13.122c-.118-.052-.208-.128-.309-.195l-20.691 9.123c-1.651.728-1.651 3.071 0 3.799l29.76 13.122c.828.365 1.324 1.224 1.226 2.124l-3.516 32.334c-.195 1.794 1.834 2.966 3.29 1.9l18.077-13.233c-.268-.384-.426-.854-.367-1.394z" fill="#fe7701"/></g></g><g><path d="m211.39 403.325-19.799 19.799c-1.172 1.172-3.071 1.172-4.243 0l-19.799-19.799c-1.172-1.172-1.172-3.071 0-4.243l19.799-19.799c1.172-1.172 3.071-1.172 4.243 0l19.799 19.799c1.172 1.172 1.172 3.071 0 4.243z" fill="#fedf30"/></g><g><g><path d="m278.843 350.401 5.833 11.818c.437.885 1.281 1.498 2.258 1.64l13.042 1.895c2.459.357 3.441 3.38 1.662 5.114l-9.437 9.199c-.707.689-1.029 1.681-.862 2.654l2.228 12.989c.42 2.449-2.151 4.317-4.351 3.161l-11.665-6.133c-.874-.459-1.917-.459-2.791 0l-11.665 6.133c-2.2 1.156-4.771-.711-4.351-3.161l2.228-12.989c.167-.973-.156-1.965-.862-2.654l-9.437-9.199c-1.78-1.735-.798-4.757 1.662-5.114l13.042-1.895c.977-.142 1.821-.755 2.258-1.64l5.833-11.818c1.097-2.229 4.275-2.229 5.375 0z" fill="#fedf30"/></g><g><path d="m298.074 451.966-19.799 19.799c-1.172 1.172-3.071 1.172-4.243 0l-19.799-19.799c-1.172-1.172-1.172-3.071 0-4.243l19.799-19.799c1.172-1.172 3.071-1.172 4.243 0l19.799 19.799c1.172 1.172 1.172 3.071 0 4.243z" fill="#fac600"/></g><g><path d="m459.463 334.907 5.833 11.818c.437.885 1.281 1.498 2.258 1.64l13.042 1.895c2.459.357 3.441 3.38 1.662 5.115l-9.437 9.199c-.707.689-1.029 1.681-.862 2.654l2.228 12.989c.42 2.449-2.151 4.317-4.351 3.161l-11.665-6.133c-.874-.459-1.917-.459-2.791 0l-11.665 6.133c-2.2 1.156-4.771-.711-4.351-3.161l2.228-12.989c.167-.973-.156-1.965-.862-2.654l-9.437-9.199c-1.78-1.735-.798-4.757 1.662-5.115l13.042-1.895c.977-.142 1.821-.755 2.258-1.64l5.833-11.818c1.097-2.229 4.275-2.229 5.375 0z" fill="#fe860a"/></g></g></g></g><g><g><path d="m154.802 81.829c1.322.026 2.645-.068 3.95-.3.926-.164 1.771.561 1.785 1.501v27.26c4.679-4.848 11.24-7.868 18.51-7.868 7.514 0 14.273 3.222 18.977 8.358l12.647-12.647c.674-.655 1.785-.57 2.324.201 1.283 1.838 2.87 3.446 4.68 4.765.857-.035 1.538-.768 1.467-1.647-.456-5.681 1.485-11.518 5.831-15.863 3.323-3.323 7.517-5.241 11.847-5.756 1.09-.13 1.742-1.296 1.223-2.263-5.77-10.758-6.189-23.628-1.251-34.692.586-1.314-.736-2.636-2.049-2.05-11.08 4.945-23.973 4.518-34.74-1.277-.966-.52-2.133.085-2.261 1.175-.511 4.339-2.43 8.543-5.759 11.872-4.346 4.346-10.182 6.287-15.863 5.831-.943-.076-1.729.71-1.653 1.653.456 5.681-1.486 11.518-5.831 15.863-3.831 3.828-8.817 5.783-13.834 5.884z" fill="#46cc8d"/><path d="m234.743 40.828c-11.08 4.945-23.973 4.518-34.74-1.277-.966-.52-2.133.085-2.261 1.175-.511 4.339-2.43 8.543-5.759 11.872-4.346 4.346-10.182 6.287-15.863 5.831-.943-.076-1.729.71-1.653 1.653.456 5.681-1.486 11.517-5.831 15.863-3.829 3.829-8.815 5.784-13.833 5.884 1.322.026 2.645-.068 3.95-.3.926-.164 1.771.561 1.785 1.501v27.26c.47-.487.957-.955 1.464-1.404v-6.215c.014-.94.86-1.666 1.785-1.501 6.261 1.112 12.946-.746 17.784-5.584 4.346-4.346 6.287-10.182 5.831-15.863-.076-.943.71-1.729 1.653-1.653 5.681.456 11.518-1.485 15.863-5.831 3.329-3.329 5.248-7.533 5.759-11.872.128-1.089 1.296-1.694 2.261-1.175 6.44 3.466 13.639 4.996 20.756 4.621-.875-7.067.148-14.323 3.099-20.936.586-1.313-.736-2.636-2.05-2.049z" fill="#00c27a"/><path d="m110.509 112.031c4.716-5.858 11.942-9.609 20.048-9.609 11.186 0 20.701 7.141 24.245 17.111 1.241-3.491 3.215-6.632 5.735-9.243v-27.26c-.014-.94-.859-1.666-1.785-1.501-6.261 1.112-12.946-.746-17.783-5.584-4.346-4.346-6.287-10.182-5.831-15.863.076-.943-.71-1.729-1.653-1.653-5.681.456-11.517-1.485-15.863-5.831-3.329-3.329-5.248-7.533-5.759-11.872-.128-1.089-1.296-1.694-2.261-1.175-10.768 5.795-23.66 6.222-34.74 1.277-1.314-.586-2.636.736-2.049 2.05 4.938 11.064 4.519 23.933-1.251 34.692-.519.967.134 2.133 1.223 2.263 4.33.516 8.524 2.434 11.847 5.756 4.346 4.346 6.287 10.182 5.831 15.863-.076.943.71 1.729 1.653 1.653 5.681-.456 11.517 1.485 15.863 5.831.962.963 1.802 2.003 2.53 3.095z" fill="#46cc8d"/><g fill="#00c27a"><path d="m154.802 119.532c.063-.178.129-.354.196-.53h-.393c.067.176.133.352.197.53z"/><path d="m110.509 112.031c4.716-5.858 11.942-9.609 20.048-9.609 2.14 0 4.216.266 6.204.758-.882-1.572-1.983-3.054-3.321-4.391-4.346-4.346-10.182-6.287-15.863-5.831-.943.076-1.729-.71-1.653-1.653.456-5.681-1.485-11.518-5.831-15.863-3.323-3.323-7.517-5.24-11.847-5.756-1.09-.13-1.742-1.296-1.223-2.263 4.071-7.589 5.465-16.227 4.208-24.543-8.7 2.346-18.045 1.664-26.369-2.051-1.314-.586-2.636.736-2.049 2.05 4.938 11.063 4.519 23.934-1.251 34.692-.519.967.134 2.133 1.223 2.263 4.33.516 8.524 2.434 11.847 5.756 4.346 4.346 6.287 10.182 5.831 15.863-.076.943.71 1.729 1.653 1.653 5.681-.456 11.517 1.485 15.863 5.831.962.962 1.802 2.002 2.53 3.094z"/></g></g><g fill="#08b865"><path d="m301.096 128.874c-11.332-4.338-20.146-13.756-23.662-25.468-.315-1.051-1.569-1.448-2.43-.769-3.429 2.706-7.759 4.322-12.467 4.322-6.146 0-11.646-2.754-15.34-7.094-.614-.72-1.724-.72-2.338 0-3.695 4.339-9.195 7.094-15.34 7.094-6.842 0-12.882-3.413-16.523-8.626-.538-.771-1.65-.856-2.324-.201l-12.647 12.647c4.192 4.577 6.752 10.675 6.752 17.371 0 8.017-3.668 15.177-9.416 19.895l14.862 14.862c.675.658 2.194.169 2.732-.607 3.636-5.247 9.697-8.685 16.564-8.685 6.146 0 11.646 2.754 15.34 7.094.614.72 1.724.72 2.338 0 3.695-4.339 9.194-7.094 15.34-7.094 4.699 0 9.021 1.61 12.447 4.307.863.679 2.148.316 2.465-.735 3.527-11.687 12.331-21.084 23.646-25.416 1.344-.513 1.344-2.382.001-2.897z"/><path d="m104.827 128.151c0-6.844 2.677-13.059 7.035-17.668l-12.481-12.482c-.675-.658-2.194-.169-2.732.607-3.636 5.247-9.697 8.685-16.564 8.685-6.146 0-11.646-2.754-15.34-7.094-.614-.721-1.724-.721-2.338 0-3.695 4.339-9.194 7.094-15.34 7.094-4.699 0-9.021-1.61-12.447-4.307-.863-.679-2.148-.316-2.465.735-3.527 11.687-12.331 21.084-23.646 25.415-1.343.514-1.344 2.384 0 2.898 11.332 4.338 20.146 13.756 23.662 25.469.315 1.05 1.569 1.448 2.43.769 3.429-2.706 7.759-4.322 12.467-4.322 6.146 0 11.646 2.754 15.34 7.094.614.721 1.725.721 2.338 0 3.695-4.339 9.194-7.094 15.34-7.094 6.841 0 12.882 3.413 16.523 8.626.538.771 1.65.856 2.324.201l14.997-14.997c-5.567-4.721-9.103-11.76-9.103-19.629z"/></g><g><g><circle cx="130.556" cy="128.151" fill="#e41f2d" r="25.729"/></g><g><path d="m125.542 128.151c0-10.524 6.322-19.567 15.372-23.553-3.17-1.396-6.672-2.177-10.357-2.177-14.21 0-25.729 11.519-25.729 25.729s11.519 25.729 25.729 25.729c3.686 0 7.188-.781 10.357-2.177-9.051-3.985-15.372-13.027-15.372-23.551z" fill="#c41926"/></g><g><circle cx="179.047" cy="128.151" fill="#e41f2d" r="25.729"/></g><g><path d="m174 128.151c0-10.53 6.329-19.578 15.388-23.56-3.165-1.391-6.662-2.169-10.341-2.169-14.21 0-25.729 11.519-25.729 25.729s11.519 25.729 25.729 25.729c3.679 0 7.176-.778 10.341-2.169-9.059-3.983-15.388-13.03-15.388-23.56z" fill="#c41926"/></g></g></g><g><g><g><path d="m440.708 77.569c-5.771-10.758-6.189-23.628-1.251-34.692.586-1.314-.736-2.636-2.049-2.05-11.08 4.945-23.973 4.518-34.74-1.277-.966-.52-2.133.085-2.262 1.175-.511 4.339-2.43 8.543-5.759 11.872-4.346 4.346-10.182 6.287-15.863 5.831-.943-.076-1.729.71-1.653 1.653.456 5.681-1.485 11.518-5.831 15.863-2.35 2.35-5.137 3.986-8.098 4.929l-1.003.734c.57.214.994.762 1.003 1.422v27.26c-.001.001-.001.001-.002.002 4.679-4.849 11.241-7.87 18.512-7.87 7.446 0 14.15 3.167 18.848 8.222l12.51-12.511c.674-.655 1.786-.57 2.324.201 1.285 1.84 2.873 3.449 4.685 4.769.025.002.051 0 .076.002.943.076 1.729-.71 1.653-1.653-.456-5.681 1.485-11.518 5.831-15.863 3.323-3.323 7.517-5.241 11.847-5.756 1.088-.13 1.741-1.296 1.222-2.263z" fill="#46cc8d"/></g><path d="m437.407 40.828c-11.08 4.945-23.973 4.518-34.74-1.277-.966-.52-2.133.085-2.262 1.175-.511 4.339-2.43 8.543-5.759 11.872-4.346 4.346-10.182 6.287-15.863 5.831-.943-.076-1.729.71-1.653 1.653.456 5.681-1.485 11.518-5.831 15.863-2.35 2.35-5.137 3.986-8.098 4.929l-1.003.734c.57.214.994.762 1.003 1.422v19.344c.138-.015.28-.018.425.007 6.261 1.112 12.946-.746 17.783-5.584 4.346-4.346 6.287-10.182 5.831-15.863-.076-.943.71-1.729 1.653-1.653 5.681.456 11.517-1.485 15.863-5.831 3.329-3.329 5.248-7.533 5.759-11.872.128-1.089 1.296-1.694 2.261-1.175 7.328 3.944 15.64 5.396 23.695 4.366-1.094-7.365-.1-14.98 2.984-21.891.587-1.315-.735-2.637-2.048-2.05z" fill="#00c27a"/><path d="m313.172 112.031c4.716-5.858 11.942-9.609 20.048-9.609 11.186 0 20.701 7.141 24.245 17.111 1.241-3.491 3.215-6.632 5.735-9.243v-27.26c-.013-.94-.859-1.666-1.785-1.501-6.261 1.112-12.946-.746-17.783-5.584-4.346-4.346-6.287-10.182-5.831-15.863.076-.943-.71-1.729-1.653-1.653-5.681.456-11.517-1.485-15.863-5.831-3.329-3.329-5.248-7.533-5.759-11.872-.128-1.089-1.296-1.694-2.261-1.175-10.768 5.795-23.66 6.222-34.741 1.277-1.314-.586-2.636.736-2.049 2.05 4.938 11.064 4.519 23.933-1.251 34.692-.519.967.134 2.133 1.224 2.263 4.33.516 8.524 2.434 11.847 5.756 4.346 4.346 6.287 10.182 5.831 15.863-.076.943.71 1.729 1.653 1.653 5.681-.456 11.517 1.485 15.863 5.831.962.963 1.803 2.003 2.53 3.095z" fill="#46cc8d"/><path d="m313.172 112.031c4.716-5.858 11.942-9.609 20.048-9.609 2.029 0 4 .242 5.893.686-.76-1.174-1.645-2.291-2.674-3.32-4.346-4.346-10.182-6.287-15.863-5.831-.943.076-1.729-.71-1.653-1.653.456-5.681-1.485-11.518-5.831-15.863-3.323-3.323-7.517-5.24-11.847-5.756-1.09-.13-1.742-1.296-1.223-2.263 4.242-7.909 5.58-16.957 4.036-25.592-8.747 2.4-18.157 1.737-26.533-2.001-1.314-.586-2.636.736-2.049 2.05 4.938 11.063 4.519 23.934-1.251 34.692-.519.967.134 2.133 1.224 2.263 4.33.516 8.524 2.434 11.847 5.756 4.346 4.346 6.287 10.182 5.831 15.863-.076.943.71 1.729 1.653 1.653 5.681-.456 11.517 1.485 15.863 5.831.961.962 1.802 2.002 2.529 3.094z" fill="#00c27a"/></g><path d="m503.493 128.874c-11.332-4.338-20.146-13.756-23.662-25.468-.315-1.051-1.569-1.448-2.429-.769-3.43 2.706-7.759 4.322-12.467 4.322-6.146 0-11.646-2.754-15.34-7.094-.614-.72-1.725-.72-2.338 0-3.695 4.339-9.195 7.094-15.34 7.094-6.842 0-12.882-3.413-16.523-8.626-.538-.771-1.649-.856-2.324-.201l-12.51 12.511c4.268 4.593 6.882 10.743 6.882 17.507 0 8.085-3.733 15.296-9.565 20.013l14.744 14.745c.676.658 2.195.169 2.732-.607 3.636-5.247 9.697-8.685 16.564-8.685 6.146 0 11.646 2.754 15.34 7.094.614.72 1.724.72 2.338 0 3.695-4.339 9.194-7.094 15.34-7.094 4.699 0 9.021 1.61 12.447 4.307.863.679 2.148.316 2.465-.735 3.527-11.687 12.331-21.084 23.646-25.416 1.343-.514 1.343-2.383 0-2.898z" fill="#08b865"/><g><g><circle cx="333.22" cy="128.151" fill="#e41f2d" r="25.729"/></g><g><path d="m328 128.151c0-10.564 6.369-19.637 15.475-23.599-3.143-1.367-6.609-2.13-10.255-2.13-14.21 0-25.729 11.519-25.729 25.729s11.519 25.729 25.729 25.729c3.646 0 7.112-.763 10.255-2.13-9.106-3.963-15.475-13.035-15.475-23.599z" fill="#c41926"/></g><g><circle cx="381.711" cy="128.151" fill="#e41f2d" r="25.729"/></g><g><path d="m376.542 128.151c0-10.554 6.357-19.619 15.449-23.588-3.149-1.375-6.625-2.142-10.28-2.142-14.21 0-25.729 11.519-25.729 25.729s11.519 25.729 25.729 25.729c3.656 0 7.131-.767 10.28-2.142-9.092-3.967-15.449-13.032-15.449-23.586z" fill="#c41926"/></g></g></g><g><path d="m371.807 373.98c-4.096-4.095-10.755-4.094-14.851 0l-19.801 19.801c-4.09 4.094-4.09 10.753.002 14.847l19.799 19.799c1.983 1.983 4.621 3.076 7.425 3.076 2.805 0 5.442-1.092 7.426-3.076l19.799-19.799c1.983-1.983 3.075-4.62 3.075-7.424s-1.092-5.441-3.075-7.425zm-7.426 40.659-13.435-13.435 13.436-13.436 13.435 13.435z"/><path d="m196.896 373.982c-1.983-1.984-4.621-3.078-7.427-3.078s-5.443 1.093-7.425 3.076l-19.799 19.799c-1.983 1.983-3.075 4.62-3.075 7.425s1.093 5.442 3.075 7.424l19.797 19.797c1.983 1.984 4.621 3.078 7.427 3.078s5.443-1.093 7.425-3.076l19.799-19.799c1.983-1.983 3.075-4.62 3.075-7.424s-1.092-5.441-3.075-7.425zm-7.426 40.656-13.435-13.435 13.435-13.435 13.435 13.435z"/><path d="m283.579 422.621c-1.983-1.983-4.621-3.076-7.426-3.076-2.804 0-5.441 1.092-7.425 3.076l-19.797 19.798c-1.984 1.983-3.077 4.62-3.077 7.425s1.092 5.441 3.075 7.425l19.799 19.799c2.048 2.047 4.736 3.071 7.426 3.071 2.688 0 5.377-1.023 7.425-3.071l19.799-19.799c1.983-1.983 3.075-4.62 3.075-7.425s-1.093-5.442-3.075-7.424zm-7.425 40.659-13.436-13.435 13.436-13.436 13.435 13.435z"/><path d="m481.674 342.838-10.7-1.555-4.785-9.695c-.5-1.014-1.157-1.906-1.914-2.684v-97.901c0-4.142-3.357-7.5-7.5-7.5s-7.5 3.358-7.5 7.5v97.901c-.757.779-1.414 1.671-1.915 2.685l-4.784 9.695-10.701 1.555c-3.982.579-7.23 3.316-8.475 7.145-1.243 3.828-.227 7.952 2.656 10.762l7.743 7.547-1.828 10.657c-.68 3.967.921 7.901 4.177 10.268 3.255 2.365 7.492 2.672 11.057.799l9.57-5.032 9.57 5.031c1.55.815 3.227 1.217 4.896 1.217 2.167 0 4.32-.679 6.16-2.016 3.257-2.366 4.857-6.301 4.177-10.269l-1.828-10.656 7.742-7.547c2.883-2.81 3.901-6.934 2.658-10.762-1.245-3.828-4.492-6.566-8.476-7.145zm-14.086 16.363c-2.475 2.41-3.605 5.883-3.022 9.295l.686 3.999-3.591-1.888c-3.061-1.608-6.713-1.607-9.771 0l-3.592 1.889.686-3.999c.586-3.409-.544-6.884-3.019-9.293l-2.906-2.833 4.014-.583c3.422-.496 6.378-2.644 7.907-5.744l1.796-3.639 1.796 3.638c1.529 3.101 4.485 5.248 7.905 5.744l4.016.583z"/><path d="m506.174 121.87c-9.176-3.513-16.339-11.222-19.16-20.62-.863-2.875-3.083-5.128-5.938-6.03-2.853-.901-5.964-.331-8.322 1.53-2.246 1.772-4.95 2.709-7.82 2.709-3.709 0-7.219-1.624-9.628-4.454-1.72-2.021-4.228-3.18-6.881-3.18s-5.161 1.159-6.879 3.178c-2.412 2.832-5.922 4.457-9.631 4.457-.899 0-1.781-.113-2.644-.299.165-3.102 1.449-6.049 3.67-8.27 2.025-2.025 4.595-3.274 7.427-3.612 2.992-.355 5.608-2.16 6.998-4.828 1.379-2.647 1.361-5.797-.049-8.427-4.631-8.633-5.009-19.134-1.014-28.088 1.546-3.461.817-7.425-1.855-10.099-2.674-2.674-6.637-3.404-10.098-1.858-8.975 4.004-19.489 3.618-28.132-1.033-2.643-1.421-5.806-1.445-8.464-.062-2.654 1.383-4.448 3.987-4.798 6.963-.335 2.842-1.585 5.417-3.615 7.447-2.622 2.622-6.247 3.953-9.959 3.658-2.648-.214-5.238.743-7.113 2.619-1.876 1.876-2.829 4.469-2.615 7.109.297 3.708-1.037 7.339-3.66 9.961-2.277 2.277-5.324 3.557-8.488 3.673-3.196-.096-6.274-1.376-8.571-3.673-2.622-2.622-3.956-6.253-3.659-9.957.214-2.645-.739-5.237-2.615-7.114-1.875-1.876-4.459-2.833-7.114-2.619-3.694.292-7.336-1.036-9.959-3.658-2.029-2.029-3.278-4.604-3.613-7.443-.351-2.979-2.145-5.583-4.799-6.966-2.659-1.385-5.822-1.361-8.467.063-8.642 4.651-19.159 5.036-28.128 1.033-3.464-1.546-7.426-.815-10.099 1.858-2.673 2.674-3.401 6.638-1.856 10.097 3.996 8.956 3.618 19.457-1.014 28.091-1.409 2.628-1.427 5.778-.048 8.426 1.39 2.668 4.006 4.473 6.995 4.828 2.835.338 5.404 1.587 7.43 3.612 2.623 2.623 3.956 6.253 3.658 9.964-.211 2.644.744 5.235 2.62 7.109 1.875 1.875 4.464 2.827 7.109 2.616 3.004-.24 5.937.6 8.339 2.311-1.249 2.405-2.206 4.984-2.841 7.684-7.77-3.917-13.742-10.945-16.258-19.326-.863-2.875-3.084-5.13-5.94-6.03-2.857-.901-5.966-.328-8.319 1.53-2.246 1.773-4.951 2.71-7.82 2.71-3.709 0-7.219-1.625-9.629-4.454-1.719-2.02-4.226-3.179-6.877-3.18-.001 0-.002 0-.004 0-2.65 0-5.157 1.157-6.88 3.179-2.41 2.832-5.92 4.456-9.629 4.456-.99 0-1.963-.123-2.907-.347.175-3.084 1.455-6.012 3.666-8.222 2.025-2.025 4.595-3.274 7.427-3.612 2.992-.355 5.608-2.16 6.998-4.828 1.379-2.647 1.361-5.797-.049-8.427-4.631-8.633-5.009-19.134-1.011-28.092 1.544-3.461.813-7.424-1.86-10.097-2.674-2.672-6.637-3.401-10.096-1.856-8.974 4.004-19.487 3.618-28.131-1.034-2.643-1.421-5.807-1.445-8.465-.062-2.654 1.383-4.448 3.987-4.798 6.963-.336 2.843-1.585 5.418-3.614 7.447-2.622 2.623-6.252 3.955-9.96 3.658-2.655-.214-5.238.743-7.113 2.619-1.876 1.876-2.829 4.469-2.615 7.11.297 3.707-1.036 7.337-3.659 9.96-2.297 2.297-5.377 3.578-8.572 3.673-3.165-.115-6.21-1.396-8.487-3.673-2.623-2.623-3.956-6.253-3.658-9.964.211-2.644-.744-5.235-2.62-7.109-1.874-1.874-4.471-2.829-7.109-2.616-3.701.299-7.337-1.036-9.96-3.658-2.03-2.03-3.279-4.604-3.614-7.45-.353-2.979-2.147-5.581-4.803-6.962-2.656-1.382-5.818-1.357-8.462.064-8.641 4.651-19.155 5.038-28.129 1.033-3.459-1.545-7.423-.817-10.096 1.856-2.674 2.672-3.404 6.636-1.859 10.099 3.996 8.956 3.618 19.457-1.014 28.091-1.409 2.628-1.427 5.778-.048 8.426 1.39 2.668 4.006 4.473 6.995 4.828 2.835.338 5.405 1.587 7.431 3.612 2.289 2.288 3.594 5.346 3.693 8.549-.952.228-1.935.352-2.934.352-3.708 0-7.219-1.625-9.629-4.454-1.72-2.021-4.228-3.18-6.881-3.18s-5.161 1.159-6.879 3.178c-2.412 2.832-5.922 4.456-9.63 4.456-2.864 0-5.565-.934-7.81-2.701-2.367-1.863-5.493-2.435-8.36-1.531-2.847.897-5.061 3.137-5.924 5.994-2.829 9.378-9.987 17.071-19.147 20.578-3.539 1.355-5.826 4.674-5.825 8.455s2.288 7.098 5.826 8.452c9.176 3.513 16.339 11.222 19.161 20.622.862 2.874 3.082 5.127 5.938 6.028 2.855.902 5.964.329 8.321-1.53 2.246-1.772 4.95-2.709 7.82-2.709 3.708 0 7.218 1.624 9.628 4.454 1.72 2.021 4.228 3.18 6.881 3.18s5.161-1.159 6.879-3.178c.346-.406.719-.779 1.107-1.134v132.914h-1.495c-6.892 0-12.498 5.606-12.498 12.498v13.283c-21.072 8.53-35.981 29.195-35.981 53.289 0 31.691 25.783 57.474 57.475 57.474 23.259 0 44.081-13.87 53.048-35.335 1.597-3.822-.207-8.215-4.029-9.812-3.82-1.597-8.215.207-9.811 4.029-6.629 15.866-22.019 26.118-39.208 26.118-23.421 0-42.475-19.054-42.475-42.474s19.054-42.475 42.475-42.475c18.334 0 34.532 11.688 40.308 29.085 1.305 3.931 5.551 6.061 9.481 4.755 3.931-1.305 6.06-5.55 4.755-9.481-5.441-16.389-17.722-29.027-33.051-35.198v-13.258c0-6.891-5.606-12.498-12.498-12.498h-1.495v-134.42c1.515.907 2.857 2.113 3.896 3.602 1.514 2.168 3.894 3.556 6.531 3.807.288.028.576.041.863.041 2.347 0 4.607-.91 6.308-2.563.025-.024.05-.049.075-.074l10.641-10.641c4.674 2.512 10.013 3.942 15.68 3.942 9.557 0 18.167-4.07 24.233-10.552 6.068 6.487 14.695 10.552 24.257 10.552.986 0 1.958-.058 2.923-.143v83.224l-15.539-11.375c-3.059-2.241-7.16-2.464-10.445-.567s-5.143 5.559-4.732 9.328l3.087 28.387-26.129 11.521c-3.47 1.531-5.712 4.97-5.711 8.763 0 3.792 2.243 7.231 5.713 8.761l26.127 11.52-3.087 28.387c-.41 3.77 1.446 7.432 4.731 9.329 1.486.858 3.139 1.283 4.787 1.282 1.994 0 3.982-.622 5.657-1.848l23.041-16.867 23.04 16.867c3.063 2.241 7.163 2.463 10.445.566 3.285-1.896 5.142-5.559 4.731-9.328l-3.087-28.388 26.127-11.52c3.47-1.53 5.713-4.969 5.713-8.761.001-3.792-2.241-7.232-5.713-8.763l-26.127-11.52 3.087-28.386c.41-3.771-1.447-7.433-4.732-9.329-3.287-1.898-7.387-1.673-10.443.566l-15.54 11.374v-84.199l8.016 8.016c1.613 1.573 3.805 2.438 6.117 2.438.297 0 .597-.015.897-.043 2.871-.276 5.532-1.809 7.118-4.098 2.368-3.417 6.257-5.457 10.4-5.457 3.709 0 7.219 1.624 9.634 4.46 1.72 2.017 4.226 3.173 6.875 3.173h.004c2.65-.001 5.156-1.159 6.875-3.177 2.412-2.832 5.922-4.457 9.631-4.457 2.177 0 4.258.542 6.116 1.576v181.705c-.757.779-1.414 1.671-1.914 2.684l-4.784 9.695-10.7 1.555c-3.983.579-7.231 3.316-8.476 7.144s-.227 7.952 2.656 10.763l7.743 7.547-1.827 10.654c-.682 3.967.918 7.902 4.174 10.269s7.494 2.675 11.059.801l9.569-5.032 9.571 5.032c1.55.814 3.227 1.216 4.895 1.216 2.169 0 4.323-.68 6.163-2.018 3.256-2.367 4.855-6.302 4.175-10.267l-1.828-10.657 7.743-7.548c2.883-2.811 3.9-6.934 2.656-10.762s-4.492-6.565-8.475-7.144l-10.701-1.555-4.784-9.695c-.5-1.014-1.157-1.906-1.915-2.685v-182.895c.411-.663.745-1.379.976-2.144 2.645-8.762 9.067-16.049 17.368-19.83 4.655 12.738 16.894 21.854 31.223 21.854 9.256 0 17.633-3.808 23.662-9.936v71.786h-1.496c-6.891 0-12.497 5.606-12.497 12.497v13.283c-21.072 8.53-35.981 29.196-35.981 53.29 0 31.691 25.782 57.475 57.474 57.475 23.007 0 43.742-13.664 52.826-34.811 1.635-3.806-.126-8.216-3.932-9.851-3.807-1.634-8.216.126-9.852 3.931-6.714 15.631-22.039 25.731-39.043 25.731-23.42 0-42.474-19.054-42.474-42.475s19.054-42.475 42.474-42.475c18.526 0 34.777 11.844 40.44 29.472 1.266 3.943 5.489 6.115 9.435 4.847 3.943-1.267 6.113-5.491 4.847-9.435-5.356-16.674-17.716-29.514-33.229-35.74v-13.242c0-6.891-5.606-12.497-12.497-12.497h-1.495v-63.334c3.108.964 6.409 1.484 9.829 1.484 5.443 0 10.58-1.324 15.119-3.654l10.555 10.555c1.613 1.571 3.803 2.435 6.113 2.435.299 0 .6-.015.901-.044 2.869-.277 5.529-1.81 7.114-4.098 2.368-3.417 6.257-5.457 10.4-5.457 3.709 0 7.219 1.625 9.631 4.456 1.72 2.02 4.227 3.178 6.879 3.178.286 0 .568-.02.85-.046v27.298c0 4.142 3.357 7.5 7.5 7.5s7.5-3.358 7.5-7.5v-34.85c.22-.011.438-.036.659-.036 2.865 0 5.565.934 7.808 2.698 2.367 1.865 5.493 2.438 8.361 1.534 2.847-.896 5.062-3.136 5.925-5.994 2.829-9.379 9.987-17.071 19.146-20.577 3.54-1.354 5.827-4.673 5.827-8.454s-2.286-7.099-5.825-8.453zm-420.619 197.781c-2.137-.241-4.303-.371-6.493-.371-2.196 0-4.36.136-6.493.377v-6.972h12.986zm12.474-166.579c-4.952-4.224-11.3-6.623-17.944-6.623-6.011 0-11.78 1.947-16.509 5.473-4.729-3.525-10.499-5.473-16.51-5.473-3.572 0-7.107.703-10.39 2.033-3.46-7.135-8.702-13.31-15.144-17.896 6.424-4.574 11.655-10.728 15.114-17.837 3.292 1.338 6.838 2.044 10.419 2.044 6.011 0 11.78-1.948 16.509-5.473 4.729 3.525 10.499 5.473 16.51 5.473 6.869 0 13.415-2.56 18.433-7.049l3.471 3.471c-2.133 3.579-3.601 7.593-4.261 11.871h-40.205c-4.143 0-7.5 3.358-7.5 7.5s3.357 7.5 7.5 7.5h41.34c1.074 3.411 2.672 6.592 4.719 9.434zm48.805-16.762c-3.001 5.961-9.161 10.07-16.277 10.07-10.052 0-18.229-8.178-18.229-18.229 0-10.052 8.178-18.229 18.229-18.229 7.116 0 13.277 4.109 16.277 10.07-.662 2.612-1.017 5.345-1.017 8.159s.355 5.547 1.017 8.159zm6.203-32.563c-5.919-5.466-13.807-8.826-22.48-8.826-6.716 0-12.968 2.01-18.2 5.449l-7.741-7.74c-1.821-1.775-4.376-2.644-7.015-2.394-.418.04-.83.115-1.237.207-1.362-3.772-3.524-7.252-6.432-10.16-2.533-2.532-5.539-4.539-8.813-5.92 2.582-7.474 3.234-15.524 1.927-23.3 7.798 1.312 15.871.651 23.362-1.948 1.381 3.263 3.384 6.259 5.909 8.784 4.252 4.251 9.708 6.954 15.544 7.804.851 5.836 3.554 11.292 7.804 15.543 4.699 4.699 10.884 7.492 17.372 8.005zm58.407 148.706-2.185 20.099c-.458 4.172 1.816 8.113 5.655 9.803l18.505 8.16-18.506 8.159c-3.84 1.693-6.112 5.633-5.655 9.797l2.186 20.105-16.318-11.946c-3.383-2.476-7.93-2.476-11.313 0l-16.318 11.946 2.185-20.099c.458-4.17-1.814-8.11-5.655-9.804l-18.505-8.159 18.503-8.158c3.841-1.692 6.115-5.632 5.658-9.798l-2.186-20.105 14.475 10.597v9.679c0 4.142 3.357 7.5 7.5 7.5s7.5-3.358 7.5-7.5v-9.68zm-32.397-106.073c-10.052 0-18.229-8.178-18.229-18.229 0-10.052 8.178-18.229 18.229-18.229s18.229 8.178 18.229 18.229-8.177 18.229-18.229 18.229zm26.32-53.551-7.767 7.767c-5.302-3.582-11.688-5.675-18.554-5.675-3.86 0-7.562.672-11.01 1.889v-11.096c2.135-1.205 4.128-2.692 5.901-4.466 4.25-4.25 6.953-9.707 7.803-15.544 5.836-.85 11.294-3.553 15.545-7.804 2.524-2.525 4.527-5.521 5.908-8.784 7.493 2.601 15.568 3.259 23.363 1.948-1.308 7.776-.655 15.827 1.926 23.299-3.274 1.382-6.28 3.389-8.813 5.922-2.88 2.88-5.029 6.32-6.393 10.049-.219-.037-.438-.078-.661-.099-2.647-.257-5.262.665-7.17 2.518-.025.025-.051.051-.078.076zm80.487 278.452 4.017.584-2.905 2.832c-2.476 2.413-3.604 5.887-3.021 9.293l.687 4-3.592-1.889c-1.529-.804-3.207-1.206-4.885-1.206-1.679 0-3.356.402-4.886 1.206l-3.592 1.889.686-3.999c.585-3.404-.543-6.877-3.019-9.293l-2.906-2.833 4.014-.583c3.419-.496 6.374-2.642 7.907-5.744l1.795-3.638 1.798 3.642c1.53 3.098 4.486 5.244 7.902 5.739zm-12.889-223.139c-3.272-1.336-6.79-2.026-10.428-2.026-6.011 0-11.781 1.948-16.51 5.473-4.728-3.526-10.497-5.473-16.509-5.473-6.87 0-13.415 2.56-18.433 7.048l-5.306-5.305c2.218-3.001 3.943-6.386 5.056-10.036h41.245c4.143 0 7.5-3.358 7.5-7.5s-3.357-7.5-7.5-7.5h-40.237c-.653-4.037-2.04-7.83-4.013-11.244l3.743-3.743c4.95 4.224 11.3 6.624 17.944 6.624 6.012 0 11.782-1.948 16.51-5.473 4.728 3.525 10.498 5.473 16.509 5.473 3.57 0 7.105-.703 10.39-2.033 3.459 7.134 8.701 13.311 15.143 17.897-6.416 4.569-11.644 10.716-15.104 17.818zm60.255-1.762c-10.052 0-18.229-8.178-18.229-18.229 0-10.052 8.178-18.229 18.229-18.229 7.117 0 13.278 4.109 16.278 10.07-.662 2.612-1.017 5.345-1.017 8.159 0 2.813.359 5.541 1.021 8.151-2.999 5.965-9.162 10.078-16.282 10.078zm22.481-42.633c-5.919-5.466-13.807-8.826-22.481-8.826-7.397 0-14.235 2.432-19.762 6.534-3.806-2.99-8.299-4.933-13.057-5.627-.851-5.836-3.554-11.293-7.804-15.544-2.532-2.532-5.539-4.54-8.813-5.921 2.581-7.473 3.233-15.523 1.927-23.3 7.798 1.313 15.871.652 23.362-1.947 1.381 3.263 3.384 6.259 5.908 8.784 4.251 4.251 9.709 6.954 15.545 7.804.851 5.836 3.554 11.293 7.803 15.543 4.699 4.699 10.885 7.491 17.373 8.005v14.495zm15.173 141.446c-2.136-.24-4.302-.369-6.493-.369-2.196 0-4.36.136-6.492.377v-6.972h12.985zm10.837-98.813c-10.052 0-18.229-8.178-18.229-18.229 0-10.052 8.178-18.229 18.229-18.229s18.229 8.178 18.229 18.229c-.001 10.051-8.178 18.229-18.229 18.229zm26.054-53.551-7.663 7.663c-5.27-3.516-11.594-5.571-18.391-5.571-3.86 0-7.562.672-11.01 1.889v-11.096c2.135-1.205 4.127-2.692 5.9-4.466 4.249-4.25 6.952-9.707 7.804-15.543 5.835-.851 11.293-3.554 15.544-7.804 2.524-2.525 4.527-5.521 5.909-8.784 7.491 2.6 15.566 3.259 23.362 1.948-1.307 7.775-.654 15.827 1.926 23.3-3.273 1.381-6.279 3.389-8.813 5.921-2.889 2.889-5.042 6.343-6.406 10.087-.302-.06-.608-.109-.918-.138-2.655-.25-5.264.667-7.17 2.522-.025.023-.049.048-.074.072zm67.588 55.332c-3.292-1.338-6.838-2.044-10.419-2.044-6.012 0-11.781 1.948-16.509 5.473-4.729-3.525-10.499-5.473-16.51-5.473-6.87 0-13.415 2.56-18.433 7.048l-5.15-5.15c2.273-3.038 4.035-6.479 5.167-10.192h40.978c4.143 0 7.5-3.358 7.5-7.5s-3.357-7.5-7.5-7.5h-39.971c-.664-4.104-2.084-7.955-4.11-11.413l3.574-3.574c4.952 4.224 11.3 6.623 17.944 6.623 6.011 0 11.78-1.948 16.509-5.473 4.729 3.525 10.498 5.473 16.51 5.473 3.572 0 7.106-.703 10.39-2.033 3.46 7.135 8.702 13.31 15.144 17.896-6.424 4.576-11.655 10.73-15.114 17.839z"/></g></g></svg>