<svg id="Capa_1" enable-background="new 0 0 512 512" height="512" viewBox="0 0 512 512" width="512" xmlns="http://www.w3.org/2000/svg"><g><g><path d="m450.896 267.066-92.54 40.804c-2.136.942-3.415 3.158-3.163 5.479l10.933 100.544c.503 4.628-4.73 7.649-8.487 4.9l-81.607-59.741c-1.883-1.379-4.443-1.379-6.326 0l-81.607 59.741c-3.756 2.75-8.99-.272-8.487-4.9l10.933-100.544c.252-2.32-1.027-4.537-3.163-5.479l-92.54-40.804c-4.259-1.878-4.259-7.921 0-9.799l92.54-40.804c2.136-.942 3.415-3.158 3.163-5.479l-10.933-100.544c-.503-4.628 4.731-7.649 8.487-4.9l81.607 59.741c1.883 1.379 4.443 1.379 6.326 0l81.607-59.741c3.756-2.75 8.99.272 8.487 4.9l-10.933 100.544c-.252 2.32 1.027 4.537 3.163 5.479l92.54 40.804c4.259 1.878 4.259 7.921 0 9.799z" fill="#deecf1"/></g><g><g><path d="m205.522 397.053 10.933-100.544c.252-2.321-1.027-4.537-3.163-5.479l-92.54-40.803c-1.477-.651-2.43-1.807-2.882-3.113l-23.028 10.154c-4.259 1.878-4.259 7.921 0 9.799l92.54 40.804c2.136.942 3.415 3.158 3.163 5.479l-10.933 100.544c-.503 4.628 4.73 7.649 8.487 4.9l21.73-15.908c-2.537-.511-4.634-2.827-4.307-5.833z" fill="#cbe5e8"/></g></g><g><path d="m440.612 459.333c-2.07-3.588-6.66-4.815-10.245-2.745l-12.662 7.311v-14.622c0-4.143-3.357-7.5-7.5-7.5s-7.5 3.357-7.5 7.5v14.622l-12.662-7.311c-3.59-2.071-8.175-.843-10.245 2.745-2.071 3.587-.842 8.174 2.745 10.245l12.662 7.311-12.662 7.311c-3.587 2.071-4.816 6.658-2.745 10.245 1.389 2.406 3.91 3.751 6.502 3.751 1.272 0 2.563-.324 3.743-1.006l12.662-7.311v14.621c0 4.143 3.357 7.5 7.5 7.5s7.5-3.357 7.5-7.5v-14.621l12.662 7.311c1.182.682 2.471 1.006 3.743 1.006 2.592 0 5.113-1.345 6.502-3.751 2.071-3.587.842-8.174-2.745-10.245l-12.662-7.311 12.662-7.311c3.587-2.071 4.817-6.658 2.745-10.245z"/><path d="m471.098 51.39-17.84-10.3 17.84-10.3c3.587-2.071 4.816-6.658 2.745-10.245-2.072-3.588-6.659-4.814-10.245-2.745l-17.839 10.299v-20.599c0-4.143-3.357-7.5-7.5-7.5s-7.5 3.357-7.5 7.5v20.6l-17.84-10.3c-3.589-2.07-8.175-.843-10.245 2.745-2.071 3.587-.842 8.174 2.745 10.245l17.84 10.3-17.84 10.3c-3.587 2.071-4.816 6.658-2.745 10.245 1.39 2.406 3.91 3.751 6.502 3.751 1.272 0 2.563-.324 3.743-1.006l17.84-10.3v20.6c0 4.143 3.357 7.5 7.5 7.5s7.5-3.357 7.5-7.5v-20.599l17.839 10.299c1.182.682 2.471 1.006 3.743 1.006 2.592 0 5.113-1.345 6.502-3.751 2.071-3.587.842-8.174-2.745-10.245z"/><path d="m122.787 430.865c-2.07-3.588-6.659-4.815-10.245-2.745l-24.57 14.186v-28.371c0-4.143-3.357-7.5-7.5-7.5s-7.5 3.357-7.5 7.5v28.371l-24.57-14.186c-3.589-2.071-8.175-.843-10.245 2.745-2.071 3.587-.842 8.174 2.745 10.245l24.57 14.186-24.57 14.186c-3.587 2.071-4.816 6.658-2.745 10.245 1.39 2.406 3.91 3.751 6.502 3.751 1.272 0 2.563-.324 3.743-1.006l24.569-14.185v28.371c0 4.143 3.357 7.5 7.5 7.5s7.5-3.357 7.5-7.5v-28.371l24.57 14.186c1.182.682 2.471 1.006 3.743 1.006 2.592 0 5.113-1.345 6.502-3.751 2.071-3.587.842-8.174-2.745-10.245l-24.57-14.186 24.57-14.186c3.588-2.072 4.817-6.659 2.746-10.246z"/><path d="m459.614 208.226c.85.311 1.72.458 2.575.458 3.06 0 5.933-1.886 7.045-4.926 1.423-3.89-.577-8.196-4.468-9.62l-36.158-13.227 26.623-15.371c3.587-2.071 4.816-6.658 2.745-10.245-2.07-3.587-6.659-4.815-10.245-2.745l-26.624 15.371 6.625-37.93c.712-4.08-2.018-7.966-6.099-8.678-4.077-.725-7.966 2.017-8.679 6.098l-8.781 50.286-40.351 23.297 2.695-24.783c.448-4.118-2.527-7.818-6.646-8.267-4.127-.46-7.819 2.527-8.267 6.646l-3.869 35.582c-.004.038-.004.076-.008.115l-67.359 38.89v-77.781c.03-.022.062-.04.092-.062l77.683-56.866-2.743 25.228c-.447 4.118 2.527 7.819 6.646 8.267 4.124.458 7.819-2.527 8.267-6.646l3.269-30.063c.551-5.062-1.942-9.977-6.352-12.522-4.41-2.547-9.914-2.248-14.021.76l-72.84 53.322v-46.593l39.157-32.749c3.178-2.657 3.599-7.387.941-10.564-2.658-3.178-7.389-3.599-10.564-.941l-29.534 24.7v-30.744c0-4.143-3.357-7.5-7.5-7.5s-7.5 3.357-7.5 7.5v30.741l-29.535-24.7c-3.179-2.659-7.907-2.236-10.564.941s-2.236 7.907.941 10.564l39.158 32.749v46.594l-72.84-53.323c-4.107-3.008-9.612-3.307-14.021-.76-4.409 2.546-6.902 7.461-6.352 12.521l9.758 89.743-40.351-23.297-8.781-50.286c-.713-4.08-4.593-6.817-8.679-6.098-4.081.712-6.811 4.598-6.099 8.678l6.625 37.93-26.623-15.37c-3.589-2.071-8.175-.843-10.245 2.745-2.071 3.587-.842 8.174 2.745 10.245l26.623 15.371-36.158 13.227c-3.891 1.424-5.891 5.73-4.468 9.62 1.112 3.04 3.985 4.926 7.045 4.926.855 0 1.726-.147 2.575-.458l47.941-17.538 40.351 23.296-82.598 36.42c-4.658 2.054-7.669 6.67-7.669 11.761-.001 5.091 3.009 9.709 7.669 11.764l82.599 36.42-40.351 23.297-47.941-17.538c-3.888-1.421-8.196.578-9.62 4.468-1.423 3.89.577 8.196 4.468 9.62l36.159 13.227-26.623 15.371c-3.587 2.071-4.816 6.658-2.745 10.245 1.389 2.406 3.91 3.751 6.502 3.751 1.272 0 2.563-.324 3.743-1.006l26.623-15.371-6.625 37.929c-.712 4.08 2.018 7.966 6.099 8.678.437.077.87.113 1.299.113 3.576 0 6.743-2.567 7.38-6.211l8.781-50.286 40.351-23.297-9.758 89.742c-.551 5.061 1.941 9.976 6.351 12.521 4.41 2.547 9.913 2.248 14.022-.759l72.84-53.323v46.594l-39.158 32.749c-3.178 2.657-3.599 7.387-.941 10.564 1.483 1.773 3.612 2.688 5.757 2.688 1.697 0 3.404-.573 4.808-1.747l29.535-24.7v30.741c0 4.143 3.357 7.5 7.5 7.5s7.5-3.357 7.5-7.5v-30.741l29.534 24.7c3.179 2.658 7.906 2.235 10.564-.941 2.657-3.178 2.236-7.907-.941-10.564l-39.157-32.749v-46.593l72.84 53.322c2.25 1.646 4.917 2.481 7.595 2.481 2.212-.001 4.432-.57 6.427-1.723 4.409-2.546 6.901-7.461 6.351-12.521l-2.217-20.389c-.448-4.117-4.146-7.096-8.267-6.646-4.118.447-7.093 4.148-6.646 8.267l1.69 15.552-77.68-56.865c-.031-.022-.063-.041-.094-.063v-77.781l67.36 38.89c.004.037.004.074.008.111l4.93 45.334c.418 3.843 3.668 6.69 7.447 6.69.271 0 .544-.015.819-.045 4.118-.448 7.094-4.149 6.646-8.267l-3.755-34.532 40.351 23.296 8.781 50.286c.637 3.645 3.804 6.211 7.38 6.211.428 0 .862-.036 1.299-.113 4.081-.712 6.811-4.598 6.099-8.678l-6.625-37.93 26.624 15.371c1.182.682 2.471 1.006 3.743 1.006 2.592 0 5.113-1.345 6.502-3.751 2.071-3.587.842-8.174-2.745-10.245l-26.623-15.371 36.158-13.227c3.891-1.424 5.891-5.73 4.468-9.62-1.424-3.891-5.731-5.89-9.62-4.468l-47.941 17.538-40.351-23.297 82.6-36.419c4.659-2.055 7.669-6.673 7.669-11.764-.001-5.091-3.012-9.707-7.67-11.761l-82.598-36.42 40.35-23.296zm-269.207 92.781-88.089-38.84 88.089-38.841c.035-.015.067-.034.102-.05l17.804 10.279c1.182.682 2.471 1.006 3.743 1.006 2.592 0 5.113-1.345 6.502-3.751 2.071-3.587.842-8.174-2.745-10.245l-17.805-10.28c-.004-.037-.004-.074-.008-.112l-10.406-95.707 77.681 56.866c.031.022.063.041.094.063v77.781l-19.245-11.111c-3.589-2.07-8.175-.843-10.245 2.745-2.071 3.587-.842 8.174 2.745 10.245l19.245 11.111-67.36 38.89c-.035-.015-.067-.034-.102-.049zm74.867 51.993-77.68 56.866 10.406-95.706c.004-.038.004-.075.008-.113l67.36-38.891v77.78c-.03.023-.063.041-.094.064zm90.055-129.675 88.09 38.841-88.091 38.842c-.034.015-.066.033-.1.049l-67.36-38.89 67.36-38.89c.035.015.067.033.101.048z"/></g></g></svg>