<svg id="Capa_1" enable-background="new 0 0 512 512" height="512" viewBox="0 0 512 512" width="512" xmlns="http://www.w3.org/2000/svg"><g><path d="m376.016 435.5c-3.635 0-7.203.285-10.687.827-4.553 27.44-19.179 51.475-39.959 68.173h119.646c0-38.108-30.893-69-69-69z" fill="#eef5f6"/><g><path d="m327.028 332.977c9.017-13.527 14.276-29.773 14.276-47.25 0-24.442-10.295-46.466-26.767-62.018h-117.074c-16.471 15.553-26.767 37.576-26.767 62.018 0 17.476 5.259 33.723 14.276 47.25-24.329 20.332-39.809 50.898-39.809 85.083 0 6.223.522 12.324 1.508 18.267 20.906 3.251 38.692 15.893 48.944 33.472 8.751-8.556 20.717-13.836 33.923-13.836 26.807 0 48.537 21.731 48.537 48.537h47.295c25.281-20.315 41.468-51.485 41.468-86.44-.001-34.185-15.481-64.752-39.81-85.083z" fill="#fff"/><path d="m145.163 418.06c0 6.223.522 12.324 1.508 18.267 13.452 2.092 25.613 8.074 35.31 16.754-3.665-11.008-5.656-22.781-5.656-35.021 0-32.674 14.142-62.042 36.635-82.327 1.785-1.61 2.167-4.24.934-6.303-6.3-10.538-10.385-22.55-11.628-35.394h-2.566c-2.761 0-5-2.239-5-5v-62.6c-14.85 15.35-24.004 36.245-24.004 59.29 0 17.476 5.259 33.723 14.276 47.25-24.329 20.332-39.809 50.899-39.809 85.084z" fill="#eef5f6"/><path d="m194.7 223.709v65.327c0 2.761 2.239 5 5 5h31.782c2.761 0 5-2.239 5-5v-65.327z" fill="#46cc8d"/><path d="m215.218 289.036v-65.327h-20.518v65.327c0 2.761 2.239 5 5 5h20.518c-2.761 0-5-2.238-5-5z" fill="#00c27a"/><path d="m306.114 187.172c9.006-11.094 14.41-25.229 14.41-40.631 0-11.541-3.045-22.366-8.353-31.739h-112.342c-5.308 9.374-8.353 20.198-8.353 31.739 0 15.402 5.405 29.538 14.41 40.631z" fill="#fff"/><path d="m237.369 187.172c-9.009-11.092-14.417-25.227-14.417-40.631 0-11.541 3.038-22.367 8.347-31.739h-31.469c-5.308 9.374-8.353 20.198-8.353 31.739 0 15.402 5.405 29.538 14.41 40.631z" fill="#eef5f6"/><g><path d="m199.2 82.015h113.6c.214 0 .418.037.625.063v-69.578c0-2.761-2.239-5-5-5h-104.85c-2.761 0-5 2.239-5 5v69.578c.207-.026.411-.063.625-.063z" fill="#3e5959"/><path d="m199.2 82.015h30.8v-69.515c0-2.761 2.239-5 5-5h-31.425c-2.761 0-5 2.239-5 5v69.578c.207-.026.411-.063.625-.063z" fill="#384949"/><g><path d="m317.8 114.801h-123.6v-27.786c0-2.761 2.239-5 5-5h113.6c2.761 0 5 2.239 5 5z" fill="#fd4755"/></g><g><path d="m230.4 82.015h-31.2c-2.761 0-5 2.239-5 5v27.786h31.2v-27.786c0-2.762 2.239-5 5-5z" fill="#fb2b3a"/></g></g><g><path d="m317.7 223.709h-123.4c-8.284 0-15-6.716-15-15v-6.537c0-8.284 6.716-15 15-15h123.4c8.284 0 15 6.716 15 15v6.537c0 8.284-6.716 15-15 15z" fill="#00c27a"/></g><g><path d="m221 208.709v-6.537c0-8.284 6.716-15 15-15h-41.7c-8.284 0-15 6.716-15 15v6.537c0 8.284 6.716 15 15 15h41.7c-8.284 0-15-6.716-15-15z" fill="#08b865"/></g></g><path d="m195.615 469.799c-11.96-20.508-34.178-34.299-59.63-34.299-38.108 0-69 30.892-69 69h114.015c0-13.601 5.602-25.889 14.615-34.701z" fill="#eef5f6"/><g><path d="m150.992 437.156c-4.833-1.073-9.851-1.656-15.008-1.656-38.108 0-69 30.892-69 69h30.016c0-32.951 23.104-60.49 53.992-67.344z" fill="#deecf1"/></g><g><path d="m229.538 455.962c-26.807 0-48.538 21.731-48.538 48.538h97.075c0-26.807-21.731-48.538-48.537-48.538z" fill="#eef5f6"/></g><g><path d="m245.5 458.662c-5.001-1.741-10.368-2.699-15.963-2.699-26.807 0-48.537 21.731-48.537 48.537h31.925c0-21.212 13.613-39.235 32.575-45.838z" fill="#deecf1"/></g><g><circle cx="256" cy="253.5" r="7.5"/><circle cx="256" cy="296.5" r="7.5"/><circle cx="256" cy="339.5" r="7.5"/><circle cx="234.5" cy="149.5" r="7.5"/><circle cx="277.5" cy="149.5" r="7.5"/><path d="m481.728 497h-29.589c-1.266-12.992-5.804-25.379-13.337-36.188-2.368-3.398-7.045-4.234-10.441-1.864-3.398 2.368-4.233 7.043-1.865 10.441 5.77 8.277 9.362 17.705 10.567 27.611h-92.897c13.748-15.307 23.183-33.814 27.499-53.825 1.439-.103 2.887-.175 4.352-.175 9.347 0 18.319 2.041 26.669 6.066 3.729 1.798 8.214.232 10.013-3.499s.232-8.214-3.499-10.013c-10.397-5.013-21.562-7.554-33.183-7.554-.703 0-1.403.016-2.101.036.276-3.3.422-6.627.422-9.976 0-32.979-13.631-64.157-37.613-86.525 7.922-13.927 12.081-29.632 12.081-45.809 0-7.802-.984-15.374-2.808-22.616l58.113-58.113h32.218c4.143 0 7.5-3.358 7.5-7.5s-3.357-7.5-7.5-7.5h-17.219l22.694-22.694c2.929-2.929 2.929-7.678 0-10.606-2.93-2.929-7.678-2.929-10.607 0l-22.693 22.693v-17.219c0-4.142-3.357-7.5-7.5-7.5s-7.5 3.358-7.5 7.5v32.219l-53.008 53.008c-3.129-6.861-7.065-13.281-11.693-19.131 6.8-3.875 11.398-11.187 11.398-19.558v-6.537c0-11.676-8.94-21.3-20.334-22.394 5.202-9.95 8.158-21.253 8.158-33.238 0-8.502-1.486-16.662-4.206-24.239h24.881c4.143 0 7.5-3.358 7.5-7.5s-3.357-7.5-7.5-7.5h-23.4v-20.286c0-3.791-1.702-7.186-4.375-9.48v-14.535c0-4.142-3.357-7.5-7.5-7.5s-7.5 3.358-7.5 7.5v11.515h-99.85v-59.515h99.85v13c0 4.142 3.357 7.5 7.5 7.5s7.5-3.358 7.5-7.5v-15.5c0-6.893-5.607-12.5-12.5-12.5h-104.85c-6.893 0-12.5 5.607-12.5 12.5v65.035c-2.673 2.294-4.375 5.689-4.375 9.48v20.287h-23.4c-4.143 0-7.5 3.358-7.5 7.5s3.357 7.5 7.5 7.5h24.882c-2.719 7.578-4.206 15.737-4.206 24.239 0 11.985 2.956 23.287 8.158 33.238-11.394 1.094-20.334 10.718-20.334 22.394v6.537c0 8.372 4.607 15.672 11.409 19.545-4.632 5.854-8.572 12.278-11.703 19.144l-53.008-53.008v-32.219c0-4.142-3.357-7.5-7.5-7.5s-7.5 3.358-7.5 7.5v17.219l-22.693-22.693c-2.93-2.929-7.678-2.929-10.607 0s-2.929 7.678 0 10.606l22.694 22.694h-17.22c-4.143 0-7.5 3.358-7.5 7.5s3.357 7.5 7.5 7.5h32.218l58.113 58.113c-1.824 7.242-2.808 14.815-2.808 22.616 0 16.176 4.159 31.882 12.081 45.809-23.982 22.368-37.613 53.546-37.613 86.525 0 3.349.157 6.672.435 9.972-.703-.019-1.407-.032-2.114-.032-39.652 0-72.347 30.325-76.128 69h-29.584c-4.143 0-7.5 3.358-7.5 7.5s3.357 7.5 7.5 7.5h451.455c4.143 0 7.5-3.358 7.5-7.5s-3.357-7.501-7.499-7.501zm-280.028-407.485h108.6v17.787h-108.6zm2.697 32.786h103.206c3.473 7.361 5.421 15.575 5.421 24.239 0 12.352-3.965 23.786-10.667 33.131h-92.715c-6.702-9.346-10.667-20.779-10.667-33.131.001-8.663 1.949-16.878 5.422-24.239zm-17.597 79.871c0-4.136 3.364-7.5 7.5-7.5h123.4c4.136 0 7.5 3.364 7.5 7.5v6.537c0 4.136-3.364 7.5-7.5 7.5h-123.4c-4.136 0-7.5-3.364-7.5-7.5zm-12.783 294.828h-99.078c3.71-30.388 29.671-54 61.045-54 20.711 0 39.058 10.292 50.208 26.028-6.427 7.839-10.761 17.449-12.175 27.972zm15.17 0c3.534-19.06 20.283-33.538 40.351-33.538s36.816 14.478 40.351 33.538zm133.492 0h-37.62c-3.678-27.364-27.166-48.538-55.521-48.538-12.017 0-23.154 3.815-32.288 10.28-10.632-14.2-26.079-24.592-43.896-28.745-.453-3.935-.69-7.918-.69-11.937 0-30.701 13.529-59.615 37.118-79.329 2.938-2.455 3.555-6.729 1.431-9.915-8.516-12.776-13.017-27.677-13.017-43.09 0-13.098 3.262-25.445 9.005-36.284v39.593c0 6.893 5.607 12.5 12.5 12.5h31.781c6.893 0 12.5-5.607 12.5-12.5v-13.035c0-4.142-3.357-7.5-7.5-7.5s-7.5 3.358-7.5 7.5v10.536h-26.782v-55.327h26.781v9.791c0 4.142 3.357 7.5 7.5 7.5s7.5-3.358 7.5-7.5v-9.791h67.458c13.821 14.048 22.365 33.3 22.365 54.518 0 15.414-4.501 30.314-13.017 43.09-2.124 3.186-1.507 7.459 1.431 9.915 23.589 19.714 37.118 48.628 37.118 79.329.001 30.606-13.325 59.227-36.657 78.939z"/></g></g></svg>