<svg id="Capa_1" enable-background="new 0 0 512 512" height="512" viewBox="0 0 512 512" width="512" xmlns="http://www.w3.org/2000/svg"><g><g><g><path d="m67.299 119.222h380.08v191.523h-380.08z" fill="#ffe179"/><path d="m417.379 119.222h30v191.523h-30z" fill="#fbd268"/><path d="m48.906 117.017c0 22.331 23.847 36.897 43.495 26.286 6.386-3.449 14.051-6.034 25.539-6.034 34.517 0 34.517 23.335 69.034 23.335 34.516 0 34.516-23.335 69.031-23.335s34.515 23.335 69.029 23.335c34.515 0 34.515-23.335 69.03-23.335 11.485 0 19.149 2.584 25.534 6.032 19.649 10.611 43.496-3.954 43.496-26.285v-1.674c0-13.808-11.193-25.001-25.001-25.001h-364.186c-13.808 0-25.001 11.193-25.001 25.001z" fill="#aee69c"/><path d="m460.832 104.951c-.008-.018-.016-.036-.024-.053-3.957-8.591-12.636-14.558-22.715-14.558h-30c9.139-.023 17.217 4.998 21.592 12.394 3.867 6.538-3.253 14.214-9.955 10.637-.044-.023-.088-.047-.132-.071-6.385-3.448-14.048-6.032-25.534-6.032-34.515 0-34.515 23.335-69.03 23.335s-34.515-23.335-69.029-23.335c-34.516 0-34.516 23.335-69.031 23.335-34.517 0-34.517-23.335-69.034-23.335-11.488 0-19.153 2.585-25.539 6.034-14.797 7.992-31.971 1.7-39.552-11.431-2.492 3.888-3.943 8.508-3.943 13.469v1.676c0 22.549 23.999 36.595 43.931 26.052 6.299-3.332 13.875-5.801 25.103-5.801 34.517 0 34.517 23.335 69.034 23.335 34.516 0 34.516-23.335 69.031-23.335s34.515 23.335 69.029 23.335c34.515 0 34.515-23.335 69.03-23.335 11.243 0 18.824 2.476 25.128 5.815 19.686 10.427 43.783-3.499 43.901-25.776.023-4.301-.447-8.429-2.261-12.355z" fill="#89daa4"/></g><path d="m29.571 289.68h456.072v169.815h-456.072z" fill="#ffe179"/><path d="m455.643 289.68h30v169.815h-30z" fill="#fbd268"/><path d="m7.5 287.035c0 26.796 28.615 44.275 52.191 31.541 7.663-4.139 16.86-7.241 30.646-7.241 41.418 0 41.418 28 82.837 28 41.417 0 41.417-28 82.833-28 41.415 0 41.415 28 82.831 28s41.416-28 82.832-28c13.782 0 22.977 3.1 30.639 7.238 23.578 12.733 52.192-4.745 52.192-31.541v-2.009c0-16.569-13.431-30-30-30h-437c-16.569 0-30 13.431-30 30z" fill="#aee69c"/><path d="m496.544 309.516c6.992-8.615 10.039-21.078 6.683-33.145-3.466-12.462-15.388-21.333-28.728-21.347h-30c16.569 0 30 13.431 30 30v.073c-.002 4.376-3.692 7.943-8.058 7.633-4.736-.337-9.531-1.67-14.134-4.156-7.662-4.138-16.857-7.238-30.639-7.238-41.416 0-41.416 28-82.832 28-41.415 0-41.415-28-82.831-28-41.417 0-41.417 28-82.833 28-41.418 0-41.418-28-82.837-28-13.785 0-22.982 3.102-30.646 7.24-18.905 10.21-41.034.986-49.068-16.881-1.996 4.016-3.123 8.54-3.123 13.329v2.011c0 26.795 28.614 44.275 52.191 31.541 7.663-4.139 16.86-7.241 30.646-7.241 41.418 0 41.418 28 82.837 28 41.417 0 41.417-28 82.833-28 41.415 0 41.415 28 82.831 28s41.416-28 82.832-28c13.782 0 22.977 3.1 30.639 7.238 14.178 7.656 33.335 4.376 44.237-9.057z" fill="#89daa4"/><path d="m47.5 504.495h417c22.091 0 40-17.909 40-40 0-4.585-3.717-8.302-8.302-8.302h-480.396c-4.585 0-8.302 3.717-8.302 8.302 0 22.091 17.909 40 40 40z" fill="#d8e8f0"/><path d="m496.198 456.192h-30c4.585 0 8.302 3.717 8.302 8.302 0 22.091-17.909 40-40 40h30c22.091 0 40-17.909 40-40 0-4.585-3.717-8.302-8.302-8.302z" fill="#bad6e5"/><circle cx="256" cy="198.495" fill="#f58a97" r="21"/><g fill="#f58a97"><circle cx="121" cy="198.495" r="21"/><circle cx="391" cy="198.495" r="21"/></g><g><circle cx="256" cy="393.495" fill="#f58a97" r="21"/><circle cx="91" cy="393.495" fill="#f58a97" r="21"/><circle cx="421" cy="393.495" fill="#f58a97" r="21"/><g fill="#f07281"><path d="m421 372.495c-3.83 0-7.409 1.042-10.5 2.832 6.271 3.633 10.5 10.399 10.5 18.168s-4.229 14.535-10.5 18.168c3.091 1.791 6.67 2.832 10.5 2.832 11.598 0 21-9.402 21-21s-9.402-21-21-21z"/><path d="m391 177.495c-3.83 0-7.409 1.042-10.5 2.832 6.271 3.633 10.5 10.399 10.5 18.168s-4.229 14.535-10.5 18.168c3.091 1.791 6.67 2.832 10.5 2.832 11.598 0 21-9.402 21-21s-9.402-21-21-21z"/><path d="m256 177.495c-3.83 0-7.409 1.042-10.5 2.832 6.271 3.633 10.5 10.399 10.5 18.168s-4.229 14.535-10.5 18.168c3.091 1.791 6.67 2.832 10.5 2.832 11.598 0 21-9.402 21-21s-9.402-21-21-21z"/><path d="m121 177.495c-3.83 0-7.409 1.042-10.5 2.832 6.271 3.633 10.5 10.399 10.5 18.168s-4.229 14.535-10.5 18.168c3.091 1.791 6.67 2.832 10.5 2.832 11.598 0 21-9.402 21-21s-9.402-21-21-21z"/><path d="m256 372.495c-3.83 0-7.409 1.042-10.5 2.832 6.271 3.633 10.5 10.399 10.5 18.168s-4.229 14.535-10.5 18.168c3.091 1.791 6.67 2.832 10.5 2.832 11.598 0 21-9.402 21-21s-9.402-21-21-21z"/><path d="m91 372.495c-3.83 0-7.409 1.042-10.5 2.832 6.271 3.633 10.5 10.399 10.5 18.168s-4.229 14.535-10.5 18.168c3.091 1.791 6.67 2.832 10.5 2.832 11.598 0 21-9.402 21-21s-9.402-21-21-21z"/></g></g></g><path d="m284.5 393.495c0-15.715-12.785-28.5-28.5-28.5s-28.5 12.785-28.5 28.5 12.785 28.5 28.5 28.5 28.5-12.786 28.5-28.5zm-42 0c0-7.444 6.056-13.5 13.5-13.5s13.5 6.056 13.5 13.5-6.056 13.5-13.5 13.5-13.5-6.057-13.5-13.5zm207 0c0-15.715-12.785-28.5-28.5-28.5s-28.5 12.785-28.5 28.5 12.785 28.5 28.5 28.5 28.5-12.786 28.5-28.5zm-42 0c0-7.444 6.056-13.5 13.5-13.5s13.5 6.056 13.5 13.5-6.056 13.5-13.5 13.5-13.5-6.057-13.5-13.5zm-288 0c0-15.715-12.785-28.5-28.5-28.5s-28.5 12.785-28.5 28.5 12.785 28.5 28.5 28.5 28.5-12.786 28.5-28.5zm-42 0c0-7.444 6.056-13.5 13.5-13.5s13.5 6.056 13.5 13.5-6.056 13.5-13.5 13.5-13.5-6.057-13.5-13.5zm434.5-106.462v-2.009c0-20.678-16.822-37.5-37.5-37.5h-19.62v-100.108c9.887-6.998 15.714-18.148 15.714-30.4v-1.674c0-17.921-14.58-32.501-32.501-32.501h-155.375l-18.057-31.271 16.343-28.302c4.562-7.894 14.693-10.611 22.587-6.057 5.107 2.948 8.279 8.444 8.279 14.344 0 2.878-.769 5.73-2.224 8.248-2.073 3.586-.845 8.174 2.741 10.246 3.587 2.073 8.174.845 10.246-2.741 2.771-4.796 4.236-10.243 4.236-15.752 0-11.243-6.047-21.718-15.782-27.336-15.052-8.686-34.375-3.508-43.074 11.545l-12.013 20.806-12.016-20.809c-8.697-15.051-28.019-20.23-43.073-11.543-9.734 5.618-15.781 16.092-15.781 27.335 0 5.509 1.465 10.956 4.236 15.752 2.072 3.587 6.66 4.814 10.246 2.741 3.586-2.072 4.814-6.66 2.741-10.246-1.455-2.518-2.224-5.37-2.224-8.248 0-5.9 3.172-11.396 8.279-14.344 7.893-4.556 18.025-1.838 22.586 6.054l16.344 28.305-18.056 31.272h-155.375c-17.921 0-32.501 14.58-32.501 32.501v1.676c0 13.262 6.816 25.246 18.232 32.055.053.032.108.058.162.09v98.362h-22.3c-20.678 0-37.5 16.822-37.5 37.5v2.011c.011 15.828 8.313 29.933 22.07 37.688v57.642c0 4.142 3.358 7.5 7.5 7.5s7.5-3.358 7.5-7.5v-52.486c8.855 1.279 17.983-.273 26.186-4.704 5.464-2.952 13.481-6.34 27.081-6.34 18.412 0 27.127 5.892 37.218 12.713 10.6 7.165 22.613 15.287 45.619 15.287 23.005 0 35.019-8.122 45.617-15.287 10.09-6.822 18.805-12.713 37.216-12.713 18.41 0 27.124 5.892 37.214 12.713 10.599 7.165 22.611 15.287 45.616 15.287s35.018-8.122 45.617-15.287c10.09-6.822 18.805-12.713 37.215-12.713 13.596 0 21.611 3.387 27.075 6.337 9.199 4.968 19.56 6.325 29.396 4.118v119.402h-441.07v-31.328c0-4.142-3.358-7.5-7.5-7.5s-7.5 3.358-7.5 7.5v31.328h-6.268c-8.713 0-15.802 7.089-15.802 15.803 0 26.191 21.309 47.5 47.5 47.5h417c26.191 0 47.5-21.309 47.5-47.5 0-8.713-7.089-15.802-15.802-15.802h-3.058v-125.95c11.858-8.082 18.86-21.238 18.86-35.71zm-256-220.465 9.396 16.272h-18.792zm-199.594 50.449v-1.676c0-9.65 7.851-17.501 17.501-17.501h364.186c9.65 0 17.501 7.851 17.501 17.501v1.674c0 7.928-4.08 15.094-10.915 19.171-6.686 3.988-14.73 4.181-21.517.515-8.759-4.73-18.005-6.933-29.098-6.933-19.555 0-29.734 6.882-38.716 12.954-8.239 5.57-15.354 10.38-30.314 10.38s-22.075-4.811-30.314-10.38c-8.981-6.072-19.161-12.954-38.715-12.954s-29.734 6.882-38.716 12.954c-8.239 5.57-15.354 10.381-30.315 10.381s-22.077-4.811-30.317-10.38c-8.981-6.072-19.162-12.954-38.718-12.954-11.095 0-20.343 2.204-29.103 6.935-6.786 3.666-14.829 3.474-21.515-.515-6.835-4.076-10.915-11.243-10.915-19.172zm439.792 346.675c.442 0 .802.36.802.802 0 17.92-14.58 32.5-32.5 32.5h-417c-17.92 0-32.5-14.58-32.5-32.5 0-.442.36-.802.802-.802zm-13.027-152.367c-8.481 5.058-18.686 5.302-27.3.649-10.424-5.628-20.972-8.138-34.203-8.138-23.005 0-35.018 8.121-45.616 15.287-10.09 6.822-18.805 12.713-37.215 12.713s-27.125-5.892-37.215-12.713c-10.599-7.166-22.611-15.287-45.616-15.287s-35.019 8.121-45.617 15.287c-10.09 6.822-18.805 12.713-37.216 12.713-18.412 0-27.127-5.892-37.218-12.713-10.6-7.166-22.613-15.287-45.619-15.287-13.234 0-23.785 2.511-34.209 8.142-8.614 4.652-18.818 4.409-27.297-.649-8.66-5.166-13.83-14.248-13.83-24.294v-2.011c0-12.407 10.093-22.5 22.5-22.5h318.908c4.142 0 7.5-3.358 7.5-7.5s-3.358-7.5-7.5-7.5h-281.608v-93.391c7.189.749 14.527-.646 21.165-4.23 4.425-2.39 10.922-5.133 21.975-5.133 14.961 0 22.078 4.811 30.317 10.381 8.981 6.072 19.162 12.954 38.717 12.954s29.735-6.882 38.716-12.954c8.239-5.57 15.354-10.38 30.314-10.38s22.075 4.811 30.314 10.38c8.981 6.072 19.161 12.954 38.715 12.954s29.734-6.882 38.716-12.954c8.239-5.57 15.354-10.38 30.314-10.38 11.051 0 17.546 2.742 21.97 5.131 7.465 4.031 15.817 5.292 23.845 3.845v93.778h-48.472c-4.142 0-7.5 3.358-7.5 7.5s3.358 7.5 7.5 7.5h83.094c12.407 0 22.5 10.093 22.5 22.5v2.009c0 10.045-5.169 19.126-13.829 24.291zm-63.671-112.83c0-15.715-12.785-28.5-28.5-28.5s-28.5 12.785-28.5 28.5 12.785 28.5 28.5 28.5 28.5-12.786 28.5-28.5zm-42 0c0-7.444 6.056-13.5 13.5-13.5s13.5 6.056 13.5 13.5-6.056 13.5-13.5 13.5-13.5-6.057-13.5-13.5zm-121.5-28.5c-15.715 0-28.5 12.785-28.5 28.5s12.785 28.5 28.5 28.5 28.5-12.785 28.5-28.5-12.785-28.5-28.5-28.5zm0 42c-7.444 0-13.5-6.056-13.5-13.5s6.056-13.5 13.5-13.5 13.5 6.056 13.5 13.5-6.056 13.5-13.5 13.5zm-135-42c-15.715 0-28.5 12.785-28.5 28.5s12.785 28.5 28.5 28.5 28.5-12.785 28.5-28.5-12.785-28.5-28.5-28.5zm0 42c-7.444 0-13.5-6.056-13.5-13.5s6.056-13.5 13.5-13.5 13.5 6.056 13.5 13.5-6.056 13.5-13.5 13.5z"/></g></svg>