<svg id="Capa_1" enable-background="new 0 0 512 512" height="512" viewBox="0 0 512 512" width="512" xmlns="http://www.w3.org/2000/svg"><g><g><g><path d="m504.5 256c0 26.237-17.412 49.388-25.051 73.062-7.917 24.537-7.625 53.51-22.395 73.934-14.918 20.628-42.492 29.234-62.991 44.246-20.296 14.864-36.87 38.681-61.253 46.648-23.526 7.687-50.737-1.526-76.81-1.526s-53.284 9.213-76.81 1.526c-24.383-7.967-40.958-31.784-61.254-46.648-20.499-15.012-48.072-23.618-62.991-44.246-14.771-20.423-14.478-49.397-22.395-73.934-7.638-23.674-25.05-46.825-25.05-73.062s17.412-49.388 25.051-73.062c7.917-24.537 7.625-53.51 22.395-73.934 14.918-20.628 42.492-29.234 62.991-44.246 20.296-14.864 36.87-38.681 61.253-46.648 23.526-7.687 50.737 1.526 76.81 1.526s53.284-9.213 76.81-1.526c24.383 7.967 40.958 31.784 61.254 46.648 20.499 15.012 48.072 23.618 62.991 44.246 14.771 20.423 14.478 49.397 22.395 73.934 7.638 23.674 25.05 46.825 25.05 73.062z" fill="#d1a08f"/><g fill="#c68d7a"><path d="m479.449 182.938c-7.917-24.537-7.625-53.51-22.395-73.933-14.918-20.628-42.492-29.234-62.991-44.246-20.296-14.864-36.87-38.681-61.254-46.648-12.028-3.93-25.02-3.44-38.33-2.025 2.82.478 5.601 1.133 8.33 2.025 24.383 7.967 40.958 31.784 61.254 46.648 20.499 15.012 48.072 23.618 62.991 44.246 14.771 20.423 14.478 49.397 22.395 73.933 7.639 23.674 25.051 46.825 25.051 73.062s-17.412 49.388-25.051 73.062c-7.917 24.537-7.625 53.51-22.395 73.934-14.918 20.628-42.492 29.234-62.991 44.246-20.296 14.864-36.87 38.681-61.253 46.648-2.729.892-5.51 1.548-8.33 2.025 13.31 1.415 26.302 1.905 38.33-2.025 24.383-7.967 40.958-31.784 61.253-46.648 20.499-15.012 48.073-23.618 62.991-44.246 14.771-20.424 14.478-49.397 22.395-73.934 7.639-23.674 25.051-46.825 25.051-73.062s-17.412-49.388-25.051-73.062z"/><path d="m226 492.363c-12.743 0-25.756 2.198-38.48 3.551 16.861 2.855 35.222-.949 53.48-2.727-5.019-.488-10.03-.824-15-.824z"/></g><g><path d="m363.417 112.453 4.731 24.028c1.22 6.198-2.621 12.266-8.716 13.767l-49.861 12.277c-7.346 1.809-14.445-3.757-14.507-11.372l-.297-36.304c-.054-6.559 5.211-11.905 11.723-11.905h45.427c5.596-.001 10.411 3.981 11.5 9.509z" fill="#fddeb0"/><path d="m368.148 136.481-4.731-24.027c-1.088-5.528-5.904-9.511-11.5-9.511h-30c5.595 0 10.411 3.983 11.5 9.511l4.592 43.069 21.423-5.275c6.095-1.501 9.936-7.569 8.716-13.767z" fill="#fdd79b"/><path d="m397.114 219.957-11.399 26.956c-2.279 5.39 1.301 11.456 7.091 12.015l38.413 3.71c4.401.425 8.405-2.58 9.259-6.95l5.99-30.666c1.045-5.352-3.022-10.333-8.438-10.333h-33.003c-3.449.001-6.562 2.074-7.913 5.268z" fill="#fddeb0"/><path d="m438.029 214.69h-30c5.416 0 9.483 4.981 8.438 10.333l-5.99 30.666c-.365 1.87-1.31 3.486-2.613 4.694l23.355 2.256c4.401.425 8.405-2.58 9.259-6.95l5.99-30.666c1.044-5.352-3.024-10.333-8.439-10.333z" fill="#fdd79b"/><path d="m120.829 120.135-14.239 33.67c-2.847 6.732 1.625 14.31 8.857 15.008l47.981 4.634c5.497.531 10.499-3.223 11.565-8.681l7.482-38.304c1.306-6.685-3.775-12.907-10.54-12.907h-41.224c-4.305.001-8.195 2.591-9.882 6.58z" fill="#fddeb0"/><path d="m171.936 113.556h-30c6.765 0 11.845 6.222 10.54 12.907l-7.482 38.304c-.525 2.688-2.007 4.958-4.03 6.511l22.465 2.17c5.498.531 10.499-3.223 11.565-8.681l7.482-38.304c1.305-6.685-3.776-12.907-10.54-12.907z" fill="#fdd79b"/><path d="m247.689 233.771-11.399 26.956c-2.279 5.39 1.301 11.456 7.091 12.015l38.413 3.71c4.401.425 8.405-2.58 9.259-6.95l5.99-30.665c1.045-5.352-3.022-10.333-8.438-10.333h-33.003c-3.448 0-6.562 2.073-7.913 5.267z" fill="#fddeb0"/><path d="m288.604 228.504h-30c5.416 0 9.483 4.981 8.438 10.333l-5.99 30.666c-.365 1.87-1.31 3.486-2.613 4.694l23.355 2.256c4.401.425 8.405-2.58 9.259-6.95l5.99-30.666c1.044-5.352-3.024-10.333-8.439-10.333z" fill="#fdd79b"/><path d="m73.488 255.622-11.877 28.085c-2.375 5.616 1.355 11.936 7.388 12.519l40.023 3.865c4.586.443 8.757-2.689 9.647-7.241l6.241-31.951c1.089-5.576-3.149-10.766-8.791-10.766h-34.387c-3.592.001-6.836 2.161-8.244 5.489z" fill="#fddeb0"/><path d="m116.118 250.134h-30c5.642 0 9.88 5.19 8.791 10.766l-6.241 31.951c-.391 2.004-1.42 3.732-2.839 5.001l23.192 2.24c4.585.443 8.757-2.689 9.646-7.241l6.241-31.951c1.09-5.576-3.148-10.766-8.79-10.766z" fill="#fdd79b"/><path d="m246.7 363.032-21.631 51.149c-4.325 10.227 2.468 21.739 13.455 22.8l72.89 7.039c8.351.807 15.949-4.896 17.568-13.187l11.366-58.189c1.984-10.155-5.735-19.607-16.011-19.607h-62.624c-6.541 0-12.45 3.934-15.013 9.995z" fill="#fddeb0"/><path d="m324.337 353.037h-30c10.276 0 17.994 9.452 16.011 19.607l-11.366 58.189c-.962 4.927-4.044 8.925-8.132 11.201l20.563 1.986c8.351.807 15.949-4.896 17.568-13.187l11.366-58.189c1.985-10.155-5.733-19.607-16.01-19.607z" fill="#fdd79b"/></g></g><g fill="#fddeb0"><circle cx="406.34" cy="340.367" r="17.515"/><circle cx="166.701" cy="384.752" r="17.515"/><circle cx="250.081" cy="77.252" r="17.515"/></g></g><path d="m166.702 359.737c-13.793 0-25.015 11.222-25.015 25.015s11.222 25.015 25.015 25.015 25.015-11.222 25.015-25.015-11.222-25.015-25.015-25.015zm0 35.029c-5.522 0-10.015-4.493-10.015-10.015s4.493-10.015 10.015-10.015 10.015 4.493 10.015 10.015-4.493 10.015-10.015 10.015zm239.638-79.414c-13.793 0-25.015 11.222-25.015 25.015s11.222 25.015 25.015 25.015 25.015-11.222 25.015-25.015-11.222-25.015-25.015-25.015zm0 35.03c-5.522 0-10.015-4.493-10.015-10.015s4.493-10.015 10.015-10.015 10.015 4.493 10.015 10.015-4.493 10.015-10.015 10.015zm-306.658-199.497c-4.794 11.042 2.805 24.306 15.044 25.395l47.982 4.634c9.232.896 17.843-5.372 19.646-14.708l7.482-38.305c2.244-11.124-6.651-21.912-17.9-21.844h-41.224c-7.333 0-13.924 4.38-16.79 11.158zm28.055-27.828c.514-1.215 1.682-2 2.975-2h41.224c2.355.104 3.524 1.661 3.179 3.969l-7.482 38.305c-.327 1.672-1.832 2.812-3.482 2.653l-47.981-4.634c-2.454-.337-3.555-2.282-2.671-4.622zm-11.619 119.577h-34.387c-6.618 0-12.565 3.952-15.151 10.066l-11.877 28.086c-4.33 9.973 2.574 21.927 13.575 22.905l40.023 3.865c8.333.805 16.102-4.842 17.729-13.269l6.241-31.951c2.024-10.042-6.011-19.763-16.153-19.702zm1.43 16.828-6.241 31.951c-.149.764-.834 1.286-1.564 1.213l-40.022-3.865c-1.092-.138-1.607-1.098-1.202-2.132l11.877-28.085c.233-.552.758-.909 1.335-.909h34.386c1.034.032 1.6.805 1.431 1.827zm379.034-55.11c-3.853-8.206-7.491-15.957-9.995-23.717-2.644-8.194-4.319-16.884-6.092-26.084-3.35-17.382-6.814-35.355-17.364-49.941-10.649-14.726-26.603-23.581-42.032-32.144-8.112-4.502-15.775-8.756-22.604-13.757-6.707-4.912-13.003-10.875-19.67-17.189-12.889-12.207-26.216-24.829-43.686-30.537-16.753-5.474-34.689-3.255-52.035-1.108-8.995 1.113-18.296 2.264-27.104 2.264s-18.109-1.151-27.104-2.264c-17.347-2.146-35.283-4.365-52.035 1.108-17.469 5.708-30.796 18.33-43.684 30.536-3.867 3.662-7.52 7.122-11.294 10.419-3.12 2.725-3.439 7.463-.714 10.583s7.463 3.439 10.583.714c4.002-3.496 7.936-7.222 11.741-10.825 12.222-11.575 23.766-22.508 38.028-27.168 13.572-4.435 29.098-2.514 45.535-.48 9.446 1.168 19.214 2.377 28.946 2.377s19.5-1.208 28.946-2.377c16.437-2.035 31.963-3.955 45.534.479 14.263 4.661 25.807 15.594 38.029 27.169 6.711 6.356 13.651 12.929 21.122 18.4 7.589 5.558 16.027 10.242 24.188 14.771 14.638 8.125 28.463 15.799 37.157 27.819 8.603 11.896 11.608 27.485 14.789 43.99 1.781 9.237 3.622 18.788 6.546 27.852 2.796 8.666 6.811 17.216 10.692 25.485 7.197 15.331 13.995 29.812 13.995 45.273s-6.798 29.942-13.996 45.273c-3.882 8.269-7.896 16.819-10.692 25.485-2.924 9.064-4.765 18.615-6.546 27.852-3.181 16.505-6.186 32.094-14.789 43.99-8.693 12.02-22.519 19.694-37.156 27.818-8.161 4.53-16.599 9.213-24.188 14.771-7.472 5.472-14.412 12.044-21.123 18.401-12.222 11.575-23.766 22.508-38.028 27.168-13.573 4.435-29.099 2.513-45.535.48-9.446-1.168-19.214-2.377-28.946-2.377s-19.5 1.208-28.946 2.377c-16.438 2.034-31.964 3.954-45.534-.479-14.263-4.661-25.807-15.594-38.029-27.169-6.711-6.356-13.651-12.929-21.122-18.4-7.589-5.558-16.027-10.242-24.188-14.771-14.638-8.125-28.463-15.799-37.157-27.819-8.603-11.896-11.608-27.485-14.789-43.99-1.781-9.237-3.622-18.788-6.546-27.852-2.796-8.666-6.811-17.216-10.692-25.485-7.2-15.33-13.998-29.811-13.998-45.273s6.798-29.942 13.996-45.273c3.882-8.269 7.896-16.819 10.692-25.485 2.924-9.064 4.765-18.615 6.546-27.852 3.181-16.505 6.186-32.094 14.789-43.99 8.693-12.02 22.519-19.694 37.156-27.818l3.2-1.779c3.618-2.018 4.915-6.586 2.896-10.203-2.018-3.618-6.585-4.915-10.203-2.896l-3.173 1.764c-15.428 8.563-31.381 17.418-42.03 32.143-10.549 14.586-14.014 32.56-17.364 49.941-1.773 9.2-3.448 17.89-6.092 26.084-2.504 7.76-6.143 15.511-9.995 23.717-7.58 16.145-15.418 32.84-15.418 51.647s7.838 35.502 15.418 51.648c3.853 8.206 7.491 15.957 9.995 23.717 2.644 8.194 4.319 16.884 6.092 26.084 3.35 17.382 6.814 35.355 17.364 49.941 10.649 14.726 26.603 23.581 42.032 32.144 8.112 4.502 15.775 8.756 22.604 13.757 6.707 4.912 13.003 10.875 19.67 17.189 12.889 12.207 26.216 24.829 43.686 30.537 7.787 2.544 15.828 3.427 23.949 3.426 9.349 0 18.803-1.169 28.086-2.318 8.995-1.113 18.296-2.264 27.104-2.264s18.109 1.151 27.104 2.264c17.347 2.146 35.283 4.365 52.035-1.108 17.469-5.708 30.796-18.33 43.684-30.536 6.667-6.314 12.964-12.278 19.671-17.19 6.83-5.002 14.493-9.255 22.605-13.758 15.429-8.563 31.382-17.418 42.031-32.144 10.549-14.586 14.014-32.56 17.364-49.941 1.773-9.2 3.448-17.89 6.092-26.084 2.504-7.76 6.143-15.511 9.995-23.717 7.581-16.144 15.419-32.839 15.419-51.647s-7.838-35.502-15.418-51.648zm-185.218-34.546 49.861-12.276c10.007-2.464 16.28-12.346 14.281-22.498l-4.731-24.027c-1.775-9.017-9.707-15.562-18.858-15.562h-45.427c-10.589-.055-19.357 8.916-19.223 19.466l.297 36.304c-.006 12.115 11.933 21.614 23.8 18.593zm-4.874-59.363h45.427c2.005 0 3.746 1.455 4.141 3.459l4.731 24.028c.449 2.278-.935 4.49-3.149 5.035l-49.861 12.276c-3.005.617-5.069-1.054-5.215-4.151l-.296-36.304c-.034-2.332 1.884-4.353 4.222-4.343zm-68.687 334.003 72.89 7.04c12.05 1.165 23.297-7.017 25.65-19.215l2.667-13.657c.794-4.065-1.858-8.005-5.923-8.799-4.062-.79-8.004 1.857-8.799 5.923l-2.667 13.657c-.882 4.519-4.968 7.596-9.486 7.16l-72.89-7.04c-5.907-.53-9.597-7.021-7.268-12.413l21.631-51.149c1.391-3.29 4.573-5.416 8.105-5.416h62.625c5.487-.04 9.74 5.284 8.65 10.669l-1.94 9.932c-.794 4.065 1.858 8.004 5.923 8.798 4.064.795 8.004-1.857 8.798-5.923l1.94-9.932c2.935-14.557-8.695-28.631-23.372-28.544h-62.625c-9.572 0-18.177 5.72-21.92 14.573l-21.631 51.15c-6.27 14.431 3.677 31.767 19.642 33.186zm12.278-392.209c-13.793 0-25.015 11.222-25.015 25.015s11.222 25.015 25.015 25.015 25.015-11.222 25.015-25.015-11.222-25.015-25.015-25.015zm0 35.029c-5.522 0-10.015-4.493-10.015-10.015s4.493-10.015 10.015-10.015 10.015 4.493 10.015 10.015-4.493 10.015-10.015 10.015zm-9.3 143.583-11.399 26.956c-2.002 4.734-1.627 10.195 1.002 14.609 2.654 4.455 7.128 7.295 12.275 7.792l38.413 3.71c8.149.789 15.75-4.738 17.34-12.977l5.99-30.666c.932-4.772-.304-9.659-3.391-13.408-3.069-3.726-7.591-5.863-12.408-5.863h-33.003c-6.473.002-12.289 3.866-14.819 9.847zm48.652 5.554c.163.198.338.532.248.996l-5.99 30.666c-.114.58-.631.973-1.177.922l-38.413-3.71c-.359-.035-.638-.216-.831-.538-.143-.239-.271-.623-.073-1.09l11.399-26.956c.177-.418.571-.688 1.004-.688h33.003c.333-.001.611.133.83.398zm89.374 7.588c-4.225 9.766 2.567 21.454 13.277 22.402l38.414 3.71c8.148.79 15.749-4.738 17.34-12.977l5.99-30.666c1.98-9.824-5.883-19.33-15.799-19.271h-33.003c-6.473 0-12.29 3.865-14.819 9.846zm13.815 5.843 11.399-26.956c.177-.418.571-.688 1.004-.688h33.003c.657.001 1.231.597 1.077 1.395l-5.99 30.666c-.113.58-.627.979-1.176.922l-38.414-3.71c-.724-.08-1.238-.818-.903-1.629z"/></g></svg>