<svg id="Capa_1" enable-background="new 0 0 512 512" height="512" viewBox="0 0 512 512" width="512" xmlns="http://www.w3.org/2000/svg"><g><g><g><circle cx="281.825" cy="69.399" fill="#a79ba7" r="33.325"/><path d="m281.825 36.074c-5.397 0-10.49 1.291-15 3.569 10.868 5.49 18.325 16.749 18.325 29.756 0 13.008-7.457 24.266-18.325 29.756 4.51 2.278 9.603 3.569 15 3.569 18.405 0 33.325-14.92 33.325-33.325s-14.92-33.325-33.325-33.325z" fill="#918291"/><circle cx="230.175" cy="69.399" fill="#a79ba7" r="33.325"/><path d="m230.175 36.074c-5.397 0-10.49 1.291-15 3.569 10.868 5.49 18.325 16.749 18.325 29.756 0 13.008-7.457 24.266-18.325 29.756 4.51 2.278 9.603 3.569 15 3.569 18.405 0 33.325-14.92 33.325-33.325s-14.92-33.325-33.325-33.325z" fill="#918291"/></g><path d="m423.35 475.926h-334.7c-11.669 0-22.279-6.766-27.201-17.346l-36.931-79.387h462.964l-36.931 79.387c-4.921 10.58-15.532 17.346-27.201 17.346z" fill="#bad6e5"/><path d="m457.482 379.192-36.931 79.387c-4.922 10.58-15.532 17.346-27.201 17.346h30c11.669 0 22.279-6.766 27.201-17.346l36.931-79.387z" fill="#a6cee0"/><path d="m494.5 401.769h-477c-5.523 0-10-4.477-10-10v-25.154c0-5.523 4.477-10 10-10h477c5.523 0 10 4.477 10 10v25.154c0 5.523-4.477 10-10 10z" fill="#d8e8f0"/><path d="m494.5 356.616h-30c5.523 0 10 4.477 10 10v25.154c0 5.523-4.477 10-10 10h30c5.523 0 10-4.477 10-10v-25.154c0-5.523-4.477-10-10-10z" fill="#bad6e5"/><path d="m466.923 356.616h-391.846c-12.469 0-22.577-10.108-22.577-22.577 0-12.469 10.108-22.577 22.577-22.577h391.846c12.469 0 22.577 10.108 22.577 22.577 0 12.469-10.108 22.577-22.577 22.577z" fill="#e5c7be"/><path d="m436.923 311.462h-391.846c-12.469 0-22.577-10.108-22.577-22.577 0-12.469 10.108-22.577 22.577-22.577h391.846c12.469 0 22.577 10.108 22.577 22.577 0 12.469-10.108 22.577-22.577 22.577z" fill="#d1a08f"/><path d="m436.923 266.308h-30c12.469 0 22.577 10.108 22.577 22.577s-10.108 22.577-22.577 22.577h30c12.469 0 22.577-10.108 22.577-22.577s-10.108-22.577-22.577-22.577z" fill="#c68d7a"/><path d="m466.923 266.308h-391.846c-12.469 0-22.577-10.108-22.577-22.577 0-12.469 10.108-22.577 22.577-22.577h391.846c12.469 0 22.577 10.108 22.577 22.577 0 12.469-10.108 22.577-22.577 22.577z" fill="#e5c7be"/><path d="m436.923 221.155h-391.846c-12.469 0-22.577-10.108-22.577-22.577 0-12.469 10.108-22.577 22.577-22.577h391.846c12.469 0 22.577 10.108 22.577 22.577 0 12.469-10.108 22.577-22.577 22.577z" fill="#d1a08f"/><path d="m436.923 176.001h-30c12.469 0 22.577 10.108 22.577 22.577s-10.108 22.577-22.577 22.577h30c12.469 0 22.577-10.108 22.577-22.577s-10.108-22.577-22.577-22.577z" fill="#c68d7a"/><path d="m466.923 176.001h-391.846c-12.469 0-22.577-10.108-22.577-22.577 0-12.469 10.108-22.577 22.577-22.577h391.846c12.469 0 22.577 10.108 22.577 22.577 0 12.469-10.108 22.577-22.577 22.577z" fill="#e5c7be"/><g fill="#d9b3a6"><path d="m466.923 130.847h-30c12.469 0 22.577 10.108 22.577 22.577 0 12.469-10.108 22.577-22.577 22.577h30c12.469 0 22.577-10.108 22.577-22.577 0-12.469-10.108-22.577-22.577-22.577z"/><path d="m466.923 221.155h-30c12.469 0 22.577 10.108 22.577 22.577 0 12.469-10.108 22.577-22.577 22.577h30c12.469 0 22.577-10.108 22.577-22.577 0-12.469-10.108-22.577-22.577-22.577z"/><path d="m466.923 311.462h-30c12.469 0 22.577 10.108 22.577 22.577 0 12.469-10.108 22.577-22.577 22.577h30c12.469 0 22.577-10.108 22.577-22.577 0-12.469-10.108-22.577-22.577-22.577z"/></g><path d="m22.5 108.27c0 12.469 10.108 22.577 22.577 22.577h43.951c11.046 0 20 8.954 20 20v66.626c0 10.256 8.314 18.569 18.569 18.569 10.256 0 18.569-8.314 18.569-18.569v-66.626c0-11.046 8.954-20 20-20h77.132c11.046 0 20 8.954 20 20v21.626c0 10.256 8.314 18.569 18.569 18.569 10.256 0 18.569-8.314 18.569-18.569v-21.626c0-11.046 8.954-20 20-20h31.867c11.046 0 20 8.954 20 20v66.626c0 10.256 8.314 18.569 18.569 18.569 10.256 0 18.569-8.314 18.569-18.569v-66.626c0-11.046 8.954-20 20-20h7.479c12.469 0 22.577-10.108 22.577-22.577 0-12.469-10.108-22.577-22.577-22.577h-391.843c-12.469.001-22.577 10.109-22.577 22.577z" fill="#ffe179"/><g fill="#fbd268"><path d="m116.167 150.847v66.626c0 4.084-1.334 7.849-3.57 10.915 3.377 4.632 8.829 7.655 15 7.655 10.256 0 18.57-8.314 18.57-18.569v-66.626c0-11.046 8.954-20 20-20h-30c-11.045-.001-20 8.954-20 19.999z"/><path d="m436.923 85.694h-30c12.469 0 22.577 10.108 22.577 22.577 0 12.469-10.108 22.577-22.577 22.577h-7.479c-11.046 0-20 8.954-20 20v66.626c0 4.084-1.334 7.849-3.569 10.915 3.376 4.632 8.829 7.655 15 7.655 10.255 0 18.569-8.314 18.569-18.569v-66.626c0-11.046 8.954-20 20-20h7.479c12.469 0 22.577-10.108 22.577-22.577 0-12.47-10.108-22.578-22.577-22.578z"/><path d="m270.438 150.847v21.626c0 4.084-1.334 7.849-3.57 10.915 3.377 4.632 8.829 7.655 15 7.655 10.256 0 18.57-8.314 18.57-18.569v-21.626c0-11.046 8.954-20 20-20h-30c-11.045-.001-20 8.954-20 19.999z"/></g></g><path d="m492.932 349.115c2.582-4.436 4.068-9.584 4.068-15.076 0-16.585-13.492-30.077-30.077-30.077h-3.991c2.582-4.436 4.068-9.585 4.068-15.077 0-5.491-1.486-10.639-4.068-15.075 17.226 1.088 34.068-11.514 34.068-30.08 0-16.586-13.494-30.08-30.08-30.08h-3.986c2.58-4.435 4.066-9.582 4.066-15.072 0-5.493-1.487-10.642-4.069-15.078 17.376 1.122 34.069-11.664 34.069-30.08 0-16.581-13.494-30.07-30.08-30.07h-3.99c2.582-4.437 4.07-9.586 4.07-15.079 0-16.585-13.492-30.077-30.077-30.077h-115.249c.633-2.876.976-5.823.976-8.793 0-22.514-18.316-40.83-40.83-40.83-9.541 0-18.603 3.302-25.828 9.227-7.039-5.763-16.028-9.227-25.812-9.227-22.514 0-40.83 18.316-40.83 40.83 0 2.97.343 5.917.976 8.793h-145.249c-16.585-.001-30.077 13.492-30.077 30.077s13.492 30.077 30.077 30.077h3.97c-2.636 4.534-4.047 9.696-4.047 15.072 0 5.494 1.488 10.644 4.071 15.081h-3.993c-16.586 0-30.078 13.492-30.078 30.077 0 16.584 13.492 30.076 30.077 30.076h3.967c-2.634 4.535-4.044 9.698-4.044 15.076 0 5.493 1.487 10.642 4.069 15.078h-3.992c-16.585.001-30.077 13.493-30.077 30.077 0 16.585 13.492 30.077 30.077 30.077h3.991c-2.581 4.436-4.068 9.585-4.068 15.077s1.487 10.64 4.068 15.076h-31.568c-9.649 0-17.5 7.851-17.5 17.5v25.154c0 9.649 7.851 17.5 17.5 17.5h12.737l24.412 52.473c6.126 13.175 19.473 21.688 34.001 21.688h334.7c14.528 0 27.875-8.513 34-21.686l24.413-52.475h12.737c9.649 0 17.5-7.851 17.5-17.5v-25.154c-.038-10.124-8.789-18.371-19.068-17.5zm-26.009-30.153c8.313 0 15.077 6.764 15.077 15.077s-6.764 15.076-15.077 15.076h-391.846c-8.313 0-15.077-6.763-15.077-15.076s6.764-15.077 15.077-15.077zm-.003-90.312c8.315 0 15.08 6.765 15.08 15.08 0 8.181-6.9 15.12-15.08 15.079h-29.958c-.013 0-.026-.001-.039-.001h-361.862c-8.307-.01-15.061-6.77-15.061-15.078 0-8.322 6.926-15.043 15.157-15.08h28.894c4.193 8.797 13.17 14.893 23.547 14.893s19.354-6.095 23.547-14.893h74.031c4.143 0 7.5-3.357 7.5-7.5s-3.357-7.5-7.5-7.5h-71.508v-30.15h104.586c4.162 8.877 13.181 15.043 23.616 15.043s19.453-6.166 23.615-15.043h59.321v30.15h-104.63c-4.143 0-7.5 3.357-7.5 7.5s3.357 7.5 7.5 7.5h107.153c4.193 8.797 13.17 14.893 23.547 14.893s19.354-6.095 23.547-14.893zm-365.392-60.15h-26.448c-8.315 0-15.08-6.765-15.08-15.08 0-8.215 6.885-15.07 15.08-15.07.013 0 .026-.002.039-.002h13.91c6.893 0 12.5 5.607 12.5 12.5v17.652zm52.139 0v-17.652c0-6.893 5.607-12.5 12.5-12.5h77.132c6.893 0 12.5 5.607 12.5 12.5v17.652zm154.271 0v-17.652c0-6.893 5.607-12.5 12.5-12.5h31.866c6.893 0 12.5 5.607 12.5 12.5v17.652zm109.005 45.15v-30.15h19.96c.007 0 .013.001.019.001 8.313 0 15.077 6.764 15.077 15.077 0 8.288-6.722 15.03-15 15.072zm49.977-75.3c8.315 0 15.08 6.761 15.08 15.07 0 8.181-6.901 15.121-15.08 15.08h-49.977v-17.652c0-6.885 5.596-12.488 12.479-12.499.006 0 .012.001.018.001zm-185.1-94.78c14.243 0 25.83 11.587 25.83 25.83 0 3.016-.538 5.994-1.55 8.793h-36.077c.634-2.876.977-5.823.977-8.793 0-7.322-1.946-14.193-5.334-20.142 4.541-3.655 10.202-5.688 16.154-5.688zm-51.64 0c14.237 0 25.82 11.587 25.82 25.83 0 3.016-.538 5.994-1.55 8.793h-48.551c-1.012-2.799-1.55-5.777-1.55-8.793.001-14.243 11.588-25.83 25.831-25.83zm-185.103 79.778c-8.313 0-15.077-6.764-15.077-15.077s6.764-15.077 15.077-15.077h391.846c8.313 0 15.077 6.764 15.077 15.077s-6.764 15.077-15.077 15.077h-7.479c-15.163 0-27.5 12.337-27.5 27.5v66.625c-.002 5.96-4.87 11.07-11.069 11.07-6.104 0-11.069-4.966-11.069-11.07v-66.625c0-15.163-12.337-27.5-27.5-27.5h-31.866c-15.163 0-27.5 12.337-27.5 27.5v21.625c0 6.104-4.966 11.07-11.069 11.07-6.104 0-11.07-4.966-11.07-11.07v-21.625c0-15.163-12.337-27.5-27.5-27.5h-77.132c-15.163 0-27.5 12.337-27.5 27.5v66.625c0 6.104-4.966 11.07-11.069 11.07-6.151 0-11.075-5.067-11.069-11.07v-66.625c0-15.163-12.337-27.5-27.5-27.5zm0 90.306c-8.313 0-15.077-6.763-15.077-15.076s6.764-15.077 15.077-15.077l56.451-.001v30.15zm0 90.308c-8.313 0-15.077-6.764-15.077-15.077s6.764-15.076 15.077-15.076l391.865.001c8.304.011 15.058 6.768 15.058 15.075 0 8.313-6.764 15.077-15.077 15.077zm451.923 87.808c0 1.379-1.121 2.5-2.5 2.5h-146.058c-4.143 0-7.5 3.357-7.5 7.5s3.357 7.5 7.5 7.5h116.777l-21.47 46.148c-3.676 7.904-11.683 13.012-20.399 13.012h-334.7c-8.717 0-16.724-5.107-20.4-13.014l-21.469-46.146h266.662c4.143 0 7.5-3.357 7.5-7.5s-3.357-7.5-7.5-7.5h-295.943c-1.379 0-2.5-1.121-2.5-2.5v-25.154c0-1.379 1.121-2.5 2.5-2.5h477c1.379 0 2.5 1.121 2.5 2.5z"/></g></svg>