<svg id="Capa_1" enable-background="new 0 0 512.002 512.002" height="512" viewBox="0 0 512.002 512.002" width="512" xmlns="http://www.w3.org/2000/svg"><g><g><path d="m47.501 504.502h417c22.091 0 40-17.909 40-40 0-4.585-3.717-8.302-8.302-8.302h-480.396c-4.585 0-8.302 3.717-8.302 8.302 0 22.091 17.909 40 40 40z" fill="#bad6e5"/><path d="m496.199 456.2h-30c4.585 0 8.302 3.717 8.302 8.302 0 22.091-17.909 40-40 40h30c22.091 0 40-17.909 40-40 0-4.585-3.717-8.302-8.302-8.302z" fill="#a6cee0"/><path d="m441.602 456.2h-371.202l39.813-260.649c2.984-19.533 19.782-33.96 39.541-33.96h212.494c19.759 0 36.558 14.428 39.541 33.96z" fill="#fff5c6"/><path d="m401.789 195.551c-2.983-19.533-19.782-33.96-39.541-33.96h-30c19.759 0 36.558 14.428 39.541 33.96l39.813 260.649h30z" fill="#fceba4"/><g><g><g><path d="m129.985 20.253c-5.607.898-10.14 5.094-11.466 10.616-7.217 30.056.232 63.041 22.808 87.424s54.891 34.345 85.413 29.458c5.607-.898 10.139-5.094 11.465-10.616 7.217-30.055-.233-63.041-22.809-87.423s-54.89-34.345-85.411-29.459z" fill="#aee69c"/><path d="m215.398 49.711c-22.533-24.336-54.769-34.305-85.239-29.483 20.478 3.226 40.061 13.09 55.239 29.483 22.576 24.382 30.026 57.368 22.809 87.423-1.326 5.522-5.858 9.718-11.466 10.616-.058.009-.116.016-.174.025 9.98 1.572 20.173 1.576 30.174-.025 5.607-.898 10.14-5.094 11.466-10.616 7.216-30.055-.234-63.04-22.809-87.423z" fill="#89daa4"/></g><g><path d="m382.017 20.253c5.607.898 10.14 5.094 11.466 10.616 7.217 30.056-.232 63.041-22.808 87.424-22.576 24.382-54.892 34.345-85.413 29.458-5.607-.898-10.139-5.094-11.465-10.616-7.217-30.055.233-63.041 22.809-87.423 22.574-24.383 54.89-34.345 85.411-29.459z" fill="#aee69c"/><path d="m393.482 30.869c-1.326-5.522-5.858-9.718-11.465-10.616-10.001-1.601-20.193-1.597-30.173-.025.057.009.115.016.173.025 5.607.898 10.139 5.094 11.465 10.616 7.218 30.056-.232 63.041-22.808 87.424-15.178 16.393-34.761 26.257-55.239 29.483 30.47 4.821 62.706-5.147 85.239-29.483 22.576-24.383 30.025-57.368 22.808-87.424z" fill="#89daa4"/></g></g><g><circle cx="256.001" cy="95.78" fill="#f58a97" r="54.198"/><path d="m256.001 41.582c-5.206 0-10.235.749-15 2.12 22.633 6.508 39.198 27.352 39.198 52.079s-16.565 45.571-39.198 52.079c4.765 1.37 9.794 2.12 15 2.12 29.933 0 54.198-24.265 54.198-54.198 0-29.935-24.265-54.2-54.198-54.2z" fill="#f07281"/></g></g><path d="m142.24 256.109v34.118c0 10.489 8.503 18.991 18.991 18.991 10.489 0 18.991-8.503 18.991-18.991v-33.876c0-12.756 10.341-23.098 23.098-23.098 12.756 0 23.098 10.341 23.098 23.098v87.771c0 14.741 11.95 26.69 26.69 26.69 14.741 0 26.69-11.95 26.69-26.69v-87.771c0-12.756 10.341-23.098 23.098-23.098 12.756 0 23.098 10.341 23.098 23.098v33.876c0 10.489 8.503 18.991 18.991 18.991 10.489 0 18.991-8.503 18.991-18.991v-34.118c0-12.623 10.233-22.855 22.855-22.855h19.197c7.139 0 12.568-6.413 11.39-13.454l-5.979-35.747c-4.137-24.736-25.545-42.86-50.625-42.86h-209.627c-25.08 0-46.487 18.124-50.625 42.86l-5.979 35.747c-1.178 7.041 4.251 13.454 11.39 13.454h13.411c12.623-.001 22.856 10.232 22.856 22.855z" fill="#d1a08f"/><g fill="#c68d7a"><path d="m173.32 218.253c-12.756 0-23.098 10.341-23.098 23.097v33.876c0 6.37-3.147 11.994-7.96 15.439.236 10.284 8.629 18.552 18.969 18.552 10.489 0 18.991-8.503 18.991-18.991v-33.876c0-9.983 6.334-18.485 15.201-21.711-2.875-9.482-11.681-16.386-22.103-16.386z"/><path d="m272.896 218.253c-12.757 0-23.098 10.341-23.098 23.097v87.771c0 12.778-8.982 23.453-20.975 26.071 4.207 9.213 13.495 15.62 24.285 15.62 14.741 0 26.69-11.95 26.69-26.69v-87.771c0-9.983 6.333-18.485 15.201-21.711-2.874-9.483-11.681-16.387-22.103-16.387z"/><path d="m417.419 219.799-5.979-35.747c-3.764-22.505-21.824-39.531-43.938-42.421 7.136 7.29 12.151 16.736 13.938 27.421l5.979 35.747c1.178 7.041-4.251 13.454-11.39 13.454h-19.197c-12.623 0-22.855 10.233-22.855 22.856v34.118c0 6.37-3.147 11.994-7.96 15.439.236 10.284 8.629 18.552 18.969 18.552 10.489 0 18.991-8.503 18.991-18.991v-34.118c0-12.623 10.233-22.856 22.855-22.856h19.197c7.138 0 12.568-6.412 11.39-13.454z"/></g></g><path d="m496.198 448.7h-48.156l-32.18-210.678c6.589-3.965 10.25-11.867 8.954-19.46l-5.979-35.747c-4.531-27.092-26.86-47.099-53.886-48.966 3.963-3.183 7.712-6.669 11.223-10.461 5.944-6.418 11.046-13.544 15.164-21.181 1.966-3.646.604-8.195-3.042-10.161-3.645-1.965-8.195-.604-10.161 3.042-3.519 6.524-7.881 12.617-12.967 18.108-8.126 8.776-17.72 15.651-28.507 20.496h-31.966c4.186-5.368 7.448-11.387 9.658-17.823l24.79-26.771c2.814-3.039 2.632-7.785-.407-10.599-3.04-2.814-7.784-2.632-10.599.407l-10.67 11.523c-1.175-13.606-6.787-25.958-15.375-35.609.004-.004.007-.008.011-.012 20.08-21.682 49.512-31.831 78.728-27.151 2.594.417 4.746 2.41 5.357 4.967 2.488 10.355 3.089 20.969 1.786 31.545-.507 4.111 2.415 7.854 6.526 8.361 4.031.496 7.85-2.385 8.36-6.527 1.523-12.366.821-24.775-2.086-36.876-2.033-8.502-8.928-14.893-17.568-16.281-34.185-5.472-68.613 6.402-92.108 31.769-.087.094-.174.193-.261.287-6.718-4.613-14.382-7.942-22.646-9.605 1.105-2.057 2.385-4.097 3.885-6.091 4.735-6.294 10.901-11.331 18.324-14.97 3.72-1.823 5.257-6.316 3.434-10.036-1.823-3.718-6.316-5.257-10.035-3.433-9.563 4.688-17.54 11.222-23.709 19.42-3.444 4.578-6.019 9.317-7.941 14.027-11.448.709-22.053 4.565-30.981 10.694-.089-.097-.177-.196-.266-.292-23.495-25.368-57.926-37.246-92.112-31.769-8.637 1.388-15.532 7.778-17.562 16.273-8.088 33.663 1.108 68.903 24.6 94.268 3.511 3.792 7.26 7.279 11.223 10.462-27.026 1.867-49.355 21.874-53.887 48.966l-5.979 35.747c-1.298 7.626 2.315 15.471 8.954 19.46l-32.179 210.677h-48.157c-8.713 0-15.802 7.089-15.802 15.802 0 26.191 21.309 47.5 47.5 47.5h417c26.191 0 47.5-21.309 47.5-47.5 0-8.713-7.089-15.802-15.803-15.802zm-248.303-398.899c-1.865 12.335-.225 22.755.68 27.065.743 3.534 3.86 5.959 7.332 5.959 4.662 0 8.317-4.426 7.347-9.044-.786-3.742-2.279-13.272-.137-24.157 22.385 3.437 39.583 22.827 39.583 46.158 0 15.124-7.245 29.132-19.463 37.911h-54.474c-12.218-8.778-19.463-22.786-19.463-37.911.001-22.985 16.697-42.131 38.595-45.981zm-101.062 63.395c-20.076-21.676-27.934-51.796-21.018-80.58.609-2.549 2.762-4.542 5.352-4.958 29.218-4.685 58.651 5.47 78.733 27.152.006.006.011.012.017.018-8.591 9.651-14.199 22.002-15.373 35.611l-10.68-11.533c-2.815-3.04-7.56-3.223-10.599-.407-3.04 2.814-3.222 7.56-.407 10.599l24.791 26.771c2.21 6.436 5.473 12.456 9.658 17.824h-31.966c-10.787-4.845-20.38-11.72-28.508-20.497zm-35.936 127.557h8.488c8.467 0 15.355 6.889 15.355 15.355v34.119c0 14.607 11.884 26.491 26.491 26.491s26.491-11.884 26.491-26.491v-33.876c0-8.601 6.997-15.598 15.598-15.598s15.598 6.997 15.598 15.598v31.682c0 4.142 3.358 7.5 7.5 7.5s7.5-3.358 7.5-7.5v-31.682c0-16.872-13.726-30.598-30.598-30.598s-30.598 13.726-30.598 30.598v33.876c0 6.336-5.155 11.491-11.491 11.491s-11.491-5.155-11.491-11.491v-34.119c0-16.738-13.618-30.355-30.355-30.355h-13.411c-2.82-.111-4.349-1.917-3.993-4.716l5.979-35.747c3.547-21.206 21.727-36.597 43.228-36.597h209.629c21.501 0 39.681 15.391 43.227 36.597l5.979 35.747c.364 2.845-1.15 4.604-3.993 4.716h-19.196c-16.738 0-30.355 13.618-30.355 30.355v34.119c0 6.336-5.155 11.491-11.491 11.491s-11.491-5.155-11.491-11.491v-33.876c0-16.872-13.726-30.598-30.598-30.598s-30.598 13.726-30.598 30.598v87.771c0 10.582-8.608 19.19-19.19 19.19s-19.19-8.609-19.19-19.19v-21.089c0-4.142-3.358-7.5-7.5-7.5s-7.5 3.358-7.5 7.5v21.089c0 18.853 15.338 34.19 34.19 34.19s34.19-15.338 34.19-34.19v-87.771c0-8.601 6.997-15.598 15.598-15.598s15.598 6.997 15.598 15.598v33.876c0 14.607 11.884 26.491 26.491 26.491s26.491-11.884 26.491-26.491v-34.119c0-8.467 6.889-15.355 15.355-15.355h14.273l31.761 207.947h-353.734zm353.604 256.249h-417c-17.92 0-32.5-14.58-32.5-32.5 0-.442.36-.802.802-.802h480.395c.442 0 .803.36.803.802 0 17.92-14.579 32.5-32.5 32.5z"/></g></svg>