<svg id="Capa_1" enable-background="new 0 0 512.067 512.067" height="512" viewBox="0 0 512.067 512.067" width="512" xmlns="http://www.w3.org/2000/svg"><g><g><g><path d="m255.469 61.686c1.658-7.387 4.565-14.657 8.83-21.522 18.416-29.635 56.637-40.922 88.22-26.091 35.911 16.863 50.232 60.021 32.073 94.843-2.858 5.48-6.349 10.413-10.333 14.765-2.248 2.456-2.7 6.045-1.162 8.998 9.69 18.602 10.002 41.689-1.573 61.388-16.28 27.707-51.335 38.802-80.594 25.511-12.602-5.724-22.331-14.979-28.68-25.992-12.666 1.098-25.824-1.584-37.731-8.641-27.645-16.385-38.611-51.481-25.208-80.689 9.528-20.765 28.637-33.723 49.434-36.425 3.317-.43 5.991-2.88 6.724-6.145z" fill="#aee69c"/><path d="m384.592 108.916c18.159-34.822 3.838-77.98-32.073-94.843-14.209-6.672-29.758-8.042-44.246-4.85 4.835 1.076 9.613 2.674 14.246 4.85 35.911 16.863 50.232 60.021 32.073 94.843-2.858 5.48-6.349 10.413-10.333 14.766-2.248 2.456-2.7 6.045-1.162 8.998 9.689 18.602 10.002 41.689-1.573 61.388-8.926 15.192-23.5 25.374-39.665 29.296 26.608 6.544 55.372-4.971 69.665-29.296 11.575-19.699 11.262-42.787 1.573-61.388-1.538-2.953-1.086-6.542 1.162-8.998 3.984-4.353 7.475-9.286 10.333-14.766z" fill="#89daa4"/></g><g><g><path d="m503.593 133.426c2.02-3.499.687-8.018-2.952-9.774-46.375-22.38-102.867-5.493-129.03 39.821-26.162 45.314-12.54 102.681 30.029 131.653 3.34 2.273 7.92 1.169 9.94-2.33z" fill="#f58a97"/><path d="m500.641 123.652c-5.736-2.768-11.628-4.934-17.597-6.521l-90.146 156.136c-2.02 3.499-6.6 4.604-9.94 2.33-2-1.361-3.935-2.784-5.805-4.266 6.571 9.089 14.772 17.183 24.487 23.795 3.34 2.273 7.92 1.168 9.94-2.331l92.012-159.37c2.021-3.498.687-8.017-2.951-9.773z" fill="#f07281"/></g></g><g><path d="m163.658 105.168c-2.26-8.374-5.945-16.552-11.164-24.199-22.534-33.014-66.836-44.054-102.255-25.528-40.273 21.065-54.545 71.166-32.049 110.129 3.54 6.131 7.778 11.607 12.552 16.392 2.694 2.7 3.387 6.787 1.772 10.242-10.176 21.767-9.399 48.207 4.817 70.185 19.994 30.913 60.663 41.889 93.498 25.239 14.142-7.171 24.823-18.241 31.549-31.159 14.551.634 29.479-3.082 42.761-11.744 30.836-20.112 41.663-60.821 24.888-93.592-11.926-23.298-34.433-37.19-58.37-39.261-3.819-.331-7-3.004-7.999-6.704z" fill="#aee69c"/><g><path d="m230.027 151.133c-11.926-23.298-34.433-37.19-58.37-39.261-3.818-.331-7-3.003-7.999-6.704-2.26-8.374-5.944-16.552-11.164-24.199-22.534-33.015-66.836-44.054-102.255-25.528-4.685 2.45-9.001 5.308-12.965 8.481 31.623-8.044 66.186 4.162 85.22 32.047 5.22 7.648 8.904 15.825 11.164 24.199.999 3.7 4.18 6.373 7.999 6.704 23.937 2.071 46.444 15.963 58.37 39.261 15.467 30.215 7.454 67.165-18.056 88.51 7.997-1.867 15.834-5.135 23.168-9.918 30.837-20.112 41.663-60.821 24.888-93.592z" fill="#89daa4"/></g></g><g><g><circle cx="303.036" cy="221.54" fill="#f58a97" r="64.527"/><path d="m303.036 157.012c-5.167 0-10.185.625-15 1.771 28.4 6.764 49.527 32.285 49.527 62.756s-21.127 55.991-49.527 62.756c4.815 1.147 9.833 1.771 15 1.771 35.637 0 64.527-28.89 64.527-64.527.001-35.637-28.889-64.527-64.527-64.527z" fill="#f07281"/></g><g><circle cx="196.385" cy="221.54" fill="#f58a97" r="64.527"/><path d="m196.385 157.012c-5.167 0-10.185.625-15 1.771 28.4 6.764 49.527 32.285 49.527 62.756s-21.127 55.991-49.527 62.756c4.816 1.147 9.833 1.771 15 1.771 35.637 0 64.527-28.89 64.527-64.527.001-35.637-28.889-64.527-64.527-64.527z" fill="#f07281"/></g></g><g><path d="m478.823 303.855h-445.574c-14.201 0-25.713-11.512-25.713-25.713v-.012c0-14.201 11.512-25.713 25.713-25.713h445.574c14.201 0 25.713 11.512 25.713 25.713v.012c0 14.201-11.512 25.713-25.713 25.713z" fill="#d8e8f0"/><path d="m478.823 252.417h-30c14.201 0 25.713 11.512 25.713 25.713v.012c0 14.201-11.512 25.713-25.713 25.713h30c14.201 0 25.713-11.512 25.713-25.713v-.012c0-14.201-11.512-25.713-25.713-25.713z" fill="#bad6e5"/><path d="m339.498 504.567h-166.923c-74.445 0-134.795-60.35-134.795-134.795v-65.916h436.513v65.916c0 74.445-60.35 134.795-134.795 134.795z" fill="#bad6e5"/><path d="m444.293 303.856v65.917c0 74.445-60.35 134.795-134.795 134.795h30c74.445 0 134.795-60.35 134.795-134.795v-65.917z" fill="#a6cee0"/></g></g><path d="m438.739 172.882c1.074 4.039 5.271 6.351 9.186 5.303 4.001-1.071 6.375-5.185 5.303-9.186l-6.244-23.306c-1.071-4.001-5.184-6.38-9.186-5.303-4.001 1.071-6.375 5.185-5.303 9.186zm-30.299 20.515 18.434 10.643c3.523 2.037 8.152.879 10.245-2.745 2.071-3.587.842-8.174-2.745-10.245l-18.434-10.643c-3.589-2.071-8.175-.844-10.245 2.745-2.071 3.587-.841 8.174 2.745 10.245zm-13.668 44.007 22.434-6.012c4.001-1.072 6.375-5.185 5.303-9.186-1.071-4.001-5.184-6.377-9.186-5.303l-22.434 6.012c-4.001 1.072-6.375 5.185-5.303 9.186 1.082 4.037 5.274 6.363 9.186 5.303zm84.051 7.513h-30.937l62.204-107.739c2.016-3.491 2.488-7.702 1.299-11.555-1.18-3.819-3.915-7-7.494-8.721-24.21-11.684-51.751-13.776-77.541-5.895-16.453 5.028-31.213 13.844-43.278 25.612-.968-2.525-2.075-5-3.332-7.413-.085-.164-.067-.343.039-.46 4.503-4.909 8.359-10.414 11.463-16.363 9.767-18.735 11.421-40.082 4.659-60.106-6.758-20.013-21.034-35.99-40.2-44.989-35.221-16.536-77.256-4.105-97.781 28.923-4.598 7.404-7.887 15.423-9.776 23.838-.042.189-.178.316-.37.341-24.372 3.176-45.041 18.405-55.287 40.738-1.012 2.203-1.902 4.46-2.68 6.755-5.611-1.782-11.475-2.963-17.509-3.487-.675-.059-1.227-.523-1.405-1.184-2.546-9.429-6.653-18.335-12.207-26.474-11.937-17.482-29.935-29.961-50.678-35.137-20.737-5.176-42.489-2.621-61.252 7.19-10.787 5.644-20.076 13.269-27.607 22.663-2.591 3.232-2.071 7.952 1.16 10.543 3.234 2.591 7.953 2.07 10.543-1.16 6.227-7.768 13.917-14.077 22.855-18.753 15.506-8.106 33.5-10.212 50.669-5.929 17.172 4.285 32.06 14.599 41.921 29.04 4.604 6.747 8.007 14.124 10.115 21.929 1.813 6.709 7.678 11.618 14.591 12.215 22.373 1.931 41.781 14.658 52.345 35.219.045.088.086.179.131.268-8.371-3.412-17.514-5.308-27.096-5.308-28.038 0-52.368 16.111-64.263 39.55l-24.292-42.07c-2.071-3.588-6.658-4.815-10.246-2.745-3.587 2.071-4.816 6.658-2.745 10.245l30.829 53.392c-.852 4.422-1.314 8.981-1.314 13.648 0 7.972 1.338 15.888 3.903 23.38h-91.255c-5.794-16.07-5.027-33.863 2.312-49.546 2.927-6.291 1.618-13.805-3.261-18.701-4.405-4.414-8.231-9.411-11.374-14.852-9.166-15.879-11.919-34.451-7.752-52.297.942-4.033-1.565-8.066-5.598-9.009-4.038-.943-8.067 1.565-9.009 5.599-5.036 21.568-1.709 44.016 9.369 63.207 3.795 6.571 8.42 12.609 13.742 17.943.46.462.571 1.161.29 1.767-8.558 18.288-9.862 38.942-3.884 57.908-12.71 4.663-21.803 16.889-21.803 31.205 0 17.312 13.317 31.565 30.243 33.073v58.557c0 78.462 63.833 142.295 142.295 142.295h166.923c78.462 0 142.295-63.833 142.295-142.295v-58.557c16.927-1.508 30.243-15.762 30.243-33.086.001-18.313-14.898-33.212-33.212-33.212zm-48.085-119.565c21.978-6.718 45.417-5.011 66.09 4.797l-66.262 114.768h-59.403c2.565-7.492 3.903-15.408 3.903-23.38 0-10.778-2.396-21.001-6.659-30.191 2.064-8.42 5.309-16.525 9.694-24.119 11.661-20.193 30.355-35.064 52.637-41.875zm-227.068-11.577c.688-2.175 1.499-4.313 2.453-6.39 8.079-17.61 24.375-29.618 43.586-32.121 6.408-.829 11.663-5.627 13.075-11.934 1.521-6.769 4.173-13.231 7.882-19.205 16.311-26.27 50.618-36.428 78.663-23.26 15.433 7.246 26.927 20.105 32.364 36.21 5.442 16.117 4.111 33.296-3.747 48.372-2.497 4.786-5.599 9.215-9.225 13.168-4.352 4.757-5.266 11.803-2.277 17.526 2.291 4.396 3.968 9.053 5.022 13.876-2.273 3.108-4.407 6.336-6.355 9.709-2.822 4.888-5.241 9.96-7.249 15.177-13.628-16.013-34.278-26.005-56.812-25.356l17.685-33.902c1.916-3.673.492-8.202-3.181-10.118-3.675-1.917-8.202-.492-10.118 3.181l-22.834 43.772c-12.6 3.728-24.012 10.857-32.932 20.7-1.896-2.085-3.899-4.072-6.024-5.924-1.449-6.795-3.778-13.356-6.945-19.537-7.524-14.696-19.082-26.379-33.031-33.944zm-7.284 50.742c31.446 0 57.03 25.579 57.03 57.02 0 8.076-1.739 16.071-5.023 23.38h-104.013c-3.285-7.31-5.024-15.304-5.024-23.38 0-31.441 25.583-57.02 57.03-57.02zm270.407 205.255c0 70.19-57.104 127.295-127.295 127.295h-166.923c-70.191 0-127.295-57.104-127.295-127.295v-58.417h421.514v58.417zm12.03-73.417h-445.574c-10.042 0-18.213-8.17-18.213-18.226 0-10.043 8.17-18.213 18.213-18.213h256.339c4.143 0 7.5-3.357 7.5-7.5s-3.357-7.5-7.5-7.5h-25.075c2.565-7.491 3.903-15.407 3.903-23.38 0-13.075-3.526-25.33-9.647-35.907 10.786-13.289 26.996-21.113 44.267-21.113 31.446 0 57.03 25.579 57.03 57.02 0 8.075-1.739 16.07-5.024 23.38h-30.454c-4.143 0-7.5 3.357-7.5 7.5s3.357 7.5 7.5 7.5h154.235c10.043 0 18.213 8.17 18.213 18.226 0 10.043-8.17 18.213-18.213 18.213zm-151.468-107.105c-2.094-3.573-6.688-4.774-10.262-2.683-3.092 1.81-8.097 3.978-14.578 3.821-5.989-.112-10.666-2.14-13.535-3.819-3.573-2.094-8.168-.895-10.263 2.68-2.094 3.573-.894 8.168 2.681 10.263 4.411 2.584 11.607 5.701 20.836 5.875 9.43.178 17.775-3.143 22.438-5.874 3.575-2.094 4.776-6.688 2.683-10.263zm-152.607 10.26c4.411 2.585 11.606 5.702 20.836 5.876 9.431.178 17.774-3.144 22.438-5.875 3.574-2.093 4.775-6.688 2.682-10.262-2.093-3.575-6.69-4.778-10.262-2.682-3.09 1.811-8.128 3.971-14.577 3.82-5.99-.112-10.666-2.139-13.534-3.819-3.574-2.095-8.169-.895-10.263 2.679-2.094 3.575-.895 8.17 2.68 10.263z"/></g></svg>