<svg id="Capa_1" enable-background="new 0 0 511.926 511.926" height="512" viewBox="0 0 511.926 511.926" width="512" xmlns="http://www.w3.org/2000/svg"><g><g><g><g><path d="m493.331 79.157-77.145-13.844 55.976-55.176c5.045-4.973 13.532-2.809 15.614 3.98l16.225 52.9c2.082 6.789-3.717 13.388-10.67 12.14z" fill="#f6b2bb"/><path d="m498.376 48.675c-1.528.595-3.245.806-5.044.483l-51.398-9.224-25.748 25.38 77.145 13.844c6.952 1.248 12.752-5.352 10.67-12.141z" fill="#f8a6af"/><path d="m78.625 493.323-13.192-77.714-55.254 55.909c-4.98 5.039-2.892 13.593 3.841 15.738l52.46 16.712c6.732 2.144 13.334-3.642 12.145-10.645z" fill="#f6b2bb"/><path d="m78.625 493.323-13.192-77.714-25.603 25.906 8.795 51.808c.291 1.714.11 3.353-.42 4.823l18.275 5.822c6.732 2.145 13.334-3.642 12.145-10.645z" fill="#f8a6af"/><g><path d="m432.764 122.785c-147.684 49.928-259.618 161.715-310.33 309.925-8.022 23.445-33.524 32.434-58.328 22.512-27.334-10.933-43.076-41.766-34.421-67.043 11.549-33.729 25.834-65.829 42.632-96.078.813-1.464 5.632-3.247 6.457-4.703 1.649-2.909-.679-5.478 1.016-8.352 24.863-42.152 54.719-80.51 88.93-114.438 1.727-1.713 6.233-1.427 7.983-3.118 1.848-1.786.941-5.546 2.814-7.307 35.042-32.939 74.356-61.398 117.307-84.742 2.286-1.242 7.367 1.292 9.674.079 2.124-1.117 1.472-5.985 3.614-7.078 25.21-12.863 51.609-24.002 79.076-33.295 25.188-8.522 55.718 7.543 66.383 35.122 9.647 24.951.467 50.647-22.807 58.516z" fill="#f58a97"/></g><path d="m455.569 64.27c-2.781-7.192-6.922-13.59-11.957-18.984 3.584 21.118-6.003 40.79-25.848 47.499-147.684 49.928-259.617 161.715-310.33 309.925-8.022 23.445-33.524 32.434-58.328 22.512-8.216-3.286-15.375-8.38-21.149-14.571 3.042 18.824 16.638 36.767 36.149 44.571 24.804 9.921 50.306.933 58.328-22.512 50.713-148.21 162.646-259.997 310.33-309.925 23.274-7.869 32.454-33.565 22.805-58.515z" fill="#f07281"/></g></g></g><path d="m511.172 64.822-16.224-52.907c-3.595-12.038-19.286-15.902-28.052-7.116l-27.336 26.943c-15.472-11.312-35.173-15.657-52.778-9.699-48.086 16.27-93.547 38.378-135.119 65.713-3.461 2.275-4.422 6.926-2.146 10.387 2.275 3.462 6.927 4.422 10.387 2.146 12.926-8.499 26.243-16.474 39.903-23.918l18.175 42.229c1.653 3.851 6.124 5.528 9.854 3.924 3.805-1.637 5.562-6.049 3.924-9.854l-18.644-43.318c25.143-12.853 51.375-23.933 78.474-33.101 22.392-7.576 48.568 8.954 56.985 30.723 7.617 19.699 1.972 41.882-18.212 48.706-106.993 36.171-195.947 104.211-257.245 196.764-2.287 3.454-1.342 8.107 2.111 10.395 3.418 2.264 8.086 1.374 10.395-2.111 59.442-89.752 145.733-155.742 249.544-190.838 20.383-6.891 32.416-26.655 31.625-47.876l25.221 4.531c12.073 2.256 22.906-9.889 19.158-21.723zm-16.515 6.957-30.482-5.476c-.477-1.587-1.003-3.169-1.61-4.739-2.844-7.353-6.953-13.966-11.935-19.671l26.797-26.412c1.171-1.079 2.677-.651 3.183.838l16.221 52.898c.436 1.605-.645 2.782-2.174 2.562zm-330.002 268.333c-3.609-2.038-8.183-.764-10.219 2.844-15.53 27.51-28.686 56.892-39.099 87.327-6.875 20.095-29.055 25.732-48.447 17.976-23.357-9.342-37.428-36.281-30.11-57.649 11.428-33.375 25.655-65.263 42.446-95.396l38.641 17.181c3.703 1.649 8.196.026 9.9-3.807 1.683-3.784-.021-8.217-3.807-9.9l-37.222-16.55c24.362-41.132 53.639-78.776 87.276-112.165l32.057 32.49c2.91 2.949 7.659 2.98 10.606.071 2.948-2.909 2.98-7.658.071-10.606l-31.947-32.378c14.733-13.851 30.238-26.926 46.492-39.139 3.312-2.488 3.979-7.189 1.491-10.501s-7.191-3.979-10.501-1.491c-92.385 69.46-162.222 167.891-199.694 277.331-6.045 17.656-1.855 37.499 9.296 53.136l-27.039 27.363c-8.764 8.673-5.15 24.432 6.897 28.147l52.464 16.722c11.692 3.829 24.001-6.814 21.809-19.051l-4.305-25.384c21.071.967 40.836-11.135 47.819-31.544 10.116-29.565 22.892-58.099 37.97-84.808 2.035-3.607.762-8.183-2.845-10.219zm-95.897 156.713-52.465-16.722c-1.468-.521-1.911-2.087-.777-3.312l26.392-26.708c5.622 5.031 12.147 9.196 19.413 12.103 1.561.625 3.128 1.168 4.695 1.665l5.211 30.725c.226 1.651-.976 2.665-2.469 2.249z"/></g></svg>