<svg id="Capa_1" enable-background="new 0 0 512 512" height="512" viewBox="0 0 512 512" width="512" xmlns="http://www.w3.org/2000/svg"><g><g><path d="m410.273 211.135-94.25 44.865h-.023c0 33.137-26.863 60-60 60s-60-26.863-60-60l-94.25-44.865-94.25 44.865c0 137.243 111.257 248.5 248.5 248.5s248.5-111.257 248.5-248.5c0-.004 0-.007 0-.011z" fill="#ffca8a"/></g><g><path d="m256 7.5c-137.243 0-248.5 111.257-248.5 248.5v89.679c0 17.351 14.066 31.417 31.417 31.417 17.351 0 31.417-14.066 31.417-31.417v-20.37c0-17.351 14.066-31.417 31.417-31.417 17.351 0 31.417 14.066 31.417 31.417v66.786c0 17.351 14.066 31.417 31.417 31.417 17.351 0 31.417-14.066 31.417-31.417v-136.095c0-33.137 26.863-60 60-60s60 26.863 60 60v75.668c0 17.351 14.066 31.417 31.417 31.417 17.351 0 31.417-14.066 31.417-31.417v-69.117c0-17.351 14.066-31.417 31.417-31.417s31.417 14.066 31.417 31.417v123.127c0 17.351 14.066 31.417 31.417 31.417 17.351 0 31.417-14.066 31.417-31.417v-129.678c-.004-137.243-111.261-248.5-248.504-248.5z" fill="#e7886e"/></g><g><path d="m253.566 504.469c-50.928-1.291-91.816-42.98-91.816-94.219 0-52.053 42.197-94.25 94.25-94.25-33.137 0-60-26.863-60-60l-94.25-44.865-94.25 44.865c0 136.429 109.947 247.161 246.066 248.469z" fill="#ffbe73"/></g><g><g><path d="m256 7.5c-.095 0-.189.003-.284.004.095-.001.189-.004.284-.004z" fill="#c47b46"/></g><g><path d="m161.75 101.75c0-51.239 40.888-92.928 91.816-94.219-136.119 1.308-246.066 112.04-246.066 248.469v89.679c0 17.351 14.066 31.417 31.417 31.417 17.351 0 31.417-14.066 31.417-31.417v-20.37c0-17.351 14.066-31.417 31.417-31.417 17.351 0 31.417 14.066 31.417 31.417v66.786c0 17.351 14.066 31.417 31.417 31.417 17.351 0 31.417-14.066 31.417-31.417v-136.095c0-33.137 26.863-60 60-60-52.055 0-94.252-42.197-94.252-94.25z" fill="#e27858"/></g></g><g><circle cx="252.17" cy="394.5" fill="#ffbe73" r="20"/></g><g><circle cx="310.085" cy="434.5" fill="#ffbe73" r="15"/></g><g><circle cx="100.404" cy="368.176" fill="#efa65e" r="10"/></g><g><circle cx="403.936" cy="378.176" fill="#ffbe73" r="10"/></g><g><g><g><ellipse cx="176.355" cy="128.034" fill="#fff" rx="29.387" ry="23.403"/></g><g><ellipse cx="335.645" cy="128.034" fill="#fff" rx="29.387" ry="23.403"/></g><g><path d="m279.694 110.053c0-14.643-10.608-16.019-23.693-16.019-13.086 0-23.694 1.376-23.694 16.019s10.608 26.513 23.694 26.513c13.085 0 23.693-11.87 23.693-26.513z" fill="#5c586f"/></g></g><g><path d="m181.268 107.594c-4.142 0-7.5-3.358-7.5-7.5v-12c0-4.142 3.358-7.5 7.5-7.5s7.5 3.358 7.5 7.5v12c0 4.142-3.358 7.5-7.5 7.5z"/></g><g><path d="m256 144.065c-17.2 0-31.193-15.258-31.193-34.013 0-23.519 21.859-23.519 31.193-23.519s31.193 0 31.193 23.519c0 18.756-13.993 34.013-31.193 34.013zm0-42.531c-15.539 0-16.193 2.611-16.193 8.519 0 10.484 7.264 19.013 16.193 19.013s16.193-8.529 16.193-19.013c0-5.907-.655-8.519-16.193-8.519z"/></g><g><path d="m330.732 107.594c-4.143 0-7.5-3.358-7.5-7.5v-12c0-4.142 3.357-7.5 7.5-7.5s7.5 3.358 7.5 7.5v12c0 4.142-3.357 7.5-7.5 7.5z"/></g></g><path d="m437.02 74.98c-48.352-48.352-112.64-74.98-181.02-74.98s-132.667 26.628-181.02 74.98c-48.351 48.353-74.98 112.64-74.98 181.02v89.68c0 19.954 15.099 36.44 34.47 38.655 8.556 14.736 18.598 28.671 29.924 41.444 1.482 1.671 3.543 2.524 5.614 2.524 1.769 0 3.545-.623 4.973-1.889 3.099-2.748 3.384-7.488.635-10.587-9.147-10.316-17.401-21.439-24.653-33.148 15.579-5.085 26.87-19.745 26.87-36.999v-20.37c0-13.188 10.729-23.917 23.917-23.917 13.187 0 23.917 10.729 23.917 23.917v66.786c0 21.458 17.458 38.917 38.917 38.917 21.458 0 38.917-17.458 38.917-38.917v-93.735c12.383 15.319 31.312 25.139 52.499 25.139s40.116-9.82 52.5-25.139v33.307c0 21.458 17.458 38.917 38.917 38.917 21.458 0 38.916-17.458 38.916-38.917v-69.117c0-13.188 10.729-23.917 23.917-23.917s23.917 10.729 23.917 23.917v39.117c0 4.142 3.357 7.5 7.5 7.5s7.5-3.358 7.5-7.5v-39.117c0-21.458-17.458-38.917-38.917-38.917s-38.917 17.458-38.917 38.917v69.117c0 13.188-10.729 23.917-23.916 23.917s-23.917-10.729-23.917-23.917v-75.668c0-37.22-30.28-67.5-67.5-67.5s-67.5 30.28-67.5 67.5v136.096c0 13.188-10.729 23.917-23.917 23.917s-23.917-10.729-23.917-23.917v-66.786c0-21.458-17.458-38.917-38.917-38.917s-38.917 17.458-38.917 38.917v20.37c0 13.188-10.729 23.917-23.917 23.917-13.186-.001-23.915-10.73-23.915-23.918v-89.679c0-132.888 108.112-241 241-241s241 108.112 241 241v129.68c0 13.188-10.729 23.917-23.917 23.917s-23.916-10.729-23.916-23.917v-54.011c0-4.142-3.357-7.5-7.5-7.5s-7.5 3.358-7.5 7.5v54.011c0 8.812 2.948 16.945 7.904 23.476-46.014 55.898-113.489 87.844-186.071 87.844-59.001 0-115.776-21.541-159.867-60.653-3.099-2.75-7.838-2.464-10.587.633-2.749 3.099-2.465 7.839.633 10.587 46.838 41.551 107.148 64.433 169.821 64.433 40.015 0 78.341-8.976 113.912-26.679 31.872-15.861 60.564-38.657 83.36-66.164 5.807 3.45 12.58 5.439 19.811 5.439 21.459 0 38.917-17.458 38.917-38.917v-129.679c0-68.38-26.629-132.667-74.98-181.02zm-181.02 128.52c28.948 0 52.5 23.551 52.5 52.5s-23.552 52.5-52.5 52.5c-28.949 0-52.5-23.551-52.5-52.5s23.551-52.5 52.5-52.5z"/></g></svg>